<?xml version="1.0" encoding="utf-8"?>
<!-- Generator: Adobe Illustrator 24.1.2, SVG Export Plug-In . SVG Version: 6.00 Build 0)  -->
<svg version="1.1" id="Calque_1" xmlns="http://www.w3.org/2000/svg" xmlns:xlink="http://www.w3.org/1999/xlink" x="0px" y="0px"
	 viewBox="0 0 2560 1440" style="enable-background:new 0 0 2560 1440;" xml:space="preserve">
<style type="text/css">
	.st0{fill:url(#SVGID_1_);}
	.st1{fill:url(#SVGID_2_);}
	.st2{fill:url(#SVGID_3_);}
	.st3{fill:url(#SVGID_4_);}
	.st4{fill:url(#SVGID_5_);}
	.st5{fill:url(#SVGID_6_);}
	.st6{fill:url(#SVGID_7_);}
	.st7{fill:url(#SVGID_8_);}
	.st8{fill:url(#SVGID_9_);}
	.st9{fill:#132154;}
	.st10{fill:url(#SVGID_10_);}
	.st11{fill:url(#SVGID_11_);}
	.st12{fill:url(#SVGID_12_);}
	.st13{fill:url(#SVGID_13_);}
	.st14{fill:url(#SVGID_14_);}
	.st15{fill:url(#SVGID_15_);}
	.st16{fill:url(#SVGID_16_);}
	.st17{fill:url(#SVGID_17_);}
	.st18{fill:url(#SVGID_18_);}
	.st19{fill:url(#SVGID_19_);}
	.st20{fill:url(#SVGID_20_);}
	.st21{fill:url(#SVGID_21_);}
	.st22{fill:url(#SVGID_22_);}
</style>
<g>
	<linearGradient id="SVGID_1_" gradientUnits="userSpaceOnUse" x1="1124.9127" y1="1664.3604" x2="2942.009" y2="-253.6887">
		<stop  offset="0" style="stop-color:#30FBB2"/>
		<stop  offset="0.2601" style="stop-color:#C7FFDC"/>
		<stop  offset="0.3712" style="stop-color:#CDFFD1"/>
		<stop  offset="0.4722" style="stop-color:#B3FFD1"/>
		<stop  offset="0.7146" style="stop-color:#97FFD1"/>
		<stop  offset="1" style="stop-color:#C5FFE8"/>
	</linearGradient>
	<path class="st0" d="M1548.81,1426.75c-14.44,0-29-0.92-43.08-1.81c-1.97-0.13-3.6-0.14-5.04-0.16l-0.12,0
		c-3.31-0.04-5.5-0.06-9.06-1.23l-29.13-44.26c-1.22-1.86-2.59-3.93-4.92-4.38c-0.28-0.05-0.56-0.08-0.85-0.08
		c-1.03,0-2.03,0.34-2.98,1.01l-58,40.88c-0.85,0.6-1.65,1.16-2.37,1.31c-0.19,0.04-0.41,0.06-0.66,0.06c-0.6,0-1.31-0.12-2.05-0.25
		c-7.8-1.31-15.74-2.13-23.62-2.43l15.56-45.94c1.82-5.36,1.27-9.19-1.64-11.39c-12.7-9.61-17.9-24.98-23.41-41.25l-0.08-0.23
		c-1.73-5.09-3.51-10.35-5.54-15.35c-0.04-0.1-0.13-0.16-0.23-0.16c-0.03,0-0.06,0.01-0.09,0.02l-0.15,0.06
		c-0.32-1.71-0.69-3.49-1.12-5.42c-1.2-5.46-2.33-10.59-2.08-15.74c3.59-73.66,5.04-148.76,4.29-223.2
		c22.65,7.58,45.42,14.5,67.68,20.59c6.21,1.7,12.17,2.56,17.74,2.56c5.75,0,11.12-0.87,16.43-2.65
		c8.36-2.81,16.04-7.21,23.48-11.46c2.56-1.46,4.83-2.76,7.12-4.01c9.95-5.44,20.62-10.18,30.94-14.76
		c19.32-8.57,39.29-17.44,55.74-31.41c14.69-12.48,20-30.94,25.14-48.79c1.13-3.92,2.27-7.71,3.4-11.26l251.22,305.41
		c0.57,0.68,0.83,1.18,0.98,1.44c0.02,0.03,0.03,0.06,0.05,0.08c-0.3,0.43-0.83,1.25-0.91,2.24l-163.38,98.14
		c-12.14,7.29-23.34,15.71-34.18,23.85c-24.12,18.12-46.91,35.23-77.13,38.56C1568.19,1426.29,1559.05,1426.75,1548.81,1426.75
		C1548.81,1426.75,1548.81,1426.75,1548.81,1426.75z"/>
	<path d="M1600.21,956.14l250.93,305.05c0.51,0.62,0.78,1.08,0.92,1.35c-0.31,0.45-0.75,1.2-0.85,2.1l-163.28,98.08
		c-12.15,7.3-23.36,15.72-34.2,23.86c-24.09,18.09-46.85,35.19-77,38.51c-8.55,0.94-17.69,1.4-27.92,1.4
		c-14.43,0-28.99-0.92-43.11-1.81c-1.95-0.13-3.6-0.14-5.05-0.15l-0.07,0c-3.26-0.04-5.43-0.06-8.9-1.19l-29.09-44.21
		c-1.23-1.87-2.63-4-5.07-4.46c-0.29-0.06-0.59-0.08-0.89-0.08c-1.08,0-2.13,0.36-3.12,1.06l-58,40.88
		c-0.83,0.58-1.61,1.13-2.27,1.27c-0.17,0.04-0.37,0.06-0.61,0.06c-0.58,0-1.28-0.12-2.03-0.25c-7.68-1.29-15.51-2.1-23.3-2.42
		l15.45-45.62c1.86-5.47,1.28-9.4-1.72-11.67c-12.64-9.57-17.83-24.9-23.33-41.16l-0.09-0.25c-1.72-5.08-3.5-10.33-5.53-15.33
		c-0.05-0.12-0.15-0.22-0.27-0.27c-0.06-0.03-0.13-0.04-0.19-0.04c-0.02,0-0.03,0-0.05,0c-0.31-1.63-0.66-3.33-1.07-5.18
		c-1.19-5.41-2.31-10.53-2.06-15.64c3.59-73.57,5.03-148.54,4.3-222.86c22.55,7.54,45.21,14.43,67.36,20.48
		c6.23,1.7,12.22,2.57,17.8,2.57c5.78,0,11.17-0.87,16.51-2.67c8.38-2.81,16.07-7.22,23.52-11.48c0,0,0.04-0.02,0.04-0.02
		c2.16-1.24,4.62-2.65,7.07-3.99c9.94-5.44,20.61-10.17,30.92-14.75c19.33-8.58,39.32-17.45,55.8-31.45
		c14.74-12.52,20.07-31.02,25.22-48.92C1598.04,963.2,1599.13,959.57,1600.21,956.14 M1600.01,955.12
		c-1.23,3.88-2.41,7.78-3.54,11.71c-5.13,17.82-10.44,36.25-25.06,48.67c-16.42,13.95-36.38,22.81-55.68,31.37
		c-10.32,4.58-21,9.32-30.96,14.77c-2.38,1.3-4.73,2.64-7.08,3.99c-7.43,4.25-15.12,8.66-23.47,11.46
		c-5.23,1.76-10.65,2.64-16.35,2.64c-5.6,0-11.46-0.85-17.67-2.55c-22.75-6.22-45.59-13.19-68-20.7
		c0.75,74.22-0.68,149.4-4.29,223.53c-0.25,5.19,0.88,10.35,2.08,15.81c0.42,1.9,0.81,3.81,1.17,5.71l0.43-0.17
		c2.05,5.07,3.85,10.4,5.6,15.55c5.52,16.32,10.74,31.73,23.51,41.39c2.81,2.13,3.33,5.86,1.55,11.11l-15.66,46.25
		c8,0.29,16.02,1.11,23.91,2.44c0.77,0.13,1.49,0.25,2.12,0.25c0.26,0,0.5-0.02,0.72-0.07c0.76-0.17,1.59-0.74,2.46-1.35l58-40.88
		c1.06-0.75,2.05-0.96,2.83-0.96c0.3,0,0.57,0.03,0.8,0.07c2.24,0.43,3.58,2.47,4.76,4.27l29.17,44.33c3.65,1.2,5.92,1.23,9.24,1.27
		c1.48,0.01,3.12,0.03,5.08,0.15c14.19,0.9,28.68,1.81,43.14,1.81c9.36,0,18.72-0.38,27.98-1.4c30.28-3.34,53.1-20.47,77.25-38.6
		c10.84-8.14,22.04-16.55,34.16-23.83l163.5-98.21c0.04-1.09,0.71-2.01,0.98-2.39c-0.01,0-0.01,0-0.01,0
		c-0.07,0-0.27-0.64-1.14-1.68L1600.01,955.12L1600.01,955.12z"/>
</g>
<g>
	<linearGradient id="SVGID_2_" gradientUnits="userSpaceOnUse" x1="847.8337" y1="1390.082" x2="2647.0964" y2="-509.1426">
		<stop  offset="0" style="stop-color:#30FBB2"/>
		<stop  offset="0.2601" style="stop-color:#C7FFDC"/>
		<stop  offset="0.3712" style="stop-color:#CDFFD1"/>
		<stop  offset="0.4722" style="stop-color:#B3FFD1"/>
		<stop  offset="0.7146" style="stop-color:#97FFD1"/>
		<stop  offset="1" style="stop-color:#C5FFE8"/>
	</linearGradient>
	<path class="st1" d="M1467.18,829.53c-11.64-5.08-23.49-10.43-35.22-15.91c-9.89-4.61-19.48-9.24-28.12-15.13
		c-2.83-1.93-5.74-4.16-8.88-6.81c-0.03-0.05-0.07-0.11-0.1-0.13l-0.02-0.01c3.93-8.41,7.13-17.21,9.49-26.16
		c0.01-0.02,0.01-0.05,0.01-0.07c14.89,5.07,29.46,11.37,43.31,18.74c5.1,2.71,10.27,5.76,12.63,10.61
		c1.09,2.23,1.56,4.89,2.02,7.45L1467.18,829.53z M1390.53,787.79c-5.14-4.72-9.37-9.25-12.03-12.23c-0.97-1.08-2.28-2.44-3.55-3.75
		c-4.47-4.61-11.85-12.23-13.11-17.5c0.4-0.02,0.8-0.02,1.21-0.02c10.47,0,24.3,4.97,34.41,8.6l0.6,0.21
		c1.39,0.5,2.75,0.98,4.05,1.44l-2.73-0.72c-0.02-0.01-0.04-0.01-0.06-0.01c-0.04,0-0.09,0.01-0.13,0.03
		c-0.06,0.03-0.1,0.09-0.12,0.15C1396.96,771.97,1394.09,779.97,1390.53,787.79z"/>
	<path d="M1363.05,754.53c10.42,0,24.24,4.96,34.32,8.59l0.44,0.16c0.39,0.14,0.78,0.28,1.16,0.42c-0.07,0.06-0.12,0.15-0.14,0.24
		c-2.08,7.86-4.9,15.74-8.38,23.44c-5.01-4.62-9.14-9.04-11.76-11.98c-0.92-1.03-2.11-2.26-3.59-3.79
		c-4.34-4.48-11.5-11.87-12.94-17.06C1362.45,754.54,1362.75,754.53,1363.05,754.53 M1404.53,765.64
		c14.78,5.05,29.25,11.32,43.01,18.64c5.06,2.69,10.19,5.72,12.52,10.5c1.07,2.2,1.54,4.83,2,7.37l0.02,0.08l4.78,26.88
		c-11.51-5.03-23.2-10.32-34.78-15.72c-9.88-4.6-19.45-9.23-28.08-15.11c-2.81-1.92-5.69-4.12-8.79-6.74
		c-0.01-0.03-0.03-0.05-0.05-0.07C1399.02,783.17,1402.18,774.48,1404.53,765.64 M1363.05,754.03c-0.51,0-1.02,0.01-1.51,0.04
		c1.07,5.37,8.56,13.08,13.23,17.91c1.38,1.42,2.61,2.69,3.55,3.75c3.22,3.61,7.45,8.04,12.3,12.48c3.57-7.8,6.51-15.9,8.69-24.15
		l4.79,1.27c-2.38,9-5.6,17.85-9.57,26.32c0.03,0.02,0.05,0.04,0.08,0.06l0.15,0.08c0.01,0.02,0.01,0.04,0.01,0.06
		c2.84,2.4,5.83,4.73,8.94,6.86c8.65,5.9,18.26,10.53,28.16,15.15c11.76,5.49,23.73,10.89,35.65,16.1l-4.94-27.8
		c-0.47-2.61-0.95-5.3-2.06-7.59c-2.39-4.91-7.6-7.99-12.74-10.72c-13.89-7.39-28.52-13.72-43.47-18.8
		c-2.11-0.72-4.38-1.54-6.77-2.39C1386.68,758.75,1373.4,754.03,1363.05,754.03L1363.05,754.03z"/>
</g>
<g>
	<linearGradient id="SVGID_3_" gradientUnits="userSpaceOnUse" x1="924.9958" y1="1455.6707" x2="2713.5171" y2="-432.2158">
		<stop  offset="0" style="stop-color:#30FBB2"/>
		<stop  offset="0.2601" style="stop-color:#C7FFDC"/>
		<stop  offset="0.3712" style="stop-color:#CDFFD1"/>
		<stop  offset="0.4722" style="stop-color:#B3FFD1"/>
		<stop  offset="0.7146" style="stop-color:#97FFD1"/>
		<stop  offset="1" style="stop-color:#C5FFE8"/>
	</linearGradient>
	<path class="st2" d="M1540.78,859.49c-9.52-6.92-19.98-12.38-30.09-17.66l-23.4-12.21c-0.55-0.29-1.29-0.68-1.51-1.01
		c-0.23-0.33-0.3-1.17-0.35-1.79c-0.43-5.32-1.31-16.27,1.03-17.53c0.05-0.03,0.23-0.11,0.62-0.11c1.11,0,3.85,0.69,9.75,5.32
		c13.24,10.38,28.09,18.21,44.14,23.28C1541.76,844.99,1541.7,852.29,1540.78,859.49z"/>
	<path d="M1487.07,809.44c1.08,0,3.75,0.68,9.6,5.26c13.22,10.36,28.05,18.19,44.06,23.27c0.77,7,0.72,14.08-0.15,21.07
		c-9.44-6.81-19.78-12.21-29.78-17.43l-23.41-12.22c-0.46-0.24-1.23-0.64-1.41-0.92c-0.19-0.28-0.26-1.11-0.3-1.67l-0.5,0.04
		l0.49-0.11c-0.38-4.8-1.28-16.03,0.91-17.21C1486.58,809.51,1486.72,809.44,1487.07,809.44 M1487.07,808.94
		c-0.42,0-0.64,0.09-0.74,0.14c-2.48,1.33-1.62,12-1.16,17.73c0.06,0.69,0.13,1.55,0.39,1.94c0.26,0.38,1.01,0.77,1.6,1.09
		l23.4,12.21c10.26,5.36,20.82,10.88,30.4,17.89c0.99-7.42,1.06-14.92,0.22-22.35c-16.08-5.06-30.94-12.88-44.22-23.28
		C1491.09,809.7,1488.28,808.94,1487.07,808.94L1487.07,808.94z"/>
</g>
<g id="_x31_1_A">
	<linearGradient id="SVGID_4_" gradientUnits="userSpaceOnUse" x1="1004.5656" y1="1547.0508" x2="2818.9346" y2="-368.1195">
		<stop  offset="0" style="stop-color:#30FBB2"/>
		<stop  offset="0.2601" style="stop-color:#C7FFDC"/>
		<stop  offset="0.3712" style="stop-color:#CDFFD1"/>
		<stop  offset="0.4722" style="stop-color:#B3FFD1"/>
		<stop  offset="0.7146" style="stop-color:#97FFD1"/>
		<stop  offset="1" style="stop-color:#C5FFE8"/>
	</linearGradient>
	<path class="st3" d="M1964.47,892.06c-55.25-25.44-117.37-30.53-171.29-33.31l-2.13-0.11c-16.68-0.85-33.93-1.73-49.92-6.68
		c-7.77-2.41-15.86-5.94-25.44-11.12c-11.72-6.34-23.01-13.66-33.55-21.76l-2.36-1.83c-5.9-4.58-11.99-9.31-19.23-12.02
		c-3.55-1.32-7.19-1.99-10.82-1.99c-3.95,0-7.73,0.83-10.95,2.39l-3.42-38.38l1.17-4.39c0.02-0.06,0.01-0.13-0.03-0.19
		c-0.03-0.06-0.09-0.1-0.15-0.12l-1.44-0.38l-8.11-90.98c-1.03-11.62-2.1-23.64-4.88-35.34c-5.26-22.17-17.13-43.37-33.46-59.73
		l0.58-0.58c0.05-0.05,0.07-0.11,0.07-0.18c0-0.07-0.03-0.13-0.07-0.18c-0.38-0.38-0.79-0.72-1.18-1.05
		c-0.18-0.15-0.36-0.3-0.54-0.46l92.44-53.02c14.19-8.14,30.27-17.36,47.42-21.48c25.68,34.56,53.13,68.46,81.59,100.74l1.45,1.65
		c19.77,22.41,40.21,45.57,45.12,74.23c0.6,3.48,0.97,7.09,1.33,10.58c0.9,8.63,1.83,17.54,5.99,25.5
		c6.52,12.44,18.93,19.18,30.92,25.69c7.07,3.84,14.35,7.79,20.26,12.84c15.81,13.48,22.28,34.31,28.55,58.15l21.1,80.29
		C1963.74,889.73,1964.06,890.87,1964.47,892.06z"/>
	<path d="M1727.09,499.45c25.65,34.52,53.07,68.38,81.51,100.62l1.46,1.65c19.74,22.37,40.15,45.51,45.06,74.1
		c0.59,3.46,0.97,7.07,1.33,10.57c0.9,8.64,1.83,17.57,6.02,25.58c6.56,12.51,18.99,19.26,31.04,25.8
		c7.03,3.82,14.31,7.77,20.2,12.8c15.75,13.43,22.21,34.23,28.47,58.02l21.1,80.29c0.2,0.76,0.46,1.7,0.78,2.69
		c-55.16-25.25-117.08-30.32-170.85-33.09l-2.13-0.11c-16.66-0.85-33.9-1.73-49.86-6.67c-7.76-2.4-15.83-5.93-25.4-11.1
		c-11.71-6.33-22.99-13.65-33.52-21.74l-2.37-1.83c-5.91-4.59-12.01-9.34-19.29-12.06c-3.58-1.33-7.25-2.01-10.9-2.01
		c-3.86,0-7.55,0.78-10.74,2.26l-3.38-37.94l1.15-4.39c0.03-0.13,0.02-0.26-0.05-0.38c-0.07-0.11-0.18-0.2-0.3-0.23l-1.27-0.33
		l-8.09-90.8c-1.03-11.63-2.1-23.66-4.88-35.38c-5.25-22.14-17.08-43.31-33.35-59.67l0.41-0.41c0.09-0.09,0.15-0.22,0.15-0.35
		s-0.05-0.26-0.15-0.35c-0.39-0.39-0.8-0.73-1.2-1.06c-0.09-0.07-0.18-0.15-0.27-0.22l92.14-52.85
		C1694.02,512.76,1710.03,503.58,1727.09,499.45 M1727.44,498.85L1727.44,498.85L1727.44,498.85z M1727.44,498.85
		c-17.08,4.04-32.69,12.92-47.8,21.59l-92.75,53.2c0.65,0.59,1.35,1.1,1.97,1.72l-0.76,0.76c16.37,16.33,28.24,37.3,33.57,59.78
		c2.76,11.66,3.84,23.68,4.87,35.31l8.12,91.15c0.53,0.14,1.08,0.28,1.61,0.42l-1.17,4.47l3.45,38.75
		c3.28-1.66,7.12-2.53,11.17-2.53c3.5,0,7.15,0.65,10.73,1.98c7.21,2.7,13.28,7.42,19.16,11.99l2.36,1.83
		c10.56,8.11,21.86,15.43,33.59,21.78c9.6,5.19,17.7,8.73,25.49,11.14c16,4.96,33.28,5.84,49.98,6.69l2.13,0.11
		c54.42,2.8,116.67,8.03,171.74,33.54c-0.48-1.3-0.85-2.59-1.16-3.76l-21.1-80.29c-6.28-23.88-12.77-44.75-28.63-58.28
		c-5.94-5.07-13.24-9.03-20.31-12.87c-11.96-6.5-24.33-13.21-30.82-25.59c-4.15-7.93-5.07-16.82-5.96-25.41
		c-0.36-3.51-0.74-7.14-1.33-10.59c-4.93-28.74-25.39-51.93-45.18-74.36l-1.45-1.65c-28.49-32.3-55.96-66.22-81.64-100.8
		L1727.44,498.85L1727.44,498.85z"/>
</g>
<g>
	<linearGradient id="SVGID_5_" gradientUnits="userSpaceOnUse" x1="594.7958" y1="1159.1584" x2="2409.1631" y2="-756.0099">
		<stop  offset="0" style="stop-color:#30FBB2"/>
		<stop  offset="0.2601" style="stop-color:#C7FFDC"/>
		<stop  offset="0.3712" style="stop-color:#CDFFD1"/>
		<stop  offset="0.4722" style="stop-color:#B3FFD1"/>
		<stop  offset="0.7146" style="stop-color:#97FFD1"/>
		<stop  offset="1" style="stop-color:#C5FFE8"/>
	</linearGradient>
	<path class="st4" d="M1172.1,534.51c6.31-15.81,12.14-31.3,17.35-46.03c1.98-5.62,4.45-12.61,5.27-19.75
		c1.16-10.05-0.87-19.99-2.83-29.6c-0.67-3.29-1.36-6.67-1.92-10.07c-3.87-23.61-1-47.88,1.77-71.36l6.07-51.41
		c0.03-0.01,0.06-0.02,0.09-0.03c2.29-0.25,4.68-0.38,7.08-0.38c16.1,0,32.54,5.76,45.06,10.79c3.04,1.22,6.07,2.48,9.12,3.74
		c17.08,7.07,34.74,14.39,53.56,15.11c1.05,0.04,2.09,0.06,3.14,0.06c18.32,0,35.99-6.01,53.08-11.83l0.19-0.07
		c4.05-1.38,8.25-2.8,12.36-4.12c15.52-4.95,31.62-8.83,49.21-11.87l-0.33,1.68c-0.03,0.14,0.06,0.27,0.2,0.29l0.08,0.02
		c-1.32,11.19-1.15,22.73-1,33.89l0,0.12c0.32,22.59,0.62,43.9-10.14,62.17c-1.29,2.19-2.77,4.39-4.2,6.51
		c-4.59,6.8-9.29,13.77-9.64,22.25c-0.19,4.84,1.1,9.39,2.35,13.79l0.15,0.52c0.22,0.79,0.45,1.58,0.66,2.37
		c5.71,21.4,2.79,45.27,0.41,64.5c-25.95-8.56-51.44-17.42-79.67-27.26c-0.03-0.01-0.05-0.01-0.08-0.01c-0.1,0-0.2,0.06-0.24,0.17
		l-0.25,0.72l-0.16-0.53c-0.03-0.11-0.13-0.18-0.24-0.18c-0.02,0-0.05,0-0.07,0.01L1172.1,534.51z"/>
	<path d="M1204.99,306.14c16.06,0,32.47,5.75,44.97,10.77c3.13,1.26,6.31,2.57,9.11,3.74c17.1,7.08,34.78,14.41,53.65,15.13
		c1.03,0.04,2.09,0.06,3.15,0.06c18.36,0,36.04-6.02,53.18-11.85l0.13-0.04c4.07-1.38,8.27-2.81,12.4-4.13
		c15.4-4.91,31.37-8.77,48.82-11.8l-0.26,1.32c-0.04,0.22,0.06,0.43,0.25,0.53c-1.29,11.14-1.13,22.62-0.97,33.72l0,0.14
		c0.32,22.53,0.62,43.81-10.11,62.01c-1.29,2.18-2.76,4.37-4.18,6.48l-0.05,0.07c-4.57,6.77-9.29,13.77-9.64,22.32
		c-0.19,4.88,1.11,9.45,2.36,13.87l0.15,0.53c0.22,0.79,0.44,1.57,0.65,2.36c5.66,21.24,2.82,44.94,0.44,64.1
		c-25.86-8.54-51.26-17.36-79.38-27.17c-0.05-0.02-0.11-0.03-0.16-0.03c-0.21,0-0.4,0.13-0.47,0.34l-0.01,0.04
		c-0.09-0.12-0.24-0.2-0.4-0.2c-0.05,0-0.09,0.01-0.14,0.02l-155.94,45.65c6.23-15.66,12.01-30.98,17.16-45.56
		c1.99-5.63,4.46-12.63,5.29-19.8c1.17-10.09-0.86-20.05-2.83-29.71c-0.67-3.26-1.36-6.64-1.91-10.03
		c-3.86-23.57-1-47.83,1.77-71.29l6.05-51.23C1200.29,306.26,1202.63,306.14,1204.99,306.14 M1204.99,305.64
		c-2.41,0-4.83,0.13-7.23,0.39l0.02,0.02l-0.18,0.02l-6.1,51.6c-2.77,23.49-5.64,47.78-1.77,71.43c0.55,3.35,1.23,6.7,1.91,10.05
		c1.96,9.6,3.99,19.53,2.83,29.56c-0.82,7.11-3.28,14.09-5.26,19.69c-5.51,15.58-11.38,31.08-17.53,46.49l156.92-45.94l0.37,1.28
		l0.51-1.46c26.32,9.18,53.01,18.47,79.96,27.36c2.55-20.57,5.26-43.73-0.38-64.9c-0.26-0.96-0.53-1.93-0.8-2.89
		c-1.25-4.39-2.53-8.92-2.34-13.71c0.34-8.41,5.03-15.35,9.56-22.06c1.47-2.18,2.94-4.36,4.25-6.58
		c10.8-18.33,10.5-39.68,10.18-62.3c-0.16-11.3-0.33-22.92,1.02-34.2l-0.3-0.06l0.41-2.04c-16.73,2.88-33.3,6.74-49.6,11.94
		c-4.18,1.33-8.35,2.75-12.54,4.18c-17.09,5.81-34.73,11.82-53.02,11.82c-1.04,0-2.08-0.02-3.13-0.06
		c-18.77-0.72-36.42-8.02-53.48-15.09c-3.04-1.26-6.08-2.52-9.12-3.74C1236.23,310.87,1220.57,305.64,1204.99,305.64L1204.99,305.64
		z"/>
</g>
<g>
	<linearGradient id="SVGID_6_" gradientUnits="userSpaceOnUse" x1="791.6932" y1="1347.5739" x2="2609.321" y2="-571.0362">
		<stop  offset="0" style="stop-color:#30FBB2"/>
		<stop  offset="0.2601" style="stop-color:#C7FFDC"/>
		<stop  offset="0.3712" style="stop-color:#CDFFD1"/>
		<stop  offset="0.4722" style="stop-color:#B3FFD1"/>
		<stop  offset="0.7146" style="stop-color:#97FFD1"/>
		<stop  offset="1" style="stop-color:#C5FFE8"/>
	</linearGradient>
	<path class="st5" d="M1736.83,496.81c-1.25,0-2.33-0.18-3.31-0.54c-0.88-0.33-1.76-0.87-2.82-1.74l-0.27-1.44
		c-0.01-0.06-0.05-0.12-0.1-0.16c-0.04-0.03-0.09-0.04-0.14-0.04c-0.02,0-0.03,0-0.05,0c-0.2,0.04-0.4,0.09-0.6,0.14
		c-0.13,0.03-0.25,0.06-0.38,0.09c-0.72-0.73-1.48-1.57-2.34-2.56l-53.92-62.75c-3.28-3.82-6.67-7.76-8.57-12.31
		c-2.38-5.72-2.41-12.52-2.43-18.53l-0.19-55.11c-0.04-9.86-0.09-22.1-6.42-31.8c-6.8-10.42-20.35-16.62-37.17-17.01
		c-0.74-0.02-1.48-0.03-2.23-0.03c-5.75,0-11.5,0.52-17.05,1.02l-0.13,0.01c-3.09,0.28-6.12,0.55-9.16,0.74
		c15.59-23.19,29.18-44.38,37.61-68.47c3.94-11.25,6.64-22.96,9.25-34.29c2.3-9.96,4.67-20.26,7.88-30.14
		c5.58-17.19,16.52-39.99,36.95-51l5.15-2.78c0.09-0.05,0.14-0.14,0.13-0.24s-0.08-0.18-0.17-0.21l-5.58-1.76
		c-16.32-5.14-21.79-25.61-21.51-41.57c0.09-5.35,0.58-10.85,1.05-16.17c0.98-10.99,1.99-22.34-0.34-33.4
		c11.39-0.52,22.94-0.79,34.35-0.79c38.69,0,77.54,3.02,115.48,8.97c35.45,5.56,75.58,14.76,104.44,40.89
		c31.02,28.09,47.27,73.69,49.65,139.42c0.17,4.72,0.29,9.53,0.41,14.19l0.03,1.21c0.52,21.68,1.05,44.1,6.47,65.55
		c7.76,30.7,25.28,54.23,48.06,64.57c8.08,3.67,16.74,5.68,25.11,7.63c7.03,1.64,14.28,3.32,20.97,5.95
		c12.67,4.98,26.03,16.66,25.55,30.56c-16.09,3.92-30.27,12.87-43.99,21.53c-11.16,7.04-22.68,14.32-35.03,18.72
		c-11.72,4.18-24.52,6.13-40.27,6.13c-10.62,0-21.56-0.85-34.71-2.14l-0.95-0.09c-7.65-0.75-15.56-1.53-23.53-1.53
		c-3.29,0-6.32,0.13-9.26,0.4c-22.34,2.03-42.69,12.38-62.38,22.39c-3.52,1.79-7.15,3.64-10.8,5.44
		c-27.38,13.49-56.24,24.22-85.78,31.87C1741.51,496.23,1739.08,496.81,1736.83,496.81z"/>
	<path d="M1694.33,14.21c38.67,0,77.51,3.02,115.44,8.96c35.41,5.55,75.5,14.75,104.31,40.83c30.97,28.04,47.19,73.59,49.57,139.25
		c0.18,4.77,0.29,9.64,0.41,14.35l0.03,1.05c0.52,21.69,1.05,44.13,6.48,65.6c7.78,30.77,25.34,54.36,48.2,64.73
		c8.11,3.68,16.77,5.69,25.17,7.65c7,1.63,14.24,3.31,20.92,5.94c12.53,4.93,25.74,16.43,25.4,30.13
		c-16.05,3.95-30.2,12.88-43.89,21.53c-11.13,7.03-22.65,14.29-34.96,18.69c-11.69,4.17-24.46,6.12-40.19,6.12
		c-10.61,0-21.54-0.85-34.69-2.14l-0.95-0.09c-7.66-0.75-15.57-1.53-23.56-1.53c-3.3,0-6.33,0.13-9.28,0.4
		c-22.39,2.03-42.76,12.4-62.48,22.42c-3.53,1.8-7.18,3.65-10.78,5.43c-27.36,13.49-56.2,24.2-85.73,31.86
		c-2.28,0.59-4.7,1.17-6.92,1.17c-1.22,0-2.27-0.17-3.22-0.52c-0.84-0.31-1.67-0.82-2.68-1.64l-0.26-1.35
		c-0.02-0.13-0.1-0.25-0.21-0.32c-0.08-0.06-0.18-0.09-0.28-0.09c-0.03,0-0.06,0-0.09,0.01c-0.21,0.04-0.41,0.09-0.62,0.14
		c-0.08,0.02-0.16,0.04-0.23,0.06c-0.68-0.7-1.4-1.49-2.23-2.45l-53.92-62.75c-3.26-3.8-6.64-7.73-8.53-12.25
		c-2.37-5.67-2.39-12.45-2.41-18.45l-0.19-55.11c-0.04-9.87-0.09-22.15-6.46-31.91c-6.85-10.49-20.47-16.73-37.37-17.13
		c-0.74-0.02-1.49-0.03-2.23-0.03c-5.76,0-11.52,0.52-17.08,1.03l-0.12,0.01c-2.91,0.26-5.77,0.52-8.64,0.71
		c15.48-23.04,28.96-44.14,37.35-68.1c3.94-11.27,6.65-22.98,9.26-34.31c2.29-9.96,4.67-20.26,7.87-30.12
		c5.56-17.14,16.47-39.88,36.83-50.86l5.15-2.78c0.18-0.1,0.28-0.29,0.26-0.49c-0.02-0.2-0.16-0.37-0.35-0.43l-5.58-1.76
		c-16.19-5.1-21.61-25.45-21.34-41.33c0.09-5.34,0.58-10.84,1.05-16.15c0.97-10.91,1.98-22.19-0.29-33.19
		C1671.58,14.47,1683.03,14.21,1694.33,14.21 M1694.33,13.71c-11.56,0-23.12,0.27-34.66,0.8c2.39,11.06,1.39,22.5,0.4,33.62
		c-0.47,5.33-0.96,10.85-1.05,16.19c-0.28,16.04,5.23,36.63,21.69,41.81l5.58,1.76l-5.15,2.78c-20.5,11.05-31.48,33.91-37.07,51.15
		c-3.2,9.85-5.58,20.18-7.88,30.16c-2.61,11.33-5.32,23.04-9.25,34.26c-8.76,25.02-23.39,47.32-37.86,68.83
		c3.24-0.2,6.48-0.48,9.67-0.77c5.6-0.51,11.37-1.03,17.15-1.03c0.74,0,1.48,0.01,2.22,0.03c16.73,0.39,30.21,6.55,36.97,16.9
		c6.29,9.65,6.34,21.85,6.38,31.66l0.19,55.09c0.02,6.03,0.04,12.87,2.45,18.64c1.92,4.58,5.32,8.55,8.61,12.38l53.92,62.75
		c0.76,0.89,1.58,1.81,2.44,2.67c0.37-0.08,0.73-0.19,1.11-0.26l0.29,1.53c0.92,0.77,1.89,1.44,2.96,1.84
		c1.07,0.39,2.21,0.55,3.4,0.55c2.21,0,4.6-0.55,7.05-1.18c29.56-7.66,58.43-18.39,85.83-31.89c3.6-1.77,7.19-3.6,10.79-5.43
		c19.67-10,40-20.35,62.3-22.37c3.07-0.28,6.16-0.4,9.23-0.4c7.91,0,15.8,0.77,23.51,1.53l0.95,0.09
		c12.09,1.18,23.64,2.14,34.74,2.14c14.09,0,27.46-1.54,40.35-6.15c12.37-4.42,23.91-11.7,35.07-18.74
		c13.76-8.69,27.98-17.66,44.11-21.55c0.61-14.1-12.64-25.86-25.7-30.99c-6.72-2.64-13.98-4.33-21.01-5.96
		c-8.37-1.95-17.01-3.96-25.06-7.61c-22.72-10.31-40.18-33.78-47.92-64.4c-5.41-21.41-5.95-43.82-6.47-65.49
		c-0.13-5.14-0.25-10.28-0.44-15.4c-2.39-65.8-18.65-111.46-49.73-139.6c-28.91-26.18-69.08-35.39-104.57-40.95
		C1771.7,16.7,1732.99,13.71,1694.33,13.71L1694.33,13.71z"/>
</g>
<g>
	<linearGradient id="SVGID_7_" gradientUnits="userSpaceOnUse" x1="931.8477" y1="1480.5592" x2="2747.6636" y2="-436.1382">
		<stop  offset="0" style="stop-color:#30FBB2"/>
		<stop  offset="0.2601" style="stop-color:#C7FFDC"/>
		<stop  offset="0.3712" style="stop-color:#CDFFD1"/>
		<stop  offset="0.4722" style="stop-color:#B3FFD1"/>
		<stop  offset="0.7146" style="stop-color:#97FFD1"/>
		<stop  offset="1" style="stop-color:#C5FFE8"/>
	</linearGradient>
	<path class="st6" d="M1437.86,1074.53c-5.09,0-10.57-0.79-16.28-2.36c-24.42-6.68-48.95-14.19-72.89-22.33
		c-0.03-0.01-0.05-0.01-0.08-0.01c-0.1,0-0.2,0.07-0.24,0.17l-0.24,0.71c-16.49-6.25-33.44-12.86-50.37-19.66
		c25.58-75.37,53.25-151.56,82.24-226.47c15,17.21,36.67,26.07,51.69,31.25c6.05,2.09,12.29,4.01,18.32,5.86l0.24,0.07
		c14.15,4.36,28.72,8.84,41.87,15.7c17.87,9.32,33.26,23.02,48.15,36.26l0.08,0.07c18.72,16.67,39.92,35.56,56.27,57.18l0,0
		c-0.04,0.03-0.07,0.08-0.08,0.13l-0.42-0.14c-0.03-0.01-0.05-0.01-0.08-0.01c-0.04,0-0.08,0.01-0.11,0.03
		c-0.06,0.03-0.1,0.08-0.13,0.15c-1.54,4.65-2.93,9.47-4.27,14.13l-0.04,0.13c-5.14,17.86-10,34.74-23.43,46.15
		c-15.85,13.46-35.45,22.16-54.41,30.57c-10.42,4.63-21.19,9.4-31.37,14.97c-2.29,1.25-4.6,2.57-6.83,3.84l-0.34,0.19
		c-7.22,4.13-14.68,8.4-22.54,11.05C1447.84,1073.75,1443.03,1074.53,1437.86,1074.53z"/>
	<path d="M1380.08,805.06c15.03,17.05,36.56,25.85,51.52,31.01c6.02,2.07,12.22,3.98,18.21,5.83l0.36,0.11l0.05,0.02
		c14.08,4.33,28.64,8.82,41.78,15.66c17.84,9.31,33.22,22.99,48.09,36.22l0.08,0.07c18.59,16.56,39.63,35.3,55.92,56.73
		c-0.02,0-0.05,0-0.07,0c-0.08,0-0.15,0.02-0.22,0.05c-0.12,0.06-0.21,0.16-0.25,0.29c-1.54,4.65-2.93,9.46-4.27,14.12l-0.04,0.15
		c-5.13,17.83-9.98,34.66-23.35,46.03c-15.82,13.43-35.41,22.13-54.36,30.54c-10.41,4.62-21.17,9.39-31.37,14.97
		c-2.31,1.26-4.64,2.59-6.89,3.88l-0.28,0.16c-7.2,4.12-14.65,8.39-22.5,11.03c-4.7,1.58-9.49,2.35-14.63,2.35
		c-5.07,0-10.53-0.79-16.22-2.35c-24.42-6.68-48.94-14.19-72.88-22.32c-0.05-0.02-0.11-0.03-0.16-0.03c-0.21,0-0.4,0.13-0.47,0.34
		l-0.16,0.47c-16.34-6.19-33.13-12.74-49.91-19.48C1323.58,955.75,1351.17,879.77,1380.08,805.06 M1379.91,804.11
		c-28.94,74.74-56.68,151.1-82.47,227.09c16.92,6.79,33.87,13.41,50.84,19.84l0.33-0.96c23.97,8.14,48.5,15.66,72.91,22.33
		c5.76,1.58,11.19,2.37,16.35,2.37c5.17,0,10.08-0.79,14.79-2.38c7.89-2.65,15.36-6.93,22.59-11.07c2.38-1.36,4.76-2.73,7.16-4.04
		c10.15-5.55,20.91-10.33,31.33-14.95c18.98-8.42,38.6-17.13,54.48-30.62c13.48-11.46,18.35-28.37,23.51-46.27
		c1.38-4.78,2.76-9.56,4.31-14.25l1.06,0.35l-0.32-0.39l0.19-0.15c-16.2-21.47-36.62-39.74-56.45-57.4
		c-14.92-13.28-30.34-27.01-48.28-36.37c-13.19-6.88-27.79-11.37-41.91-15.71c-6.21-1.91-12.42-3.82-18.55-5.94
		C1416.29,830.26,1394.65,821.2,1379.91,804.11L1379.91,804.11z"/>
</g>
<g>
	<linearGradient id="SVGID_8_" gradientUnits="userSpaceOnUse" x1="960.2383" y1="1508.9893" x2="2777.6807" y2="-409.425">
		<stop  offset="0" style="stop-color:#30FBB2"/>
		<stop  offset="0.2601" style="stop-color:#C7FFDC"/>
		<stop  offset="0.3712" style="stop-color:#CDFFD1"/>
		<stop  offset="0.4722" style="stop-color:#B3FFD1"/>
		<stop  offset="0.7146" style="stop-color:#97FFD1"/>
		<stop  offset="1" style="stop-color:#C5FFE8"/>
	</linearGradient>
	<path class="st7" d="M1361.49,1414.52c-18.82-2.19-37.52-3.63-55.6-5.04l-0.16-0.01c-18.11-1.4-36.84-2.85-55.73-5.05
		c-0.86-7.25-0.84-16.78,0.05-23.26l0.28-2.06c0.02-0.12-0.06-0.24-0.17-0.27l-315.28-101.17c-7.73-2.48-16.47-5.28-23.3-10.63
		c58.9-82.83,124.76-164.37,195.74-242.37c6.57,4.6,14.1,8.11,21.8,10.16l3.32,0.88c0.02,0.01,0.04,0.01,0.06,0.01
		c0.06,0,0.11-0.02,0.16-0.06c0.06-0.05,0.1-0.13,0.09-0.21l-1.65-26.76c-0.08-1.36-0.17-2.73,0.19-3.78
		c0.37-1.09,1.33-2.16,2.26-3.21c4.17-4.66,7.77-9.16,11.25-13.52c2.96-3.7,6.63-8.3,10.64-12.81
		c62.59,29.16,127.04,56.34,191.57,80.76c0.76,74.48-0.68,149.73-4.28,223.65c-0.29,5.89,0.97,11.63,2.2,17.17
		c0.55,2.49,1.17,5.3,1.59,8.07c0.01,0.07,0.05,0.13,0.1,0.16c0.04,0.03,0.1,0.05,0.15,0.05c0.01,0,0.7-0.1,0.7-0.1
		c1.73,4.45,3.34,9.1,4.82,13.46c5.53,16.35,11.25,33.25,25.29,43.87c0.78,0.59,0.69,2.57-0.24,5.29L1361.49,1414.52z"/>
	<path d="M1155.5,975.66c62.5,29.12,126.84,56.24,191.26,80.63c0.75,74.42-0.69,149.6-4.28,223.46c-0.29,5.93,0.98,11.68,2.2,17.24
		c0.55,2.48,1.17,5.29,1.59,8.05c0.04,0.25,0.25,0.42,0.49,0.42c0.03,0,0.05,0,0.08-0.01l0.46-0.07c1.7,4.37,3.28,8.96,4.74,13.27
		c5.54,16.38,11.28,33.32,25.38,43.99c0.51,0.38,0.73,1.93-0.32,5.01l-15.78,46.58c-18.76-2.17-37.39-3.62-55.41-5.01l-0.16-0.01
		c-18.06-1.4-36.73-2.85-55.52-5.03c-0.83-7.21-0.81-16.6,0.07-23l0.28-2.06c0.03-0.24-0.11-0.47-0.34-0.54l-315.28-101.17
		c-7.64-2.45-16.27-5.22-23.03-10.44c58.82-82.69,124.58-164.11,195.43-241.99c6.55,4.56,14.05,8.03,21.7,10.07l3.32,0.88
		c0.04,0.01,0.09,0.02,0.13,0.02c0.11,0,0.23-0.04,0.32-0.11c0.12-0.1,0.19-0.26,0.18-0.42l-1.65-26.79
		c-0.08-1.31-0.16-2.66,0.18-3.66c0.35-1.04,1.29-2.09,2.21-3.12c4.16-4.65,7.77-9.16,11.25-13.53
		C1147.92,984.66,1151.54,980.12,1155.5,975.66 M1155.38,975.05c-3.93,4.41-7.41,8.76-10.77,12.96c-3.48,4.36-7.09,8.87-11.23,13.5
		c-0.95,1.06-1.93,2.16-2.31,3.3c-0.37,1.1-0.29,2.51-0.2,3.88l1.65,26.76l-3.32-0.88c-7.78-2.07-15.31-5.6-21.9-10.25
		c-71.15,78.17-137.08,159.82-196.04,242.75c6.8,5.4,15.65,8.28,23.56,10.82l315.28,101.17l-0.28,2.06
		c-0.91,6.61-0.9,16.35-0.03,23.52c18.9,2.2,37.72,3.66,55.93,5.08c18.21,1.41,37.01,2.87,55.95,5.07l15.91-46.97
		c0.98-2.88,1.03-4.91,0.15-5.57c-13.98-10.58-19.69-27.44-25.21-43.75c-1.54-4.55-3.15-9.2-4.89-13.66l-0.86,0.13
		c-0.41-2.7-1-5.39-1.6-8.09c-1.22-5.53-2.47-11.26-2.19-17.11c3.61-74.23,5.04-149.52,4.28-223.83
		C1282.57,1031.46,1218.06,1004.26,1155.38,975.05L1155.38,975.05z"/>
</g>
<g>
	<linearGradient id="SVGID_9_" gradientUnits="userSpaceOnUse" x1="811.2803" y1="1366.7856" x2="2627.5002" y2="-550.3381">
		<stop  offset="0" style="stop-color:#30FBB2"/>
		<stop  offset="0.2601" style="stop-color:#C7FFDC"/>
		<stop  offset="0.3712" style="stop-color:#CDFFD1"/>
		<stop  offset="0.4722" style="stop-color:#B3FFD1"/>
		<stop  offset="0.7146" style="stop-color:#97FFD1"/>
		<stop  offset="1" style="stop-color:#C5FFE8"/>
	</linearGradient>
	<path class="st8" d="M1292.7,1028.98c-47.37-19.11-93.81-39.29-138.04-59.97c-0.03-0.02-0.07-0.02-0.11-0.02
		c-0.09,0-0.18,0.05-0.23,0.14l-0.48,1.02c-15.88-5.94-29.3-16.81-42.29-27.33c-6.56-5.31-13.35-10.8-19.53-16.84
		c-1.61-1.57-3.49-3.2-5.14-4.65c-2.64-2.31-5-4.41-7.01-6.57c43.32-25.71,85.74-53.71,126.1-83.23l0.67-0.49
		c0.04-0.03,0.08-0.08,0.09-0.13l0.24-0.79c3.14-10.36,7.93-19.56,13-29.3c1.15-2.2,2.3-4.41,3.44-6.66l35.96-70.74
		c0.28,0.06,0.54,0.14,0.8,0.21c0.33,0.09,0.65,0.19,0.98,0.27c0.02,0.01,0.04,0.01,0.06,0.01c0.04,0,0.09-0.01,0.13-0.04
		c0.06-0.03,0.1-0.09,0.11-0.15l0.1-0.4c0.31,0,0.63-0.01,0.94-0.01c13.5,0,26.51,4.72,36.63,13.29c4.44,3.75,8.37,8.27,12.17,12.64
		c1.13,1.3,2.26,2.6,3.41,3.88c16.98,19.04,38.09,35.38,61.05,47.26C1346.55,875.76,1318.61,952.67,1292.7,1028.98z"/>
	<path d="M1262.51,723.06v0.5c13.44,0,26.39,4.7,36.47,13.23c4.42,3.74,8.34,8.25,12.14,12.62c1.13,1.3,2.26,2.6,3.41,3.89
		c16.95,19.01,38.01,35.33,60.93,47.21c-29.16,75.24-57.05,151.99-82.9,228.15c-47.28-19.09-93.63-39.22-137.78-59.87
		c-0.07-0.03-0.14-0.05-0.21-0.05c-0.19,0-0.37,0.11-0.45,0.29l-0.38,0.81c-15.75-5.94-29.09-16.75-42-27.21
		c-6.55-5.3-13.33-10.79-19.52-16.82c-1.62-1.57-3.5-3.21-5.15-4.66c-2.55-2.23-4.83-4.25-6.78-6.33
		c43.23-25.67,85.57-53.62,125.86-83.08l0.67-0.49c0.09-0.06,0.15-0.16,0.18-0.26l0.24-0.79c3.13-10.34,7.92-19.53,12.99-29.27
		c1.13-2.17,2.29-4.41,3.43-6.65l35.88-70.57c0.2,0.05,0.39,0.11,0.59,0.17c0.33,0.1,0.66,0.19,1,0.27
		c0.04,0.01,0.08,0.01,0.12,0.01c0.09,0,0.18-0.02,0.26-0.07c0.11-0.07,0.2-0.18,0.23-0.31l0.05-0.21c0.25,0,0.49,0,0.74,0V723.06
		 M1262.51,723.06c-0.38,0-0.75,0-1.13,0.01l-0.15,0.59c-0.63-0.16-1.24-0.36-1.87-0.52c-0.04,0-0.08,0-0.11,0l-36.05,70.9
		c-1.14,2.24-2.29,4.45-3.44,6.66c-5.08,9.75-9.87,18.97-13.02,29.34l-0.24,0.79l-0.67,0.49c-40.58,29.68-83.08,57.71-126.35,83.37
		c2.11,2.31,4.7,4.6,7.24,6.82c1.81,1.58,3.57,3.12,5.13,4.64c6.18,6.03,12.98,11.53,19.55,16.85
		c13.09,10.6,26.62,21.54,42.57,27.45l0.58-1.23c45.32,21.19,91.65,41.26,138.3,60.08c26.02-76.66,54.01-153.68,83.23-229.05
		c-22.94-11.83-44.03-28.07-61.18-47.3c-1.15-1.29-2.28-2.58-3.41-3.88c-3.81-4.38-7.76-8.92-12.19-12.67
		C1289.06,727.75,1275.87,723.06,1262.51,723.06L1262.51,723.06z"/>
</g>
<g>
	<path class="st9" d="M1106.65,1017.68l1.8,1.36c5.59,4.23,11.99,7.57,18.69,9.75l-1.22-19.8c-0.1-1.67-0.23-3.75,0.45-5.78
		c0.71-2.09,2.15-3.7,3.32-5c4.05-4.53,7.61-8.99,11.05-13.29c2.81-3.52,5.69-7.13,8.88-10.82c-15.61-6.41-29.22-17.44-41.32-27.24
		c-6.66-5.39-13.55-10.97-19.89-17.16c-1.5-1.46-3.2-2.94-4.93-4.46c-2.87-2.51-5.82-5.09-8.23-7.84
		c-5.92,1.75-11.67,3.06-17.25,4.33c-5.98,1.36-12.17,2.76-18.47,4.7l-2.08,0.64l-0.9-1.98c-1.94-4.25-5.11-8.43-8.47-12.87
		c-4.75-6.26-9.63-12.71-11.24-19.86l-5.66,1.17c-15.31,3.16-29.41,5.73-48.69,8.88l-1.17,0.19l-0.88-0.8
		c-56.26-50.65-113.36-105.63-174.51-168.05c-0.86,0.44-1.05,0.71-1.09,0.8c5.15,18.34-7.56,35.83-20.67,50.54
		c-15.29,17.15-33.75,32.79-51.6,47.91c-31.17,26.4-63.41,53.7-79.57,89.82c-30.15,67.36-67.74,131.49-111.79,190.71
		c1.62-0.36,3.22-0.69,4.8-1.02c3.69-0.77,7.5-1.56,11.32-2.64c1.01-0.28,2.37-0.66,3.87-0.4c2.39,0.43,3.87,2.18,5.08,3.78
		c6.25,8.34,12.1,17.15,17.38,26.17l0.86,1.47l-19.43,24.09c-0.1,5.01-0.23,10.03-0.35,15.06c-0.38,15.48-0.77,31.46-0.49,47.15
		l48,2.48c8.19-9.72,15.74-19.02,23.06-28.02c15.27-18.8,29.7-36.57,47.9-55.74l1.59-1.67l1.78,1.46
		c72.43,59.46,155.64,100.37,240.72,118.39c59.47-83.64,126.04-165.98,197.86-244.76L1106.65,1017.68z"/>
	<g>
		<linearGradient id="SVGID_10_" gradientUnits="userSpaceOnUse" x1="521.1968" y1="998.9388" x2="1149.613" y2="998.9388">
			<stop  offset="0" style="stop-color:#30FBB2"/>
			<stop  offset="0.2601" style="stop-color:#E8FFD1"/>
			<stop  offset="0.3712" style="stop-color:#E8FFD1"/>
			<stop  offset="0.4722" style="stop-color:#B3FFD1"/>
			<stop  offset="0.7146" style="stop-color:#97FFD1"/>
			<stop  offset="1" style="stop-color:#E8FFD1"/>
		</linearGradient>
		<path class="st10" d="M785.83,734.39c61.05,62.3,118.06,117.19,174.27,167.8l0.88,0.8c0.09,0.08,0.21,0.13,0.34,0.13
			c0.03,0,0.05,0,0.08-0.01l1.17-0.19c19.32-3.16,33.43-5.73,48.71-8.88l5.19-1.07c1.74,7.06,6.55,13.41,11.23,19.58
			c3.34,4.4,6.49,8.57,8.4,12.76l0.9,1.98c0.08,0.18,0.26,0.29,0.45,0.29c0.05,0,0.1-0.01,0.15-0.02l2.08-0.64
			c6.25-1.93,12.4-3.32,18.35-4.67l0.08-0.02l0.08-0.02c5.45-1.24,11.09-2.52,16.89-4.22c2.37,2.67,5.23,5.17,8,7.59l0.06,0.05
			c1.68,1.47,3.42,2.98,4.91,4.44c6.34,6.19,13.22,11.76,19.87,17.14l0.06,0.05c11.91,9.65,25.39,20.57,40.81,27.05
			c-3.04,3.55-5.78,6.98-8.44,10.31c-3.43,4.3-6.98,8.74-11.05,13.29c-1.19,1.33-2.67,2.98-3.4,5.16c-0.72,2.12-0.58,4.25-0.48,5.97
			l1.18,19.06c-6.37-2.16-12.52-5.42-17.84-9.44l-1.8-1.36c-0.09-0.07-0.2-0.1-0.3-0.1c-0.14,0-0.27,0.06-0.37,0.16l-1.52,1.67
			c-71.75,78.7-138.26,160.96-197.7,244.54c-84.88-18.03-167.93-58.9-240.18-118.22l-1.78-1.46c-0.09-0.08-0.2-0.11-0.32-0.11
			c-0.13,0-0.27,0.05-0.36,0.16l-1.59,1.67c-18.19,19.17-32.6,36.92-47.87,55.71l-0.05,0.07l-0.29,0.35
			c-7.17,8.83-14.59,17.96-22.6,27.47l-47.28-2.44c-0.27-15.58,0.12-31.38,0.5-46.66l0.01-0.35c0.12-4.85,0.24-9.7,0.34-14.53
			l19.32-23.96c0.13-0.16,0.15-0.39,0.04-0.57l-0.86-1.47c-5.3-9.05-11.16-17.87-17.42-26.22c-1.26-1.68-2.82-3.52-5.39-3.97
			c-0.36-0.06-0.74-0.1-1.12-0.1c-1.16,0-2.2,0.29-2.97,0.5c-3.77,1.06-7.54,1.85-11.19,2.61l-0.1,0.02
			c-1.05,0.21-2.24,0.46-3.5,0.73c43.72-58.95,81.08-122.78,111.05-189.73c16.12-36.02,48.31-63.28,79.44-89.64
			c17.87-15.13,36.34-30.78,51.65-47.96c13.13-14.74,25.86-32.29,20.85-50.75C785.46,734.62,785.6,734.52,785.83,734.39
			 M785.92,733.77c-0.86,0.44-1.05,0.71-1.09,0.8c5.15,18.34-7.56,35.83-20.67,50.54c-15.29,17.15-33.75,32.79-51.6,47.91
			c-31.17,26.4-63.41,53.7-79.57,89.82c-30.15,67.36-67.74,131.49-111.79,190.71c1.62-0.36,3.22-0.69,4.8-1.02
			c3.69-0.77,7.5-1.56,11.32-2.64c0.77-0.21,1.75-0.48,2.83-0.48c0.34,0,0.68,0.03,1.04,0.09c2.39,0.43,3.87,2.18,5.08,3.78
			c6.25,8.34,12.1,17.15,17.38,26.17l0.86,1.47l-19.43,24.09c-0.1,5.01-0.23,10.03-0.35,15.06c-0.38,15.48-0.77,31.46-0.49,47.15
			l48,2.48c8.19-9.72,15.74-19.02,23.06-28.02c15.27-18.8,29.7-36.57,47.9-55.74l1.59-1.67l1.78,1.46
			c72.43,59.46,155.64,100.37,240.72,118.39c59.47-83.64,126.04-165.98,197.86-244.76l1.52-1.67l1.8,1.36
			c5.59,4.23,11.99,7.57,18.69,9.75l-1.22-19.8c-0.1-1.67-0.23-3.75,0.45-5.78c0.71-2.09,2.15-3.7,3.32-5
			c4.05-4.53,7.61-8.99,11.05-13.29c2.81-3.52,5.69-7.13,8.88-10.82c-15.61-6.41-29.22-17.44-41.32-27.24
			c-6.66-5.39-13.55-10.97-19.89-17.16c-1.5-1.46-3.2-2.94-4.93-4.46c-2.87-2.51-5.82-5.09-8.23-7.84
			c-5.92,1.75-11.67,3.06-17.25,4.33c-5.98,1.36-12.17,2.76-18.47,4.7l-2.08,0.64l-0.9-1.98c-1.94-4.25-5.11-8.43-8.47-12.87
			c-4.75-6.26-9.63-12.71-11.24-19.86l-5.66,1.17c-15.31,3.16-29.41,5.73-48.69,8.88l-1.17,0.19l-0.88-0.8
			C904.17,851.16,847.07,796.19,785.92,733.77L785.92,733.77z"/>
	</g>
</g>
<g>
	<linearGradient id="SVGID_11_" gradientUnits="userSpaceOnUse" x1="614.7189" y1="1180.7814" x2="2431.0388" y2="-736.4482">
		<stop  offset="0" style="stop-color:#30FBB2"/>
		<stop  offset="0.2601" style="stop-color:#C7FFDC"/>
		<stop  offset="0.3712" style="stop-color:#CDFFD1"/>
		<stop  offset="0.4722" style="stop-color:#B3FFD1"/>
		<stop  offset="0.7146" style="stop-color:#97FFD1"/>
		<stop  offset="1" style="stop-color:#C5FFE8"/>
	</linearGradient>
	<path class="st11" d="M1040.21,920.81c-2.16-4.02-5.12-7.93-7.99-11.71c-4.56-6.01-9.27-12.23-10.45-18.55
		c0.26-0.36,0.44-0.77,0.55-1.22l0.19-2.01c0.01-0.08-0.03-0.17-0.1-0.22l-1.25-0.98c-0.6-0.47-1.34-0.72-2.09-0.72
		c-0.5,0-0.99,0.12-1.42,0.34l-1.55,0.98c-0.08,0.05-0.12,0.13-0.12,0.22l0.01,0.31l-5.88,1.21c-14.9,3.07-28.57,5.57-47.18,8.63
		C907,846.67,850.17,791.93,789.25,729.74c2.93-3.22,6.66-5.78,10.88-8.55c3.4-2.23,6.91-4.53,10.02-7.4
		c4.75-4.38,8.24-9.8,11.62-15.05c3.81-5.92,7.39-11.49,12.53-15.51c3.45-2.7,7.61-4.66,11.64-6.55l53.61-25.22
		c12.43,1.77,24.23,2.08,35.65,2.38l40.89,1.07c6.39,0.16,12.96,0.33,19.51,0.33c9.5,0,17.31-0.36,24.58-1.12
		c9.86-1.04,19.64-2.95,29.1-4.8l40.91-7.98c17.02,15.59,37.79,25.97,57.88,36.01l0.82,0.41c31.75,15.87,67.72,33.84,105.15,44.17
		l-35.47,69.76c-1.05,2.06-2.11,4.09-3.16,6.12l-0.25,0.49c-5.05,9.71-9.83,18.88-13.11,29.36
		c-40.72,29.74-83.38,57.85-126.81,83.54c-0.12,0.07-0.16,0.22-0.09,0.34l0.23,0.4l-0.08,0.03c-6.26,1.93-12.4,3.33-18.35,4.68
		C1051.75,917.82,1045.99,919.12,1040.21,920.81z"/>
	<path d="M1090.1,641.6c17.03,15.56,37.78,25.93,57.85,35.97l0.82,0.41c31.68,15.83,67.56,33.76,104.9,44.11l-35.33,69.49
		c-1.03,2.03-2.08,4.04-3.12,6.05l-0.29,0.56c-5.05,9.7-9.82,18.86-13.1,29.33c-40.69,29.72-83.32,57.8-126.72,83.48
		c-0.24,0.14-0.32,0.45-0.18,0.68l0.07,0.12c-6.17,1.89-12.23,3.27-18.09,4.6l-0.11,0.03c-5.03,1.14-10.72,2.43-16.45,4.09
		c-2.16-3.98-5.09-7.83-7.92-11.57c-4.51-5.96-9.18-12.11-10.38-18.34c0.24-0.37,0.42-0.78,0.52-1.22c0.01-0.02,0.01-0.04,0.01-0.07
		l0.18-1.98c0.02-0.17-0.06-0.34-0.19-0.44l-1.25-0.98c-0.64-0.5-1.44-0.78-2.24-0.78c-0.54,0-1.07,0.13-1.57,0.39l-1.53,0.97
		c-0.15,0.1-0.24,0.27-0.23,0.45l0,0.1l-5.67,1.17c-14.86,3.06-28.5,5.56-47.05,8.6c-55.87-50.34-112.6-105-173.43-167.08
		c2.89-3.12,6.55-5.63,10.67-8.33c3.41-2.23,6.94-4.55,10.06-7.43c4.77-4.4,8.27-9.84,11.67-15.12c3.78-5.88,7.35-11.43,12.45-15.43
		c3.43-2.69,7.58-4.64,11.6-6.53l53.53-25.19c12.42,1.76,24.21,2.07,35.62,2.37l0.08,0l40.84,1.06c6.36,0.16,12.93,0.33,19.48,0.33
		c9.51,0,17.33-0.36,24.61-1.12c9.87-1.04,19.66-2.95,29.12-4.8L1090.1,641.6 M1090.25,641.06l-41.03,8
		c-9.47,1.85-19.26,3.76-29.08,4.79c-8.15,0.86-16.38,1.12-24.55,1.12c-6.56,0-13.08-0.17-19.5-0.33l-40.81-1.06
		c-11.46-0.3-23.31-0.61-35.78-2.39l-53.67,25.25c-4.04,1.9-8.22,3.86-11.7,6.59c-5.17,4.05-8.77,9.64-12.57,15.55
		c-3.37,5.24-6.86,10.66-11.59,15.02c-3.08,2.84-6.59,5.15-9.99,7.38c-4.15,2.72-8.05,5.37-11.08,8.76
		c60.97,62.24,117.89,117.08,173.96,167.6c18.61-3.05,32.39-5.57,47.31-8.65l6.09-1.26l-0.02-0.53l1.53-0.97
		c0.4-0.21,0.85-0.31,1.3-0.31c0.68,0,1.36,0.23,1.93,0.67l1.25,0.98l-0.18,1.98c-0.09,0.38-0.26,0.81-0.57,1.22
		c1.16,6.42,5.91,12.68,10.52,18.76c2.91,3.84,5.91,7.79,8.06,11.86c5.77-1.69,11.37-2.96,16.81-4.2c5.98-1.36,12.16-2.76,18.46-4.7
		l0.39-0.12l-0.39-0.67c43.45-25.7,86.14-53.83,126.9-83.6c3.27-10.49,8.06-19.68,13.12-29.4c1.14-2.19,2.28-4.39,3.42-6.61
		l35.61-70.03c-37.02-10.18-71.76-27.43-105.4-44.24l-0.82-0.41C1128.05,667.07,1107.26,656.68,1090.25,641.06L1090.25,641.06z"/>
</g>
<g id="_x30_4_A">
	<linearGradient id="SVGID_12_" gradientUnits="userSpaceOnUse" x1="900.2473" y1="1446.9149" x2="2711.6782" y2="-465.1539">
		<stop  offset="0" style="stop-color:#30FBB2"/>
		<stop  offset="0.2601" style="stop-color:#C7FFDC"/>
		<stop  offset="0.3712" style="stop-color:#CDFFD1"/>
		<stop  offset="0.4722" style="stop-color:#B3FFD1"/>
		<stop  offset="0.7146" style="stop-color:#97FFD1"/>
		<stop  offset="1" style="stop-color:#C5FFE8"/>
	</linearGradient>
	<path class="st12" d="M1601.86,915.4c-4.59-5.61-9.58-10.8-14.42-15.82l-0.58-0.61c-2.37-2.46-4.81-5.01-7.15-7.55
		c-15.58-16.94-22.64-31.47-22.22-45.71c0.03-1.03,0.1-2.06,0.16-3.1c0.26-3.97,0.53-8.06-1.09-12.04
		c-2.42-5.94-8.27-9.35-12.53-11.83l-72.12-42.02c-18.32-10.68-41.12-23.96-63.84-35.24c9.63-20.03,18.88-42.42,29.09-70.41
		c9.49,5.37,20.07,8.11,30.3,10.76c9.48,2.46,19.28,5,27.84,9.54c10.15,5.38,18.37,13.3,27.07,21.68l0.13,0.12
		c4.4,4.24,8.96,8.63,13.76,12.6c26.07,21.62,59.13,31.59,93.56,40.68l3.8,42.67l-0.28,0.25c-0.06,0.05-0.09,0.12-0.08,0.2
		l0.06,1.18c1.74,33.7-7.96,67.61-27.3,95.48c-1.75,2.53-3.73,5.38-4.14,8.88C1601.87,915.22,1601.87,915.31,1601.86,915.4z"/>
	<path d="M1437.3,671.45c9.45,5.29,19.95,8.01,30.11,10.65c9.46,2.45,19.24,4.99,27.78,9.51c10.12,5.37,18.33,13.27,27.02,21.65
		l0.11,0.11c4.41,4.24,8.97,8.63,13.77,12.61c26.07,21.62,59.09,31.6,93.49,40.68l3.78,42.37l-0.18,0.16
		c-0.11,0.1-0.17,0.25-0.17,0.4l0.06,1.18c1.73,33.64-7.95,67.5-27.27,95.35c-1.71,2.46-3.64,5.24-4.13,8.67
		c-4.48-5.44-9.34-10.48-14.05-15.37l-0.57-0.6c-2.37-2.47-4.82-5.02-7.15-7.56c-15.53-16.89-22.57-31.36-22.16-45.53
		c0.03-1.04,0.1-2.08,0.16-3.09c0.26-3.99,0.53-8.12-1.11-12.14c-2.46-6.02-8.34-9.45-12.64-11.95l-72.12-42.02
		c-18.27-10.65-40.98-23.89-63.63-35.13C1417.97,721.46,1427.16,699.21,1437.3,671.45 M1437.03,670.72
		c-8.74,23.98-18.22,47.88-29.29,70.89c21.99,10.9,43.23,23.21,64.04,35.34l72.12,42.02c4.24,2.47,10.04,5.86,12.43,11.71
		c1.6,3.92,1.33,7.99,1.08,11.92c-0.07,1.04-0.14,2.08-0.16,3.11c-0.42,14.31,6.67,28.89,22.29,45.88c2.52,2.75,5.13,5.45,7.73,8.16
		c5.07,5.26,10.22,10.62,14.87,16.37c0.01-0.33-0.04-0.64,0-0.98c0.4-3.45,2.36-6.27,4.09-8.77c19.44-28.01,29.09-61.89,27.35-95.64
		l-0.06-1.18l0.37-0.33l-3.83-42.97c-31.66-8.35-66.68-18.32-93.64-40.67c-4.83-4-9.42-8.42-13.85-12.7
		c-8.71-8.4-16.95-16.33-27.14-21.73c-8.59-4.56-18.41-7.1-27.9-9.56C1457.16,678.92,1446.5,676.14,1437.03,670.72L1437.03,670.72z"
		/>
</g>
<g id="_x30_1_A">
	<linearGradient id="SVGID_13_" gradientUnits="userSpaceOnUse" x1="699.7111" y1="1259.2504" x2="2513.9543" y2="-655.7869">
		<stop  offset="0" style="stop-color:#30FBB2"/>
		<stop  offset="0.2601" style="stop-color:#C7FFDC"/>
		<stop  offset="0.3712" style="stop-color:#CDFFD1"/>
		<stop  offset="0.4722" style="stop-color:#B3FFD1"/>
		<stop  offset="0.7146" style="stop-color:#97FFD1"/>
		<stop  offset="1" style="stop-color:#C5FFE8"/>
	</linearGradient>
	<path class="st13" d="M1403.19,739.07c-16.66-8.05-31.89-14.32-46.57-19.16c-18.15-5.99-37.01-10.33-55.25-14.53
		c-22.33-5.14-45.4-10.46-67.02-18.77c-18.41-7.08-36.21-16.49-53.42-25.6l-53.05-28.07c14.99-29.83,29-60.78,41.65-92l28.4-8.31
		c3.52,8.3,8.34,19.57,17.54,26.53c5.27,3.98,11.55,6.25,17.1,8.24c68.95,24.85,140.01,47.95,211.22,68.66
		C1432.14,669.69,1419.41,705.32,1403.19,739.07z"/>
	<path d="M1197.78,532.94c3.52,8.31,8.36,19.49,17.53,26.42c5.3,4.01,11.6,6.28,17.17,8.28c68.87,24.82,139.85,47.9,210.98,68.59
		c-11.59,33.47-24.27,68.91-40.38,102.5c-16.58-8-31.75-14.24-46.37-19.06c-18.15-5.99-37.02-10.34-55.28-14.54
		c-22.31-5.14-45.37-10.45-66.98-18.76c-18.4-7.07-36.19-16.48-53.39-25.59l-52.83-27.95c14.94-29.73,28.9-60.57,41.5-91.69
		L1197.78,532.94 M1198.07,532.33l-28.73,8.41c-12.69,31.34-26.67,62.23-41.8,92.31l53.27,28.18c17.22,9.11,35.03,18.53,53.45,25.61
		c21.64,8.32,44.73,13.64,67.06,18.78c18.25,4.2,37.12,8.55,55.23,14.52c16.05,5.3,31.59,11.92,46.76,19.26
		c16.06-33.38,28.77-68.79,40.79-103.51c-70.9-20.62-142.01-43.71-211.45-68.73c-5.53-1.99-11.8-4.25-17.03-8.21
		C1206.65,552.18,1201.87,541.31,1198.07,532.33L1198.07,532.33z"/>
</g>
<g>
	<linearGradient id="SVGID_14_" gradientUnits="userSpaceOnUse" x1="485.9061" y1="1058.5452" x2="2302.7031" y2="-859.1877">
		<stop  offset="0" style="stop-color:#30FBB2"/>
		<stop  offset="0.2601" style="stop-color:#C7FFDC"/>
		<stop  offset="0.3712" style="stop-color:#CDFFD1"/>
		<stop  offset="0.4722" style="stop-color:#B3FFD1"/>
		<stop  offset="0.7146" style="stop-color:#97FFD1"/>
		<stop  offset="1" style="stop-color:#C5FFE8"/>
	</linearGradient>
	<path class="st14" d="M1122.83,630.91c-1.3-0.71-2.61-1.42-3.91-2.14c-8.68-4.79-17.66-9.74-27.75-10.9
		c-2.25-0.26-4.64-0.38-7.29-0.38c-3.74,0-7.48,0.25-11.1,0.49l-161.8,11.01l-1.79-2.01c-11.03-12.4-18.69-28.25-21.55-44.61
		c-0.73-4.17-1.18-8.51-1.62-12.7c-0.57-5.51-1.16-11.18-2.39-16.75c-3.36-15.24-11.17-28.71-18.73-41.74l-24.42-42.12l-0.85-1.44
		c8.67-21.2,19.59-41.53,32.48-60.41c1.89-2.78,3.65-5.22,5.93-6.97c2.73-2.1,6.29-3.22,9.72-4.31c50.65-16,103-32.54,155.63-44.37
		c4.79-1.08,9.6-2.12,14.41-3.16l0.8-0.17c21.78-4.71,44.3-9.58,65.51-17.71c6.4-2.45,12.79-5.23,18.97-7.92
		c13.77-6,29.37-12.79,45.19-15.18l0.12,0.45c0.02,0.06,0.06,0.12,0.12,0.15c0.04,0.02,0.08,0.03,0.12,0.03c0.02,0,0.05,0,0.07-0.01
		c1.15-0.32,2.33-0.61,3.52-0.86l-5.9,49.92c-2.82,23.88-5.73,48.53-1.74,72.88c0.57,3.47,1.27,6.91,1.95,10.24
		c1.97,9.63,3.82,18.72,2.76,27.92c-0.7,6.04-2.59,11.74-5,18.56c-5.7,16.14-12.04,32.89-18.85,49.79l-1.15,0.34
		c-0.06,0.02-0.12,0.06-0.15,0.12s-0.04,0.13-0.02,0.19l0.45,1.54C1151.86,570.09,1137.81,601.13,1122.83,630.91z"/>
	<path d="M1191.94,307.46l-5.86,49.61c-2.82,23.86-5.73,48.52-1.73,72.91c0.57,3.46,1.27,6.91,1.95,10.25
		c1.96,9.6,3.81,18.68,2.76,27.85c-0.69,6.01-2.59,11.7-4.99,18.5c-5.69,16.11-12.02,32.82-18.8,49.66l-1.04,0.3
		c-0.13,0.04-0.23,0.12-0.3,0.24c-0.06,0.12-0.08,0.25-0.04,0.38l0.43,1.45c-12.68,31.33-26.68,62.25-41.6,91.93
		c-1.23-0.66-2.45-1.34-3.68-2.02c-8.71-4.8-17.71-9.76-27.85-10.93c-2.26-0.26-4.65-0.39-7.32-0.39c-3.74,0-7.49,0.25-11.11,0.49
		l-0.1,0.01l-161.58,10.99l-1.71-1.92c-11-12.37-18.63-28.17-21.49-44.49c-0.73-4.17-1.18-8.5-1.62-12.72
		c-0.57-5.49-1.16-11.16-2.39-16.75c-3.37-15.28-11.19-28.76-18.75-41.81l-24.42-42.12c-0.2-0.35-0.42-0.72-0.64-1.08l-0.15-0.25
		c8.65-21.15,19.55-41.42,32.41-60.25c1.88-2.76,3.62-5.18,5.88-6.91c2.7-2.07,6.23-3.19,9.68-4.28
		c50.62-15.99,102.97-32.53,155.58-44.36c4.79-1.08,9.67-2.14,14.4-3.16l0.82-0.18c21.78-4.71,44.3-9.59,65.53-17.72
		c6.41-2.45,12.8-5.24,18.98-7.93c13.69-5.96,29.19-12.71,44.91-15.13l0.06,0.23c0.04,0.13,0.12,0.24,0.24,0.3
		c0.08,0.04,0.16,0.06,0.25,0.06c0.05,0,0.09-0.01,0.13-0.02C1189.81,307.96,1190.87,307.7,1191.94,307.46 M1192.52,306.83
		L1192.52,306.83L1192.52,306.83z M1192.52,306.83c-1.3,0.26-2.59,0.58-3.88,0.94l-0.18-0.66c-15.74,2.34-30.83,8.86-45.47,15.23
		c-6.18,2.69-12.57,5.48-18.95,7.92c-21.2,8.12-43.71,12.99-65.47,17.7c-5.08,1.1-10.15,2.2-15.21,3.34
		c-52.64,11.83-105.01,28.38-155.65,44.38c-3.46,1.09-7.03,2.22-9.8,4.35c-2.31,1.78-4.08,4.23-5.99,7.03
		c-12.93,18.95-23.88,39.33-32.55,60.57c0.31,0.52,0.62,1.04,0.91,1.54l24.42,42.12c7.54,13.01,15.35,26.47,18.7,41.66
		c1.22,5.54,1.81,11.21,2.38,16.7c0.44,4.21,0.89,8.56,1.62,12.75c2.87,16.41,10.54,32.29,21.61,44.73l1.87,2.1l161.83-11.01
		c3.67-0.25,7.42-0.5,11.18-0.5c2.42,0,4.85,0.1,7.26,0.38c10.04,1.16,19,6.1,27.66,10.87c1.38,0.76,2.76,1.52,4.14,2.27
		c15.18-30.17,29.19-61.16,41.92-92.59l-0.48-1.62l1.27-0.37c6.66-16.53,12.98-33.18,18.9-49.91c2.41-6.83,4.31-12.54,5.01-18.61
		c1.07-9.24-0.79-18.36-2.76-28c-0.7-3.41-1.39-6.82-1.95-10.23c-3.99-24.33-1.07-48.98,1.74-72.81L1192.52,306.83L1192.52,306.83z"
		/>
</g>
<g id="_x31_2_A">
	<path class="st9" d="M1970.06,899.3l-0.46,0.92c-55.86-27.96-120.49-33.38-176.68-36.28l-2.14-0.11c-17-0.87-34.59-1.77-51.19-6.91
		c-8.1-2.51-16.48-6.17-26.38-11.52c-11.96-6.47-23.49-13.93-34.25-22.2l-2.38-1.85c-5.58-4.34-11.36-8.83-17.85-11.25
		c-5.56-2.08-13.79-2.82-19.68,1.33l0.39,4.37l-0.85,0.08c0.56,33.04-9.26,65.9-28.12,93.08c-1.71,2.45-3.16,4.54-3.41,6.76
		c-0.28,2.35,0.78,4.81,2.08,7.55c11.38,23.96,198.94,241.34,269.43,321.23c0.32-0.19,0.69-0.31,1.07-0.36
		c20.26-10.1,39.56-17.27,59.97-24.85c10.62-3.94,21.58-8.01,32.74-12.55c-4.37-16.48-11.1-32.21-20.01-46.76l-1.44-2.35
		l73.98-35.03l0.91,2.59c1.76,5,4.87,9.61,8.84,13.15c11.46-6.95,21.52-16.4,29.16-27.41l1.56-2.25l2.08,1.78
		c5.8,4.95,11.78,10.06,18.89,12.59c7.45,2.64,15.23,1.59,19.81-2.69c3.98-3.72,5.56-9.44,7.08-15.98l39.23-179.93
		c-58.81-1.18-117.59-8.66-174.81-22.35C1975.39,901.55,1972.53,900.86,1970.06,899.3z"/>
	<g>
		<linearGradient id="SVGID_15_" gradientUnits="userSpaceOnUse" x1="1607.0062" y1="1026.4612" x2="2152.4314" y2="1026.4612">
			<stop  offset="0" style="stop-color:#30FBB2"/>
			<stop  offset="0.2601" style="stop-color:#E8FFD1"/>
			<stop  offset="0.3712" style="stop-color:#E8FFD1"/>
			<stop  offset="0.4722" style="stop-color:#B3FFD1"/>
			<stop  offset="0.7146" style="stop-color:#97FFD1"/>
			<stop  offset="1" style="stop-color:#E8FFD1"/>
		</linearGradient>
		<path class="st15" d="M1649.52,808.92c2.99,0,6.2,0.58,9.03,1.64c6.44,2.41,12.18,6.87,17.72,11.18l2.38,1.85
			c10.77,8.28,22.32,15.76,34.32,22.25c9.92,5.36,18.33,9.04,26.47,11.56c16.66,5.16,34.27,6.06,51.31,6.93l2.14,0.11
			c56.14,2.89,120.71,8.32,176.48,36.23c0.07,0.04,0.15,0.05,0.22,0.05c0.05,0,0.11-0.01,0.16-0.03c0.13-0.04,0.23-0.13,0.29-0.25
			l0.22-0.44c2.42,1.4,5.07,2.04,7.24,2.57c56.91,13.61,115.55,21.13,174.31,22.35l-39.1,179.33c-1.5,6.47-3.06,12.12-6.94,15.73
			c-2.76,2.58-6.78,3.99-11.33,3.99c-2.65,0-5.34-0.48-7.98-1.41c-7.02-2.5-12.97-7.58-18.74-12.5l-2.08-1.78
			c-0.09-0.08-0.21-0.12-0.32-0.12c-0.02,0-0.04,0-0.06,0c-0.14,0.02-0.27,0.09-0.35,0.21l-1.56,2.25
			c-7.51,10.83-17.42,20.18-28.69,27.07c-3.76-3.44-6.75-7.93-8.42-12.69l-0.91-2.59c-0.05-0.13-0.15-0.24-0.28-0.3
			c-0.06-0.03-0.13-0.04-0.19-0.04c-0.07,0-0.15,0.02-0.21,0.05l-73.98,35.03c-0.13,0.06-0.22,0.17-0.27,0.31
			c-0.04,0.14-0.02,0.28,0.05,0.4l1.44,2.35c8.8,14.39,15.48,29.93,19.84,46.21c-10.96,4.45-21.75,8.46-32.18,12.33l-0.13,0.05
			l-0.07,0.02c-20.39,7.57-39.65,14.73-59.88,24.81c-0.28,0.04-0.55,0.12-0.8,0.23c-69.89-79.22-257.81-297.06-269.09-320.83
			c-1.27-2.67-2.29-5.05-2.03-7.28c0.24-2.11,1.67-4.16,3.33-6.53c18.66-26.9,28.67-59.88,28.22-92.91l0.39-0.03
			c0.13-0.01,0.25-0.08,0.34-0.18c0.09-0.1,0.13-0.23,0.11-0.37l-0.36-4.08C1642.25,809.87,1645.68,808.92,1649.52,808.92
			 M1649.52,808.42c-3.65,0-7.39,0.83-10.48,3.01l0.39,4.37l-0.85,0.08c0.56,33.04-9.26,65.9-28.12,93.08
			c-1.71,2.45-3.16,4.54-3.41,6.76c-0.28,2.35,0.78,4.81,2.08,7.55c11.38,23.96,198.94,241.34,269.43,321.23
			c0.32-0.19,0.69-0.31,1.07-0.36c20.26-10.1,39.56-17.27,59.97-24.85c10.62-3.94,21.58-8.01,32.74-12.55
			c-4.37-16.48-11.1-32.21-20.01-46.76l-1.44-2.35l73.98-35.03l0.91,2.59c1.76,5,4.87,9.61,8.84,13.15
			c11.46-6.95,21.52-16.4,29.16-27.41l1.56-2.25l2.08,1.78c5.8,4.95,11.78,10.06,18.89,12.59c2.73,0.97,5.5,1.44,8.14,1.44
			c4.57,0,8.76-1.42,11.67-4.13c3.98-3.72,5.56-9.44,7.08-15.98l39.23-179.93c-58.81-1.18-117.59-8.66-174.81-22.35
			c-2.24-0.54-5.09-1.22-7.56-2.79l-0.46,0.92c-55.86-27.96-120.49-33.38-176.68-36.28l-2.14-0.11c-17-0.87-34.59-1.77-51.19-6.91
			c-8.1-2.51-16.48-6.17-26.38-11.52c-11.96-6.47-23.49-13.93-34.25-22.2l-2.38-1.85c-5.58-4.34-11.36-8.83-17.85-11.25
			C1656.09,809.11,1652.84,808.42,1649.52,808.42L1649.52,808.42z"/>
	</g>
</g>
<g>
	<linearGradient id="SVGID_16_" gradientUnits="userSpaceOnUse" x1="734.6005" y1="1292.8431" x2="2551.0325" y2="-624.5045">
		<stop  offset="0" style="stop-color:#30FBB2"/>
		<stop  offset="0.2601" style="stop-color:#C7FFDC"/>
		<stop  offset="0.3712" style="stop-color:#CDFFD1"/>
		<stop  offset="0.4722" style="stop-color:#B3FFD1"/>
		<stop  offset="0.7146" style="stop-color:#97FFD1"/>
		<stop  offset="1" style="stop-color:#C5FFE8"/>
	</linearGradient>
	<path class="st16" d="M1582.91,569.92c-13.5-10.09-30.62-14.03-47.18-17.85l-1.32-0.3c-35.4-8.17-73.5-19.05-119.89-34.25
		c2.62-21.17,5.56-45.15-0.43-67.63c-0.25-0.93-0.51-1.87-0.78-2.81l-0.05-0.17c-1.19-4.17-2.31-8.11-2.15-12.08
		c0.28-6.94,4.36-12.98,8.67-19.37c1.5-2.22,3.04-4.51,4.42-6.84c11.54-19.58,11.22-42.67,10.9-64.99
		c-0.16-11.52-0.35-24.55,1.5-36.88c39.85-6.33,81.05-7.18,116.1-7.18c8.78,0,17.64,0.06,25.19,0.12l-0.02,0.47
		c0,0.07,0.02,0.13,0.07,0.18s0.11,0.08,0.17,0.08c1.23,0.05,2.52,0.08,3.83,0.08c5.92,0,11.96-0.55,17.28-1.03l0.43-0.04
		c5.31-0.48,10.8-0.98,16.21-0.98c0.71,0,1.43,0.01,2.14,0.03c7.1,0.17,24.49,1.92,32.73,14.54c5.46,8.36,5.5,19.72,5.53,28.84
		l0.19,55.09c0.02,6.53,0.04,13.91,2.85,20.63c2.24,5.34,6.08,9.81,9.47,13.76l53.92,62.75l0.39,0.44
		c-16.62,4.51-31.56,13.09-46.02,21.38L1582.91,569.92z"/>
	<path d="M1615.85,298.72c0.71,0,1.43,0.01,2.14,0.03c7.06,0.16,24.35,1.9,32.53,14.43c5.42,8.3,5.46,19.61,5.49,28.71l0.19,55.1
		c0.02,6.54,0.04,13.94,2.87,20.71c2.25,5.38,6.11,9.87,9.51,13.83l53.92,62.75c0.04,0.05,0.08,0.1,0.12,0.14
		c-16.49,4.55-31.33,13.06-45.69,21.3l-94,53.92c-13.52-10.05-30.61-13.98-47.14-17.79l-1.32-0.3
		c-35.35-8.16-73.38-19.02-119.68-34.18c2.62-21.14,5.52-45.06-0.46-67.52c-0.26-0.97-0.54-1.94-0.81-2.92l-0.02-0.06
		c-1.18-4.15-2.3-8.08-2.14-12c0.28-6.87,4.33-12.88,8.63-19.24c1.5-2.22,3.04-4.51,4.42-6.86c11.58-19.64,11.25-42.76,10.93-65.14
		c-0.16-11.44-0.35-24.39,1.47-36.64c39.77-6.3,80.89-7.15,115.88-7.15c8.67,0,17.44,0.06,24.92,0.11l-0.01,0.21
		c-0.01,0.13,0.04,0.26,0.13,0.36c0.09,0.1,0.21,0.16,0.35,0.16c1.23,0.05,2.52,0.08,3.84,0.08c5.93,0,11.97-0.55,17.3-1.03
		l0.45-0.04C1604.98,299.21,1610.45,298.72,1615.85,298.72 M1615.85,298.22c-5.57,0-11.18,0.52-16.66,1.02
		c-5.64,0.51-11.44,1.03-17.26,1.03c-1.27,0-2.55-0.02-3.82-0.08l0.03-0.73c-8.45-0.06-16.94-0.12-25.45-0.12
		c-38.77,0-77.94,1.1-116.32,7.21c-1.82,12.03-1.7,24.75-1.53,37.08c0.31,22.3,0.64,45.35-10.87,64.88
		c-1.36,2.3-2.88,4.57-4.41,6.83c-4.34,6.43-8.43,12.49-8.71,19.5c-0.16,4,0.96,7.96,2.16,12.16c0.28,0.99,0.56,1.98,0.83,2.97
		c5.97,22.42,3.02,46.48,0.39,67.74c39.54,12.95,79.64,24.98,120.11,34.32l1.32,0.3c16.66,3.84,33.8,7.82,47.22,17.9l94.28-54.08
		c14.62-8.39,29.69-17.01,46.35-21.46c-0.21-0.25-0.45-0.5-0.65-0.74l-53.92-62.75c-3.38-3.93-7.21-8.39-9.43-13.69
		c-2.79-6.68-2.81-14.04-2.83-20.53l-0.19-55.09c-0.03-9.16-0.08-20.56-5.57-28.98c-8.31-12.73-25.8-14.49-32.94-14.66
		C1617.28,298.22,1616.57,298.22,1615.85,298.22L1615.85,298.22z"/>
</g>
<g>
	<linearGradient id="SVGID_17_" gradientUnits="userSpaceOnUse" x1="396.2756" y1="975.0643" x2="2214.8025" y2="-944.4946">
		<stop  offset="0" style="stop-color:#30FBB2"/>
		<stop  offset="0.2601" style="stop-color:#C7FFDC"/>
		<stop  offset="0.3712" style="stop-color:#CDFFD1"/>
		<stop  offset="0.4722" style="stop-color:#B3FFD1"/>
		<stop  offset="0.7146" style="stop-color:#97FFD1"/>
		<stop  offset="1" style="stop-color:#C5FFE8"/>
	</linearGradient>
	<path class="st17" d="M411.37,1108.32c-3.95-0.96-8.4-2.04-11.49-4.65c-2.33-1.96-3.94-4.8-5.53-7.78
		c-23.45-44.05-29.77-97.58-17.79-150.75l67.2-6.38c0.08-0.01,0.14-0.05,0.19-0.11c0.04-0.06,0.05-0.14,0.03-0.21l-0.94-2.93
		c-15.43-48.06,9.01-100.5,32.02-140.81l5.61-9.77c23.22-40.35,47.23-82.07,46.21-128.1c0.87,0.08,1.75,0.13,2.62,0.13
		c14.84,0,28.69-12.1,42.35-36.99c39.66-72.26,86.62-140.91,139.59-204.05c36.01,12.33,72.38,26.31,108.09,41.57
		c3.38,1.44,7.21,3.08,10.01,5.63c2.57,2.34,4.44,5.56,6.25,8.68l24.42,42.12c7.34,12.67,14.94,25.77,18.12,40.17
		c1.16,5.27,1.73,10.78,2.28,16.11c0.45,4.29,0.91,8.74,1.67,13.11c2.77,15.81,9.5,30.77,19.5,43.32
		c-26.18,3.1-62.87,12.21-89.93,37.93c-10.88,10.35-19.65,22.73-28.14,34.71c-2.64,3.73-5.32,7.5-8.01,11.16
		c-19.86,26.97-43.71,51.44-66.77,75.1c-20.33,20.86-41.32,42.4-59.64,65.66c-19.65,24.96-36.62,52.39-53.02,78.92l-5.83,9.42
		c-36.91,59.5-76.54,122.65-119.52,183.28L411.37,1108.32z"/>
	<path d="M711.5,416.19c35.95,12.31,72.26,26.27,107.91,41.5c3.36,1.43,7.17,3.06,9.94,5.58c2.54,2.31,4.4,5.52,6.2,8.62
		l24.42,42.12c7.34,12.65,14.92,25.73,18.09,40.1c1.16,5.26,1.73,10.76,2.28,16.09c0.45,4.3,0.91,8.74,1.67,13.12
		c2.75,15.7,9.4,30.58,19.27,43.08c-26.19,3.15-62.67,12.32-89.63,37.95c-10.9,10.36-19.68,22.76-28.19,34.77l-0.04,0.05
		c-2.59,3.65-5.26,7.42-7.95,11.08c-19.85,26.96-43.69,51.42-66.76,75.09c-20.31,20.84-41.31,42.39-59.64,65.66
		c-19.66,24.97-36.63,52.41-53.05,78.96l-5.82,9.4c-36.88,59.45-76.47,122.55-119.41,183.13l-59.4-14.43
		c-3.9-0.95-8.32-2.02-11.36-4.59c-2.3-1.94-3.9-4.75-5.47-7.71c-23.4-43.95-29.72-97.35-17.81-150.41l67.02-6.36
		c0.15-0.01,0.29-0.1,0.37-0.22c0.08-0.13,0.1-0.28,0.06-0.43l-0.94-2.93c-15.4-47.97,9.01-100.34,32-140.61l5.62-9.79
		c23.19-40.29,47.16-81.95,46.24-127.94c0.79,0.07,1.58,0.1,2.36,0.1c14.93,0,28.86-12.14,42.57-37.12
		C611.68,547.88,658.59,479.29,711.5,416.19 M711.34,415.61c-53.03,63.2-100.03,131.91-139.72,204.22
		c-13.56,24.71-27.4,36.86-42.13,36.86c-0.95,0-1.91-0.05-2.87-0.15c1.13,46.08-22.91,87.84-46.17,128.25l-5.61,9.77
		c-23.04,40.35-47.5,92.86-32.04,141.01l0.94,2.93l-67.38,6.4c-12.05,53.3-5.76,106.9,17.77,151.1c1.6,3,3.22,5.86,5.59,7.85
		c3.14,2.65,7.63,3.74,11.59,4.7l59.71,14.5c42.98-60.62,82.65-123.84,119.62-183.43l5.82-9.4c16.4-26.53,33.37-53.97,53.02-78.92
		c18.31-23.26,39.31-44.8,59.62-65.64c23.07-23.67,46.93-48.16,66.79-75.13c2.71-3.67,5.35-7.4,7.99-11.14
		c8.48-11.97,17.25-24.36,28.12-34.69c26.81-25.49,63.01-34.75,90.23-37.92c-10.14-12.6-16.93-27.56-19.73-43.55
		c-0.76-4.36-1.22-8.8-1.67-13.09c-0.55-5.35-1.13-10.88-2.29-16.14c-3.19-14.45-10.79-27.56-18.15-40.25l-24.42-42.12
		c-1.82-3.14-3.7-6.38-6.3-8.74c-2.83-2.57-6.68-4.22-10.08-5.67C783.85,441.96,747.43,427.96,711.34,415.61L711.34,415.61z"/>
</g>
<g id="_x32_0_A">
	<linearGradient id="SVGID_18_" gradientUnits="userSpaceOnUse" x1="1081.9185" y1="1621.7903" x2="2898.4578" y2="-295.6708">
		<stop  offset="0" style="stop-color:#30FBB2"/>
		<stop  offset="0.2601" style="stop-color:#C7FFDC"/>
		<stop  offset="0.3712" style="stop-color:#CDFFD1"/>
		<stop  offset="0.4722" style="stop-color:#B3FFD1"/>
		<stop  offset="0.7146" style="stop-color:#97FFD1"/>
		<stop  offset="1" style="stop-color:#C5FFE8"/>
	</linearGradient>
	<path class="st18" d="M2153.63,919.3c-58.79-1.09-117.6-8.59-174.8-22.27c-3.03-0.72-5.67-1.46-7.29-3.17
		c-1.5-1.58-2.17-4.14-2.77-6.41l-21.1-80.29c-5.3-20.15-11.89-45.23-30.28-60.92c-6.36-5.42-13.9-9.52-21.19-13.48
		c-11.8-6.41-22.94-12.46-28.69-23.43c-3.68-7.03-4.52-15.03-5.4-23.49c-0.38-3.62-0.76-7.32-1.38-10.98
		c-5.18-30.18-26.13-53.93-46.39-76.9l-1.47-1.67c-26.28-29.8-52.01-61.44-76.51-94.07c0.15,0.01,0.3,0.03,0.44,0.03
		c2.92,0,5.85-0.7,8.37-1.35c29.9-7.74,59.11-18.6,86.82-32.26c3.68-1.81,7.32-3.67,10.85-5.46c19.24-9.78,39.12-19.89,60.41-21.83
		c2.76-0.25,5.62-0.37,8.75-0.37c7.69,0,15.48,0.76,23.03,1.5l0.94,0.09c11.31,1.1,23.37,2.12,34.99,2.12
		c16.65,0,30.11-2.04,42.36-6.41c12.92-4.61,24.7-12.05,36.09-19.24c14.54-9.18,28.26-17.83,44.22-21.27l0.27-0.06l-0.9,2.25
		c-0.02,0.06-0.02,0.13,0,0.19s0.08,0.11,0.14,0.13c7.28,2.89,9.68,12.36,11.06,21.24c13.08,84.08,21.6,170.13,29.84,253.33
		l12.02,121.32C2150.05,836.49,2154.17,878.15,2153.63,919.3z"/>
	<path d="M2093.49,398.06l-0.72,1.82c-0.05,0.12-0.05,0.26,0.01,0.38c0.05,0.12,0.15,0.22,0.27,0.27
		c7.17,2.84,9.53,12.23,10.9,21.05c13.08,84.08,21.6,170.12,29.84,253.33l12.02,121.31c3.98,40.21,8.1,81.79,7.58,122.83
		c-58.68-1.11-117.39-8.6-174.5-22.26c-2.99-0.71-5.59-1.44-7.16-3.1c-1.45-1.53-2.12-4.07-2.71-6.3l-21.1-80.29
		c-5.31-20.18-11.91-45.3-30.36-61.04c-6.38-5.44-13.93-9.54-21.24-13.51c-11.76-6.39-22.88-12.42-28.59-23.33
		c-3.66-6.99-4.49-14.97-5.37-23.45c-0.37-3.59-0.76-7.29-1.38-10.95c-5.19-30.26-26.17-54.03-46.47-77.04l-1.45-1.65
		c-26.16-29.66-51.78-61.16-76.18-93.63c2.93-0.01,5.85-0.71,8.36-1.36c29.92-7.75,59.14-18.61,86.87-32.28
		c3.62-1.78,7.29-3.65,10.86-5.47c19.2-9.77,39.06-19.86,60.31-21.79c2.76-0.25,5.61-0.37,8.72-0.37c7.67,0,15.47,0.76,23,1.5
		l0.94,0.09c11.31,1.1,23.39,2.12,35.01,2.12c16.68,0,30.17-2.04,42.45-6.42c12.94-4.62,24.73-12.06,36.16-19.27
		C2064,410.13,2077.65,401.52,2093.49,398.06 M2094.3,397.38L2094.3,397.38L2094.3,397.38z M2094.3,397.38l-0.73,0.16
		c-16.01,3.45-29.75,12.12-44.3,21.31c-11.38,7.19-23.16,14.62-36.04,19.22c-13.47,4.81-27.65,6.39-42.28,6.39
		c-11.42,0-23.11-0.97-34.96-2.12l-0.94-0.09c-7.58-0.74-15.35-1.5-23.05-1.5c-2.94,0-5.87,0.11-8.77,0.38
		c-21.34,1.94-41.25,12.06-60.5,21.85c-3.62,1.84-7.23,3.68-10.85,5.46c-27.7,13.65-56.89,24.5-86.78,32.24
		c-2.71,0.7-5.52,1.34-8.31,1.34c-0.33,0-0.66-0.06-0.98-0.08c24.31,32.4,50.11,64.19,76.86,94.53l1.45,1.65
		c20.24,22.94,41.18,46.67,46.35,76.79c0.62,3.62,1.01,7.33,1.38,10.92c0.88,8.5,1.72,16.54,5.43,23.63
		c5.78,11.04,16.96,17.11,28.79,23.53c7.28,3.95,14.82,8.05,21.15,13.45c18.33,15.64,24.92,40.67,30.2,60.79l21.1,80.29
		c0.6,2.29,1.29,4.89,2.83,6.52c1.66,1.75,4.34,2.51,7.41,3.24c57.31,13.71,116.21,21.2,175.11,22.28
		c0.56-41.21-3.57-82.97-7.57-123.38l-12.02-121.31c-8.24-83.22-16.76-169.26-29.84-253.36c-1.39-8.95-3.81-18.5-11.21-21.44
		L2094.3,397.38L2094.3,397.38z"/>
</g>
<g id="_x30_2_A">
	<linearGradient id="SVGID_19_" gradientUnits="userSpaceOnUse" x1="690.5997" y1="1249.9891" x2="2504.512" y2="-664.6989">
		<stop  offset="0" style="stop-color:#30FBB2"/>
		<stop  offset="0.2601" style="stop-color:#C7FFDC"/>
		<stop  offset="0.3712" style="stop-color:#CDFFD1"/>
		<stop  offset="0.4722" style="stop-color:#B3FFD1"/>
		<stop  offset="0.7146" style="stop-color:#97FFD1"/>
		<stop  offset="1" style="stop-color:#C5FFE8"/>
	</linearGradient>
	<path class="st19" d="M1445.56,630.91c-71.13-20.69-142.17-43.78-211.15-68.63c-5.46-1.97-11.07-3.99-15.66-7.47
		c-7.4-5.59-11.6-14.4-15.56-23.72l126.03-36.9c45.56,15.89,97.19,33.9,148.45,48.49c-11.03,27.1-20.84,55.56-29.5,80.67
		L1445.56,630.91z"/>
	<path d="M1329.22,494.46c45.47,15.86,96.97,33.82,148.12,48.39c-10.99,27.03-20.77,55.39-29.4,80.42l-1.53,4.44l-1,2.89
		c-71.05-20.67-142-43.73-210.94-68.57c-5.41-1.95-11-3.97-15.56-7.42c-7.28-5.5-11.45-14.17-15.37-23.36L1329.22,494.46
		 M1329.23,493.93l-126.38,37c3.69,8.68,7.98,18.2,15.75,24.08c4.63,3.5,10.27,5.53,15.72,7.5c69.42,25.01,140.52,48.1,211.39,68.7
		c0.9-2.6,1.8-5.2,2.69-7.78c9.21-26.71,18.75-54.28,29.6-80.91C1427.51,528.16,1377.77,510.86,1329.23,493.93L1329.23,493.93z"/>
</g>
<g>
	<linearGradient id="SVGID_20_" gradientUnits="userSpaceOnUse" x1="518.5564" y1="1089.245" x2="2336.2881" y2="-829.4746">
		<stop  offset="0" style="stop-color:#30FBB2"/>
		<stop  offset="0.2601" style="stop-color:#C7FFDC"/>
		<stop  offset="0.3712" style="stop-color:#CDFFD1"/>
		<stop  offset="0.4722" style="stop-color:#B3FFD1"/>
		<stop  offset="0.7146" style="stop-color:#97FFD1"/>
		<stop  offset="1" style="stop-color:#C5FFE8"/>
	</linearGradient>
	<path class="st20" d="M1315.65,330.13c-0.9,0-1.81-0.02-2.71-0.05c-17.84-0.68-35.05-7.81-51.69-14.7
		c-3.06-1.27-6.12-2.53-9.17-3.76c-12.97-5.2-30.04-11.18-47.06-11.18c-3.76,0-7.46,0.29-10.99,0.86
		c-8.39-9.87-22.8-29.64-25.87-51.93c-3.83-27.79,4.13-56.61,11.15-82.03l38.71-140.17c0.4-0.33,0.7-0.66,0.93-1.04
		c0.03-0.06,0.05-0.13,0.03-0.19c-0.02-0.06-0.06-0.12-0.11-0.15l-0.4-0.24l0.11-0.38l0.16-2.11c0.01-0.1-0.04-0.19-0.13-0.24
		l-0.92-0.52c0.23-0.02,0.47-0.02,0.73-0.02c0.52,0,1.11,0.03,1.71,0.09c4.43,0.41,9.08,0.62,14.23,0.62
		c8.67,0,17.35-0.58,25.75-1.14l1.04-0.07c94.96-6.32,191.68-9.53,287.5-9.53c35.11,0,70.6,0.43,105.49,1.29
		c2.86,10.87,1.85,22.17,0.79,34.13l-0.01,0.14c-0.48,5.38-0.97,10.94-1.06,16.42c-0.28,16.23,4.88,36.42,20.16,44.68
		c-15.17,10.05-27.22,27.78-34.86,51.31c-3.26,10.04-5.66,20.45-7.99,30.52c-2.6,11.27-5.27,22.84-9.1,33.8
		c-8.97,25.63-24.75,49.07-38.69,69.77c-9.54-0.08-20.34-0.16-31.11-0.16c-65.35,0-119.68,3.44-172.4,20.25
		c-4.06,1.3-8.2,2.7-12.2,4.06l-0.43,0.15C1351.32,324,1333.32,330.13,1315.65,330.13z"/>
	<path d="M1548.63,12v0.5c35.05,0,70.47,0.43,105.29,1.29c2.79,10.77,1.79,21.99,0.73,33.86l-0.01,0.13
		c-0.48,5.39-0.97,10.96-1.06,16.44c-0.28,16.18,4.83,36.27,19.93,44.7c-15.06,10.12-27.02,27.81-34.62,51.21
		c-3.26,10.05-5.67,20.47-7.99,30.54l-0.02,0.09c-2.58,11.18-5.25,22.74-9.07,33.67c-8.95,25.55-24.68,48.94-38.59,69.6
		c-9.51-0.08-20.27-0.16-30.98-0.16c-65.37,0-119.72,3.45-172.46,20.26c-4.08,1.3-8.24,2.72-12.26,4.08l-0.38,0.13
		c-15.87,5.4-33.85,11.52-51.48,11.52c-0.9,0-1.81-0.02-2.7-0.05c-17.8-0.68-34.98-7.8-51.6-14.68c-3.09-1.28-6.11-2.53-9.17-3.76
		c-12.99-5.21-30.09-11.2-47.16-11.2c-3.73,0-7.39,0.28-10.89,0.84c-8.38-9.88-22.67-29.55-25.72-51.69
		c-3.82-27.74,4.13-56.53,11.14-81.93l38.69-140.1c0.39-0.33,0.69-0.67,0.92-1.05c0.14-0.24,0.07-0.54-0.17-0.69l-0.24-0.14
		l0.06-0.2c0.01-0.03,0.01-0.06,0.02-0.1l0.15-2.07c0.01-0.19-0.08-0.38-0.25-0.47l-0.13-0.07c0.47,0.01,0.98,0.04,1.51,0.09
		c4.43,0.41,9.09,0.62,14.25,0.62c8.67,0,17.36-0.58,25.76-1.14l1.04-0.07c94.95-6.32,191.68-9.53,287.49-9.53V12 M1548.63,12
		c-95.93,0-192.24,3.19-287.52,9.53l-1.03,0.07c-8.45,0.56-17.08,1.14-25.73,1.14c-4.74,0-9.48-0.17-14.2-0.61
		c-0.43-0.04-1.06-0.09-1.73-0.09c-0.51,0-1.04,0.03-1.52,0.11l1.59,0.9l-0.15,2.07l-0.16,0.57l0.56,0.34
		c-0.25,0.41-0.58,0.74-0.93,1.02l-38.73,140.25c-7.03,25.44-14.99,54.28-11.15,82.13c3.07,22.28,17.31,41.93,26.02,52.16
		c3.69-0.61,7.39-0.88,11.09-0.88c16.37,0,32.59,5.39,46.97,11.16c3.05,1.23,6.11,2.49,9.17,3.76c16.66,6.9,33.89,14.03,51.78,14.72
		c0.91,0.03,1.81,0.05,2.72,0.05c17.51,0,34.87-5.84,51.64-11.55c4.21-1.43,8.42-2.87,12.63-4.21
		c55.88-17.81,114.58-20.24,172.31-20.24c10.45,0,20.88,0.08,31.24,0.16c14.78-21.94,29.94-44.65,38.8-69.94
		c3.83-10.96,6.51-22.54,9.09-33.74c2.33-10.09,4.74-20.52,8-30.58c7.71-23.76,19.79-41.41,35.11-51.41
		c-15.38-8.03-20.68-28.47-20.4-44.65c0.1-5.51,0.59-11.12,1.07-16.54c1.07-12.04,2.08-23.45-0.84-34.4
		C1619.18,12.43,1583.93,12,1548.63,12L1548.63,12z"/>
</g>
<g id="_x30_3_A">
	<linearGradient id="SVGID_21_" gradientUnits="userSpaceOnUse" x1="848.7435" y1="1399.1119" x2="2662.1985" y2="-515.0933">
		<stop  offset="0" style="stop-color:#30FBB2"/>
		<stop  offset="0.2601" style="stop-color:#C7FFDC"/>
		<stop  offset="0.3712" style="stop-color:#CDFFD1"/>
		<stop  offset="0.4722" style="stop-color:#B3FFD1"/>
		<stop  offset="0.7146" style="stop-color:#97FFD1"/>
		<stop  offset="1" style="stop-color:#C5FFE8"/>
	</linearGradient>
	<path class="st21" d="M1629.3,760.69c-31.61-8.38-64.53-18.33-89.57-39.1c-4.67-3.87-9.18-8.21-13.54-12.42
		c-8.61-8.3-17.49-16.85-28.33-22.6c-9.13-4.84-19.24-7.46-29.02-9.99c-10.2-2.64-20.74-5.37-29.79-10.71
		c4.84-13.43,9.52-26.93,14.28-40.74c8.71-25.27,18.59-53.91,29.62-80.95c17.88,5.01,34.31,9.23,50.24,12.91l1.32,0.3
		c16.36,3.77,33.27,7.67,46.04,17.63l-0.31,0.34c-0.09,0.1-0.08,0.26,0.02,0.35c17.89,16.14,30.81,37.94,36.37,61.39
		c2.68,11.3,3.73,23.13,4.75,34.56L1629.3,760.69z"/>
	<path d="M1483.09,544.48c17.8,4.98,34.17,9.19,50.04,12.85l1.32,0.3c16.24,3.74,33.03,7.61,45.73,17.42l-0.13,0.14
		c-0.18,0.21-0.17,0.52,0.04,0.71c17.85,16.11,30.74,37.87,36.29,61.26c2.67,11.28,3.73,23.1,4.74,34.54l7.9,88.66
		c-31.47-8.36-64.21-18.3-89.13-38.96c-4.67-3.87-9.17-8.21-13.55-12.43c-8.6-8.28-17.48-16.85-28.36-22.62
		c-9.15-4.85-19.28-7.48-29.09-10.02c-10.11-2.62-20.55-5.32-29.54-10.58c4.82-13.37,9.47-26.81,14.21-40.55
		C1462.25,599.99,1472.1,571.43,1483.09,544.48 M1482.8,543.87c-10.89,26.66-20.46,54.35-29.71,81.17
		c-4.67,13.54-9.4,27.23-14.35,40.93c9.01,5.36,19.23,8.05,30.03,10.84c9.77,2.53,19.87,5.15,28.98,9.97
		c10.8,5.73,19.67,14.27,28.25,22.54c4.37,4.21,8.89,8.57,13.58,12.46c25.65,21.27,59.31,31.11,90.01,39.24l-7.97-89.37
		c-1.02-11.45-2.07-23.29-4.76-34.61c-5.57-23.5-18.52-45.34-36.44-61.52l0.49-0.54c-12.75-10.05-29.79-14.02-46.35-17.84l-1.32-0.3
		C1516.35,552.94,1499.53,548.57,1482.8,543.87L1482.8,543.87z"/>
</g>
<g>
	<linearGradient id="SVGID_22_" gradientUnits="userSpaceOnUse" x1="350.2219" y1="930.5977" x2="2168.4121" y2="-988.6059">
		<stop  offset="0" style="stop-color:#30FBB2"/>
		<stop  offset="0.2601" style="stop-color:#C7FFDC"/>
		<stop  offset="0.3712" style="stop-color:#CDFFD1"/>
		<stop  offset="0.4722" style="stop-color:#B3FFD1"/>
		<stop  offset="0.7146" style="stop-color:#97FFD1"/>
		<stop  offset="1" style="stop-color:#C5FFE8"/>
	</linearGradient>
	<path class="st22" d="M836.05,462.23c-1.03-1.33-1.92-2.31-2.86-3.17c-3.47-3.16-7.76-4.99-11.54-6.61
		c-35.24-15.05-71.35-28.94-107.33-41.29c-1.62-2.43-4.02-4.02-6.15-5.33l-26.19-16.11l3.72-68.35
		c13.36-13.41,26.63-26.63,38.35-38.3c12.02-11.97,25.64-25.53,39.32-39.27c8.26-8.3,16.8-16.87,27.33-22.07
		c7.63-3.77,15.89-5.59,24.64-7.53c6.63-1.47,13.43-2.97,19.91-5.38c17.29-6.43,31.31-18.84,44.87-30.84l0.55-0.49
		c1.85-1.64,3.7-3.27,5.56-4.88c40.45-35.19,89.23-65.6,158.16-98.62l3.62-1.73c20.32-9.7,41.33-19.73,57.65-35.77l1.37-1.37
		c2.6-2.6,5.05-5.05,8.02-6.54c3.28-1.64,7.14-2.07,11.48-2.43c13.17-1.08,26.6-1.63,39.91-1.63c15.25,0,30.66,0.72,45.8,2.14
		c0,0,0.15,0.15,0.2,0.2l-38.39,139.04c-7.16,25.94-15.27,55.32-11.29,84.22c2.9,21.06,14.97,39.75,24.71,51.83
		c-16.32,2.46-31.69,9.16-46.55,15.63c-6.17,2.69-12.49,5.44-18.74,7.83c-20.83,7.97-43.14,12.8-64.72,17.47
		c-5.09,1.1-10.18,2.2-15.25,3.34c-52.88,11.89-105.34,28.46-156.07,44.5c-3.71,1.17-7.91,2.5-11.4,5.18
		c-2.92,2.24-5.03,5.17-7.11,8.22C855.33,422.13,844.71,441.68,836.05,462.23z"/>
	<path d="M1166.44,24.77c15.21,0,30.58,0.72,45.69,2.13c0.01,0.01,0.02,0.02,0.03,0.03l-38.36,138.9
		c-7.17,25.95-15.29,55.36-11.29,84.32c2.88,20.92,14.78,39.5,24.49,51.61c-16.19,2.52-31.43,9.16-46.18,15.58l-0.08,0.04
		c-6.1,2.66-12.4,5.4-18.64,7.79c-20.81,7.97-43.11,12.79-64.68,17.46c-5.16,1.12-10.22,2.21-15.25,3.34
		c-52.89,11.89-105.36,28.47-156.1,44.5c-3.73,1.18-7.95,2.51-11.48,5.22c-2.95,2.26-5.07,5.21-7.17,8.28
		c-12.22,17.91-22.79,37.33-31.43,57.76c-0.93-1.17-1.76-2.07-2.62-2.86c-3.51-3.19-7.81-5.03-11.61-6.66
		c-35.22-15.04-71.31-28.93-107.27-41.27c-1.65-2.43-4.05-4.03-6.18-5.33l-26.06-16.03l3.7-68.11
		c13.42-13.47,26.63-26.63,38.28-38.23c12.02-11.97,25.63-25.53,39.32-39.27c8.24-8.28,16.77-16.84,27.26-22.02
		c7.61-3.75,15.85-5.58,24.63-7.52c6.59-1.46,13.4-2.96,19.89-5.38c17.33-6.45,31.37-18.87,44.95-30.88l0.45-0.39
		c1.89-1.67,3.77-3.33,5.66-4.98c40.43-35.17,89.19-65.58,158.11-98.58l3.62-1.73c20.34-9.71,41.36-19.75,57.72-35.82l1.37-1.37
		c2.58-2.58,5.02-5.02,7.96-6.49c3.24-1.62,7.08-2.05,11.39-2.4C1139.72,25.32,1153.14,24.77,1166.44,24.77 M1166.44,24.27
		c-13.34,0-26.67,0.54-39.93,1.63c-4.36,0.36-8.24,0.79-11.57,2.45c-3,1.5-5.47,3.97-8.09,6.59l-1.37,1.37
		c-16.29,16.01-37.28,26.03-57.58,35.73l-3.62,1.73c-68.96,33.03-117.76,63.45-158.22,98.66c-2.04,1.77-4.07,3.57-6.11,5.37
		c-13.55,11.98-27.55,24.37-44.79,30.79c-6.47,2.41-13.28,3.91-19.86,5.37c-8.77,1.94-17.04,3.77-24.71,7.55
		c-10.56,5.21-19.12,13.81-27.39,22.12c-13.39,13.44-26.35,26.36-39.32,39.27c-12.67,12.62-25.35,25.25-38.42,38.37l-3.73,68.6
		l26.32,16.19c1.97,1.21,4.48,2.84,6.12,5.33c35.8,12.29,71.92,26.16,107.4,41.31c3.76,1.61,8.02,3.43,11.47,6.57
		c1.16,1.06,2.16,2.25,3.09,3.47c8.59-20.47,19.21-40.14,31.71-58.46c2.07-3.04,4.17-5.95,7.06-8.16c3.46-2.66,7.64-3.98,11.33-5.14
		c50.74-16.03,103.21-32.61,156.05-44.49c5.07-1.14,10.16-2.24,15.25-3.34c21.59-4.67,43.9-9.5,64.75-17.48
		c6.28-2.4,12.62-5.17,18.75-7.84c15-6.53,30.47-13.27,46.92-15.67c-9.1-11.22-21.95-30.4-24.93-52.04
		c-3.98-28.86,4.13-58.22,11.28-84.12l38.43-139.19c-0.13-0.11-0.25-0.23-0.37-0.35C1197.13,24.99,1181.78,24.27,1166.44,24.27
		L1166.44,24.27z"/>
</g>
</svg>
