<?xml version="1.0" standalone="no"?>
<!DOCTYPE svg PUBLIC "-//W3C//DTD SVG 20010904//EN"
 "http://www.w3.org/TR/2001/REC-SVG-20010904/DTD/svg10.dtd">
<svg version="1.0" xmlns="http://www.w3.org/2000/svg"
 width="1024.000000pt" height="1024.000000pt" viewBox="0 0 1024.000000 1024.000000"
 preserveAspectRatio="xMidYMid meet">

<g transform="translate(0.000000,1024.000000) scale(0.100000,-0.100000)"
fill="#000000" stroke="none">
<path d="M5992 9025 c0 -16 2 -22 5 -12 2 9 2 23 0 30 -3 6 -5 -1 -5 -18z"/>
<path d="M4902 8700 c0 -14 2 -19 5 -12 2 6 2 18 0 25 -3 6 -5 1 -5 -13z"/>
<path d="M5981 8694 c0 -11 3 -14 6 -6 3 7 2 16 -1 19 -3 4 -6 -2 -5 -13z"/>
<path d="M4913 8595 c0 -22 2 -30 4 -17 2 12 2 30 0 40 -3 9 -5 -1 -4 -23z"/>
<path d="M6124 8534 c-18 -14 -18 -15 4 -4 12 6 22 13 22 15 0 8 -5 6 -26 -11z"/>
<path d="M6074 8504 c-18 -14 -18 -15 4 -4 12 6 22 13 22 15 0 8 -5 6 -26 -11z"/>
<path d="M4922 8485 c0 -16 2 -22 5 -12 2 9 2 23 0 30 -3 6 -5 -1 -5 -18z"/>
<path d="M5942 8315 c0 -16 2 -22 5 -12 2 9 2 23 0 30 -3 6 -5 -1 -5 -18z"/>
<path d="M4220 8255 c19 -19 36 -35 39 -35 3 0 -10 16 -29 35 -19 19 -36 35
-39 35 -3 0 10 -16 29 -35z"/>
<path d="M4943 8245 c0 -22 2 -30 4 -17 2 12 2 30 0 40 -3 9 -5 -1 -4 -23z"/>
<path d="M8011 8018 c-389 -384 -436 -431 -356 -358 92 84 614 600 607 600 -3
0 -116 -109 -251 -242z"/>
<path d="M5933 8205 c0 -22 2 -30 4 -17 2 12 2 30 0 40 -3 9 -5 -1 -4 -23z"/>
<path d="M4953 8095 c0 -33 2 -45 4 -27 2 18 2 45 0 60 -2 15 -4 0 -4 -33z"/>
<path d="M4351 8100 c14 -31 19 -36 19 -24 0 6 -7 19 -16 30 -14 18 -14 18 -3
-6z"/>
<path d="M4381 8035 c0 -5 6 -21 14 -35 8 -14 14 -20 14 -15 0 6 -6 21 -14 35
-8 14 -14 21 -14 15z"/>
<path d="M3920 7981 c0 -6 4 -13 10 -16 6 -3 7 1 4 9 -7 18 -14 21 -14 7z"/>
<path d="M2695 7940 c10 -11 20 -20 23 -20 3 0 -3 9 -13 20 -10 11 -20 20 -23
20 -3 0 3 -9 13 -20z"/>
<path d="M4962 7930 c0 -19 2 -27 5 -17 2 9 2 25 0 35 -3 9 -5 1 -5 -18z"/>
<path d="M5913 7915 c0 -27 2 -38 4 -22 2 15 2 37 0 50 -2 12 -4 0 -4 -28z"/>
<path d="M4421 7945 c0 -5 6 -21 14 -35 8 -14 14 -20 14 -15 0 6 -6 21 -14 35
-8 14 -14 21 -14 15z"/>
<path d="M3950 7936 c0 -2 8 -10 18 -17 15 -13 16 -12 3 4 -13 16 -21 21 -21
13z"/>
<path d="M5413 7895 c0 -22 2 -30 4 -17 2 12 2 30 0 40 -3 9 -5 -1 -4 -23z"/>
<path d="M4015 7860 c10 -11 20 -20 23 -20 3 0 -3 9 -13 20 -10 11 -20 20 -23
20 -3 0 3 -9 13 -20z"/>
<path d="M2770 7857 c0 -1 35 -36 78 -77 l77 -75 -75 78 c-69 71 -80 82 -80
74z"/>
<path d="M4972 7830 c0 -19 2 -27 5 -17 2 9 2 25 0 35 -3 9 -5 1 -5 -18z"/>
<path d="M5903 7790 c0 -36 2 -50 4 -32 2 17 2 47 0 65 -2 17 -4 3 -4 -33z"/>
<path d="M5421 7774 c0 -11 3 -14 6 -6 3 7 2 16 -1 19 -3 4 -6 -2 -5 -13z"/>
<path d="M2388 7773 c6 -2 18 -2 25 0 6 3 1 5 -13 5 -14 0 -19 -2 -12 -5z"/>
<path d="M4501 7775 c0 -5 6 -21 14 -35 8 -14 14 -20 14 -15 0 6 -6 21 -14 35
-8 14 -14 21 -14 15z"/>
<path d="M5040 7745 c19 -19 36 -35 39 -35 3 0 -10 16 -29 35 -19 19 -36 35
-39 35 -3 0 10 -16 29 -35z"/>
<path d="M2438 7763 c7 -3 16 -2 19 1 4 3 -2 6 -13 5 -11 0 -14 -3 -6 -6z"/>
<path d="M5422 7725 c0 -16 2 -22 5 -12 2 9 2 23 0 30 -3 6 -5 -1 -5 -18z"/>
<path d="M5135 7644 c75 -73 115 -107 115 -95 0 5 -12 17 -27 27 -16 10 -55
42 -88 72 l-60 55 60 -59z"/>
<path d="M4990 7684 c0 -6 7 -19 15 -30 8 -10 14 -14 14 -9 0 6 -6 19 -14 29
-8 11 -15 15 -15 10z"/>
<path d="M5893 7640 c0 -30 2 -43 4 -27 2 15 2 39 0 55 -2 15 -4 2 -4 -28z"/>
<path d="M2981 7667 c15 -13 138 -73 133 -66 -6 10 -118 69 -130 69 -4 0 -5
-2 -3 -3z"/>
<path d="M4570 7625 c0 -5 5 -17 10 -25 5 -8 10 -10 10 -5 0 6 -5 17 -10 25
-5 8 -10 11 -10 5z"/>
<path d="M5026 7617 c3 -10 9 -15 12 -12 3 3 0 11 -7 18 -10 9 -11 8 -5 -6z"/>
<path d="M7490 7517 c-47 -45 -95 -93 -105 -107 -11 -14 3 -3 30 25 28 28 77
76 110 108 33 31 58 57 55 57 -3 -1 -43 -38 -90 -83z"/>
<path d="M5041 7590 c0 -3 8 -32 19 -65 12 -33 18 -46 16 -29 -5 29 -33 106
-35 94z"/>
<path d="M5883 7480 c0 -41 2 -58 4 -37 2 20 2 54 0 75 -2 20 -4 3 -4 -38z"/>
<path d="M2592 7520 c0 -14 2 -19 5 -12 2 6 2 18 0 25 -3 6 -5 1 -5 -13z"/>
<path d="M5252 7470 c0 -19 2 -27 5 -17 2 9 2 25 0 35 -3 9 -5 1 -5 -18z"/>
<path d="M3189 7465 c5 -11 17 -29 26 -40 l16 -20 -10 20 c-5 11 -17 29 -26
40 l-16 20 10 -20z"/>
<path d="M4674 7466 c11 -9 24 -16 30 -16 12 0 7 5 -24 19 -24 11 -24 11 -6
-3z"/>
<path d="M6774 7458 l-19 -23 23 19 c21 18 27 26 19 26 -2 0 -12 -10 -23 -22z"/>
<path d="M2602 7440 c0 -14 2 -19 5 -12 2 6 2 18 0 25 -3 6 -5 1 -5 -13z"/>
<path d="M6383 7425 c0 -22 2 -30 4 -17 2 12 2 30 0 40 -3 9 -5 -1 -4 -23z"/>
<path d="M5081 7434 c0 -11 3 -14 6 -6 3 7 2 16 -1 19 -3 4 -6 -2 -5 -13z"/>
<path d="M4760 7430 c8 -5 20 -10 25 -10 6 0 3 5 -5 10 -8 5 -19 10 -25 10 -5
0 -3 -5 5 -10z"/>
<path d="M4809 7382 c5 -34 6 -35 9 -8 2 16 0 32 -5 37 -5 5 -7 -7 -4 -29z"/>
<path d="M5470 7401 c0 -6 4 -13 10 -16 6 -3 7 1 4 9 -7 18 -14 21 -14 7z"/>
<path d="M3306 7383 c18 -10 87 -77 155 -148 538 -567 571 -605 562 -625 -4
-8 -7 -31 -8 -50 -1 -20 -9 -38 -20 -45 -9 -5 -83 -80 -164 -166 -101 -109
-164 -186 -205 -252 -52 -86 -61 -95 -93 -100 -20 -4 -46 -15 -58 -27 l-22
-20 -169 67 -169 68 -6 45 -6 45 -1 -42 c-1 -24 -5 -43 -8 -43 -4 0 -57 24
-118 54 l-112 54 -149 188 c-230 290 -184 253 -550 436 -176 88 -315 155 -310
150 6 -6 150 -81 322 -167 353 -177 303 -137 508 -401 169 -218 172 -220 359
-303 72 -33 73 -34 52 -96 -4 -11 2 -3 13 17 l21 37 42 -13 c24 -8 77 -27 118
-43 41 -17 93 -37 115 -45 29 -12 41 -22 43 -39 5 -37 22 -77 37 -83 10 -4 10
-15 -3 -60 -8 -31 -18 -56 -22 -56 -4 0 -40 11 -80 25 -40 14 -75 23 -77 21
-2 -2 32 -16 76 -31 45 -15 81 -30 81 -33 0 -9 -50 -232 -57 -252 -3 -8 -4
-72 -3 -142 0 -70 -3 -135 -9 -145 -5 -10 -13 -32 -18 -49 l-8 -32 -50 14
c-27 8 -85 17 -127 20 -63 6 -82 4 -102 -10 -17 -11 -60 -85 -128 -222 l-102
-206 -31 7 c-16 3 -70 13 -120 21 -106 17 -163 42 -205 90 -40 47 -167 106
-236 112 -30 2 -54 7 -54 11 0 3 11 73 25 155 14 82 23 151 21 153 -4 4 -22
-92 -47 -242 -6 -38 -15 -74 -19 -78 -4 -5 -72 7 -151 26 -181 44 -384 87
-407 86 -9 0 51 -16 133 -34 83 -18 202 -46 265 -61 83 -21 134 -28 185 -26
96 4 183 -31 272 -109 69 -62 91 -72 193 -89 36 -6 89 -15 117 -21 l53 -10
-57 -112 c-32 -62 -85 -163 -120 -226 -53 -99 -67 -116 -95 -125 -23 -8 -39
-22 -51 -47 -16 -33 -38 -47 -240 -149 l-222 -112 -129 -19 c-71 -11 -195 -31
-275 -45 -80 -14 -263 -45 -406 -69 -280 -48 -320 -57 -350 -80 -14 -10 -6 -9
30 4 28 11 91 26 140 35 162 28 446 75 675 112 332 53 321 49 558 173 211 110
213 110 232 91 11 -11 25 -20 30 -20 6 0 10 -7 10 -16 0 -14 1 -14 16 0 8 9
19 16 24 16 5 0 18 9 28 20 20 22 16 23 197 -54 33 -14 65 -26 71 -26 6 0 47
35 90 79 83 82 144 121 192 121 40 0 52 -17 52 -71 0 -28 18 -104 44 -186 24
-76 47 -153 51 -171 5 -23 19 -41 46 -59 29 -19 39 -32 39 -53 0 -15 10 -36
23 -49 22 -20 27 -21 63 -8 38 13 42 12 128 -31 202 -100 430 -237 421 -252
-3 -5 3 -6 14 -3 31 8 33 -14 7 -54 -22 -34 -24 -43 -15 -87 13 -69 19 -69 12
0 -6 54 -5 57 13 49 10 -5 36 -10 57 -13 31 -3 41 0 66 26 l28 31 84 -9 c46
-5 127 -16 179 -24 52 -9 98 -16 103 -16 4 0 7 -8 7 -17 0 -14 2 -15 9 -4 7
11 58 14 254 15 l246 1 4 -40 4 -40 1 43 c2 39 4 43 25 40 33 -5 36 -52 3 -73
-39 -26 -78 -16 -99 25 -12 24 -15 27 -11 10 9 -33 23 -50 52 -61 44 -17 111
37 99 81 -4 15 3 20 37 25 22 4 84 26 136 48 103 45 142 49 330 36 77 -6 85
-8 88 -28 4 -26 -22 -29 -38 -3 -8 11 -10 12 -7 2 2 -8 13 -19 25 -25 39 -18
30 -80 -38 -247 -33 -82 -69 -168 -80 -191 -23 -50 -70 -177 -69 -186 1 -11
44 91 134 314 67 167 89 230 88 263 -1 28 2 42 11 42 7 0 30 11 50 25 29 20
49 25 99 25 90 0 206 45 350 134 106 66 123 74 136 62 9 -8 28 -18 44 -21 15
-4 32 -15 38 -24 10 -15 10 -15 5 1 -2 9 4 24 16 35 11 10 24 27 28 38 12 30
254 119 307 113 32 -5 378 -101 659 -184 52 -15 93 -34 112 -52 l30 -28 37 33
c20 18 46 33 58 33 36 0 124 -58 388 -255 279 -209 361 -267 342 -244 -7 9
-10 19 -6 23 4 4 1 5 -7 2 -13 -5 -227 149 -502 361 -101 77 -193 126 -228
121 -35 -5 -40 14 -15 61 14 28 192 201 206 201 10 0 171 -171 246 -261 57
-70 96 -100 109 -86 3 2 -6 7 -19 11 -14 3 -37 22 -53 43 -45 59 -110 132
-214 238 -53 55 -111 120 -128 144 -18 24 -32 40 -32 36 0 -5 18 -32 41 -62
l40 -54 -105 -102 c-57 -56 -107 -109 -110 -117 -4 -10 -8 -11 -11 -4 -9 19
-55 3 -76 -26 l-21 -27 -61 18 c-34 10 -154 43 -267 74 -113 31 -249 70 -303
87 l-98 30 24 31 c39 53 42 64 6 24 -27 -31 -52 -45 -129 -72 -52 -18 -123
-42 -156 -54 l-62 -22 -27 25 c-16 15 -33 26 -40 26 -6 0 -17 23 -24 50 -7 28
-21 60 -30 71 -17 21 -20 21 -104 9 -48 -7 -94 -10 -102 -6 -10 4 -15 20 -15
51 0 47 -15 71 -68 105 -23 15 -23 16 -7 54 23 54 14 54 -11 0 l-21 -45 28
-14 c41 -21 70 -68 67 -107 -3 -55 6 -61 82 -54 37 3 80 9 97 12 26 5 34 2 48
-20 9 -14 21 -41 25 -60 6 -29 4 -38 -16 -57 -12 -12 -26 -34 -29 -50 -5 -24
-28 -42 -128 -104 -183 -114 -328 -154 -451 -126 -21 5 -42 13 -47 18 -5 5
-18 106 -29 224 -11 118 -24 263 -30 323 -6 60 -9 115 -6 122 14 37 134 12
294 -62 42 -19 77 -33 79 -31 5 6 -121 62 -227 102 -94 34 -136 43 -126 26 3
-5 -1 -11 -8 -14 -14 -6 -23 44 -29 157 l-2 29 248 49 c222 44 249 47 263 33
9 -8 18 -15 22 -15 3 0 1 5 -6 12 -7 7 -12 18 -12 25 0 19 42 33 58 21 19 -16
14 -49 -9 -55 -15 -4 -17 -8 -8 -14 23 -14 15 -69 -14 -92 -26 -22 -59 -81
-71 -127 -4 -14 6 2 22 35 16 33 44 73 61 90 24 23 32 37 30 60 -2 16 3 40 9
52 7 12 9 28 6 37 -7 18 55 29 169 30 75 1 80 0 99 -26 11 -16 28 -28 38 -28
10 0 21 -6 23 -12 3 -7 6 -1 6 15 1 20 6 27 21 27 25 0 26 -16 3 -29 -10 -6
-14 -11 -9 -11 5 0 17 7 27 16 26 24 316 52 504 50 150 -3 185 -8 185 -30 0
-22 18 -38 50 -45 33 -6 34 -9 101 -189 55 -149 64 -182 50 -183 -12 0 -11 -2
5 -9 15 -6 32 -42 68 -152 27 -78 49 -161 50 -184 1 -29 4 -37 12 -30 7 7 8
20 4 36 -5 14 -20 66 -35 115 -25 85 -68 203 -170 477 l-44 118 24 24 c14 14
25 34 25 45 0 23 54 71 80 71 11 0 31 5 45 12 20 9 25 18 25 47 0 40 18 73 88
164 27 34 86 117 132 184 45 67 88 127 96 134 19 16 81 -71 550 -770 130 -194
136 -206 126 -234 -7 -19 -8 -37 -1 -54 8 -21 -2 -65 -51 -227 -95 -313 -87
-292 -121 -306 -16 -7 -32 -17 -35 -22 -3 -4 14 1 39 13 l44 22 62 206 c35
113 67 225 73 249 8 34 14 42 34 44 13 0 28 1 33 2 5 1 41 -30 80 -67 l71 -68
238 -80 c287 -97 280 -95 267 -81 -6 7 -112 46 -235 88 -124 41 -238 84 -255
94 -16 10 -57 46 -90 79 -54 56 -59 64 -56 100 1 21 -2 42 -8 46 -6 3 -12 18
-12 33 -1 15 -3 20 -5 12 -6 -20 -44 -44 -54 -33 -4 4 -125 184 -269 398 -144
215 -294 436 -332 492 l-70 101 12 46 c7 30 17 46 27 46 9 0 30 14 48 31 l32
31 98 -26 c138 -37 549 -174 605 -202 25 -12 81 -53 125 -91 221 -188 278
-235 264 -218 -15 18 -161 146 -280 244 -36 30 -96 68 -135 86 -82 38 -329
120 -539 180 -129 37 -151 45 -158 66 -5 13 -18 34 -30 46 -19 20 -20 26 -9
85 20 107 29 182 24 195 -4 10 9 13 46 13 36 0 93 -15 198 -53 133 -48 244
-82 188 -58 -95 42 -343 121 -380 121 -36 0 -45 3 -45 18 0 29 46 117 71 138
13 10 22 18 20 16 -3 -1 -18 10 -35 25 -29 26 -30 27 -8 2 l22 -26 -29 -37
c-16 -20 -37 -59 -46 -86 -18 -55 -9 -50 -175 -89 -111 -26 -186 -35 -193 -24
-3 5 -31 136 -62 291 l-57 282 26 31 c14 17 26 41 26 54 0 20 11 28 70 51 39
15 69 29 67 30 -2 2 -34 -7 -72 -20 l-69 -23 -28 20 c-15 11 -38 21 -50 22
-19 1 -26 11 -38 56 -8 30 -21 55 -28 57 -10 2 -10 -2 -2 -17 17 -33 12 -40
-32 -44 l-43 -4 46 -1 c41 -2 48 -5 53 -27 4 -16 1 -34 -9 -48 -8 -12 -15 -32
-15 -44 0 -26 -43 -53 -330 -200 l-196 -101 -23 19 c-13 11 -39 19 -60 19 -40
0 -33 -10 -141 195 -29 55 -77 143 -106 196 -30 52 -54 100 -54 106 0 6 44 73
98 149 53 77 111 160 127 186 17 27 34 48 38 48 5 0 28 -13 52 -30 45 -31 198
-110 212 -110 4 0 -32 22 -82 48 -49 26 -110 61 -135 78 -65 44 -71 47 -64 31
2 -7 -43 -83 -102 -168 -141 -204 -152 -219 -167 -215 -6 1 -9 1 -4 -1 9 -6 9
-33 0 -33 -20 1 -35 19 -29 35 4 13 2 16 -9 11 -9 -3 -15 0 -15 8 0 7 -49 48
-110 91 -60 42 -110 82 -110 86 0 5 -5 9 -10 9 -14 0 -110 72 -110 83 0 13
100 179 123 204 l20 23 -26 -13 c-15 -6 -27 -15 -27 -19 0 -9 -75 -145 -95
-172 -13 -17 -19 -14 -102 50 -48 38 -125 105 -170 149 -80 78 -82 81 -78 120
5 37 4 38 -5 10 -12 -37 -67 -59 -111 -43 -33 11 -103 5 -204 -17 -159 -36
-210 -44 -216 -33 -4 7 -8 6 -11 -2 -2 -7 -33 -18 -68 -26 -36 -7 -154 -31
-264 -54 -109 -22 -202 -43 -207 -46 -5 -3 -23 6 -40 20 -17 14 -40 26 -51 26
-18 0 -20 4 -14 30 3 17 33 96 67 176 33 80 59 148 56 150 -5 6 -123 -279
-132 -321 -4 -16 -18 -41 -30 -55 -12 -14 -25 -33 -28 -42 -4 -11 -33 -25 -79
-38 -144 -42 -258 -82 -314 -110 -42 -22 -61 -27 -75 -20 -10 6 -24 10 -31 9
-7 0 -3 -5 10 -11 27 -13 27 -20 4 -42 -18 -15 -20 -15 -37 5 -17 17 -17 22
-5 31 13 8 12 9 -1 5 -12 -4 -107 89 -321 311 -168 174 -331 345 -363 380 -35
38 -66 62 -79 62 -17 0 -16 -3 10 -17z m2514 -385 c0 -7 -4 -19 -9 -27 -8 -12
-12 -13 -25 -2 -12 11 -14 17 -5 27 14 17 39 18 39 2z m-43 -32 l37 -33 -18
-121 c-10 -66 -16 -127 -13 -134 3 -7 6 -3 6 10 1 13 8 71 17 128 15 97 19
106 42 115 22 8 30 5 61 -24 20 -19 83 -71 141 -117 58 -46 109 -86 113 -90 5
-4 -29 -65 -74 -136 -153 -241 -176 -279 -198 -338 -12 -32 -20 -60 -18 -62 2
-2 16 27 31 66 23 59 231 396 271 439 11 11 21 7 64 -25 28 -21 51 -43 51 -49
0 -5 -20 -37 -45 -70 -25 -33 -45 -61 -45 -62 0 -11 15 6 55 62 26 36 50 65
53 65 7 0 30 -18 175 -129 31 -24 57 -49 57 -56 0 -7 7 -16 16 -19 10 -4 14
-14 11 -25 -2 -10 -57 -97 -121 -192 -74 -111 -117 -187 -121 -209 l-5 -35 11
34 c9 30 236 379 265 409 15 15 24 15 24 1 0 -5 26 -56 59 -112 56 -98 72
-131 70 -151 0 -5 5 -12 12 -17 7 -4 36 -49 64 -100 l51 -92 -18 -36 c-10 -20
-16 -45 -14 -57 5 -19 -10 -28 -127 -83 -72 -35 -159 -69 -192 -76 -58 -14
-59 -14 -15 -12 42 2 45 0 52 -28 l7 -30 -3 33 c-2 28 2 35 21 43 13 5 78 34
144 64 l120 56 26 -21 c14 -11 38 -20 54 -20 25 0 30 -5 46 -56 9 -31 19 -51
21 -45 2 6 -4 34 -13 62 -17 49 -17 51 3 72 11 12 22 37 24 56 3 33 7 37 163
118 88 47 204 108 257 137 l97 53 22 -23 c12 -13 31 -24 41 -24 10 0 20 -9 23
-22 2 -13 20 -99 40 -193 19 -93 43 -210 54 -260 28 -123 29 -117 -26 -111
l-48 6 50 -13 50 -12 13 -65 c7 -36 25 -91 41 -123 l28 -58 -101 6 c-56 4
-231 12 -391 18 l-290 12 -7 145 c-4 80 -11 159 -17 175 -7 24 -9 26 -10 8 -1
-12 -9 -24 -18 -26 -15 -4 -14 -5 3 -6 18 -1 22 -9 28 -62 3 -34 6 -101 6
-148 l0 -87 -167 4 c-158 3 -169 5 -183 25 -18 26 -41 49 -63 62 -12 7 -18 32
-23 93 l-7 82 39 2 c33 1 34 2 9 5 -16 2 -61 -3 -100 -11 l-70 -15 58 6 57 5
0 -43 c0 -24 3 -61 6 -81 6 -34 4 -38 -20 -44 -15 -3 -39 -21 -54 -39 l-27
-32 -221 -5 c-165 -4 -230 -2 -258 7 -21 7 -40 15 -42 18 -9 8 24 120 38 128
7 5 24 9 38 10 23 1 22 2 -5 8 -25 5 -31 12 -33 38 -3 29 0 33 35 42 123 32
147 39 133 40 -8 0 -51 -8 -95 -19 -46 -11 -81 -15 -83 -9 -2 5 -9 6 -14 3 -7
-5 -8 -2 -3 7 12 19 6 98 -11 138 -8 19 -13 35 -12 36 2 2 53 21 113 43 61 23
104 41 97 42 -7 0 -61 -18 -119 -40 l-107 -40 -23 22 c-13 12 -23 27 -23 34 0
7 33 42 73 79 71 65 117 120 117 140 0 5 -9 -3 -19 -20 -10 -16 -57 -68 -104
-114 l-86 -84 -53 23 c-29 12 -54 24 -56 25 -2 2 3 16 11 32 22 43 89 225 84
229 -2 3 -17 -31 -32 -73 -16 -43 -39 -102 -51 -131 l-23 -52 -33 13 c-29 12
-33 18 -31 48 1 19 -1 24 -4 12 -2 -13 -8 -23 -13 -23 -16 0 -48 66 -55 115
-3 28 -16 88 -27 134 -19 76 -20 85 -6 95 10 7 19 36 23 69 l7 57 -36 0 c-20
0 -36 -3 -35 -7 3 -19 -15 -52 -30 -56 -11 -3 -9 -5 7 -6 15 -1 22 5 22 17 0
23 19 42 43 42 17 0 19 -5 12 -47 -4 -27 -9 -51 -12 -55 -8 -15 -24 -8 -34 15
-11 25 -13 35 25 -118 13 -49 26 -109 30 -132 6 -43 6 -43 -26 -45 l-33 -1 33
-4 c30 -4 32 -7 33 -46 2 -31 3 -35 6 -14 l4 28 37 -40 c26 -27 63 -51 122
-76 47 -20 89 -40 93 -45 8 -7 -88 -180 -98 -180 -3 0 -28 9 -57 21 -29 12
-75 28 -101 36 -30 9 -47 19 -44 26 10 26 29 129 24 133 -2 3 -8 -12 -11 -33
-11 -62 -16 -73 -34 -73 -13 0 -14 -2 -4 -9 14 -9 12 -21 -23 -134 -14 -47
-14 -47 16 -82 l31 -35 -113 0 c-63 -1 -146 -3 -184 -6 l-70 -6 -38 92 c-20
50 -37 95 -37 100 0 5 15 11 33 13 28 3 27 4 -7 3 -32 0 -40 4 -53 28 -25 48
-54 139 -46 146 5 4 43 20 86 35 42 15 76 30 74 32 -2 2 -41 -10 -87 -27 -46
-17 -84 -29 -86 -28 -5 5 -92 221 -144 358 -42 110 -46 126 -32 132 16 6 16 7
0 7 -10 1 -19 13 -23 31 -4 16 -13 33 -20 37 -14 8 -45 85 -100 245 l-33 97
22 15 c13 8 29 28 36 45 15 36 -1 31 235 80 141 29 192 37 197 28 6 -9 8 -9 8
0 0 12 30 21 90 27 19 2 42 6 50 10 36 14 265 57 282 53 10 -3 18 -1 18 4 0 5
27 9 60 9 54 0 64 -3 97 -34z m77 8 c9 -23 8 -24 -14 -24 -11 0 -20 2 -20 4 0
12 13 36 20 36 4 0 11 -7 14 -16z m-1145 -120 c18 -13 20 -18 10 -25 -34 -21
-69 -5 -69 32 0 14 33 10 59 -7z m-65 -10 c10 -27 7 -34 -19 -34 -28 0 -29 3
-15 31 13 23 26 24 34 3z m91 -33 c6 -11 -40 -69 -48 -61 -3 3 -8 17 -12 32
-6 22 -3 27 17 31 12 2 26 5 30 6 4 0 9 -3 13 -8z m-75 -20 c0 -5 3 -16 6 -25
4 -11 0 -16 -13 -16 -22 0 -57 33 -46 43 10 10 53 8 53 -2z m-68 -23 c2 -6 19
-17 38 -23 18 -6 37 -18 41 -26 4 -8 32 -84 62 -169 54 -153 55 -155 36 -176
-10 -11 -19 -26 -19 -32 0 -7 -6 -12 -12 -12 -29 -1 -132 -51 -202 -99 -41
-28 -79 -51 -83 -51 -4 1 -28 26 -52 56 -25 31 -95 111 -157 179 -99 107 -111
125 -98 136 11 9 14 23 11 45 -5 31 -4 32 76 70 70 33 309 112 344 113 6 1 13
-4 15 -11z m-447 -198 c-4 -11 -13 -20 -21 -20 -23 0 -28 29 -8 51 16 17 19
18 27 4 4 -8 5 -24 2 -35z m-86 26 c9 -11 10 -20 1 -35 -20 -38 -47 -19 -36
25 7 27 18 30 35 10z m36 -46 c3 -6 -1 -13 -10 -16 -19 -8 -30 0 -20 15 8 14
22 14 30 1z m121 -132 c54 -61 127 -143 162 -182 l62 -70 -52 -56 -53 -55 53
50 53 50 34 -37 c20 -21 83 -62 143 -93 119 -62 205 -124 247 -179 23 -30 26
-41 20 -76 -4 -22 -17 -53 -29 -68 -13 -15 -28 -37 -35 -49 -6 -13 -15 -23
-20 -23 -4 0 -53 42 -108 93 -357 329 -382 350 -584 488 -91 63 -181 127 -199
142 l-33 28 66 67 c58 58 72 67 114 73 26 3 50 7 54 8 3 0 50 -49 105 -111z
m-305 -76 l31 -28 -31 -49 c-17 -27 -31 -56 -31 -66 0 -9 35 -63 78 -121 42
-57 91 -125 109 -150 23 -33 47 -54 90 -74 40 -20 58 -34 56 -44 -2 -8 14 23
36 69 50 102 53 122 5 29 -19 -38 -37 -68 -40 -68 -3 0 -29 11 -58 25 -42 20
-63 39 -97 88 -23 34 -71 99 -106 145 -35 46 -63 91 -63 101 0 9 13 38 30 64
l29 46 152 -104 c84 -57 168 -117 187 -132 l35 -28 -17 -35 c-9 -19 -11 -27
-4 -17 7 10 18 25 23 33 8 11 31 -5 111 -79 55 -50 160 -146 232 -212 123
-112 150 -145 120 -145 -10 0 -10 -2 0 -8 9 -6 6 -23 -13 -72 -14 -35 -29 -68
-34 -73 -13 -13 -103 15 -240 75 -64 28 -163 70 -220 93 -57 24 -108 49 -112
57 -7 10 -9 10 -9 0 0 -10 -5 -10 -21 -2 -11 7 -23 9 -26 7 -2 -3 5 -8 16 -12
12 -3 21 -11 21 -16 0 -6 4 -8 9 -5 9 6 110 -34 291 -114 65 -29 100 -48 80
-45 -51 9 -254 54 -328 72 -63 16 -64 16 -59 47 6 30 6 30 -6 6 -6 -14 -12
-26 -13 -28 -1 -2 -116 23 -256 56 -139 34 -282 66 -318 73 -36 6 -66 13 -67
14 -2 1 4 25 12 53 12 40 20 52 36 52 25 0 79 27 79 40 0 5 30 -2 67 -15 85
-31 94 -25 11 8 -60 24 -63 26 -69 65 -3 22 -11 47 -18 56 -11 13 -7 27 26 86
21 39 56 93 78 120 77 95 160 189 167 189 4 1 22 -12 39 -27z m908 6 c12 -30
-9 -53 -38 -43 -23 7 -28 34 -9 53 19 19 38 14 47 -10z m-54 -44 c13 -8 33
-14 45 -12 19 3 31 -21 115 -232 52 -129 95 -238 95 -241 0 -3 -19 -14 -41
-25 l-41 -18 -20 24 c-68 87 -98 115 -180 170 -50 34 -121 77 -157 95 -36 18
-78 49 -93 68 l-27 35 67 44 c96 65 119 78 160 93 48 18 49 18 77 -1z m2880
-114 c0 -7 -10 -17 -23 -21 -19 -7 -24 -4 -33 18 -7 20 -6 28 3 34 15 10 53
-13 53 -31z m-62 -10 c5 -18 -16 -40 -37 -40 -11 0 -6 46 6 58 14 14 24 8 31
-18z m84 -26 c3 -9 -4 -26 -18 -40 l-24 -26 -12 29 c-10 25 -9 29 10 40 29 16
37 16 44 -3z m-66 -41 c7 -19 5 -23 -10 -23 -23 0 -45 25 -36 40 11 17 37 7
46 -17z m-4048 -129 c4 -5 -6 -38 -19 -62 0 -1 -15 4 -32 11 -34 14 -31 30 8
46 31 12 35 13 43 5z m45 -26 c7 -7 12 -24 12 -39 0 -26 -1 -27 -30 -16 -33
12 -35 19 -20 48 12 22 21 24 38 7z m-99 -39 c17 -6 31 -13 31 -16 0 -5 -20
-45 -26 -52 -9 -10 -44 34 -44 56 0 27 -2 26 39 12z m87 -34 c19 -15 19 -15
-5 -35 -24 -21 -61 -27 -61 -10 0 19 24 60 35 60 6 0 20 -7 31 -15z m3388 -13
c15 -18 15 -19 -9 -30 -36 -17 -40 -15 -53 13 -16 35 -16 35 16 35 16 0 36 -8
46 -18z m-64 -48 c0 -15 -48 -36 -55 -24 -7 12 3 49 18 68 8 11 13 9 23 -10 8
-13 13 -28 14 -34z m90 -5 c0 -47 -40 -79 -54 -43 -11 28 -7 41 17 52 32 15
37 14 37 -9z m-1949 -77 l18 -52 -28 0 c-16 0 -34 7 -41 15 -7 8 -21 15 -32
15 -14 0 -18 5 -14 16 3 9 6 20 6 24 0 11 51 40 64 36 5 -1 17 -26 27 -54z
m1883 36 c10 -37 7 -41 -21 -33 -42 10 -51 24 -29 41 28 20 43 17 50 -8z
m-2004 -7 c13 -26 12 -42 -5 -65 -12 -16 -17 -17 -30 -6 -14 11 -14 15 -1 29
9 10 13 26 9 39 -7 27 12 29 27 3z m968 -72 c-16 -30 -99 -119 -110 -119 -11
0 26 72 65 128 26 39 31 42 44 29 12 -12 13 -18 1 -38z m-903 -4 c17 -13 17
-17 5 -29 -8 -7 -27 -16 -41 -20 -32 -7 -45 15 -26 44 14 24 35 25 62 5z m954
-16 c15 -43 14 -101 -2 -123 -12 -16 -17 -17 -71 -3 -32 9 -60 18 -63 21 -3 3
15 25 40 49 24 24 48 54 52 66 9 31 31 26 44 -10z m-2376 4 c9 -2 17 -12 17
-21 0 -14 1 -14 13 0 11 13 27 12 157 -18 80 -19 192 -46 250 -61 117 -31 111
-23 84 -120 -14 -50 -15 -52 -47 -49 -17 2 -22 1 -9 -1 12 -2 22 -6 22 -9 0
-12 -236 -474 -242 -474 -5 0 -54 21 -110 47 -57 25 -137 56 -178 69 -75 22
-75 22 -93 70 -23 66 -32 211 -18 308 10 69 43 226 56 264 4 12 43 10 98 -5z
m1326 -7 c7 -8 15 -30 18 -50 3 -20 10 -39 16 -43 6 -4 8 2 5 15 -7 25 -5 27
38 36 26 6 32 3 42 -18 12 -27 7 -36 -20 -36 -10 0 -18 -4 -18 -9 0 -13 57 6
92 31 l27 19 21 -40 c11 -22 29 -62 39 -89 l20 -49 -52 -7 c-29 -3 -76 -6
-104 -6 l-53 0 -25 53 -26 52 28 24 c27 24 27 24 3 16 -14 -4 -30 -15 -36 -23
-10 -14 -17 -13 -58 8 -29 16 -44 30 -41 38 3 8 5 19 5 26 0 19 39 66 55 66 7
0 18 -6 24 -14z m172 -16 l24 -20 -24 -21 -25 -20 -18 23 c-21 27 -23 44 -5
51 20 9 24 8 48 -13z m647 -65 c46 -21 52 -27 52 -55 0 -17 7 -46 14 -65 l15
-35 -113 0 c-111 0 -113 0 -140 29 -25 26 -28 35 -22 71 4 23 13 57 21 76 l14
33 53 -15 c29 -9 77 -26 106 -39z m-862 -46 c19 -11 34 -23 34 -26 0 -4 -11
-26 -25 -50 -23 -37 -30 -43 -60 -43 -19 0 -36 4 -39 8 -4 8 26 101 40 124 7
12 13 10 50 -13z m1024 -7 c63 -18 65 -20 68 -54 4 -41 -10 -48 -90 -48 -45 0
-48 2 -63 36 -21 50 -20 84 3 84 9 0 46 -8 82 -18z m-1588 -27 c84 -19 203
-47 263 -62 61 -14 121 -27 134 -28 16 -1 26 -9 27 -21 2 -10 6 -34 10 -52 l6
-33 -38 5 c-39 6 -39 6 -6 -4 17 -6 32 -14 32 -18 -1 -4 -13 -52 -29 -107 -15
-55 -38 -137 -51 -182 l-23 -83 -41 0 c-48 0 -80 -19 -101 -59 -14 -27 -40
-39 -102 -44 -14 -1 -18 -6 -13 -13 5 -5 7 -19 4 -31 -5 -16 -14 -21 -41 -21
-19 0 -39 -4 -45 -10 -9 -9 -410 146 -430 166 -7 7 33 97 109 248 98 197 122
239 143 245 14 4 19 7 11 8 -9 1 -11 9 -7 29 17 69 27 102 31 102 3 0 73 -16
157 -35z m3808 8 c0 -30 -13 -118 -30 -199 -10 -46 -14 -52 -40 -58 -16 -3
-36 -16 -45 -29 -14 -22 -19 -23 -70 -16 -59 8 -79 23 -114 90 -16 28 -51 141
-51 162 0 3 28 8 61 12 34 4 109 20 168 35 58 15 109 28 114 29 4 0 7 -11 7
-26z m-3167 -44 c25 -44 22 -49 -28 -49 -25 0 -45 3 -45 8 0 12 39 72 47 72 5
0 16 -14 26 -31z m658 -89 l6 -35 2 38 1 37 100 0 c102 0 120 -8 83 -36 -15
-12 -16 -13 -2 -8 29 9 34 -17 8 -38 l-24 -19 37 7 c36 6 100 -9 125 -29 10
-7 7 -20 -13 -56 -14 -25 -31 -54 -39 -65 -13 -18 -15 -17 -39 10 -14 16 -28
41 -31 57 -4 15 -13 27 -20 27 -8 0 -18 7 -22 15 -8 13 -17 12 -78 -5 -39 -11
-73 -20 -77 -20 -5 0 -9 19 -10 43 l-1 42 -4 -42 c-4 -39 -7 -43 -38 -49 -19
-3 -52 -3 -72 0 -108 17 -181 18 -262 1 -72 -15 -95 -15 -161 -5 -42 7 -81 15
-87 18 -5 4 -8 36 -5 74 l4 68 202 3 c110 1 248 3 306 2 l105 0 6 -35z m355
-12 c-4 -29 -9 -54 -10 -55 -2 -2 -19 4 -39 12 -20 8 -46 15 -57 15 -17 0 -20
6 -20 40 l0 40 66 0 67 0 -7 -52z m-1146 27 c15 -19 -3 -45 -31 -45 -20 0 -44
35 -34 50 9 15 51 12 65 -5z m36 7 c6 -4 14 -14 17 -22 3 -10 6 -7 6 8 1 21 5
23 49 20 l47 -3 -1 -58 c-2 -74 -11 -84 -58 -62 -29 14 -36 23 -36 46 0 16 -5
29 -10 29 -6 0 -8 -11 -4 -27 10 -40 13 -43 50 -59 36 -15 42 -30 21 -58 -12
-16 -19 -14 -95 39 -93 64 -106 91 -40 82 25 -3 36 -2 28 3 -11 7 -11 11 -1
24 11 13 11 19 1 31 -10 12 -10 15 1 15 8 0 19 -4 25 -8z m1802 -97 c26 -33
22 -74 -10 -98 -32 -24 -48 -16 -48 24 0 26 3 29 32 29 17 0 28 3 25 6 -4 4
-36 6 -72 6 -50 -1 -65 2 -65 13 0 44 107 60 138 20z m-1822 -56 c91 -59 92
-61 53 -111 -52 -68 -55 -76 -11 -28 23 25 53 68 68 96 l27 51 41 -9 c23 -4
58 -10 79 -13 55 -7 73 -20 113 -82 30 -48 35 -63 31 -96 -3 -21 -8 -41 -11
-44 -3 -3 -36 13 -73 35 -37 23 -89 50 -114 60 -25 11 -56 32 -68 48 -12 15
-24 24 -28 21 -11 -11 30 -48 82 -74 28 -14 51 -27 53 -28 5 -5 -29 -55 -38
-55 -4 0 -24 11 -45 25 -20 14 -35 20 -33 13 3 -7 22 -23 43 -35 22 -12 43
-31 47 -43 4 -11 16 -23 25 -26 10 -3 37 -14 60 -24 49 -22 51 -12 -32 -145
-56 -91 -122 -185 -140 -200 -6 -5 -24 -29 -39 -53 l-27 -43 -84 77 -85 77 -1
61 c-3 120 0 145 20 185 12 23 19 41 16 41 -2 0 -14 -19 -26 -42 -18 -35 -23
-39 -31 -25 -5 10 -6 22 -3 27 3 5 0 7 -7 5 -8 -3 -22 1 -33 9 -19 13 -18 16
13 117 17 57 41 141 53 187 12 45 27 82 32 82 6 0 39 -18 73 -41z m988 -34
c25 -36 43 -71 40 -80 -8 -19 -78 -60 -132 -75 -23 -7 -40 -15 -38 -18 10 -9
109 31 157 64 34 22 63 34 85 34 33 0 36 -4 64 -63 50 -109 52 -115 34 -142
-9 -14 -14 -31 -11 -38 4 -10 -13 -22 -51 -37 -32 -13 -98 -45 -148 -71 -91
-48 -91 -48 -103 -26 -6 12 -20 67 -31 122 -11 55 -22 110 -26 123 -4 15 -2
22 7 22 9 0 8 4 -3 13 -23 17 -53 186 -36 202 8 9 132 42 140 38 4 -2 27 -33
52 -68z m185 39 c2 -2 -2 -16 -9 -30 -10 -17 -20 -24 -33 -20 -15 3 -16 2 -6
-10 18 -22 3 -44 -31 -44 -16 0 -30 3 -30 6 0 3 14 25 30 49 17 24 30 49 30
55 0 10 36 5 49 -6z m-541 -9 c6 -6 -8 -40 -37 -90 -35 -59 -51 -79 -65 -77
-15 3 -16 1 -6 -10 7 -7 22 -13 34 -14 11 0 48 -8 81 -17 32 -10 80 -16 105
-16 39 1 36 3 -22 9 -69 8 -136 26 -152 40 -4 5 12 43 36 87 33 58 49 77 62
75 15 -3 48 -21 105 -59 2 -1 12 -37 22 -80 l18 -78 -30 -93 c-16 -51 -29 -98
-28 -105 0 -6 14 30 30 82 17 51 33 91 36 88 3 -4 13 -51 23 -107 l18 -100
-28 -28 c-22 -23 -35 -28 -60 -24 -30 4 -31 6 -26 41 5 36 5 36 -6 6 -6 -16
-12 -31 -13 -32 -7 -10 -234 82 -269 109 -17 14 -17 16 -2 46 9 18 14 32 12
32 -3 0 -13 -14 -21 -30 -16 -32 -23 -31 -68 4 -17 13 -17 15 0 50 13 29 21
35 37 30 20 -6 20 -5 2 8 -16 13 -17 20 -8 63 10 47 9 49 -33 111 l-43 63 61
15 c68 16 221 17 235 1z m1032 6 c0 -19 52 -71 71 -71 26 0 25 -44 -1 -77 -11
-14 -20 -31 -20 -38 0 -14 -53 -25 -126 -25 -65 0 -100 -12 -197 -68 -65 -38
-82 -44 -95 -34 -10 7 -30 19 -46 26 -23 11 -38 33 -68 102 -21 49 -38 94 -38
101 0 6 10 27 23 47 l22 35 100 3 c271 8 375 8 375 -1z m90 -26 c0 -41 -19
-46 -50 -15 -31 31 -26 50 15 50 33 0 35 -2 35 -35z m-980 -5 c0 -35 -6 -36
-37 -11 -33 28 -32 28 30 40 4 0 7 -12 7 -29z m1595 15 c692 -28 642 -21 696
-93 24 -31 61 -76 82 -99 l39 -42 -43 -63 c-23 -35 -59 -83 -79 -108 -20 -25
-76 -100 -124 -167 -77 -109 -91 -123 -116 -123 -36 0 -54 -30 -47 -76 4 -22
2 -34 -5 -34 -7 0 -21 -9 -33 -20 -20 -19 -24 -19 -52 -5 -36 18 -75 8 -92
-24 -9 -16 -16 -18 -48 -10 -51 11 -255 11 -373 -1 -52 -6 -140 -13 -195 -16
-151 -9 -140 -30 -138 283 2 288 -12 242 -20 -65 -2 -95 -9 -178 -14 -183 -5
-5 -61 -11 -124 -13 -63 -2 -133 -7 -157 -11 l-42 -8 -27 62 c-14 33 -28 59
-30 57 -2 -2 6 -25 17 -51 14 -33 17 -52 10 -59 -7 -7 -10 -5 -10 4 -1 9 -7 4
-14 -10 -13 -22 -34 -29 -243 -72 -125 -26 -238 -48 -250 -48 -20 0 -22 6 -27
98 -4 53 -11 150 -17 214 -13 142 -8 172 34 194 109 56 207 103 239 113 32 11
41 10 61 -5 13 -10 31 -34 40 -54 9 -19 14 -26 11 -15 -16 52 -17 58 -6 51 6
-3 25 -43 42 -89 48 -128 103 -258 106 -254 2 2 -25 77 -61 167 -81 207 -81
227 4 281 106 69 139 81 241 89 53 5 118 6 145 2 44 -6 49 -10 61 -42 28 -78
7 12 -35 148 -9 31 -8 33 29 52 21 11 41 29 45 40 8 25 23 25 520 5z m873 -12
c-2 -19 -10 -29 -28 -34 -24 -7 -24 -7 -2 -8 24 -1 25 -4 16 -38 -7 -27 -21
-29 -46 -6 -20 17 -25 53 -7 53 5 0 7 5 4 11 -9 14 24 49 47 49 15 0 19 -6 16
-27z m52 -2 c16 -30 12 -41 -13 -41 -31 0 -35 5 -29 35 5 30 27 33 42 6z
m-171 -27 c21 -5 31 -12 31 -25 0 -10 15 -30 34 -45 32 -26 33 -28 23 -66
l-10 -39 -29 28 c-32 30 -118 138 -118 147 0 8 30 8 69 0z m176 -44 c0 -16
-50 -48 -60 -38 -3 3 -3 18 1 32 5 22 11 27 33 24 15 -2 26 -9 26 -18z m-4695
-39 c15 -29 12 -41 -10 -41 -16 0 -20 7 -20 30 0 34 14 39 30 11z m-179 -27
c46 -8 92 -17 101 -20 26 -8 26 -37 1 -61 -28 -27 -29 -54 -3 -78 11 -10 17
-22 14 -27 -3 -5 -6 -38 -6 -74 0 -59 -2 -66 -27 -80 -23 -14 -13 -13 22 1 9
4 17 -9 25 -42 l11 -48 -6 52 -5 52 54 27 c29 14 68 37 86 51 18 14 35 23 37
22 2 -2 19 -38 39 -79 20 -41 54 -109 75 -150 35 -68 40 -85 46 -177 9 -129
-1 -233 -22 -233 -8 0 -28 -8 -44 -17 -27 -16 -34 -16 -119 0 -50 10 -120 21
-155 24 -57 5 -64 8 -70 30 -4 17 4 40 29 81 59 99 85 203 68 277 -8 35 -9 29
-8 -41 1 -78 -1 -86 -46 -175 -53 -106 -116 -179 -154 -179 -44 0 -104 -39
-177 -116 -57 -59 -78 -74 -101 -74 -35 0 -236 90 -236 106 0 6 -10 24 -22 39
l-22 28 38 71 c21 39 72 136 113 216 42 80 79 148 82 153 4 4 45 -2 92 -13 46
-11 97 -20 112 -20 17 0 66 22 120 55 50 30 86 55 81 55 -5 0 -48 -23 -94 -52
l-83 -51 -71 11 c-92 15 -146 31 -146 42 0 5 20 46 44 90 25 44 70 132 101
196 47 97 61 118 88 129 41 18 39 18 138 -1z m3357 -17 c3 -23 0 -27 -23 -27
-30 0 -43 24 -25 46 19 22 45 13 48 -19z m-1485 -26 c33 -17 33 -22 3 -57 -23
-27 -24 -28 -50 -11 -14 10 -26 22 -26 28 0 14 32 60 39 57 3 -2 18 -10 34
-17z m-1645 -34 c15 -24 36 -63 46 -86 19 -40 19 -42 0 -62 -18 -20 -133 -89
-149 -89 -4 0 -5 27 -3 60 3 42 11 69 27 91 16 22 21 38 17 56 -20 77 -20 73
8 73 20 0 33 -10 54 -43z m218 -53 c65 -31 120 -57 122 -59 1 -1 -2 -14 -9
-28 -12 -28 -35 -37 -90 -37 -22 0 -51 -10 -72 -24 l-36 -25 -66 126 c-36 69
-65 127 -65 129 0 9 111 -32 216 -82z m1502 47 c11 -7 11 -14 -3 -42 -23 -45
-21 -44 -50 -25 l-25 17 22 29 c23 31 34 35 56 21z m-1803 -37 c0 -22 -5 -29
-20 -29 -23 0 -32 30 -14 51 18 22 34 11 34 -22z m2705 -34 c23 -23 24 -33 10
-61 -12 -21 -27 -24 -49 -10 -13 8 -13 12 0 27 12 15 12 16 -9 10 -16 -5 -22
-3 -22 8 0 48 35 61 70 26z m-1436 -54 c47 -44 49 -90 6 -139 -63 -72 -123
-69 -167 8 -37 66 -28 110 30 145 49 30 89 26 131 -14z m556 6 c33 -27 18 -46
-21 -27 -29 15 -35 26 -22 38 10 11 19 8 43 -11z m-1214 -61 c82 -32 167 -65
188 -72 84 -30 166 -149 103 -149 -34 0 -62 -33 -48 -58 14 -26 79 -82 95 -82
8 0 38 -30 68 -67 l55 -66 -33 -55 c-18 -30 -39 -75 -46 -100 -15 -51 -69
-105 -100 -100 -19 3 -27 12 -48 58 -10 21 -48 25 -69 6 -9 -9 -27 -14 -39
-11 -12 2 -81 11 -154 20 -73 9 -145 18 -160 20 -15 2 -41 13 -58 25 l-30 21
0 164 0 163 -40 78 c-49 95 -63 136 -54 158 9 24 52 43 102 45 52 1 78 14 87
41 3 11 12 20 19 20 7 0 80 -26 162 -59z m1188 24 l36 -15 -58 -88 c-70 -105
-75 -112 -68 -112 3 0 22 26 42 58 57 89 107 152 121 152 8 0 39 -13 71 -29
31 -16 92 -41 135 -56 42 -15 77 -31 77 -34 0 -4 -11 -45 -24 -91 -13 -47 -39
-140 -56 -207 -30 -112 -35 -123 -55 -123 -13 0 -33 -9 -46 -19 -20 -16 -27
-17 -49 -6 -14 6 -79 31 -145 55 -141 50 -195 76 -195 93 0 7 15 35 33 62 59
87 69 105 64 105 -3 0 -29 -36 -58 -80 -29 -44 -55 -80 -57 -80 -3 0 -16 10
-29 22 -25 23 -31 48 -11 48 6 0 8 3 5 6 -8 9 24 64 37 64 5 0 21 -10 35 -22
l26 -23 -23 26 -23 27 63 98 c36 55 75 118 88 142 13 23 25 42 26 42 1 0 18
-7 38 -15z m-715 -69 c7 -24 25 -57 40 -72 40 -42 46 -64 17 -64 -35 0 -87 20
-123 47 -41 30 -44 72 -8 108 37 38 58 32 74 -19z m1229 -40 c5 -24 -10 -38
-31 -30 -17 6 -23 35 -10 48 12 12 38 1 41 -18z m-998 -35 c0 -44 -3 -50 -27
-59 -16 -6 -41 -13 -58 -15 -16 -3 -3 -3 30 -1 l60 3 90 -82 c152 -137 189
-161 325 -211 69 -26 144 -53 167 -62 31 -11 44 -23 52 -46 6 -17 11 -34 11
-38 0 -4 -37 -24 -81 -44 l-81 -37 -27 24 c-36 34 -162 94 -186 89 -41 -9 -55
-32 -55 -94 0 -53 -2 -58 -22 -58 -13 0 -33 -3 -45 -6 -18 -5 -23 -2 -23 12
-1 11 -7 35 -14 56 -13 35 -12 38 31 105 24 37 49 75 56 83 11 14 36 60 45 85
2 6 -7 -3 -21 -20 -22 -27 -26 -28 -43 -15 -18 14 -18 14 -3 -5 16 -19 14 -24
-34 -106 l-50 -86 -41 23 c-23 13 -49 24 -59 24 -15 0 -18 7 -15 48 3 45 5 47
34 50 20 2 35 11 44 26 7 13 22 29 34 36 12 6 35 28 51 48 l29 37 -43 -38
c-39 -35 -46 -38 -82 -32 -24 4 -45 3 -53 -4 -10 -8 -24 13 -66 97 -44 87 -79
166 -80 180 0 1 9 2 20 2 28 0 70 23 99 54 14 14 26 26 28 26 2 0 3 -22 3 -49z
m-352 27 c29 -29 -10 -68 -48 -48 -32 17 -18 60 20 60 9 0 21 -5 28 -12z
m1318 -30 c16 -8 24 -20 24 -37 0 -14 7 -113 15 -220 9 -107 13 -196 10 -200
-4 -3 -54 -4 -113 -3 -101 3 -107 5 -135 32 l-29 28 52 193 c28 107 53 202 56
212 5 16 12 18 51 12 25 -4 56 -11 69 -17z m-1234 -45 c26 -12 63 -25 82 -28
38 -8 43 -14 116 -160 39 -76 41 -84 39 -165 l-2 -85 33 -6 c67 -14 120 -79
120 -147 l0 -32 -42 6 c-55 8 -108 20 -133 29 -16 6 -17 5 -9 -4 7 -7 49 -20
96 -28 l83 -16 0 -40 c0 -32 6 -44 27 -60 l26 -19 -59 -172 c-82 -234 -169
-470 -177 -477 -12 -10 -335 40 -344 54 -6 9 -8 9 -8 0 0 -7 -9 -13 -20 -13
-21 0 -26 19 -10 38 6 6 7 10 4 7 -4 -2 -18 5 -32 15 -30 24 -60 25 -89 5 -24
-17 -35 -12 -188 87 -38 25 -137 80 -220 123 -82 42 -156 82 -163 88 -20 16
-52 83 -52 109 0 31 66 161 113 222 21 27 47 67 59 90 37 73 72 82 245 61 170
-20 221 -32 228 -55 5 -15 18 -17 85 -17 76 0 80 1 111 33 29 30 37 33 71 28
34 -6 42 -2 78 30 22 20 42 36 44 36 3 0 17 -22 33 -50 15 -27 31 -50 35 -50
4 0 -6 23 -24 51 -25 42 -28 53 -17 60 11 8 11 9 -3 7 -11 -2 -30 17 -55 57
-22 33 -60 86 -86 117 -26 32 -47 64 -47 71 0 7 -14 48 -30 90 -23 60 -28 83
-20 97 10 19 41 42 50 37 3 -2 26 -13 52 -24z m-104 -95 c11 -18 22 -45 26
-60 5 -23 3 -28 -13 -28 -11 0 -32 11 -48 24 -25 21 -26 25 -13 42 14 18 14
18 -3 5 -16 -13 -20 -13 -27 -1 -13 21 7 50 35 50 16 0 30 -10 43 -32z m3340
-63 c5 -36 -21 -59 -49 -44 -23 12 -24 42 -3 64 24 24 48 15 52 -20z m-160
-107 c35 -35 -8 -99 -55 -82 -40 14 -50 37 -30 68 19 28 63 36 85 14z m-2748
-14 c0 -3 -5 -14 -10 -25 -14 -25 -60 -26 -60 -1 0 10 3 22 7 25 8 8 63 9 63
1z m1884 0 c20 -8 21 -54 2 -54 -20 0 -39 27 -32 45 6 17 8 17 30 9z m-2121
-143 l17 -29 -44 -37 c-35 -29 -49 -35 -71 -29 -15 4 -29 12 -31 19 -6 15 10
58 43 114 l26 45 21 -27 c12 -15 29 -40 39 -56z m932 33 c29 -19 32 -40 8 -66
-16 -18 -53 -24 -66 -12 -3 4 1 20 9 36 9 17 13 32 11 34 -2 3 -10 -9 -17 -26
-15 -36 -27 -38 -42 -5 -22 49 42 75 97 39z m-2167 -26 c4 -19 -20 -29 -38
-18 -11 7 -12 11 0 25 15 18 34 15 38 -7z m2433 -66 c20 -147 20 -142 -4 -143
-21 -2 -21 -2 -1 -6 19 -4 22 -13 28 -86 4 -45 13 -145 21 -222 24 -247 29
-354 15 -370 -11 -13 -34 -14 -149 -9 l-136 7 -109 -43 c-133 -52 -188 -61
-218 -34 -23 21 -23 26 2 444 11 178 13 186 36 203 13 10 24 25 24 33 0 14 10
17 95 33 28 5 40 9 29 10 -12 0 -44 -3 -72 -9 -48 -9 -53 -8 -77 16 -17 17
-25 36 -25 60 0 33 3 36 58 60 31 14 73 33 92 43 23 12 49 16 78 13 44 -4 82
16 82 43 0 9 29 11 113 9 l112 -4 6 -48z m-2201 17 c58 -11 107 -24 108 -30 5
-13 29 -36 43 -41 15 -5 -15 -65 -75 -146 -59 -80 -85 -128 -92 -172 -5 -28
-14 -40 -44 -57 -37 -20 -40 -20 -66 -4 -24 15 -35 38 -72 157 -57 186 -61
202 -62 250 0 78 38 84 260 43z m175 -18 c-8 -33 -11 -35 -30 -27 -25 9 -30
37 -11 52 27 19 49 6 41 -25z m1385 4 c38 -19 74 -44 80 -54 16 -31 13 -111
-5 -111 -8 0 -19 -9 -25 -20 -7 -14 -21 -20 -44 -20 -67 0 -94 11 -105 41 -5
15 -19 36 -30 46 -16 13 -21 29 -21 66 0 97 35 110 150 52z m-2480 -5 c0 -10
-7 -23 -16 -28 -11 -6 -13 -11 -5 -16 16 -10 14 -46 -2 -46 -8 0 -22 9 -32 20
-17 19 -17 20 1 21 17 1 17 2 2 6 -10 2 -18 8 -18 12 0 12 24 38 40 44 26 9
30 8 30 -13z m1141 4 c10 -13 10 -17 -2 -25 -23 -14 -29 -11 -29 16 0 29 12
32 31 9z m-1091 -62 c-20 -34 -50 -42 -50 -13 0 16 7 21 28 22 26 0 26 1 5 9
-25 10 -26 11 -17 35 6 15 9 14 28 -4 19 -20 20 -23 6 -49z m1575 -7 c0 -25
-4 -30 -24 -30 -28 0 -47 25 -38 49 5 12 16 16 34 14 24 -3 28 -8 28 -33z
m687 -70 c-5 -28 -9 -29 -49 -14 -27 10 -27 11 -9 25 11 8 30 14 42 14 17 0
20 -5 16 -25z m48 -4 c13 -26 13 -41 -2 -41 -26 0 -40 17 -33 39 8 26 21 27
35 2z m-83 -27 c19 -5 20 -9 11 -37 -6 -18 -14 -36 -19 -41 -15 -16 -39 15
-39 50 0 35 6 39 47 28z m3881 -6 c7 -7 12 -23 12 -37 l0 -26 -26 27 c-15 14
-23 31 -20 37 9 14 19 14 34 -1z m-3554 -17 c15 -16 15 -22 4 -40 -15 -24 -32
-33 -53 -25 -24 9 -29 43 -9 65 22 24 36 24 58 0z m-241 -11 c8 -7 -47 -60
-64 -60 -12 0 -11 22 1 55 8 21 14 25 33 20 12 -4 26 -11 30 -15z m174 -46
l33 -33 -10 -183 c-13 -232 -28 -417 -36 -430 -3 -5 3 -12 15 -15 12 -3 21 -8
21 -12 0 -11 -44 -8 -52 3 -4 6 -12 5 -23 -4 -13 -11 -61 -13 -223 -11 -114 1
-209 4 -211 6 -2 3 26 87 63 187 36 101 88 246 115 323 46 132 50 140 80 147
17 5 40 21 52 37 20 28 24 29 82 23 52 -4 66 -10 94 -38z m3592 22 c22 -24 22
-25 3 -35 -24 -13 -42 3 -42 36 0 29 11 29 39 -1z m-5215 -238 c9 -17 14 -33
12 -35 -2 -2 -20 4 -40 13 -36 18 -47 38 -23 47 26 11 36 6 51 -25z m14 -70
c2 -11 -7 -17 -28 -20 -34 -5 -60 16 -60 50 0 21 0 21 43 3 23 -10 43 -25 45
-33z m2979 -72 c-3 -7 -15 -16 -26 -19 -26 -6 -28 18 -4 45 15 17 18 17 26 3
5 -9 6 -22 4 -29z m61 6 c2 -7 -7 -12 -22 -12 -21 0 -26 5 -26 26 0 25 1 26
22 12 12 -8 24 -20 26 -26z m-48 -53 c0 -19 -15 -24 -44 -13 -23 9 -20 23 7
33 27 11 37 6 37 -20z m48 9 c-22 -32 -38 -34 -38 -4 0 21 5 26 26 26 25 0 26
-1 12 -22z m1153 -38 c41 -22 11 -78 -36 -66 -30 8 -35 49 -7 65 21 13 20 13
43 1z m-3491 -175 c0 -19 -21 -19 -65 -1 -41 17 -43 24 -12 35 26 10 77 -12
77 -34z m1645 -4 c6 -11 -32 -41 -52 -41 -11 0 -12 20 -4 48 2 7 51 1 56 -7z
m-1667 -27 c18 -5 -2 -41 -28 -49 -27 -9 -80 4 -80 19 0 6 7 21 15 33 13 19
19 21 48 12 17 -6 38 -13 45 -15z"/>
<path d="M5623 6875 c0 -22 2 -30 4 -17 2 12 2 30 0 40 -3 9 -5 -1 -4 -23z"/>
<path d="M5312 6880 c0 -14 4 -36 8 -50 6 -20 8 -21 8 -5 0 11 -4 34 -8 50 -7
27 -8 27 -8 5z"/>
<path d="M5181 6844 c0 -11 3 -14 6 -6 3 7 2 16 -1 19 -3 4 -6 -2 -5 -13z"/>
<path d="M5192 6790 c0 -14 2 -19 5 -12 2 6 2 18 0 25 -3 6 -5 1 -5 -13z"/>
<path d="M5632 6775 c0 -16 2 -22 5 -12 2 9 2 23 0 30 -3 6 -5 -1 -5 -18z"/>
<path d="M5340 6774 c0 -6 7 -19 16 -30 14 -18 14 -18 3 6 -14 31 -19 36 -19
24z"/>
<path d="M5202 6735 c0 -16 2 -22 5 -12 2 9 2 23 0 30 -3 6 -5 -1 -5 -18z"/>
<path d="M5642 6710 c0 -19 2 -27 5 -17 2 9 2 25 0 35 -3 9 -5 1 -5 -18z"/>
<path d="M5212 6675 c0 -16 2 -22 5 -12 2 9 2 23 0 30 -3 6 -5 -1 -5 -18z"/>
<path d="M5653 6600 c0 -41 2 -58 4 -37 2 20 2 54 0 75 -2 20 -4 3 -4 -38z"/>
<path d="M5766 6579 c-4 -44 -5 -83 -3 -85 3 -3 8 31 12 76 4 45 5 83 2 86 -2
3 -8 -32 -11 -77z"/>
<path d="M5222 6620 c0 -14 2 -19 5 -12 2 6 2 18 0 25 -3 6 -5 1 -5 -13z"/>
<path d="M5436 6597 c3 -10 9 -15 12 -12 3 3 0 11 -7 18 -10 9 -11 8 -5 -6z"/>
<path d="M5232 6570 c0 -14 2 -19 5 -12 2 6 2 18 0 25 -3 6 -5 1 -5 -13z"/>
<path d="M5456 6550 c3 -14 11 -32 16 -40 6 -10 7 -7 2 10 -3 14 -11 32 -16
40 -6 10 -7 7 -2 -10z"/>
<path d="M5242 6520 c0 -14 2 -19 5 -12 2 6 2 18 0 25 -3 6 -5 1 -5 -13z"/>
<path d="M5641 6504 c0 -11 3 -14 6 -6 3 7 2 16 -1 19 -3 4 -6 -2 -5 -13z"/>
<path d="M5251 6464 c0 -11 3 -14 6 -6 3 7 2 16 -1 19 -3 4 -6 -2 -5 -13z"/>
<path d="M5466 6473 c7 -4 14 -17 17 -28 5 -16 5 -15 4 4 -1 14 -9 26 -17 28
-10 3 -11 2 -4 -4z"/>
<path d="M5752 6450 c0 -19 2 -27 5 -17 2 9 2 25 0 35 -3 9 -5 1 -5 -18z"/>
<path d="M5328 6451 c-82 -16 -122 -31 -85 -31 8 0 18 -6 20 -12 4 -8 6 -7 6
4 1 12 16 20 59 28 86 16 129 28 107 28 -11 0 -59 -8 -107 -17z"/>
<path d="M6160 6399 c-7 -11 -10 -23 -7 -25 2 -2 9 7 15 21 14 30 7 33 -8 4z"/>
<path d="M5740 6373 c-3 -23 -2 -39 3 -34 5 5 7 24 5 42 -3 33 -4 33 -8 -8z"/>
<path d="M5154 6384 c-18 -14 -18 -15 4 -4 12 6 22 13 22 15 0 8 -5 6 -26 -11z"/>
<path d="M5076 6335 c-27 -19 -46 -35 -42 -35 9 0 96 59 96 65 0 8 -3 6 -54
-30z"/>
<path d="M5272 6350 c0 -14 2 -19 5 -12 2 6 2 18 0 25 -3 6 -5 1 -5 -13z"/>
<path d="M6141 6344 c0 -11 3 -14 6 -6 3 7 2 16 -1 19 -3 4 -6 -2 -5 -13z"/>
<path d="M5282 6295 c0 -16 2 -22 5 -12 2 9 2 23 0 30 -3 6 -5 -1 -5 -18z"/>
<path d="M5733 6280 c0 -25 2 -35 4 -22 2 12 2 32 0 45 -2 12 -4 2 -4 -23z"/>
<path d="M4895 6299 c19 -7 132 -13 124 -5 -2 2 -35 6 -74 8 -40 3 -61 2 -50
-3z"/>
<path d="M6132 6255 c0 -16 2 -22 5 -12 2 9 2 23 0 30 -3 6 -5 -1 -5 -18z"/>
<path d="M5292 6240 c0 -14 2 -19 5 -12 2 6 2 18 0 25 -3 6 -5 1 -5 -13z"/>
<path d="M5715 6175 c-3 -31 -5 -59 -2 -61 3 -3 8 20 12 51 3 31 5 59 2 61 -3
3 -8 -20 -12 -51z"/>
<path d="M5302 6190 c0 -14 2 -19 5 -12 2 6 2 18 0 25 -3 6 -5 1 -5 -13z"/>
<path d="M5856 6134 c-9 -24 -2 -26 12 -4 7 11 8 20 3 20 -5 0 -12 -7 -15 -16z"/>
<path d="M6096 6115 c-4 -17 -11 -23 -24 -19 -9 2 4 -6 29 -18 30 -15 75 -55
129 -116 45 -51 81 -94 79 -96 -2 -1 -22 -10 -44 -20 -22 -9 -29 -14 -15 -11
14 4 34 9 46 12 16 4 24 -4 39 -36 10 -23 20 -39 22 -37 3 2 -3 18 -12 36 -9
17 -14 38 -11 46 3 8 1 14 -4 14 -6 0 -10 12 -11 28 0 21 -2 23 -8 9 -5 -15
-21 -2 -86 72 -44 49 -90 95 -102 100 -19 9 -22 16 -17 36 3 14 4 25 1 25 -3
0 -8 -11 -11 -25z"/>
<path d="M5321 6114 c0 -11 3 -14 6 -6 3 7 2 16 -1 19 -3 4 -6 -2 -5 -13z"/>
<path d="M5938 6123 c7 -3 16 -2 19 1 4 3 -2 6 -13 5 -11 0 -14 -3 -6 -6z"/>
<path d="M6018 6103 c7 -3 16 -2 19 1 4 3 -2 6 -13 5 -11 0 -14 -3 -6 -6z"/>
<path d="M5695 6055 c-3 -26 -4 -49 -2 -51 3 -3 8 16 12 41 3 26 4 49 2 51 -3
3 -8 -16 -12 -41z"/>
<path d="M6708 6074 c-38 -20 -36 -28 2 -9 17 9 30 18 30 20 0 7 -1 6 -32 -11z"/>
<path d="M6618 6024 c-38 -20 -36 -28 2 -9 17 9 30 18 30 20 0 7 -1 6 -32 -11z"/>
<path d="M5682 5965 c0 -16 2 -22 5 -12 2 9 2 23 0 30 -3 6 -5 -1 -5 -18z"/>
<path d="M6534 5974 c-18 -14 -18 -15 4 -4 12 6 22 13 22 15 0 8 -5 6 -26 -11z"/>
<path d="M5473 5973 c19 -3 27 -10 28 -26 1 -20 2 -21 6 -2 3 11 10 23 17 27
6 4 -9 7 -34 6 -29 -1 -35 -2 -17 -5z"/>
<path d="M5410 5960 c-8 -5 -10 -10 -5 -10 6 0 17 5 25 10 8 5 11 10 5 10 -5
0 -17 -5 -25 -10z"/>
<path d="M5355 5949 c-16 -6 -16 -8 -3 -8 9 -1 18 -6 20 -13 3 -8 7 -6 11 5 8
21 -2 27 -28 16z"/>
<path d="M5284 5929 c-3 -6 -20 -19 -38 -30 -17 -10 -26 -19 -20 -19 6 0 27
11 46 24 19 13 41 26 49 29 9 3 6 6 -8 6 -12 1 -25 -4 -29 -10z"/>
<path d="M6428 5919 c-21 -11 -38 -22 -38 -24 0 -3 18 4 40 15 22 11 40 23 40
25 0 7 0 7 -42 -16z"/>
<path d="M5382 5890 c0 -14 2 -19 5 -12 2 6 2 18 0 25 -3 6 -5 1 -5 -13z"/>
<path d="M5592 5845 c0 -16 2 -22 5 -12 2 9 2 23 0 30 -3 6 -5 -1 -5 -18z"/>
<path d="M5392 5830 c0 -14 4 -38 8 -55 7 -27 8 -27 8 -5 0 14 -4 39 -8 55 -7
27 -8 27 -8 5z"/>
<path d="M6361 5755 c0 -5 6 -21 14 -35 8 -14 14 -20 14 -15 0 6 -6 21 -14 35
-8 14 -14 21 -14 15z"/>
<path d="M5415 5712 c3 -28 2 -29 -122 -52 -54 -10 -88 -19 -77 -19 12 -1 59
6 105 15 45 8 90 13 100 11 12 -3 16 0 12 9 -4 10 3 14 21 14 30 0 36 -26 9
-33 -12 -3 -10 -5 7 -6 20 -1 25 4 25 24 0 22 -4 25 -37 25 -27 0 -38 5 -41
18 -2 9 -3 7 -2 -6z"/>
<path d="M6404 5647 c7 -21 11 -19 -122 -48 -56 -12 -100 -24 -98 -27 3 -2 44
5 93 16 48 12 108 24 133 27 49 7 66 15 32 15 -11 0 -26 8 -32 18 -11 16 -11
16 -6 -1z"/>
<path d="M7181 5596 c2 -2 33 -6 69 -9 39 -3 55 -2 40 3 -25 8 -117 13 -109 6z"/>
<path d="M7123 5583 c9 -2 23 -2 30 0 6 3 -1 5 -18 5 -16 0 -22 -2 -12 -5z"/>
<path d="M7058 5573 c6 -2 18 -2 25 0 6 3 1 5 -13 5 -14 0 -19 -2 -12 -5z"/>
<path d="M7359 5564 c25 -8 61 -16 80 -19 20 -3 5 4 -34 15 -79 22 -113 25
-46 4z"/>
<path d="M6765 5550 l-110 -6 100 -1 c55 -1 125 2 155 7 53 7 54 7 10 7 -25
-1 -94 -4 -155 -7z"/>
<path d="M7488 5533 c7 -3 16 -2 19 1 4 3 -2 6 -13 5 -11 0 -14 -3 -6 -6z"/>
<path d="M6430 5521 c0 -5 -8 -12 -17 -14 -11 -3 -8 -5 9 -6 20 -1 26 3 22 14
-7 17 -14 20 -14 6z"/>
<path d="M7555 5515 c22 -8 49 -13 60 -13 11 0 -2 6 -30 14 -63 17 -84 16 -30
-1z"/>
<path d="M6300 5490 c-27 -6 -29 -8 -10 -8 14 -1 43 3 65 7 33 7 35 9 10 9
-16 -1 -46 -4 -65 -8z"/>
<path d="M6223 5473 c9 -2 23 -2 30 0 6 3 -1 5 -18 5 -16 0 -22 -2 -12 -5z"/>
<path d="M6095 5460 c-34 -6 -35 -7 -10 -8 17 0 50 3 75 7 40 8 41 8 10 8 -19
0 -53 -3 -75 -7z"/>
<path d="M3760 5816 c0 -2 35 -18 78 -36 42 -18 117 -50 166 -71 48 -22 90
-38 92 -36 5 5 -33 22 -216 99 -121 51 -120 50 -120 44z"/>
<path d="M4320 5780 c8 -5 20 -10 25 -10 6 0 3 5 -5 10 -8 5 -19 10 -25 10 -5
0 -3 -5 5 -10z"/>
<path d="M4370 5760 c8 -5 20 -10 25 -10 6 0 3 5 -5 10 -8 5 -19 10 -25 10 -5
0 -3 -5 5 -10z"/>
<path d="M4430 5735 c14 -8 30 -14 35 -14 6 0 -1 6 -15 14 -14 8 -29 14 -35
14 -5 0 1 -6 15 -14z"/>
<path d="M4520 5695 c14 -8 30 -14 35 -14 6 0 -1 6 -15 14 -14 8 -29 14 -35
14 -5 0 1 -6 15 -14z"/>
<path d="M4580 5670 c8 -5 20 -10 25 -10 6 0 3 5 -5 10 -8 5 -19 10 -25 10 -5
0 -3 -5 5 -10z"/>
<path d="M4650 5640 c8 -5 20 -10 25 -10 6 0 3 5 -5 10 -8 5 -19 10 -25 10 -5
0 -3 -5 5 -10z"/>
<path d="M4720 5610 c19 -11 40 -19 45 -19 6 0 -6 8 -25 19 -19 11 -39 19 -45
19 -5 0 6 -8 25 -19z"/>
<path d="M3581 5624 c0 -11 3 -14 6 -6 3 7 2 16 -1 19 -3 4 -6 -2 -5 -13z"/>
<path d="M3571 5584 c0 -11 3 -14 6 -6 3 7 2 16 -1 19 -3 4 -6 -2 -5 -13z"/>
<path d="M3532 5492 c-18 -37 -34 -83 -37 -102 -4 -24 0 -17 13 20 10 30 29
75 41 98 12 24 21 46 18 48 -2 2 -18 -26 -35 -64z"/>
<path d="M3772 5478 c-7 -7 -12 -16 -12 -22 0 -5 6 -2 13 6 6 9 26 19 42 21
l30 4 -30 2 c-17 0 -36 -4 -43 -11z"/>
<path d="M3905 5450 c33 -16 69 -30 80 -29 11 0 1 6 -21 13 -23 7 -52 21 -65
30 -13 9 -30 16 -39 16 -8 0 12 -14 45 -30z"/>
<path d="M3721 5354 c0 -11 3 -14 6 -6 3 7 2 16 -1 19 -3 4 -6 -2 -5 -13z"/>
<path d="M3482 5325 c0 -16 2 -22 5 -12 2 9 2 23 0 30 -3 6 -5 -1 -5 -18z"/>
<path d="M3472 5265 c0 -16 2 -22 5 -12 2 9 2 23 0 30 -3 6 -5 -1 -5 -18z"/>
<path d="M4163 5403 c15 -2 37 -2 50 0 12 2 0 4 -28 4 -27 0 -38 -2 -22 -4z"/>
<path d="M4263 5393 c9 -2 23 -2 30 0 6 3 -1 5 -18 5 -16 0 -22 -2 -12 -5z"/>
<path d="M4328 5383 c6 -2 18 -2 25 0 6 3 1 5 -13 5 -14 0 -19 -2 -12 -5z"/>
<path d="M4378 5373 c6 -2 18 -2 25 0 6 3 1 5 -13 5 -14 0 -19 -2 -12 -5z"/>
<path d="M4435 5360 c11 -5 29 -8 40 -8 16 0 15 2 -5 8 -34 11 -60 11 -35 0z"/>
<path d="M4523 5343 c9 -2 25 -2 35 0 9 3 1 5 -18 5 -19 0 -27 -2 -17 -5z"/>
<path d="M4603 5333 c9 -2 23 -2 30 0 6 3 -1 5 -18 5 -16 0 -22 -2 -12 -5z"/>
<path d="M4294 4861 c7 -11 46 -35 46 -28 0 3 -12 12 -26 22 -15 9 -23 12 -20
6z"/>
<path d="M4900 5146 c0 -2 8 -10 18 -17 15 -13 16 -12 3 4 -13 16 -21 21 -21
13z"/>
<path d="M4770 5020 c-24 -28 -40 -53 -38 -56 3 -2 18 12 33 31 36 48 45 37
10 -12 l-27 -38 35 40 c23 26 32 42 25 47 -9 5 -8 11 1 22 8 9 11 16 8 16 -3
0 -24 -23 -47 -50z"/>
<path d="M5270 5100 c34 -11 60 -11 35 0 -11 5 -29 8 -40 8 -16 0 -15 -2 5 -8z"/>
<path d="M5320 5010 c-12 -23 -25 -38 -30 -35 -6 3 -7 -1 -4 -9 9 -23 11 -21
39 34 14 28 23 50 20 50 -2 0 -14 -18 -25 -40z"/>
<path d="M6642 4935 c0 -16 2 -22 5 -12 2 9 2 23 0 30 -3 6 -5 -1 -5 -18z"/>
<path d="M6110 4745 c0 -5 5 -17 10 -25 5 -8 10 -10 10 -5 0 6 -5 17 -10 25
-5 8 -10 11 -10 5z"/>
<path d="M6134 4683 c32 -86 80 -202 83 -199 5 5 -77 216 -84 216 -3 0 -2 -8
1 -17z"/>
<path d="M6226 4450 c3 -14 11 -32 16 -40 6 -10 7 -7 2 10 -3 14 -11 32 -16
40 -6 10 -7 7 -2 -10z"/>
<path d="M4608 4223 c6 -2 18 -2 25 0 6 3 1 5 -13 5 -14 0 -19 -2 -12 -5z"/>
<path d="M4525 3989 c-9 -17 -15 -33 -13 -35 3 -2 12 12 21 31 21 43 13 47 -8
4z"/>
<path d="M4491 3904 c0 -11 3 -14 6 -6 3 7 2 16 -1 19 -3 4 -6 -2 -5 -13z"/>
<path d="M4475 3840 c-4 -23 -5 -43 -2 -46 2 -3 7 14 11 37 4 23 5 44 2 46 -2
2 -7 -14 -11 -37z"/>
<path d="M4432 3648 c-62 -252 -59 -246 -116 -280 -28 -16 -40 -26 -26 -22 33
9 78 41 90 64 6 10 19 59 30 107 11 48 30 123 41 166 11 43 19 83 17 88 -2 6
-18 -50 -36 -123z"/>
<path d="M5608 4023 c12 -2 30 -2 40 0 9 3 -1 5 -23 4 -22 0 -30 -2 -17 -4z"/>
<path d="M5508 4013 c12 -2 32 -2 45 0 12 2 2 4 -23 4 -25 0 -35 -2 -22 -4z"/>
<path d="M5403 4003 c15 -2 39 -2 55 0 15 2 2 4 -28 4 -30 0 -43 -2 -27 -4z"/>
<path d="M5091 7384 c0 -11 3 -14 6 -6 3 7 2 16 -1 19 -3 4 -6 -2 -5 -13z"/>
<path d="M5262 7380 c0 -14 2 -19 5 -12 2 6 2 18 0 25 -3 6 -5 1 -5 -13z"/>
<path d="M2611 7364 c0 -11 3 -14 6 -6 3 7 2 16 -1 19 -3 4 -6 -2 -5 -13z"/>
<path d="M5873 7335 c0 -27 2 -38 4 -22 2 15 2 37 0 50 -2 12 -4 0 -4 -28z"/>
<path d="M7295 7303 c-33 -38 -88 -101 -123 -140 -36 -40 -62 -73 -59 -73 3 0
52 53 108 118 57 64 112 127 123 140 11 12 17 22 15 22 -3 0 -32 -30 -64 -67z"/>
<path d="M5101 7334 c0 -11 3 -14 6 -6 3 7 2 16 -1 19 -3 4 -6 -2 -5 -13z"/>
<path d="M5510 7330 c6 -11 13 -20 16 -20 2 0 0 9 -6 20 -6 11 -13 20 -16 20
-2 0 0 -9 6 -20z"/>
<path d="M4801 7314 c0 -11 3 -14 6 -6 3 7 2 16 -1 19 -3 4 -6 -2 -5 -13z"/>
<path d="M5273 7270 c0 -25 2 -35 4 -22 2 12 2 32 0 45 -2 12 -4 2 -4 -23z"/>
<path d="M2621 7284 c0 -11 3 -14 6 -6 3 7 2 16 -1 19 -3 4 -6 -2 -5 -13z"/>
<path d="M5112 7275 c0 -16 2 -22 5 -12 2 9 2 23 0 30 -3 6 -5 -1 -5 -18z"/>
<path d="M4786 7275 c-9 -26 -7 -32 5 -12 6 10 9 21 6 23 -2 3 -7 -2 -11 -11z"/>
<path d="M6626 7265 c-9 -26 -7 -32 5 -12 6 10 9 21 6 23 -2 3 -7 -2 -11 -11z"/>
<path d="M5863 7215 c0 -27 2 -38 4 -22 2 15 2 37 0 50 -2 12 -4 0 -4 -28z"/>
<path d="M6381 7234 c0 -11 3 -14 6 -6 3 7 2 16 -1 19 -3 4 -6 -2 -5 -13z"/>
<path d="M2632 7220 c0 -14 2 -19 5 -12 2 6 2 18 0 25 -3 6 -5 1 -5 -13z"/>
<path d="M5122 7215 c0 -16 2 -22 5 -12 2 9 2 23 0 30 -3 6 -5 -1 -5 -18z"/>
<path d="M5132 7155 c0 -16 2 -22 5 -12 2 9 2 23 0 30 -3 6 -5 -1 -5 -18z"/>
<path d="M6575 7170 c-3 -5 -1 -10 4 -10 6 0 11 5 11 10 0 6 -2 10 -4 10 -3 0
-8 -4 -11 -10z"/>
<path d="M2642 7145 c0 -16 2 -22 5 -12 2 9 2 23 0 30 -3 6 -5 -1 -5 -18z"/>
<path d="M5853 7125 c0 -22 2 -30 4 -17 2 12 2 30 0 40 -3 9 -5 -1 -4 -23z"/>
<path d="M5281 7134 c0 -11 3 -14 6 -6 3 7 2 16 -1 19 -3 4 -6 -2 -5 -13z"/>
<path d="M6509 7103 l-34 -38 38 34 c34 33 42 41 34 41 -2 0 -19 -17 -38 -37z"/>
<path d="M5142 7090 c0 -19 2 -27 5 -17 2 9 2 25 0 35 -3 9 -5 1 -5 -18z"/>
<path d="M2652 7075 c0 -16 2 -22 5 -12 2 9 2 23 0 30 -3 6 -5 -1 -5 -18z"/>
<path d="M7048 7018 c-65 -76 -82 -98 -76 -98 3 0 35 36 72 80 37 44 65 80 62
80 -2 0 -28 -28 -58 -62z"/>
<path d="M1758 7023 c13 -13 28 -23 35 -23 7 0 3 6 -8 12 -11 6 -27 16 -35 22
-9 6 -5 1 8 -11z"/>
<path d="M5152 7030 c0 -14 2 -19 5 -12 2 6 2 18 0 25 -3 6 -5 1 -5 -13z"/>
<path d="M5292 7025 c0 -16 2 -22 5 -12 2 9 2 23 0 30 -3 6 -5 -1 -5 -18z"/>
<path d="M6390 6993 l-55 -58 58 55 c31 30 57 56 57 57 0 8 -10 -1 -60 -54z"/>
<path d="M8909 7003 l-24 -28 28 24 c15 14 27 26 27 28 0 8 -8 1 -31 -24z"/>
<path d="M2662 7000 c0 -14 2 -19 5 -12 2 6 2 18 0 25 -3 6 -5 1 -5 -13z"/>
<path d="M7511 7004 c0 -11 3 -14 6 -6 3 7 2 16 -1 19 -3 4 -6 -2 -5 -13z"/>
<path d="M8864 6948 l-19 -23 23 19 c21 18 27 26 19 26 -2 0 -12 -10 -23 -22z"/>
<path d="M2680 6933 c0 -5 12 -20 28 -34 l27 -24 -25 30 c-14 17 -26 32 -27
34 -2 2 -3 0 -3 -6z"/>
<path d="M7788 6913 c7 -3 16 -2 19 1 4 3 -2 6 -13 5 -11 0 -14 -3 -6 -6z"/>
<path d="M8800 6879 l-35 -30 38 26 c33 24 43 35 34 35 -1 0 -18 -14 -37 -31z"/>
<path d="M6930 6870 c-12 -16 -19 -30 -16 -30 2 0 14 14 26 30 12 17 19 30 16
30 -2 0 -14 -13 -26 -30z"/>
<path d="M7664 6868 l-19 -23 23 19 c12 11 22 21 22 23 0 8 -8 2 -26 -19z"/>
<path d="M7499 6842 c34 -27 91 -60 71 -40 -8 8 -33 25 -55 37 -34 19 -36 20
-16 3z"/>
<path d="M6658 6843 c12 -2 30 -2 40 0 9 3 -1 5 -23 4 -22 0 -30 -2 -17 -4z"/>
<path d="M6753 6833 c9 -2 23 -2 30 0 6 3 -1 5 -18 5 -16 0 -22 -2 -12 -5z"/>
<path d="M2800 6826 c0 -2 8 -10 18 -17 15 -13 16 -12 3 4 -13 16 -21 21 -21
13z"/>
<path d="M6570 6820 c-8 -5 -10 -10 -5 -10 6 0 17 5 25 10 8 5 11 10 5 10 -5
0 -17 -5 -25 -10z"/>
<path d="M4100 6806 c0 -2 8 -10 18 -17 15 -13 16 -12 3 4 -13 16 -21 21 -21
13z"/>
<path d="M6510 6795 c-14 -8 -20 -14 -15 -14 6 0 21 6 35 14 14 8 21 14 15 14
-5 0 -21 -6 -35 -14z"/>
<path d="M2844 6792 c8 -13 66 -56 66 -49 0 3 -17 17 -37 33 -20 15 -33 23
-29 16z"/>
<path d="M7596 6778 c3 -5 10 -6 15 -3 13 9 11 12 -6 12 -8 0 -12 -4 -9 -9z"/>
<path d="M6440 6761 c-19 -11 -46 -32 -60 -48 l-25 -28 30 26 c17 15 45 34 63
43 17 9 32 19 32 21 0 7 0 7 -40 -14z"/>
<path d="M4150 6766 c0 -2 8 -10 18 -17 15 -13 16 -12 3 4 -13 16 -21 21 -21
13z"/>
<path d="M2917 6710 c3 -11 7 -20 9 -20 2 0 4 9 4 20 0 11 -4 20 -9 20 -5 0
-7 -9 -4 -20z"/>
<path d="M7591 6704 c0 -11 3 -14 6 -6 3 7 2 16 -1 19 -3 4 -6 -2 -5 -13z"/>
<path d="M8711 6704 c0 -11 3 -14 6 -6 3 7 2 16 -1 19 -3 4 -6 -2 -5 -13z"/>
<path d="M1590 6680 c6 -11 13 -20 16 -20 2 0 0 9 -6 20 -6 11 -13 20 -16 20
-2 0 0 -9 6 -20z"/>
<path d="M7571 6639 c-7 -22 -11 -43 -8 -45 2 -2 9 14 16 37 7 22 11 43 8 45
-2 2 -9 -14 -16 -37z"/>
<path d="M8702 6660 c0 -14 2 -19 5 -12 2 6 2 18 0 25 -3 6 -5 1 -5 -13z"/>
<path d="M2946 6630 c3 -14 11 -32 16 -40 6 -10 7 -7 2 10 -3 14 -11 32 -16
40 -6 10 -7 7 -2 -10z"/>
<path d="M1635 6600 c9 -16 18 -30 21 -30 2 0 -2 14 -11 30 -9 17 -18 30 -21
30 -2 0 2 -13 11 -30z"/>
<path d="M7190 6620 c8 -5 20 -10 25 -10 6 0 3 5 -5 10 -8 5 -19 10 -25 10 -5
0 -3 -5 5 -10z"/>
<path d="M8692 6590 c0 -19 2 -27 5 -17 2 9 2 25 0 35 -3 9 -5 1 -5 -18z"/>
<path d="M7551 6564 c0 -11 3 -14 6 -6 3 7 2 16 -1 19 -3 4 -6 -2 -5 -13z"/>
<path d="M7410 6475 c47 -47 87 -85 90 -85 2 0 -33 38 -80 85 -47 47 -87 85
-90 85 -2 0 33 -38 80 -85z"/>
<path d="M8680 6511 c0 -30 -4 -40 -17 -43 -15 -3 -14 -5 5 -10 21 -6 22 -3
22 43 0 27 -2 49 -5 49 -3 0 -5 -18 -5 -39z"/>
<path d="M2980 6535 c0 -5 5 -17 10 -25 5 -8 10 -10 10 -5 0 6 -5 17 -10 25
-5 8 -10 11 -10 5z"/>
<path d="M7541 6524 c0 -11 3 -14 6 -6 3 7 2 16 -1 19 -3 4 -6 -2 -5 -13z"/>
<path d="M1686 6507 c3 -10 9 -15 12 -12 3 3 0 11 -7 18 -10 9 -11 8 -5 -6z"/>
<path d="M3001 6488 c-1 -11 51 -129 56 -125 2 2 -10 33 -26 68 -16 35 -30 61
-30 57z"/>
<path d="M7533 6430 c0 -36 2 -50 4 -32 2 17 2 47 0 65 -2 17 -4 3 -4 -33z"/>
<path d="M8598 6453 c6 -2 18 -2 25 0 6 3 1 5 -13 5 -14 0 -19 -2 -12 -5z"/>
<path d="M8543 6443 c9 -2 23 -2 30 0 6 3 -1 5 -18 5 -16 0 -22 -2 -12 -5z"/>
<path d="M8483 6433 c9 -2 23 -2 30 0 6 3 -1 5 -18 5 -16 0 -22 -2 -12 -5z"/>
<path d="M8423 6423 c9 -2 23 -2 30 0 6 3 -1 5 -18 5 -16 0 -22 -2 -12 -5z"/>
<path d="M8368 6413 c7 -3 16 -2 19 1 4 3 -2 6 -13 5 -11 0 -14 -3 -6 -6z"/>
<path d="M8318 6403 c6 -2 18 -2 25 0 6 3 1 5 -13 5 -14 0 -19 -2 -12 -5z"/>
<path d="M8240 6390 c-20 -6 -21 -8 -5 -8 11 0 31 4 45 8 20 6 21 8 5 8 -11 0
-31 -4 -45 -8z"/>
<path d="M2000 6388 c9 -10 123 -92 170 -122 70 -44 24 -5 -65 56 -81 55 -114
76 -105 66z"/>
<path d="M8188 6373 c7 -3 16 -2 19 1 4 3 -2 6 -13 5 -11 0 -14 -3 -6 -6z"/>
<path d="M8120 6360 c-11 -8 -7 -9 15 -4 37 8 45 14 19 14 -10 0 -26 -5 -34
-10z"/>
<path d="M1858 6353 c7 -3 16 -2 19 1 4 3 -2 6 -13 5 -11 0 -14 -3 -6 -6z"/>
<path d="M8672 6340 c0 -14 2 -19 5 -12 2 6 2 18 0 25 -3 6 -5 1 -5 -13z"/>
<path d="M1818 6343 c7 -3 16 -2 19 1 4 3 -2 6 -13 5 -11 0 -14 -3 -6 -6z"/>
<path d="M3066 6325 c11 -48 25 -76 18 -35 -4 19 -10 42 -15 50 -6 10 -7 5 -3
-15z"/>
<path d="M8070 6340 c-8 -5 -10 -10 -5 -10 6 0 17 5 25 10 8 5 11 10 5 10 -5
0 -17 -5 -25 -10z"/>
<path d="M1780 6329 c0 -5 5 -7 10 -4 6 3 10 8 10 11 0 2 -4 4 -10 4 -5 0 -10
-5 -10 -11z"/>
<path d="M7947 6293 c-48 -19 -86 -37 -84 -39 3 -4 178 64 186 72 11 10 -21 0
-102 -33z"/>
<path d="M7418 6283 c7 -3 16 -2 19 1 4 3 -2 6 -13 5 -11 0 -14 -3 -6 -6z"/>
<path d="M8662 6245 c0 -16 2 -22 5 -12 2 9 2 23 0 30 -3 6 -5 -1 -5 -18z"/>
<path d="M3092 6225 c0 -16 2 -22 5 -12 2 9 2 23 0 30 -3 6 -5 -1 -5 -18z"/>
<path d="M6964 6215 c-10 -8 -14 -14 -9 -14 6 0 19 6 29 14 11 8 15 15 10 15
-6 0 -19 -7 -30 -15z"/>
<path d="M2250 6216 c0 -2 8 -10 18 -17 15 -13 16 -12 3 4 -13 16 -21 21 -21
13z"/>
<path d="M2320 6166 c0 -3 56 -43 125 -91 120 -83 191 -122 202 -111 3 3 -7 8
-23 12 -15 4 -90 49 -166 101 -76 52 -138 92 -138 89z"/>
<path d="M8631 6127 c-13 -21 -12 -21 5 -5 10 10 16 20 13 22 -3 3 -11 -5 -18
-17z"/>
<path d="M1900 6110 c6 -11 13 -20 16 -20 2 0 0 9 -6 20 -6 11 -13 20 -16 20
-2 0 0 -9 6 -20z"/>
<path d="M8485 5970 c-72 -72 -155 -150 -185 -172 -68 -52 -84 -67 -45 -43 45
27 103 76 170 142 121 122 199 203 195 203 -3 0 -64 -59 -135 -130z"/>
<path d="M1929 6065 c5 -11 17 -29 26 -40 l16 -20 -10 20 c-5 11 -17 29 -26
40 l-16 20 10 -20z"/>
<path d="M7840 6036 c0 -2 8 -10 18 -17 15 -13 16 -12 3 4 -13 16 -21 21 -21
13z"/>
<path d="M1980 5980 c6 -11 13 -20 16 -20 2 0 0 9 -6 20 -6 11 -13 20 -16 20
-2 0 0 -9 6 -20z"/>
<path d="M7945 5950 c10 -11 20 -20 23 -20 3 0 -3 9 -13 20 -10 11 -20 20 -23
20 -3 0 3 -9 13 -20z"/>
<path d="M2668 5953 c7 -3 16 -2 19 1 4 3 -2 6 -13 5 -11 0 -14 -3 -6 -6z"/>
<path d="M2748 5933 c6 -2 18 -2 25 0 6 3 1 5 -13 5 -14 0 -19 -2 -12 -5z"/>
<path d="M2815 5920 c17 -4 44 -8 60 -8 25 0 24 2 -10 9 -51 10 -92 10 -50 -1z"/>
<path d="M7995 5910 c10 -11 20 -20 23 -20 3 0 -3 9 -13 20 -10 11 -20 20 -23
20 -3 0 3 -9 13 -20z"/>
<path d="M2923 5903 c9 -2 25 -2 35 0 9 3 1 5 -18 5 -19 0 -27 -2 -17 -5z"/>
<path d="M3051 5903 c-1 -8 -14 -10 -38 -8 -32 4 -33 3 -9 -3 17 -4 29 -11 28
-15 -1 -4 -30 -32 -64 -61 -35 -30 -74 -69 -87 -88 -15 -21 1 -10 45 32 38 36
83 78 100 93 l30 27 93 -45 c52 -25 95 -44 97 -42 2 2 -39 23 -90 48 -52 24
-97 51 -99 59 -3 8 -5 10 -6 3z"/>
<path d="M2022 5875 c0 -16 2 -22 5 -12 2 9 2 23 0 30 -3 6 -5 -1 -5 -18z"/>
<path d="M8090 5835 c13 -14 26 -25 28 -25 3 0 -5 11 -18 25 -13 14 -26 25
-28 25 -3 0 5 -11 18 -25z"/>
<path d="M2017 5793 c-10 -9 -9 -23 1 -20 5 1 24 -14 44 -33 19 -19 56 -55 82
-80 26 -25 73 -76 104 -115 76 -95 72 -91 72 -77 0 17 -182 220 -223 248 -20
13 -38 32 -42 43 -7 23 -29 43 -38 34z"/>
<path d="M3267 5779 c7 -7 15 -10 18 -7 3 3 -2 9 -12 12 -14 6 -15 5 -6 -5z"/>
<path d="M2829 5658 c-13 -18 -26 -35 -30 -38 -8 -7 -31 -50 -26 -50 2 0 23
27 46 60 23 33 40 60 37 60 -2 0 -15 -15 -27 -32z"/>
<path d="M9156 5495 c-11 -8 -15 -15 -9 -15 6 0 16 7 23 15 16 19 11 19 -14 0z"/>
<path d="M2310 5441 c0 -5 7 -11 14 -14 10 -4 13 -1 9 9 -6 15 -23 19 -23 5z"/>
<path d="M8585 5420 c11 -5 27 -9 35 -9 9 0 8 4 -5 9 -11 5 -27 9 -35 9 -9 0
-8 -4 5 -9z"/>
<path d="M2301 5404 c0 -11 3 -14 6 -6 3 7 2 16 -1 19 -3 4 -6 -2 -5 -13z"/>
<path d="M8655 5400 c11 -5 29 -8 40 -8 16 0 15 2 -5 8 -34 11 -60 11 -35 0z"/>
<path d="M8740 5380 c14 -4 36 -8 50 -8 22 0 22 1 -5 8 -16 4 -39 8 -50 8 -16
0 -15 -2 5 -8z"/>
<path d="M2281 5334 c-7 -25 -10 -48 -8 -51 3 -2 10 17 16 43 7 25 10 48 8 51
-3 2 -10 -17 -16 -43z"/>
<path d="M8828 5363 c6 -2 18 -2 25 0 6 3 1 5 -13 5 -14 0 -19 -2 -12 -5z"/>
<path d="M8888 5353 c7 -3 16 -2 19 1 4 3 -2 6 -13 5 -11 0 -14 -3 -6 -6z"/>
<path d="M8933 5343 c9 -2 23 -2 30 0 6 3 -1 5 -18 5 -16 0 -22 -2 -12 -5z"/>
<path d="M2261 5254 c0 -11 3 -14 6 -6 3 7 2 16 -1 19 -3 4 -6 -2 -5 -13z"/>
<path d="M2402 5145 c0 -16 2 -22 5 -12 2 9 2 23 0 30 -3 6 -5 -1 -5 -18z"/>
<path d="M1288 5083 c7 -3 16 -2 19 1 4 3 -2 6 -13 5 -11 0 -14 -3 -6 -6z"/>
<path d="M1345 5070 c17 -4 39 -8 50 -8 16 0 15 2 -5 8 -14 4 -36 8 -50 8 -22
0 -22 -1 5 -8z"/>
<path d="M2412 5050 c0 -14 2 -19 5 -12 2 6 2 18 0 25 -3 6 -5 1 -5 -13z"/>
<path d="M1428 5053 c6 -2 18 -2 25 0 6 3 1 5 -13 5 -14 0 -19 -2 -12 -5z"/>
<path d="M1490 5040 c14 -4 36 -8 50 -8 l25 0 -25 8 c-14 4 -36 8 -50 8 l-25
0 25 -8z"/>
<path d="M1578 5023 c6 -2 18 -2 25 0 6 3 1 5 -13 5 -14 0 -19 -2 -12 -5z"/>
<path d="M9084 5004 c-18 -14 -18 -15 4 -4 12 6 22 13 22 15 0 8 -5 6 -26 -11z"/>
<path d="M9160 5016 c0 -3 14 -12 30 -21 17 -9 30 -13 30 -11 0 3 -13 12 -30
21 -16 9 -30 13 -30 11z"/>
<path d="M1657 4829 c-26 -49 -45 -89 -43 -89 7 0 99 170 95 175 -2 2 -26 -37
-52 -86z"/>
<path d="M8789 4673 c-13 -16 -12 -17 4 -4 16 13 21 21 13 21 -2 0 -10 -8 -17
-17z"/>
<path d="M1540 4610 c-11 -22 -18 -40 -15 -40 2 0 14 18 25 40 11 22 18 40 15
40 -2 0 -14 -18 -25 -40z"/>
<path d="M1495 4530 c-9 -16 -13 -30 -11 -30 3 0 12 14 21 30 9 17 13 30 11
30 -3 0 -12 -13 -21 -30z"/>
<path d="M1450 4450 c-11 -22 -18 -40 -15 -40 2 0 14 18 25 40 11 22 18 40 15
40 -2 0 -14 -18 -25 -40z"/>
<path d="M8670 4461 c0 -10 39 -46 43 -40 2 2 -7 14 -20 26 -13 12 -23 19 -23
14z"/>
<path d="M7691 4434 c0 -11 3 -14 6 -6 3 7 2 16 -1 19 -3 4 -6 -2 -5 -13z"/>
<path d="M9211 4424 c0 -11 3 -14 6 -6 3 7 2 16 -1 19 -3 4 -6 -2 -5 -13z"/>
<path d="M7701 4394 c0 -11 3 -14 6 -6 3 7 2 16 -1 19 -3 4 -6 -2 -5 -13z"/>
<path d="M1410 4380 c-6 -11 -8 -20 -6 -20 3 0 10 9 16 20 6 11 8 20 6 20 -3
0 -10 -9 -16 -20z"/>
<path d="M7711 4363 c-1 -16 60 -185 65 -180 2 2 -11 46 -30 98 -19 52 -35 89
-35 82z"/>
<path d="M1380 4330 c-6 -11 -8 -20 -6 -20 3 0 10 9 16 20 6 11 8 20 6 20 -3
0 -10 -9 -16 -20z"/>
<path d="M9181 4304 c0 -11 3 -14 6 -6 3 7 2 16 -1 19 -3 4 -6 -2 -5 -13z"/>
<path d="M1331 4247 c-36 -63 -59 -85 -131 -126 -30 -17 -51 -31 -46 -31 17 0
112 59 137 87 27 29 85 123 76 123 -3 0 -19 -24 -36 -53z"/>
<path d="M6538 4263 c7 -3 16 -2 19 1 4 3 -2 6 -13 5 -11 0 -14 -3 -6 -6z"/>
<path d="M6418 4243 c6 -2 18 -2 25 0 6 3 1 5 -13 5 -14 0 -19 -2 -12 -5z"/>
<path d="M8730 4245 c0 -5 5 -17 10 -25 5 -8 10 -10 10 -5 0 6 -5 17 -10 25
-5 8 -10 11 -10 5z"/>
<path d="M7073 4205 c0 -22 2 -30 4 -17 2 12 2 30 0 40 -3 9 -5 -1 -4 -23z"/>
<path d="M8751 4184 c0 -11 3 -14 6 -6 3 7 2 16 -1 19 -3 4 -6 -2 -5 -13z"/>
<path d="M8762 4120 c0 -14 2 -19 5 -12 2 6 2 18 0 25 -3 6 -5 1 -5 -13z"/>
<path d="M7063 4085 c0 -22 2 -30 4 -17 2 12 2 30 0 40 -3 9 -5 -1 -4 -23z"/>
<path d="M9352 4090 c0 -14 2 -19 5 -12 2 6 2 18 0 25 -3 6 -5 1 -5 -13z"/>
<path d="M9360 4052 c0 -16 51 -94 58 -87 3 3 -2 13 -11 22 -8 10 -23 32 -31
48 -9 17 -16 24 -16 17z"/>
<path d="M7821 4045 c-2 -15 51 -176 56 -172 2 3 -10 44 -26 93 -16 49 -30 85
-30 79z"/>
<path d="M2549 3937 c-23 -99 -25 -102 -64 -124 -39 -22 -43 -33 -4 -13 23 13
25 -3 4 -40 -8 -14 -14 -31 -15 -38 0 -8 15 16 34 52 30 58 85 251 74 261 -2
3 -15 -41 -29 -98z"/>
<path d="M7041 3994 c0 -11 3 -14 6 -6 3 7 2 16 -1 19 -3 4 -6 -2 -5 -13z"/>
<path d="M7016 3914 c-4 -14 -5 -28 -3 -31 3 -2 8 8 11 23 4 14 5 28 3 31 -3
2 -8 -8 -11 -23z"/>
<path d="M7238 3933 c6 -2 18 -2 25 0 6 3 1 5 -13 5 -14 0 -19 -2 -12 -5z"/>
<path d="M7293 3933 c9 -2 23 -2 30 0 6 3 -1 5 -18 5 -16 0 -22 -2 -12 -5z"/>
<path d="M7348 3923 c6 -2 18 -2 25 0 6 3 1 5 -13 5 -14 0 -19 -2 -12 -5z"/>
<path d="M7170 3910 c-9 -6 -10 -10 -3 -10 6 0 15 5 18 10 8 12 4 12 -15 0z"/>
<path d="M7443 3913 c26 -2 67 -2 90 0 23 2 2 3 -48 3 -49 0 -68 -1 -42 -3z"/>
<path d="M6992 3833 c-15 -48 -8 -55 8 -8 7 20 10 38 8 41 -3 2 -10 -13 -16
-33z"/>
<path d="M8778 3803 c7 -3 16 -2 19 1 4 3 -2 6 -13 5 -11 0 -14 -3 -6 -6z"/>
<path d="M8818 3793 c7 -3 16 -2 19 1 4 3 -2 6 -13 5 -11 0 -14 -3 -6 -6z"/>
<path d="M2255 3653 c-27 -32 -39 -49 -26 -38 24 21 86 95 79 95 -2 0 -26 -26
-53 -57z"/>
<path d="M2461 3684 c0 -11 3 -14 6 -6 3 7 2 16 -1 19 -3 4 -6 -2 -5 -13z"/>
<path d="M842 3643 c-24 -24 -24 -25 -2 -8 42 33 44 35 37 35 -4 0 -19 -12
-35 -27z"/>
<path d="M2452 3615 c0 -16 2 -22 5 -12 2 9 2 23 0 30 -3 6 -5 -1 -5 -18z"/>
<path d="M3233 3575 c0 -38 2 -53 4 -32 2 20 2 52 0 70 -2 17 -4 1 -4 -38z"/>
<path d="M728 3593 c6 -2 18 -2 25 0 6 3 1 5 -13 5 -14 0 -19 -2 -12 -5z"/>
<path d="M688 3583 c7 -3 16 -2 19 1 4 3 -2 6 -13 5 -11 0 -14 -3 -6 -6z"/>
<path d="M2155 3538 l-50 -53 53 50 c48 46 57 55 49 55 -1 0 -25 -24 -52 -52z"/>
<path d="M2462 3500 c0 -14 2 -19 5 -12 2 6 2 18 0 25 -3 6 -5 1 -5 -13z"/>
<path d="M3242 3460 c0 -19 2 -27 5 -17 2 9 2 25 0 35 -3 9 -5 1 -5 -18z"/>
<path d="M2020 3445 c-25 -13 -41 -24 -37 -25 11 0 87 39 87 45 0 7 0 7 -50
-20z"/>
<path d="M2461 3454 c0 -11 3 -14 6 -6 3 7 2 16 -1 19 -3 4 -6 -2 -5 -13z"/>
<path d="M2440 3398 c-12 -22 -12 -22 6 -6 10 10 15 20 12 24 -4 3 -12 -5 -18
-18z"/>
<path d="M6560 3414 c0 -6 11 -39 25 -73 14 -35 32 -86 40 -114 7 -29 14 -42
14 -30 1 12 -13 61 -30 110 -32 90 -48 126 -49 107z"/>
<path d="M3253 3365 c0 -27 2 -38 4 -22 2 15 2 37 0 50 -2 12 -4 0 -4 -28z"/>
<path d="M8348 3373 c7 -3 16 -2 19 1 4 3 -2 6 -13 5 -11 0 -14 -3 -6 -6z"/>
<path d="M2414 3358 c-4 -7 -14 -24 -22 -38 -14 -24 -13 -24 3 -5 20 24 37 55
31 55 -3 0 -8 -6 -12 -12z"/>
<path d="M6972 3350 c0 -14 2 -19 5 -12 2 6 2 18 0 25 -3 6 -5 1 -5 -13z"/>
<path d="M8403 3363 c9 -2 25 -2 35 0 9 3 1 5 -18 5 -19 0 -27 -2 -17 -5z"/>
<path d="M3259 3252 c-6 -48 -12 -60 -60 -110 l-54 -57 57 55 c58 55 74 89 66
141 -2 14 -6 1 -9 -29z"/>
<path d="M2355 3260 c-9 -16 -13 -30 -11 -30 3 0 12 14 21 30 9 17 13 30 11
30 -3 0 -12 -13 -21 -30z"/>
<path d="M6924 3233 c-15 -20 -23 -33 -16 -29 13 8 56 66 49 66 -3 0 -17 -17
-33 -37z"/>
<path d="M6221 3214 c0 -11 3 -14 6 -6 3 7 2 16 -1 19 -3 4 -6 -2 -5 -13z"/>
<path d="M7672 3210 c0 -14 2 -19 5 -12 2 6 2 18 0 25 -3 6 -5 1 -5 -13z"/>
<path d="M2320 3200 c-6 -11 -8 -20 -6 -20 3 0 10 9 16 20 6 11 8 20 6 20 -3
0 -10 -9 -16 -20z"/>
<path d="M4587 3128 c-14 -40 -57 -162 -96 -270 -66 -182 -89 -255 -57 -183
29 66 187 518 183 522 -3 2 -16 -29 -30 -69z"/>
<path d="M7682 3155 c0 -16 4 -43 8 -60 11 -42 11 -1 1 50 -7 34 -9 35 -9 10z"/>
<path d="M6634 3045 c0 -55 1 -76 3 -47 2 29 2 74 0 100 -2 26 -3 2 -3 -53z"/>
<path d="M4092 3115 c0 -11 4 -31 8 -45 6 -20 8 -21 8 -5 0 11 -4 31 -8 45 -6
20 -8 21 -8 5z"/>
<path d="M2260 3100 c-6 -11 -8 -20 -6 -20 3 0 10 9 16 20 6 11 8 20 6 20 -3
0 -10 -9 -16 -20z"/>
<path d="M6852 3080 c0 -14 2 -19 5 -12 2 6 2 18 0 25 -3 6 -5 1 -5 -13z"/>
<path d="M3109 3063 l-24 -28 28 24 c25 23 32 31 24 31 -2 0 -14 -12 -28 -27z"/>
<path d="M8634 3058 l-19 -23 23 19 c21 18 27 26 19 26 -2 0 -12 -10 -23 -22z"/>
<path d="M7702 3035 c0 -16 2 -22 5 -12 2 9 2 23 0 30 -3 6 -5 -1 -5 -18z"/>
<path d="M2210 3020 c-6 -11 -8 -20 -6 -20 3 0 10 9 16 20 6 11 8 20 6 20 -3
0 -10 -9 -16 -20z"/>
<path d="M3045 3017 c-16 -13 -92 -70 -167 -126 -76 -57 -138 -106 -138 -109
0 -5 19 9 155 112 44 34 99 74 122 90 37 25 73 57 62 56 -2 -1 -17 -11 -34
-23z"/>
<path d="M4112 3020 c0 -14 2 -19 5 -12 2 6 2 18 0 25 -3 6 -5 1 -5 -13z"/>
<path d="M2150 2918 c-54 -92 -52 -88 -47 -88 3 0 24 33 47 73 54 91 52 87 47
87 -3 0 -24 -33 -47 -72z"/>
<path d="M4122 2970 c0 -14 2 -19 5 -12 2 6 2 18 0 25 -3 6 -5 1 -5 -13z"/>
<path d="M7712 2960 c-1 -19 -4 -53 -7 -75 l-5 -40 11 33 c5 19 8 53 6 75 -3
40 -4 40 -5 7z"/>
<path d="M4132 2920 c0 -14 2 -19 5 -12 2 6 2 18 0 25 -3 6 -5 1 -5 -13z"/>
<path d="M6621 2923 c0 -12 -4 -30 -7 -40 -5 -17 -5 -17 6 0 6 10 9 28 7 40
-4 22 -4 22 -6 0z"/>
<path d="M4141 2874 c0 -11 3 -14 6 -6 3 7 2 16 -1 19 -3 4 -6 -2 -5 -13z"/>
<path d="M6596 2834 c-4 -14 -5 -28 -3 -31 3 -2 8 8 11 23 4 14 5 28 3 31 -3
2 -8 -8 -11 -23z"/>
<path d="M4152 2830 c0 -14 2 -19 5 -12 2 6 2 18 0 25 -3 6 -5 1 -5 -13z"/>
<path d="M2080 2800 c-6 -11 -8 -20 -6 -20 3 0 10 9 16 20 6 11 8 20 6 20 -3
0 -10 -9 -16 -20z"/>
<path d="M4162 2760 c0 -19 2 -27 5 -17 2 9 2 25 0 35 -3 9 -5 1 -5 -18z"/>
<path d="M7681 2774 c0 -11 3 -14 6 -6 3 7 2 16 -1 19 -3 4 -6 -2 -5 -13z"/>
<path d="M2695 2754 c-19 -15 -22 -21 -9 -15 18 9 52 41 43 41 -2 0 -17 -12
-34 -26z"/>
<path d="M5131 2754 c0 -11 3 -14 6 -6 3 7 2 16 -1 19 -3 4 -6 -2 -5 -13z"/>
<path d="M6571 2744 c0 -11 3 -14 6 -6 3 7 2 16 -1 19 -3 4 -6 -2 -5 -13z"/>
<path d="M2040 2730 c-6 -11 -8 -20 -6 -20 3 0 10 9 16 20 6 11 8 20 6 20 -3
0 -10 -9 -16 -20z"/>
<path d="M7666 2724 c-4 -14 -5 -28 -3 -31 3 -2 8 8 11 23 4 14 5 28 3 31 -3
2 -8 -8 -11 -23z"/>
<path d="M6561 2694 c0 -11 3 -14 6 -6 3 7 2 16 -1 19 -3 4 -6 -2 -5 -13z"/>
<path d="M5132 2660 c0 -19 2 -27 5 -17 2 9 2 25 0 35 -3 9 -5 1 -5 -18z"/>
<path d="M7651 2664 c0 -11 3 -14 6 -6 3 7 2 16 -1 19 -3 4 -6 -2 -5 -13z"/>
<path d="M4121 2624 c0 -11 3 -14 6 -6 3 7 2 16 -1 19 -3 4 -6 -2 -5 -13z"/>
<path d="M4386 2564 c-14 -43 -24 -79 -22 -81 2 -2 16 31 30 73 14 43 24 79
22 81 -2 2 -16 -31 -30 -73z"/>
<path d="M5550 2563 c-44 -105 -101 -265 -97 -269 2 -2 23 47 46 109 24 61 54
139 67 172 35 88 21 78 -16 -12z"/>
<path d="M1919 2543 l-34 -38 38 34 c34 33 42 41 34 41 -2 0 -19 -17 -38 -37z"/>
<path d="M4096 2544 c-4 -14 -5 -28 -3 -31 3 -2 8 8 11 23 4 14 5 28 3 31 -3
2 -8 -8 -11 -23z"/>
<path d="M5124 2310 c0 -118 2 -167 3 -107 2 59 2 155 0 215 -1 59 -3 10 -3
-108z"/>
<path d="M4081 2484 c0 -11 3 -14 6 -6 3 7 2 16 -1 19 -3 4 -6 -2 -5 -13z"/>
<path d="M1815 2438 l-40 -43 43 40 c39 36 47 45 39 45 -2 0 -21 -19 -42 -42z"/>
<path d="M4071 2444 c0 -11 3 -14 6 -6 3 7 2 16 -1 19 -3 4 -6 -2 -5 -13z"/>
<path d="M6483 2425 c0 -22 2 -30 4 -17 2 12 2 30 0 40 -3 9 -5 -1 -4 -23z"/>
<path d="M4333 2409 c-6 -19 -34 -99 -62 -178 -29 -79 -50 -146 -47 -148 2 -2
16 33 31 79 16 46 43 123 62 172 18 49 32 94 30 99 -1 5 -8 -6 -14 -24z"/>
<path d="M4061 2404 c0 -11 3 -14 6 -6 3 7 2 16 -1 19 -3 4 -6 -2 -5 -13z"/>
<path d="M5436 2265 c-9 -26 -7 -32 5 -12 6 10 9 21 6 23 -2 3 -7 -2 -11 -11z"/>
<path d="M5401 2174 c-12 -31 -20 -59 -18 -61 2 -2 14 22 26 53 12 31 20 59
18 61 -2 2 -14 -22 -26 -53z"/>
<path d="M6610 2156 c0 -2 7 -7 16 -10 8 -3 12 -2 9 4 -6 10 -25 14 -25 6z"/>
<path d="M5342 2017 c-36 -86 -71 -197 -63 -197 4 0 13 21 19 47 7 26 26 81
43 122 16 40 28 75 26 77 -2 2 -13 -20 -25 -49z"/>
<path d="M4130 1828 c-34 -101 -65 -190 -68 -198 -3 -8 -2 -12 2 -9 9 9 138
381 133 386 -2 2 -32 -79 -67 -179z"/>
<path d="M5112 1960 c0 -19 2 -27 5 -17 2 9 2 25 0 35 -3 9 -5 1 -5 -18z"/>
<path d="M5095 1870 c-4 -28 -5 -54 -2 -56 3 -3 8 18 12 46 4 28 5 54 2 56 -3
3 -8 -18 -12 -46z"/>
<path d="M5272 1780 c0 -14 2 -19 5 -12 2 6 2 18 0 25 -3 6 -5 1 -5 -13z"/>
<path d="M5083 1645 c0 -44 2 -61 4 -37 2 23 2 59 0 80 -2 20 -4 1 -4 -43z"/>
<path d="M5261 1664 c0 -11 3 -14 6 -6 3 7 2 16 -1 19 -3 4 -6 -2 -5 -13z"/>
<path d="M4017 1513 c-38 -97 -87 -246 -83 -250 2 -2 29 67 60 153 56 158 72
223 23 97z"/>
<path d="M5082 1540 c0 -14 2 -19 5 -12 2 6 2 18 0 25 -3 6 -5 1 -5 -13z"/>
<path d="M5231 1454 c0 -11 3 -14 6 -6 3 7 2 16 -1 19 -3 4 -6 -2 -5 -13z"/>
<path d="M5221 1414 c0 -11 3 -14 6 -6 3 7 2 16 -1 19 -3 4 -6 -2 -5 -13z"/>
<path d="M5081 1408 c-1 -9 9 -27 22 -40 12 -13 17 -17 10 -8 -7 8 -16 27 -22
40 -6 17 -10 19 -10 8z"/>
<path d="M5082 1330 c0 -14 2 -19 5 -12 2 6 2 18 0 25 -3 6 -5 1 -5 -13z"/>
<path d="M5704 1286 c11 -9 24 -16 30 -16 12 0 7 5 -24 19 -24 11 -24 11 -6
-3z"/>
<path d="M3916 1235 c-9 -26 -7 -32 5 -12 6 10 9 21 6 23 -2 3 -7 -2 -11 -11z"/>
<path d="M5073 1185 c0 -38 2 -53 4 -32 2 20 2 52 0 70 -2 17 -4 1 -4 -38z"/>
<path d="M3896 1185 c-9 -26 -7 -32 5 -12 6 10 9 21 6 23 -2 3 -7 -2 -11 -11z"/>
<path d="M3876 1135 c-9 -26 -7 -32 5 -12 6 10 9 21 6 23 -2 3 -7 -2 -11 -11z"/>
<path d="M9551 993 c1 -37 2 -37 8 -8 l6 29 22 -29 c12 -17 24 -27 27 -24 7 7
-43 69 -55 69 -5 0 -8 -17 -8 -37z"/>
<path d="M3796 935 c-9 -26 -7 -32 5 -12 6 10 9 21 6 23 -2 3 -7 -2 -11 -11z"/>
<path d="M9581 865 c1 -33 4 -86 8 -117 6 -53 7 -56 25 -43 18 14 18 17 1 102
-22 115 -35 136 -34 58z"/>
<path d="M9425 695 c-96 -28 -73 -34 77 -20 63 6 67 8 55 26 -15 24 -33 23
-132 -6z"/>
<path d="M9235 689 c12 -41 21 -53 29 -40 4 6 2 11 -3 11 -6 0 -11 9 -11 19 0
11 -5 23 -11 27 -8 4 -9 -1 -4 -17z"/>
<path d="M9270 695 c0 -8 4 -15 9 -15 5 0 12 -10 15 -22 7 -22 7 -22 16 -3 11
26 12 44 1 26 -7 -11 -10 -9 -16 8 -7 24 -25 28 -25 6z"/>
<path d="M9860 675 c0 -19 5 -35 11 -35 5 0 8 4 4 9 -3 6 2 14 11 19 15 8 14
10 -2 17 -17 7 -17 9 6 15 l25 8 -27 1 c-25 1 -28 -2 -28 -34z"/>
<path d="M9757 669 c8 -8 19 -8 40 -1 28 10 28 10 -11 11 -29 1 -37 -2 -29
-10z"/>
<path d="M9551 641 c-13 -10 -20 -21 -15 -24 12 -7 47 19 43 32 -2 6 -14 2
-28 -8z"/>
<path d="M9570 466 c0 -8 5 -18 10 -21 6 -3 10 1 10 9 0 8 -4 18 -10 21 -5 3
-10 -1 -10 -9z"/>
<path d="M350 441 c-17 -32 -12 -96 8 -114 23 -21 27 -21 46 -1 19 19 22 104
4 122 -18 18 -46 14 -58 -7z m51 -18 c13 -34 0 -88 -21 -88 -16 0 -27 73 -16
101 9 22 26 16 37 -13z"/>
<path d="M460 445 c-11 -13 -10 -14 4 -9 14 5 16 -2 16 -55 0 -34 4 -61 10
-61 6 0 10 30 10 70 0 73 -12 89 -40 55z"/>
<path d="M609 433 c-14 -36 -4 -94 17 -110 39 -29 77 41 57 104 -14 41 -59 45
-74 6z m61 -44 c0 -37 -9 -59 -25 -59 -26 0 -36 85 -13 108 17 17 38 -11 38
-49z"/>
<path d="M717 454 c-14 -15 -6 -24 12 -15 38 21 42 -18 6 -71 -14 -20 -25 -39
-25 -42 0 -4 19 -5 43 -4 36 1 37 2 10 5 l-32 4 25 39 c32 48 29 84 -6 88 -14
2 -29 0 -33 -4z"/>
<path d="M877 454 c-13 -14 -7 -26 8 -14 8 6 19 9 25 5 17 -10 11 -40 -15 -79
-14 -20 -25 -39 -25 -41 0 -3 17 -4 38 -4 28 2 31 3 10 6 l-27 4 25 37 c32 46
29 86 -6 90 -14 2 -29 0 -33 -4z"/>
<path d="M976 438 c-26 -37 -15 -109 18 -121 26 -10 56 28 56 69 0 69 -42 99
-74 52z m54 -47 c0 -20 -5 -43 -10 -51 -9 -13 -12 -12 -25 4 -18 23 -19 59 -4
87 15 30 39 6 39 -40z"/>
<path d="M1077 453 c-14 -13 -7 -25 8 -13 17 14 45 6 45 -13 0 -8 -13 -33 -30
-55 -16 -23 -30 -44 -30 -47 0 -3 17 -4 38 -4 23 1 28 3 15 6 -28 5 -28 4 2
49 28 41 30 55 13 72 -13 13 -50 16 -61 5z"/>
<path d="M1191 434 c-28 -36 -29 -99 -1 -114 33 -17 62 4 58 43 -2 27 -8 33
-33 37 l-30 5 27 28 c17 17 22 27 13 27 -7 0 -23 -12 -34 -26z m37 -77 c2 -19
-1 -27 -13 -27 -19 0 -30 24 -21 46 9 23 31 11 34 -19z"/>
<path d="M9560 375 c0 -8 9 -19 20 -25 12 -6 18 -16 14 -23 -5 -9 -4 -9 6 0
11 10 9 17 -13 37 -18 17 -27 20 -27 11z"/>
<path d="M560 326 c0 -9 5 -16 10 -16 6 0 10 4 10 9 0 6 -4 13 -10 16 -5 3
-10 -1 -10 -9z"/>
<path d="M820 330 c0 -5 5 -10 10 -10 6 0 10 5 10 10 0 6 -4 10 -10 10 -5 0
-10 -4 -10 -10z"/>
</g>
</svg>
