<?xml version="1.0" encoding="utf-8"?>
<!-- Generator: Adobe Illustrator 24.1.2, SVG Export Plug-In . SVG Version: 6.00 Build 0)  -->
<svg version="1.1" id="Calque_1" xmlns="http://www.w3.org/2000/svg" xmlns:xlink="http://www.w3.org/1999/xlink" x="0px" y="0px"
	 viewBox="0 0 512 512" style="enable-background:new 0 0 512 512;" xml:space="preserve">
<style type="text/css">
	.st0{fill:#4E303A;}
	.st1{fill:#593B45;}
	.st2{fill:#20000B;}
	.st3{fill:#48192D;}
	.st4{fill:#6D3246;}
	.st5{fill:#2B0512;}
	.st6{fill:#694C51;}
	.st7{fill:#242A38;}
	.st8{fill:#8A7999;}
	.st9{fill:#F7F4F2;}
	.st10{fill:#987677;}
	.st11{fill:#F0EBDB;}
	.st12{fill:#70565F;}
	.st13{fill:#BB9E8C;}
	.st14{fill:#BB9F8C;}
</style>
<g id="_x32_">
	<polygon class="st0" points="419.19,427.64 286.93,504 286.93,174.72 419.19,98.36 	"/>
	<polygon class="st1" points="419.19,98.36 286.93,174.72 154.67,98.36 286.93,22 	"/>
	<polygon class="st2" points="154.67,427.64 286.93,504 286.93,174.72 154.67,98.36 	"/>
	<polygon class="st3" points="158.43,104.85 158.43,427.22 174.66,436.59 283.19,499.25 283.19,176.88 	"/>
	<polygon class="st4" points="168.95,173.07 205.06,173.07 283.19,219.05 283.19,239.72 	"/>
	<polygon class="st4" points="174.66,436.59 283.19,499.25 283.19,468.1 211.51,428.27 175.26,428.27 	"/>
	<polygon class="st1" points="158.42,328.37 283.18,400.4 283.18,395.35 162.84,325.99 	"/>
	<polygon class="st1" points="158.42,427.21 283.18,499.24 283.18,494.19 162.84,424.83 	"/>
	<polygon class="st5" points="190.5,352.27 190.5,445.73 194.92,443.35 194.92,354.78 	"/>
	<polygon class="st5" points="158.42,333.75 158.42,427.21 162.84,424.83 162.84,336.26 	"/>
	<polygon class="st1" points="158.42,175.45 283.18,247.48 283.18,242.43 162.84,173.07 	"/>
	<polygon class="st5" points="190.5,123.35 190.5,193.97 194.92,191.59 194.92,125.86 	"/>
	<polygon class="st5" points="158.42,316.08 158.42,328.37 162.84,325.99 162.84,318.59 	"/>
	<polygon class="st1" points="190.5,160 219.63,176.82 219.63,171.77 194.92,157.62 	"/>
	<polygon class="st5" points="158.42,104.83 158.42,175.45 162.84,173.07 162.84,107.34 	"/>
	<polygon class="st5" points="221.97,141.52 221.97,212.14 226.39,209.76 226.39,144.04 	"/>
	<polygon class="st1" points="221.97,178.18 251.1,194.99 251.1,189.94 226.39,175.79 	"/>
	<polygon class="st1" points="190.5,399.05 219.63,415.87 219.63,410.82 194.92,396.67 	"/>
	<polygon class="st5" points="221.97,370.44 221.97,463.9 226.39,461.52 226.39,372.95 	"/>
	<polygon class="st5" points="253.45,388.61 253.45,482.08 257.87,479.69 257.87,391.13 	"/>
	<polygon class="st1" points="221.97,417.22 251.1,434.04 251.1,428.99 226.39,414.84 	"/>
	<polygon class="st5" points="253.45,159.69 253.45,230.31 257.87,227.93 257.87,162.21 	"/>
	<g>
		<g>
			<polygon class="st2" points="283.18,388.1 283.18,286.29 158.42,214.26 158.42,316.08 			"/>
			<polygon class="st2" points="283.18,286.29 283.18,247.48 158.42,175.45 158.42,214.26 			"/>
			<polygon class="st2" points="280.4,281.99 280.4,248.56 161.2,179.74 161.2,213.17 			"/>
			<polygon class="st2" points="221.97,212.14 221.97,141.52 219.63,140.17 219.63,210.79 			"/>
			<polygon class="st2" points="221.97,178.18 251.1,194.99 251.1,196.43 221.97,179.61 			"/>
			<polygon class="st2" points="190.5,160 219.63,176.82 219.63,178.26 190.5,161.44 			"/>
			<polygon class="st2" points="253.45,230.31 253.45,159.69 251.1,158.34 251.1,228.96 			"/>
			<polygon class="st2" points="190.5,193.97 190.5,123.35 188.16,122 188.16,192.62 			"/>
			<polygon class="st2" points="221.97,463.9 221.97,370.44 219.63,369.09 219.63,462.55 			"/>
			<polygon class="st2" points="221.97,417.22 251.1,434.04 251.1,435.48 221.97,418.66 			"/>
			<polygon class="st2" points="190.5,399.05 219.63,415.87 219.63,417.31 190.5,400.49 			"/>
			<polygon class="st2" points="158.42,328.37 283.18,400.4 283.18,405.78 158.42,333.75 			"/>
			<polygon class="st2" points="253.45,482.08 253.45,388.61 251.1,387.26 251.1,480.72 			"/>
			<polygon class="st2" points="190.5,445.73 190.5,352.27 188.16,350.92 188.16,444.38 			"/>
			<polygon class="st6" points="280.4,332.06 280.4,291.6 161.2,222.78 161.2,263.24 			"/>
		</g>
		<polygon class="st7" points="154.67,235.34 154.67,222.32 149.15,219.13 149.15,232.15 		"/>
	</g>
	<polygon class="st1" points="161.2,213.17 280.4,281.99 280.4,276.94 165.62,210.79 	"/>
	<polygon class="st5" points="161.2,179.74 161.2,213.17 165.62,210.79 165.62,182.26 	"/>
	<polygon class="st1" points="161.2,310.76 280.4,379.58 280.4,374.53 165.62,308.38 	"/>
	<polygon class="st5" points="161.2,222.78 161.2,310.76 165.62,308.38 165.62,225.29 	"/>
	<polygon class="st8" points="154.67,367.07 286.86,443.07 286.86,375.58 154.67,318.27 	"/>
	<polygon class="st9" points="95.02,287.41 255.63,380.14 301.11,353.88 140.5,261.16 	"/>
	<g>
		<g>
			<polygon class="st10" points="255.63,397.28 255.63,380.14 95.02,287.41 95.02,304.55 			"/>
		</g>
	</g>
	<polygon class="st11" points="255.63,397.28 255.63,380.14 301.11,353.88 301.11,371.02 	"/>
	<polygon class="st12" points="109.26,287.4 255.65,371.94 265.85,366.05 268.89,364.29 272.69,362.11 286.88,353.9 277.34,348.39 
		274.97,347.01 272.93,345.83 140.49,269.36 	"/>
	<polygon class="st11" points="140.5,279.46 117.99,292.46 109.25,287.41 140.5,269.38 286.86,353.88 278.13,358.93 	"/>
	<polygon class="st10" points="286.86,353.88 278.13,358.93 140.5,279.46 140.5,269.38 	"/>
	<g>
		<g>
			<polygon class="st10" points="292.46,314.89 292.46,301.87 286.93,298.68 286.93,311.7 			"/>
			<polygon class="st13" points="292.46,314.89 292.46,301.87 297.98,298.68 297.98,311.7 			"/>
			<polygon class="st14" points="286.93,298.68 292.46,301.87 297.98,298.68 292.46,295.49 			"/>
		</g>
		<g>
			<polygon class="st10" points="265.85,366.05 268.89,364.29 274.97,347.01 289.68,305.05 287.69,303.91 272.93,345.83 			"/>
		</g>
		<g>
			<polygon class="st13" points="268.89,364.29 272.69,362.11 277.34,348.39 289.68,312.22 289.68,305.05 274.97,347.01 			"/>
		</g>
	</g>
	<g>
		<g>
			<polygon class="st10" points="154.67,235.34 154.67,222.32 149.15,219.13 149.15,232.15 			"/>
			<polygon class="st14" points="149.15,219.13 154.67,222.32 154.67,215.94 			"/>
		</g>
		<g>
			<polygon class="st10" points="126.65,296.78 126.65,294.47 121.13,291.28 121.13,293.59 			"/>
			<polygon class="st13" points="126.65,296.78 126.65,294.47 140.5,286.47 140.5,288.79 			"/>
			<polygon class="st14" points="121.13,291.28 126.65,294.47 140.5,286.47 134.97,283.28 			"/>
		</g>
		<g>
			<polygon class="st10" points="128.67,291.63 151.91,225.52 149.89,224.35 126.65,290.46 			"/>
		</g>
		<g>
			<polygon class="st13" points="132.8,288.7 151.91,232.66 151.91,225.52 128.67,291.63 			"/>
		</g>
	</g>
</g>
</svg>
