<?xml version="1.0" encoding="utf-8"?>
<!-- Generator: Adobe Illustrator 24.1.2, SVG Export Plug-In . SVG Version: 6.00 Build 0)  -->
<svg version="1.1" id="Calque_1" xmlns="http://www.w3.org/2000/svg" xmlns:xlink="http://www.w3.org/1999/xlink" x="0px" y="0px"
	 viewBox="0 0 512 512" style="enable-background:new 0 0 512 512;" xml:space="preserve">
<style type="text/css">
	.st0{fill:#1F150B;}
	.st1{fill:#484038;}
	.st2{fill:#403932;}
	.st3{fill:#ADA49A;}
	.st4{fill:#272629;}
	.st5{fill:#151B1F;}
	.st6{fill:#585B5D;}
	.st7{fill:#3A3E40;}
	.st8{fill:#A5A9B2;}
	.st9{fill:#484B4D;}
	.st10{fill:#21272B;}
	.st11{fill:#3D454B;}
	.st12{fill:#666B70;}
	.st13{fill:#7E8386;}
	.st14{fill:#5C3E17;}
	.st15{fill:#9D9D9C;}
	.st16{fill:#B2AEAA;}
	.st17{fill:#4A6FA8;}
	.st18{fill:#E0DDDA;}
	.st19{fill:#A6310B;}
	.st20{fill:#292017;}
	.st21{fill:#3E434A;}
	.st22{fill:#322920;}
	.st23{fill:#414141;}
	.st24{fill:#2F2D31;}
	.st25{fill:#68B8C2;}
	.st26{fill:#848C7C;}
	.st27{fill:#20160C;}
	.st28{fill:#E9E5E2;}
	.st29{fill:#8C8C8C;}
	.st30{fill:#5E5E5E;}
	.st31{fill:#CCC7C4;}
	.st32{fill:#5E6F72;}
	.st33{fill:#9FB8B9;}
	.st34{fill:#555A61;}
	.st35{fill:#96826E;}
	.st36{fill:#E9EDDC;}
	.st37{fill:#737F82;}
	.st38{fill:#637376;}
	.st39{fill:#FD3D0E;}
	.st40{fill:#FD5C0E;}
	.st41{fill:#FDB03B;}
	.st42{fill:#3A3128;}
	.st43{fill:#68615A;}
	.st44{fill:#A29F9C;}
	.st45{fill:#CBC9C7;}
	.st46{fill:#872F00;}
	.st47{fill:#FF7904;}
	.st48{fill:#E2E3D5;}
	.st49{fill:#2C251E;}
	.st50{fill:#635E59;}
	.st51{fill:#F59C00;}
	.st52{fill:#F3F3F3;}
	.st53{fill:#363636;}
</style>
<g id="bus">
	<g>
		<path class="st0" d="M444.28,271.87l-0.79,0.79c-1.57,2.36-3.15,5.51-3.15,7.87v11.81c0,2.36,1.57,2.36,3.15,0l1.57-2.36
			c1.57-2.36,2.36-4.72,2.36-7.09v-11.81C447.43,269.51,446.64,269.51,444.28,271.87z"/>
		<path class="st1" d="M445.85,271.87l-0.79,0.79c-1.57,2.36-3.15,5.51-3.15,7.87v11.81c0,2.36,1.57,2.36,3.15,0l1.57-2.36
			c1.57-2.36,2.36-4.72,2.36-7.09v-11.81C449,269.51,447.43,269.51,445.85,271.87z"/>
		<g>
			<polygon class="st2" points="432.47,311.23 445.06,297.06 445.06,264 435.62,271.87 436.4,273.44 444.28,266.36 444.28,296.28 
				431.68,309.66 			"/>
		</g>
	</g>
	<g>
		<path class="st3" d="M378.15,403.34L16,194.72l63.77-37l360.57,207.84l-6.3,4.72c-13.38,10.23-26.77,19.68-41.73,26.77
			L378.15,403.34z"/>
		<path class="st4" d="M313.59,345.87v5.51l-30.7-18.11l-2.36,0.79v-7.87c0-10.23,7.09-14.96,16.53-9.45
			C305.72,323.04,313.59,335.64,313.59,345.87z"/>
		<g>
			<path class="st5" d="M289.97,326.98c0,8.66,6.3,19.68,14.17,23.62c3.15,1.57,0,6.3,2.36,5.51c0.79,0,7.09-3.94,7.87-4.72
				c2.36-1.57,3.94-4.72,3.94-8.66c0-8.66-6.3-19.68-14.17-23.62c-3.94-2.36-7.09-2.36-9.45-1.57l-6.3,3.94
				C286.03,323.04,289.97,323.04,289.97,326.98z"/>
			<g>
				<path class="st6" d="M282.89,330.92c0,8.66,6.3,19.68,14.17,23.62c7.87,4.72,14.17,0.79,14.17-7.87
					c0-8.66-6.3-19.68-14.17-23.62C289.18,319.11,282.89,322.26,282.89,330.92z"/>
				<path class="st7" d="M283.67,331.7c0,8.66,6.3,18.89,13.38,22.83c7.09,3.94,13.38,0.79,13.38-7.87c0-8.66-6.3-18.89-13.38-22.83
					C289.18,319.89,283.67,323.04,283.67,331.7z"/>
				<path class="st8" d="M287.61,333.28c0,6.3,3.94,13.38,9.45,16.53c5.51,3.15,9.45,0.79,9.45-5.51c0-6.3-3.94-13.38-9.45-16.53
					C291.55,325.4,287.61,327.77,287.61,333.28z"/>
				<g>
					<path class="st9" d="M305.72,344.3c0,5.51-3.94,7.87-8.66,4.72s-8.66-9.45-8.66-14.96s3.94-7.87,8.66-4.72
						C301.78,331.7,305.72,338.79,305.72,344.3z"/>
					<path class="st10" d="M305.72,344.3c0,4.72-3.15,6.3-7.09,3.94s-7.09-7.87-7.09-11.81c0-4.72,3.15-6.3,7.09-3.94
						S305.72,339.58,305.72,344.3z"/>
					<path class="st11" d="M304.93,342.72c0,4.72-3.15,6.3-7.09,3.94c-3.94-2.36-7.09-7.87-7.09-11.81c0-4.72,3.15-6.3,7.09-3.94
						C301.78,332.49,304.93,338,304.93,342.72z"/>
					<path class="st12" d="M291.55,327.77c-1.57,0.79-2.36,3.15-2.36,5.51c0,5.51,3.94,12.6,8.66,14.96
						c2.36,0.79,3.94,1.57,5.51,0.79c-1.57,0.79-3.94,0.79-7.09,0c-4.72-3.15-8.66-9.45-8.66-14.96
						C288.4,330.92,289.18,328.55,291.55,327.77z"/>
					<path class="st13" d="M304.14,343.51c0,4.72-3.15,6.3-7.09,3.94c-3.94-2.36-7.09-7.87-7.09-11.81c0-4.72,3.15-6.3,7.09-3.94
						C300.99,334.06,304.14,338.79,304.14,343.51z"/>
					<path class="st14" d="M298.63,341.15c0,1.57-1.57,2.36-3.15,1.57s-3.15-3.15-3.15-4.72c0-1.57,1.57-2.36,3.15-1.57
						C297.84,337.21,298.63,339.58,298.63,341.15z"/>
					<path class="st8" d="M298.63,341.15c0,1.57-1.57,2.36-3.15,1.57c-1.57-0.79-3.15-3.15-3.15-4.72c0-1.57,1.57-2.36,3.15-1.57
						S298.63,339.58,298.63,341.15z"/>
				</g>
			</g>
		</g>
		<path class="st4" d="M161.65,258.49V264l-30.7-18.11l-1.57,1.57v-7.87c0-10.23,7.09-14.96,16.53-9.45
			C153.77,234.87,161.65,247.46,161.65,258.49z"/>
		<g>
			<path class="st5" d="M138.03,239.59c0,8.66,6.3,19.68,14.17,23.62c3.15,1.57,0,6.3,2.36,5.51c0.79,0,7.09-3.94,7.87-4.72
				c2.36-1.57,3.94-4.72,3.94-8.66c0-8.66-6.3-19.68-14.17-23.62c-3.94-2.36-7.09-2.36-9.45-1.57l-6.3,3.94
				C134.09,235.66,138.03,235.66,138.03,239.59z"/>
			<g>
				<path class="st6" d="M130.94,243.53c0,8.66,6.3,19.68,14.17,23.62c7.87,4.72,14.17,0.79,14.17-7.87
					c0-8.66-6.3-19.68-14.17-23.62C137.24,231.72,130.94,234.87,130.94,243.53z"/>
				<path class="st7" d="M131.73,244.32c0,8.66,6.3,18.89,13.38,22.83c7.09,3.94,13.38,0.79,13.38-7.87
					c0-8.66-6.3-18.89-13.38-22.83C137.24,232.51,131.73,235.66,131.73,244.32z"/>
				<path class="st8" d="M135.67,245.89c0,6.3,3.94,13.38,9.45,16.53c5.51,3.15,9.45,0.79,9.45-5.51c0-6.3-3.94-13.38-9.45-16.53
					C139.6,237.23,135.67,240.38,135.67,245.89z"/>
				<path class="st12" d="M153.77,256.91c0,2.36-0.79,4.72-2.36,5.51c-1.57,0.79-3.94,0.79-6.3-0.79
					c-4.72-3.15-8.66-9.45-8.66-14.96c0-3.94,1.57-5.51,3.94-6.3c1.57,0,3.15,0,4.72,0.79C149.84,244.32,153.77,251.4,153.77,256.91
					z"/>
				<path class="st9" d="M153.77,256.91c0,2.36-0.79,4.72-2.36,5.51c-1.57,0-3.15,0-4.72-0.79c-4.72-3.15-8.66-9.45-8.66-14.96
					c0-2.36,0.79-4.72,2.36-5.51c1.57,0,3.15,0,4.72,0.79C149.84,244.32,153.77,251.4,153.77,256.91z"/>
				<path class="st10" d="M152.99,254.55c0,1.57-0.79,2.36-1.57,3.15c-0.79,0.79-2.36,0.79-3.94,0c-3.15-1.57-4.72-5.51-4.72-8.66
					c0-2.36,0.79-3.15,2.36-3.15c0.79,0,1.57,0,2.36,0.79C150.62,247.46,152.99,251.4,152.99,254.55z"/>
				<path class="st11" d="M152.2,252.98c0,1.57-0.79,2.36-1.57,3.15c-0.79,0.79-2.36,0.79-3.94,0c-3.15-1.57-4.72-5.51-4.72-8.66
					c0-2.36,0.79-3.15,2.36-3.15c0.79,0,1.57,0,2.36,0.79C149.84,245.89,152.2,249.83,152.2,252.98z"/>
				<path class="st13" d="M150.62,253.76c0,1.57-0.79,2.36-1.57,3.15c-0.79,0.79-2.36,0.79-3.94,0c-3.15-1.57-4.72-5.51-4.72-8.66
					c0-2.36,0.79-3.15,2.36-3.15c0.79,0,1.57,0,2.36,0.79C148.26,246.68,150.62,250.61,150.62,253.76z"/>
			</g>
		</g>
		<polygon class="st15" points="441.91,323.83 441.91,352.96 439.55,356.11 380.51,384.45 373.42,316.74 340.36,297.85 
			340.36,300.21 204.16,221.48 204.16,219.12 189.2,210.46 189.2,212.82 133.3,180.55 106.54,159.29 110.47,75.05 112.83,71.9 
			439.55,260.06 437.19,274.23 436.4,276.59 438.77,323.83 		"/>
		<path class="st16" d="M378.15,358.47l2.36,0.79v31.49l-66.92-36.21v-7.87c0-4.72-1.57-9.45-3.94-14.17
			c-3.15-6.3-7.87-11.02-12.6-14.17c-4.72-3.15-9.45-3.15-12.6-0.79c-2.36,1.57-3.94,5.51-3.94,10.23v7.87l-118.88-68.49v-7.87
			c0-4.72-1.57-9.45-3.94-14.17c-3.15-6.3-7.87-11.02-12.6-14.17c-4.72-3.15-9.45-3.15-12.6-0.79c-2.36,1.57-3.94,5.51-3.94,10.23
			v7.87l-55.11-32.28l-22.83-18.89v-85.81l2.36-3.94l328.29,188.95l-5.51,1.57v2.36v4.72l0.79,5.51L378.15,358.47z"/>
		<path class="st17" d="M371.06,330.13v34.64l-61.41-35.43c-3.15-6.3-7.87-11.02-12.6-14.17c-4.72-3.15-9.45-3.15-12.6-0.79
			l-126.75-73.22c-3.15-6.3-7.87-11.02-12.6-14.17c-4.72-3.15-9.45-3.15-12.6-0.79l-81.09-47.24v-33.85L371.06,330.13z"/>
		<polygon class="st18" points="49.85,110.48 375,297.06 380.51,295.49 52.21,106.54 		"/>
		<polygon class="st19" points="53,186.06 49.85,188.42 49.85,168.74 53,170.31 		"/>
		<path class="st20" d="M317.53,326.98L317.53,326.98c0-1.57,0-2.36-0.79-3.94c-0.79-2.36-2.36-3.94-3.94-4.72l-28.34-16.53
			c-1.57-0.79-3.15-0.79-3.94,0l0,0c-0.79,0.79-1.57,1.57-1.57,2.36L165.58,238.8c0-0.79,0-2.36-0.79-3.15
			c-0.79-2.36-2.36-3.94-3.94-4.72l-28.34-16.53c-1.57-0.79-3.15-0.79-3.94,0l0,0c-0.79,0.79-1.57,1.57-1.57,2.36l-70.85-40.94
			v-18.11v-38.58l310.19,178.71v56.68L317.53,326.98z"/>
		<polygon class="st21" points="319.89,275.81 319.89,321.47 274.23,295.49 274.23,257.7 304.14,275.02 309.65,270.3 		"/>
		<polygon class="st21" points="241.16,238.8 270.29,255.34 270.29,297.85 241.16,281.32 		"/>
		<polygon class="st21" points="167.94,196.29 167.94,234.08 122.28,207.31 122.28,162.44 150.62,178.97 156.13,189.21 		"/>
		<path class="st22" d="M166.37,234.87v1.57l-1.57-0.79c-0.79-2.36-2.36-3.94-3.94-4.72l-28.34-16.53c-1.57-0.79-3.15-0.79-3.94,0
			l0,0l-0.79-0.79v-0.79c0-3.15,3.15-4.72,5.51-3.15l28.34,16.53C164.01,228.57,166.37,231.72,166.37,234.87z"/>
		<path class="st22" d="M318.31,323.04v1.57l-1.57-0.79c-0.79-2.36-2.36-3.94-3.94-4.72l-28.34-16.53c-1.57-0.79-3.15-0.79-3.94,0
			l0,0l-0.79-0.79V301c0-3.15,3.15-4.72,5.51-3.15l28.34,16.53C316.74,316.74,318.31,319.89,318.31,323.04z"/>
		<polygon class="st21" points="75.05,141.97 57.73,132.52 57.73,156.93 75.05,166.38 		"/>
		<polygon class="st21" points="193.92,210.46 193.92,253.76 171.88,241.17 171.88,197.87 174.24,199.44 180.54,203.38 
			191.56,209.68 		"/>
		<polygon class="st20" points="364.76,299.42 323.04,275.02 323.04,356.9 364.76,381.3 		"/>
		<polygon class="st23" points="73.47,212.82 128.58,245.1 128.58,247.46 73.47,215.19 		"/>
		<polygon class="st23" points="161.65,264 280.52,332.49 280.52,334.85 161.65,266.36 		"/>
		<polygon class="st23" points="380.51,389.17 380.51,390.75 375.78,389.96 313.59,353.75 313.59,351.38 371.06,385.24 		"/>
		<polygon class="st23" points="441.91,356.11 432.47,362.41 393.89,385.24 380.51,390.75 380.51,389.17 388.38,384.45 
			434.04,358.47 441.91,354.53 		"/>
		<polygon class="st23" points="49.85,196.29 73.47,215.19 73.47,212.82 49.85,193.93 		"/>
		<polygon class="st21" points="341.93,289.98 341.93,359.26 324.61,349.02 324.61,279.74 327.76,281.32 336.42,286.83 		"/>
		<polygon class="st21" points="345.87,361.62 363.19,371.07 363.19,301.79 345.87,292.34 		"/>
		<polygon class="st20" points="238.01,226.21 196.29,202.59 196.29,284.47 238.01,308.08 		"/>
		<polygon class="st21" points="215.97,216.76 215.97,286.04 197.86,275.81 197.86,206.53 		"/>
		<polygon class="st21" points="219.9,288.4 236.44,298.64 236.44,229.36 219.9,219.12 		"/>
		<polygon class="st20" points="119.13,157.72 77.41,133.31 77.41,215.19 119.13,239.59 		"/>
		<polygon class="st21" points="78.98,207.31 97.09,217.55 97.09,148.27 78.98,138.03 		"/>
		<polygon class="st21" points="100.24,219.91 117.56,229.36 117.56,160.08 100.24,150.63 		"/>
		<polygon class="st24" points="123.86,226.21 121.49,224.63 121.49,221.48 123.86,223.06 		"/>
		<polygon class="st25" points="195.5,264.78 190.77,262.42 190.77,257.7 195.5,260.06 		"/>
		<polygon class="st24" points="320.67,339.58 318.31,338 318.31,334.85 320.67,336.43 		"/>
		<polygon class="st26" points="238.01,284.47 239.59,285.25 239.59,225.42 238.01,224.63 		"/>
		<polygon class="st27" points="216.75,296.28 218.33,297.06 218.33,213.61 216.75,212.82 		"/>
		<polygon class="st26" points="195.5,257.7 197.07,258.49 197.07,199.44 195.5,198.65 		"/>
		<polygon class="st26" points="119.13,215.19 120.71,215.97 120.71,156.14 119.13,155.35 		"/>
		<polygon class="st26" points="76.62,191.57 78.19,192.36 78.19,132.52 76.62,131.74 		"/>
		<polygon class="st22" points="144.33,197.08 145.9,197.08 145.9,175.82 144.33,175.04 		"/>
		<polygon class="st22" points="167.94,210.46 122.28,183.7 122.28,182.12 167.94,208.1 		"/>
		<polygon class="st28" points="380.51,295.49 52.21,106.54 112.83,71.9 439.55,260.06 		"/>
		<polygon class="st29" points="441.91,345.09 441.91,352.96 380.51,389.17 380.51,380.51 404.13,366.34 420.66,357.68 		"/>
		<polygon class="st29" points="441.91,354.53 432.47,360.83 393.89,383.66 380.51,389.17 380.51,387.6 388.38,382.88 434.04,356.9 
			441.91,352.96 		"/>
		<polygon class="st30" points="380.51,359.26 441.91,323.83 438.77,323.83 378.15,358.47 		"/>
		<polygon class="st31" points="441.91,323.83 441.91,345.09 414.36,367.13 380.51,380.51 380.51,359.26 378.15,358.47 
			380.51,356.9 438.77,323.83 		"/>
		<polygon class="st31" points="393.89,355.32 393.89,383.66 432.47,360.83 432.47,332.49 		"/>
		<polygon class="st2" points="441.91,323.83 441.91,324.62 380.51,360.83 380.51,356.9 438.77,323.83 		"/>
		<path class="st2" d="M441.91,323.83l-3.15-3.94v3.15l-55.9,32.28c-2.36,1.57-6.3,0.79-7.87-1.57l0.79,3.94l1.57,2.36l3.15,0.79
			v-1.57L441.91,323.83z"/>
		<path class="st32" d="M438.77,323.83l-55.9,33.07c-0.79,0-1.57,0.79-2.36,0.79c-2.36,0-3.94-0.79-5.51-2.36l0.79-44.87l3.15-1.57
			l9.45-4.72c7.09-3.15,13.38-6.3,19.68-10.23c6.3-3.15,11.81-7.09,17.32-11.02c1.57-1.57,3.94-2.36,5.51-3.94l4.72-3.94
			L438.77,323.83z"/>
		<polygon class="st33" points="429.32,312.02 438.77,323.83 436.4,275.02 429.32,279.74 		"/>
		<path class="st33" d="M425.38,282.1v21.26l-17.32-10.23v-0.79C414.36,289.98,419.87,286.04,425.38,282.1z"/>
		<path class="st34" d="M380.51,356.9c-2.36,0-3.94-0.79-5.51-2.36l0,0v-45.66l0.79,0.79l3.15-1.57v0.79
			C379.72,308.87,380.51,353.75,380.51,356.9z"/>
		<polygon class="st34" points="379.72,311.23 392.32,306.51 430.89,284.47 436.4,278.96 436.4,276.59 430.89,281.32 393.1,303.36 
			375.78,309.66 		"/>
		<g>
			<path class="st35" d="M122.28,100.24l-18.89,11.02c-1.57,0.79-1.57,3.15,0,4.72l34.64,19.68c2.36,1.57,6.3,1.57,8.66,0
				l18.89-11.02c1.57-0.79,1.57-3.15,0-4.72l-34.64-19.68C127.79,98.67,124.64,98.67,122.28,100.24z"/>
			<path class="st33" d="M123.86,102.61l-15.75,9.45c-1.57,0.79-1.57,2.36,0,3.15l31.49,18.11c1.57,0.79,3.94,0.79,6.3,0l15.75-9.45
				c1.57-0.79,1.57-2.36,0-3.15l-31.49-18.11C128.58,101.03,126.22,101.03,123.86,102.61z"/>
		</g>
		<g>
			<path class="st35" d="M234.07,185.27l18.89-11.02c1.57-0.79,1.57-3.15,0-4.72l-34.64-19.68c-2.36-1.57-6.3-1.57-8.66,0
				l-18.89,11.02c-1.57,0.79-1.57,3.15,0,4.72l34.64,19.68C227.78,186.84,230.93,186.84,234.07,185.27z"/>
			<path class="st33" d="M231.71,182.91l15.75-9.45c1.57-0.79,1.57-2.36,0-3.15l-31.49-18.11c-1.57-0.79-3.94-0.79-6.3,0
				l-15.75,9.45c-1.57,0.79-1.57,2.36,0,3.15l31.49,18.11C227.78,184.48,230.14,184.48,231.71,182.91z"/>
		</g>
		<g>
			<path class="st35" d="M328.55,219.12l-18.89,11.02c-1.57,0.79-1.57,3.15,0,4.72l34.64,19.68c2.36,1.57,6.3,1.57,8.66,0
				l18.89-11.02c1.57-0.79,1.57-3.15,0-4.72l-34.64-19.68C334.06,217.55,330.91,217.55,328.55,219.12z"/>
			<path class="st33" d="M330.12,221.48l-15.75,9.45c-1.57,0.79-1.57,2.36,0,3.15l31.49,18.11c1.57,0.79,3.94,0.79,6.3,0l15.75-9.45
				c1.57-0.79,1.57-2.36,0-3.15l-31.49-18.11C334.85,220.7,332.48,220.7,330.12,221.48z"/>
		</g>
		<polygon class="st36" points="52.21,106.54 380.51,293.91 437.19,260.06 410.42,243.53 439.55,260.06 380.51,295.49 		"/>
		<polygon class="st37" points="438.77,323.83 438.77,319.89 426.17,314.38 410.42,326.19 408.85,334.06 398.61,341.15 
			380.51,347.45 380.51,356.9 		"/>
		<path class="st38" d="M380.51,347.45l-5.51-0.79v7.09c0,0,2.36,3.15,5.51,3.15C380.51,347.45,380.51,347.45,380.51,347.45z"/>
		<g>
			<polygon class="st39" points="273.44,325.4 270.29,323.83 270.29,321.47 273.44,323.04 			"/>
			<polygon class="st40" points="273.44,323.04 273.44,325.4 273.44,325.4 			"/>
			<polygon class="st41" points="271.08,321.47 273.44,323.04 273.44,323.04 270.29,321.47 			"/>
		</g>
		<g>
			<polygon class="st39" points="194.71,279.74 192.35,278.17 192.35,276.59 194.71,278.17 			"/>
			<polygon class="st40" points="195.5,278.17 195.5,279.74 194.71,279.74 194.71,278.17 			"/>
			<polygon class="st41" points="192.35,276.59 195.5,278.17 194.71,278.17 			"/>
		</g>
		<g>
			<polygon class="st39" points="318.31,351.38 315.95,349.81 315.95,348.24 318.31,349.81 			"/>
			<polygon class="st40" points="319.1,349.02 319.1,351.38 318.31,351.38 318.31,349.81 			"/>
			<polygon class="st41" points="315.95,347.45 319.1,349.02 318.31,349.81 315.95,348.24 			"/>
		</g>
		<g>
			<polygon class="st39" points="320.67,334.85 318.31,333.28 318.31,331.7 320.67,333.28 			"/>
			<polygon class="st40" points="321.46,332.49 321.46,334.85 320.67,334.85 320.67,333.28 			"/>
			<polygon class="st41" points="318.31,330.92 321.46,332.49 320.67,333.28 318.31,331.7 			"/>
		</g>
		<g>
			<polygon class="st39" points="166.37,264 163.22,262.42 163.22,260.06 166.37,261.64 			"/>
			<polygon class="st40" points="167.16,261.64 167.16,263.21 166.37,264 166.37,261.64 			"/>
			<polygon class="st41" points="164.01,260.06 167.16,261.64 166.37,261.64 163.22,260.06 			"/>
		</g>
		<g>
			<polygon class="st39" points="126.22,240.38 123.86,238.8 123.86,237.23 126.22,238.8 			"/>
			<polygon class="st40" points="127.01,238.8 127.01,240.38 126.22,240.38 126.22,238.8 			"/>
			<polygon class="st41" points="123.86,236.44 127.01,238.8 126.22,238.8 123.86,237.23 			"/>
		</g>
		<g>
			<polygon class="st39" points="66.39,204.95 63.24,203.38 63.24,201.02 66.39,203.38 			"/>
			<polygon class="st40" points="67.17,202.59 67.17,204.95 66.39,204.95 66.39,203.38 			"/>
			<polygon class="st41" points="64.02,201.02 67.17,202.59 66.39,203.38 63.24,201.02 			"/>
		</g>
		<g>
			<polygon class="st39" points="58.51,119.14 55.36,117.56 55.36,115.2 58.51,116.78 			"/>
			<polygon class="st40" points="58.51,116.78 58.51,118.35 58.51,119.14 			"/>
			<polygon class="st41" points="56.15,115.2 58.51,116.78 58.51,116.78 55.36,115.2 			"/>
		</g>
		<g>
			<g>
				<g>
					<polygon class="st22" points="380.51,375.79 395.47,369.49 395.47,381.3 395.47,381.3 380.51,387.6 					"/>
					<polygon class="st42" points="443.49,340.36 443.49,351.38 434.04,358.47 434.04,347.45 395.47,369.49 434.04,347.45 					"/>
					<polygon class="st43" points="443.49,340.36 434.04,347.45 395.47,369.49 380.51,375.79 376.57,375 380.51,375 389.17,371.85 
						434.04,345.87 441.91,339.58 441.91,338.79 					"/>
					<polygon class="st27" points="380.51,375.79 380.51,387.6 376.57,386.02 376.57,375 					"/>
				</g>
				<polygon class="st2" points="434.04,347.45 434.04,358.47 395.47,381.3 395.47,369.49 				"/>
				<polygon class="st27" points="433.25,349.81 433.25,350.6 397.04,371.07 397.04,370.28 				"/>
				<polygon class="st27" points="433.25,351.38 433.25,352.17 397.04,372.64 397.04,372.64 				"/>
				<polygon class="st27" points="433.25,352.96 433.25,354.53 397.04,375 397.04,374.22 				"/>
				<polygon class="st27" points="433.25,355.32 433.25,356.11 397.04,376.58 397.04,375.79 				"/>
				<polygon class="st27" points="433.25,356.9 433.25,357.68 397.04,378.15 397.04,377.36 				"/>
			</g>
			<path class="st27" d="M442.7,347.45v2.36c0,0.79,0,1.57-0.79,1.57l-5.51,4.72c-0.79,0.79-0.79,0-0.79-0.79v-2.36
				c0-0.79,0-1.57,0.79-1.57l3.94-3.15l1.57-0.79l0,0l0,0C441.91,346.66,442.7,346.66,442.7,347.45z"/>
			<path class="st44" d="M441.91,346.66v2.36c0,0.79,0,1.57-0.79,1.57l-5.51,4.72v-2.36c0-0.79,0-1.57,0.79-1.57l3.94-3.15
				L441.91,346.66z"/>
			<path class="st45" d="M440.34,348.24v0.79c0,0.79,0,1.57-0.79,1.57l-3.94,3.15v-0.79c0-0.79,0-1.57,0.79-1.57L440.34,348.24z"/>
			<path class="st27" d="M389.95,382.09l-7.87,3.15c-0.79,0-1.57,0-1.57-0.79v-2.36c0-0.79,0-0.79,0.79-1.57l7.87-3.15
				c0.79,0,1.57,0,1.57,0.79v2.36C391.53,381.3,390.74,382.09,389.95,382.09z"/>
			<path class="st44" d="M389.95,380.51c0,0.79,0,0.79-0.79,0.79l-6.3,2.36c-0.79,0-0.79,0-0.79-0.79v-1.57c0-0.79,0-0.79,0.79-0.79
				l6.3-2.36l0,0c0.79,0,0.79,0,0.79,0.79V380.51z"/>
			<path class="st45" d="M388.38,379.73c0,0.79,0,0.79-0.79,0.79l-6.3,2.36v-1.57c0-0.79,0-0.79,0.79-0.79l6.3-2.36V379.73z"/>
			<g>
				<path class="st27" d="M442.7,342.72v0.79c0,0.79,0,1.57-0.79,1.57l-5.51,4.72c-0.79,0.79-0.79,0-0.79-0.79v-1.57
					c0-0.79,0-1.57,0.79-1.57l3.94-3.15l1.57-0.79l0,0l0,0C441.91,341.94,442.7,342.72,442.7,342.72z"/>
				<path class="st46" d="M441.91,342.72v0.79c0,0.79,0,1.57-0.79,1.57l-5.51,4.72v-0.79c0-0.79,0-1.57,0.79-1.57l3.94-3.15
					L441.91,342.72z"/>
				<path class="st47" d="M440.34,344.3L440.34,344.3c0,0.79,0,0.79-0.79,1.57l-3.94,3.15l0,0c0-0.79,0-1.57,0.79-1.57L440.34,344.3
					z"/>
				<path class="st27" d="M389.95,377.36l-7.87,3.15c-0.79,0-1.57,0-1.57-0.79v-0.79c0-0.79,0-0.79,0.79-1.57l7.87-3.15
					c0.79,0,1.57,0,1.57,0.79v0.79C391.53,376.58,390.74,376.58,389.95,377.36z"/>
				<path class="st46" d="M389.95,375.79c0,0.79,0,0.79-0.79,0.79l-6.3,2.36c-0.79,0-0.79,0-0.79-0.79v-0.79
					c0-0.79,0-0.79,0.79-0.79l6.3-2.36l0,0C389.17,374.22,389.95,374.22,389.95,375.79L389.95,375.79z"/>
				<path class="st47" d="M388.38,374.22c0,0.79,0,0.79-0.79,0.79l-6.3,2.36l0,0c0-0.79,0-0.79,0.79-0.79L388.38,374.22
					L388.38,374.22z"/>
			</g>
		</g>
		<polygon class="st48" points="439.55,261.64 430.11,269.51 393.89,289.98 381.29,295.49 381.29,294.7 380.51,293.91 
			437.19,260.06 439.55,260.06 		"/>
		<polygon class="st2" points="441.91,326.19 432.47,332.49 393.89,355.32 380.51,360.83 380.51,359.26 388.38,354.53 
			434.04,328.55 441.91,324.62 		"/>
		<polygon class="st42" points="441.91,333.28 432.47,339.58 393.89,362.41 380.51,367.92 380.51,360.83 393.89,355.32 
			432.47,332.49 441.91,326.19 		"/>
		<polygon class="st37" points="438.77,324.62 432.47,329.34 393.89,352.17 380.51,356.9 380.51,356.11 388.38,351.38 434.04,325.4 
			438.77,323.04 		"/>
		<polygon class="st15" points="437.19,275.81 430.89,281.32 393.1,303.36 375.78,309.66 380.51,307.3 387.59,302.57 431.68,277.38 
			437.19,274.23 		"/>
		<polygon class="st2" points="430.11,271.87 393.89,293.13 378.15,299.42 377.36,307.3 393.1,301 426.96,281.32 435.62,275.02 
			437.98,264.78 		"/>
		<polygon class="st49" points="378.15,299.42 378.15,304.94 391.53,298.64 425.38,279.74 433.25,272.66 434.83,267.93 
			430.11,271.87 393.89,293.13 		"/>
		<polygon class="st22" points="377.36,360.04 365.55,352.96 366.34,298.64 375.78,308.87 375.78,309.66 375,308.87 375,354.53 		
			"/>
		<polygon class="st50" points="403.34,373.43 398.61,375.79 398.61,371.07 403.34,368.7 		"/>
		<polygon class="st51" points="389.95,299.42 380.51,302.57 380.51,298.64 389.95,295.49 		"/>
		<polygon class="st22" points="363.97,352.17 364.76,354.53 376.57,367.13 380.51,367.92 380.51,360.83 377.36,360.04 		"/>
		<g>
			<g>
				<path class="st31" d="M104.96,135.67l0.79-0.79l0,0l43.3-25.98l138.56,128.33h-6.3C281.31,236.44,105.75,134.88,104.96,135.67z"
					/>
				<path class="st52" d="M112.83,127.01l0.79-0.79l0,0l43.3-25.98l173.2,99.2l-44.09,25.98
					C286.03,225.42,112.83,126.22,112.83,127.01z"/>
				<polygon class="st16" points="112.83,127.01 109.69,134.88 287.61,236.44 286.03,225.42 				"/>
				<polygon class="st17" points="112.05,130.16 109.69,134.88 287.61,236.44 286.82,230.14 				"/>
				<polygon class="st31" points="286.03,225.42 287.61,236.44 339.57,206.53 329.33,199.44 				"/>
			</g>
			<path class="st53" d="M176.6,120.71l-11.81-7.09l-29.92,18.11c0,0,0,0,11.81,6.3L176.6,120.71z"/>
			<g>
				<path class="st52" d="M142.75,139.61l-0.79-0.79l36.21-22.04l0.79,0.79l0,0h0.79C172.67,121.5,157.71,130.95,142.75,139.61z"/>
				<path class="st52" d="M140.39,138.03l-0.79-0.79l36.21-22.04l0.79,0.79l0,0h0.79C170.31,119.93,155.35,129.37,140.39,138.03z"/>
				<path class="st52" d="M137.24,136.46l-0.79-0.79l36.21-22.04l0.79,0.79l0,0h0.79C167.16,118.35,152.2,127.8,137.24,136.46z"/>
				<path class="st52" d="M134.88,134.88l-0.79-0.79l36.21-22.04l0.79,0.79l0,0h0.79C164.79,116.78,149.84,126.22,134.88,134.88z"/>
			</g>
		</g>
	</g>
	<g>
		<g>
			<path class="st22" d="M364.76,318.32h-2.36c-1.57,0-3.15,2.36-3.15,4.72v12.6c0,2.36,1.57,3.94,3.15,3.15l3.15-0.79
				c1.57,0,2.36-2.36,2.36-4.72v-12.6C367.91,319.89,366.34,318.32,364.76,318.32z"/>
			<path class="st1" d="M364.76,319.11h-2.36c-1.57,0-3.15,2.36-3.15,4.72v12.6c0,2.36,1.57,3.94,3.15,3.15l3.15-0.79
				c1.57,0,2.36-2.36,2.36-4.72v-12.6C367.91,320.68,366.34,319.11,364.76,319.11z"/>
			<g>
				<polygon class="st2" points="363.19,343.51 371.85,350.6 371.85,349.02 364.76,341.94 364.76,318.32 374.21,308.87 
					374.21,308.08 363.19,317.53 				"/>
			</g>
		</g>
	</g>
</g>
</svg>
