<?xml version="1.0" encoding="utf-8"?>
<!-- Generator: Adobe Illustrator 24.1.2, SVG Export Plug-In . SVG Version: 6.00 Build 0)  -->
<svg version="1.1" id="Calque_1" xmlns="http://www.w3.org/2000/svg" xmlns:xlink="http://www.w3.org/1999/xlink" x="0px" y="0px"
	 viewBox="0 0 512 512" style="enable-background:new 0 0 512 512;" xml:space="preserve">
<style type="text/css">
	.st0{fill:#ADA49A;}
	.st1{fill:#E08019;}
	.st2{fill:#F2F3F7;}
	.st3{fill:#21272B;}
	.st4{fill:#151B1F;}
	.st5{fill:#585B5D;}
	.st6{fill:#3A3E40;}
	.st7{fill:#575E66;}
	.st8{fill:#141B22;}
	.st9{fill:#748388;}
	.st10{fill:#B8C0C2;}
	.st11{fill:#131E24;}
	.st12{fill:#3D5259;}
	.st13{fill:#6C7C80;}
	.st14{fill:#95A1A4;}
	.st15{fill:#D9DDDE;}
	.st16{fill:#D1D6D7;}
	.st17{fill:#56686E;}
	.st18{fill:#586A70;}
	.st19{fill:#88959A;}
	.st20{fill:#2C3136;}
	.st21{fill:#222930;}
	.st22{fill:#738387;}
	.st23{fill:#335A7B;}
	.st24{fill:#102844;}
	.st25{fill:#D2D7E7;}
	.st26{fill:#4D5258;}
	.st27{fill:#E4012C;}
	.st28{fill:#779591;}
	.st29{fill:#57879D;}
	.st30{fill:#0A101E;}
	.st31{fill:#ABABAB;}
	.st32{fill:#8892C7;}
	.st33{fill:#B6BDE1;}
	.st34{fill:#5E6F72;}
	.st35{fill:#3A4047;}
	.st36{fill:#9FB8B9;}
	.st37{fill:#DFE4F2;}
	.st38{fill:#D3D8E7;}
	.st39{fill:#F0F4FF;}
	.st40{fill:#A6AED7;}
	.st41{fill:url(#SVGID_1_);}
	.st42{fill:#EDEDED;}
	.st43{fill:#FF8106;}
	.st44{fill:#575B5C;}
	.st45{fill:#3B4041;}
	.st46{fill:#322920;}
	.st47{fill:#D5D6D5;}
	.st48{fill:#FFED00;}
	.st49{fill:#FAF1BD;}
	.st50{fill:#FFC814;}
	.st51{fill:#A3001F;}
	.st52{fill:#FF2E56;}
	.st53{fill:#FF7007;}
	.st54{fill:#ADBDC9;}
</style>
<g id="car_01">
	<g>
		<g>
			<path class="st0" d="M154.47,164.76l-24.53,37.32l-28.79,21.33c-6.4,4.27-10.66,14.93-3.2,19.19l215.41,124.77
				c8.53,5.33,20.26,5.33,28.79,1.07l43.72-20.26l31.99-20.26c6.4-5.33,6.4-14.93-7.46-25.59L154.47,164.76z"/>
			<g id="XMLID_4807_">
				<path id="XMLID_4809_" class="st1" d="M247.25,159.42C247.25,159.42,248.32,159.42,247.25,159.42L247.25,159.42
					c-1.07,0-2.13,0-3.2,0c0,0-1.07,0-1.07,1.07c0,1.07,0,1.07,0,1.07c0,1.07-6.4-5.33-6.4-4.27c0,1.07-1.07,1.07-1.07,2.13
					c0,0-1.07,0-1.07,1.07v1.07c0,0,0,1.07,1.07,1.07c0,0,0,0,1.07,0c1.07-1.07,2.13-2.13,3.2-3.2c1.07,0,1.07-1.07,1.07-2.13
					s1.07-1.07,1.07-2.13v-1.07C240.85,153.03,247.25,159.42,247.25,159.42z"/>
				<path id="XMLID_4808_" class="st2" d="M252.58,149.83c4.27,1.07-4.27,0-6.4,1.07c-4.27,2.13-1.07,9.6-3.2,9.6s-4.27,0-3.2-5.33
					C240.85,154.09,248.32,149.83,252.58,149.83z"/>
			</g>
			<path class="st3" d="M116.08,229.8l18.13-5.33l59.72,38.39l86.38,61.85l13.86-5.33l34.12,23.46l9.6-36.26l-213.28-123.7
				C142.74,183.95,102.22,190.35,116.08,229.8z"/>
			<g>
				<g>
					<path id="XMLID_4806_" class="st4" d="M121.42,215.94l12.8,21.33l2.13,3.2l13.86,20.26c0,0,7.46-4.27,12.8-7.46
						c1.07,0,1.07-1.07,1.07-1.07l0,0c3.2-2.13,5.33-6.4,5.33-11.73c0-1.07,0-3.2,0-4.27c-1.07-5.33-3.2-10.66-6.4-14.93
						c-3.2-5.33-7.46-9.6-12.8-12.8c-4.27-3.2-8.53-3.2-11.73-2.13c-1.07,0-1.07,1.07-2.13,1.07
						C129.95,210.61,121.42,215.94,121.42,215.94z"/>
					<path id="XMLID_4805_" class="st4" d="M131.01,238.34l4.27,2.13l12.8,7.46l20.26-11.73c-1.07-5.33-3.2-10.66-6.4-14.93
						l-28.79,16L131.01,238.34z"/>
					<g id="XMLID_4803_">
						<path id="XMLID_4804_" class="st3" d="M145.94,210.61c-5.33-3.2-10.66-3.2-13.86-1.07c0,0,0,0-1.07,0
							c3.2-1.07,7.46-1.07,12.8,1.07c10.66,6.4,19.19,20.26,19.19,31.99c0,5.33-2.13,9.6-4.27,11.73c1.07,0,1.07,0,1.07-1.07
							c3.2-2.13,5.33-6.4,5.33-11.73C164.07,230.87,155.54,217.01,145.94,210.61z"/>
					</g>
					<g id="XMLID_4801_">
						<path id="XMLID_4802_" class="st3" d="M142.74,212.74c-5.33-3.2-10.66-3.2-13.86-1.07c0,0,0,0-1.07,0
							c3.2-1.07,7.46-1.07,12.8,1.07c10.66,6.4,19.19,20.26,19.19,31.99c0,5.33-2.13,9.6-4.27,11.73c1.07,0,1.07,0,1.07-1.07
							c3.2-2.13,5.33-6.4,5.33-11.73C160.87,233,152.34,219.14,142.74,212.74z"/>
					</g>
					<g id="XMLID_4799_">
						<path id="XMLID_4800_" class="st3" d="M138.48,214.88c-5.33-3.2-10.66-3.2-13.86-1.07c0,0,0,0-1.07,0
							c3.2-1.07,7.46-1.07,12.8,1.07c10.66,6.4,19.19,20.26,19.19,31.99c0,5.33-2.13,9.6-4.27,11.73c0,0,1.07,0,1.07-1.07
							c3.2-2.13,5.33-6.4,5.33-11.73C157.67,235.14,149.14,220.21,138.48,214.88z"/>
					</g>
				</g>
				<path class="st5" d="M116.08,227.67c0,11.73,8.53,26.66,19.19,31.99c10.66,6.4,19.19,1.07,19.19-10.66s-8.53-26.66-19.19-31.99
					C124.61,210.61,116.08,215.94,116.08,227.67z"/>
				<g>
					<path class="st6" d="M118.22,228.74c0,10.66,7.46,24.53,17.06,29.86c9.6,5.33,17.06,1.07,17.06-9.6
						c0-10.66-7.46-24.53-17.06-29.86C125.68,213.81,118.22,218.07,118.22,228.74z"/>
					<path class="st7" d="M119.28,229.8c0,9.6,6.4,21.33,14.93,26.66c8.53,5.33,14.93,1.07,14.93-8.53s-6.4-21.33-14.93-26.66
						C126.75,215.94,119.28,220.21,119.28,229.8z"/>
					<path class="st8" d="M120.35,229.8c0,9.6,6.4,20.26,14.93,24.53c8.53,4.27,14.93,1.07,14.93-8.53c0-9.6-6.4-20.26-14.93-24.53
						C126.75,217.01,120.35,221.27,120.35,229.8z"/>
					<path class="st9" d="M121.42,230.87c0,2.13,0,4.27,1.07,6.4c1.07,2.13,1.07,3.2,2.13,5.33c2.13,4.27,5.33,8.53,8.53,10.66
						c1.07,0,1.07,1.07,2.13,1.07c1.07,0,1.07,1.07,2.13,1.07c3.2,1.07,6.4,1.07,8.53-1.07c1.07-1.07,1.07-2.13,2.13-3.2
						c1.07-1.07,1.07-3.2,1.07-5.33c0-2.13,0-4.27-1.07-6.4c-1.07-2.13-1.07-3.2-2.13-5.33c-2.13-4.27-5.33-8.53-8.53-10.66
						c-1.07,0-1.07-1.07-2.13-1.07c-1.07,0-1.07-1.07-2.13-1.07c-3.2-1.07-6.4-1.07-8.53,1.07c-1.07,1.07-1.07,2.13-2.13,3.2
						C121.42,226.61,121.42,228.74,121.42,230.87z"/>
					<path class="st10" d="M121.42,230.87c0,2.13,0,4.27,1.07,6.4c1.07,2.13,1.07,3.2,2.13,5.33c2.13,4.27,5.33,7.46,8.53,10.66
						c1.07,0,1.07,1.07,2.13,1.07c1.07,0,1.07,1.07,2.13,1.07c3.2,1.07,6.4,1.07,8.53-1.07c1.07-1.07,1.07-1.07,2.13-3.2
						c1.07-1.07,1.07-3.2,1.07-5.33c0-2.13,0-4.27-1.07-6.4c-1.07-2.13-1.07-3.2-2.13-5.33c-2.13-4.27-5.33-7.46-8.53-10.66
						c-1.07,0-1.07-1.07-2.13-1.07c-1.07,0-1.07-1.07-2.13-1.07c-3.2-1.07-6.4-1.07-8.53,1.07c-1.07,1.07-1.07,1.07-2.13,3.2
						C122.48,227.67,121.42,228.74,121.42,230.87z"/>
					<path class="st11" d="M147.01,244.73c0,6.4-3.2,9.6-8.53,8.53c-1.07,0-2.13-1.07-3.2-1.07l0,0c-4.27-3.2-8.53-7.46-10.66-12.8
						c0-1.07,0-1.07-1.07-2.13c0-2.13-1.07-3.2-1.07-5.33c0-7.46,5.33-10.66,11.73-6.4l0,0c1.07,1.07,2.13,1.07,3.2,2.13
						c2.13,2.13,4.27,4.27,5.33,7.46c1.07,1.07,1.07,3.2,2.13,5.33C147.01,241.54,147.01,242.6,147.01,244.73z"/>
					<path class="st12" d="M139.54,226.61v21.33v5.33c-1.07,0-2.13,1.07-2.13,1.07s-1.07-1.07-1.07-2.13c0,0,0,0,0-1.07v-26.66l0,0
						C137.41,225.54,137.41,225.54,139.54,226.61z"/>
					<path class="st12" d="M129.95,233c0,4.27,3.2,9.6,7.46,11.73c4.27,2.13,7.46,0,7.46-4.27s-3.2-9.6-7.46-11.73
						C133.15,226.61,129.95,228.74,129.95,233z"/>
					<path class="st12" d="M124.61,223.41l3.2,5.33l4.27,6.4l2.13,2.13l2.13,2.13l2.13,2.13l4.27,6.4l3.2,2.13
						c1.07-1.07,0-1.07,1.07-2.13l-1.07-2.13l-4.27-6.4l-2.13-2.13l-2.13-2.13l-2.13-2.13l-4.27-6.4l-2.13-3.2
						C126.75,224.47,125.68,222.34,124.61,223.41z"/>
					<path class="st12" d="M147.01,239.4L147.01,239.4l-5.33,1.07h-2.13h-2.13h-2.13h-4.27l-5.33-2.13l-2.13-1.07l1.07-1.07h1.07
						h3.2h4.27h2.13h2.13h2.13h4.27h1.07C144.88,236.2,145.94,237.27,147.01,239.4z"/>
					<path class="st13" d="M133.15,223.41v28.79c1.07,0,1.07,1.07,2.13,1.07c1.07,0,1.07,1.07,2.13,1.07v-28.79
						c-1.07,0-1.07,0-2.13-1.07C134.21,223.41,133.15,223.41,133.15,223.41z"/>
					<path class="st14" d="M123.55,226.61l3.2,4.27l4.27,6.4l2.13,2.13l2.13,2.13l2.13,2.13l4.27,6.4l3.2,4.27
						c1.07-1.07,1.07-1.07,2.13-3.2l-3.2-4.27l-4.27-6.4l-2.13-2.13l-2.13-2.13l-2.13-2.13l-4.27-6.4l-3.2-4.27
						C124.61,224.47,123.55,225.54,123.55,226.61z"/>
					<path class="st14" d="M123.55,237.27c0,1.07,1.07,3.2,2.13,5.33h3.2h4.27h2.13h2.13h2.13h4.27h3.2c0-1.07-1.07-3.2-2.13-5.33
						h-3.2h-4.27h-2.13h-2.13h-2.13h-4.27H123.55z"/>
					<path class="st14" d="M128.88,234.07c0,4.27,3.2,9.6,7.46,11.73c4.27,2.13,7.46,0,7.46-4.27c0-4.27-3.2-9.6-7.46-11.73
						C132.08,227.67,128.88,229.8,128.88,234.07z"/>
					<path class="st15" d="M127.81,234.07c0,4.27,3.2,9.6,7.46,11.73c4.27,2.13,7.46,0,7.46-4.27c0-4.27-3.2-9.6-7.46-11.73
						C131.01,228.74,127.81,229.8,127.81,234.07z"/>
					<path class="st16" d="M131.01,236.2h-4.27c0,1.07,1.07,3.2,2.13,5.33h4.27v6.4c1.07,0,1.07,1.07,2.13,1.07
						c1.07,0,1.07,1.07,2.13,1.07v-6.4l4.27,6.4c1.07,0,1.07-1.07,2.13-3.2l-4.27-6.4h4.27c0-1.07-1.07-3.2-2.13-5.33h-4.27v-6.4
						c-1.07,0-1.07-1.07-2.13-1.07c-1.07,0-1.07-1.07-2.13-1.07v6.4l-4.27-6.4c-1.07,0-1.07,1.07-2.13,3.2L131.01,236.2z"/>
					<path class="st17" d="M128.88,235.14c0,3.2,2.13,8.53,5.33,9.6c3.2,2.13,5.33,0,5.33-3.2c0-3.2-2.13-8.53-5.33-9.6
						C132.08,229.8,128.88,230.87,128.88,235.14z"/>
					<path class="st10" d="M129.95,235.14c0,3.2,2.13,7.46,5.33,8.53c3.2,1.07,5.33,0,5.33-3.2s-2.13-7.46-5.33-8.53
						C132.08,230.87,129.95,231.94,129.95,235.14z"/>
					<path class="st18" d="M133.15,237.27c0,1.07,1.07,3.2,2.13,3.2c1.07,0,2.13,0,2.13-1.07s-1.07-3.2-2.13-3.2
						C134.21,235.14,133.15,236.2,133.15,237.27z"/>
					<path class="st15" d="M133.15,237.27c0,1.07,1.07,2.13,1.07,2.13c1.07,0,1.07,0,1.07-1.07c0-1.07-1.07-2.13-1.07-2.13
						S133.15,236.2,133.15,237.27z"/>
					<path class="st9" d="M138.48,241.54c-1.07-1.07-1.07-1.07-1.07,0c0,0,0,1.07,0,2.13c1.07,1.07,1.07,1.07,1.07,0
						C139.54,243.67,139.54,242.6,138.48,241.54z"/>
					<path class="st19" d="M135.28,243.67c0-1.07-1.07-1.07-1.07-2.13c-1.07,0-1.07,0-1.07,1.07s1.07,1.07,1.07,2.13
						C134.21,245.8,135.28,244.73,135.28,243.67z"/>
					<path class="st19" d="M138.48,241.54c-1.07-1.07-1.07-1.07-1.07,0c0,0,0,1.07,0,2.13c1.07,1.07,1.07,1.07,1.07,0
						C139.54,243.67,138.48,242.6,138.48,241.54z"/>
					<path class="st19" d="M137.41,237.27c-1.07,0-1.07,1.07,0,1.07c0,1.07,1.07,1.07,1.07,1.07c1.07,0,1.07-1.07,0-1.07
						C138.48,237.27,137.41,237.27,137.41,237.27z"/>
					<path class="st19" d="M133.15,234.07c0,1.07,1.07,1.07,1.07,2.13s1.07,0,1.07-1.07s-1.07-1.07-1.07-2.13
						C134.21,233,133.15,233,133.15,234.07z"/>
					<path class="st19" d="M131.01,235.14c1.07,1.07,1.07,1.07,1.07,0c0,0,0-1.07,0-2.13c-1.07-1.07-1.07-1.07-1.07,0
						C129.95,234.07,129.95,235.14,131.01,235.14z"/>
					<path class="st19" d="M132.08,240.47c1.07,0,1.07-1.07,0-1.07c0-1.07-1.07-1.07-1.07-1.07c-1.07,0-1.07,1.07,0,1.07
						C131.01,240.47,131.01,240.47,132.08,240.47z"/>
				</g>
			</g>
			<g>
				<g>
					<path id="XMLID_4795_" class="st4" d="M284.57,310.85l12.8,21.33l2.13,3.2l13.86,20.26c0,0,7.46-4.27,12.8-7.46
						c1.07,0,1.07-1.07,1.07-1.07l0,0c3.2-2.13,5.33-6.4,5.33-11.73c0-1.07,0-3.2,0-4.27c-1.07-5.33-3.2-10.66-6.4-14.93
						c-3.2-5.33-7.46-9.6-12.8-12.8c-4.27-3.2-8.53-3.2-11.73-2.13c-1.07,0-1.07,1.07-2.13,1.07
						C294.17,305.52,284.57,310.85,284.57,310.85z"/>
					<path id="XMLID_2818_" class="st4" d="M295.24,333.24l4.27,2.13l12.8,7.46l20.26-11.73c-1.07-5.33-3.2-10.66-6.4-14.93
						l-28.79,16L295.24,333.24z"/>
					<g id="XMLID_2813_">
						<path id="XMLID_2814_" class="st3" d="M309.1,305.52c-5.33-3.2-10.66-3.2-13.86-1.07c0,0,0,0-1.07,0
							c3.2-1.07,7.46-1.07,12.8,2.13c10.66,6.4,19.19,20.26,19.19,31.99c0,5.33-2.13,9.6-4.27,11.73c0,0,1.07,0,1.07-1.07
							c3.2-2.13,5.33-6.4,5.33-11.73C328.29,325.78,319.76,310.85,309.1,305.52z"/>
					</g>
					<g id="XMLID_2811_">
						<path id="XMLID_2812_" class="st3" d="M305.9,307.65c-5.33-3.2-10.66-3.2-13.86-1.07c0,0,0,0-1.07,0
							c3.2-1.07,7.46-1.07,12.8,1.07c10.66,6.4,19.19,20.26,19.19,33.06c0,5.33-2.13,9.6-4.27,11.73c0,0,1.07,0,1.07-1.07
							c3.2-2.13,5.33-6.4,5.33-11.73C325.09,327.91,316.56,312.98,305.9,307.65z"/>
					</g>
					<g id="XMLID_2808_">
						<path id="XMLID_2809_" class="st3" d="M302.7,308.72c-5.33-3.2-10.66-3.2-13.86-1.07c0,0,0,0-1.07,0
							c3.2-1.07,7.46-1.07,12.8,2.13c10.66,6.4,19.19,20.26,19.19,33.06c0,5.33-2.13,9.6-4.27,11.73c0,0,1.07,0,1.07-1.07
							c3.2-2.13,5.33-6.4,5.33-11.73C321.9,330.04,313.36,315.12,302.7,308.72z"/>
					</g>
				</g>
				<path class="st5" d="M280.31,322.58c0,8.53,4.27,18.13,9.6,24.53c3.2,3.2,5.33,5.33,8.53,7.46c10.66,6.4,19.19,1.07,19.19-10.66
					s-8.53-26.66-19.19-31.99c-1.07,0-2.13-1.07-3.2-1.07C286.71,306.58,280.31,310.85,280.31,322.58z"/>
				<g>
					<path class="st6" d="M281.37,323.65c0,10.66,7.46,24.53,17.06,29.86c9.6,5.33,17.06,1.07,17.06-9.6
						c0-10.66-7.46-24.53-17.06-29.86C288.84,307.65,281.37,311.92,281.37,323.65z"/>
					<path class="st7" d="M283.51,324.71c0,9.6,6.4,21.33,14.93,26.66c8.53,5.33,14.93,1.07,14.93-8.53c0-9.6-6.4-21.33-14.93-26.66
						C289.9,310.85,283.51,314.05,283.51,324.71z"/>
					<path class="st8" d="M284.57,324.71c0,9.6,6.4,20.26,14.93,24.53s14.93,1.07,14.93-8.53s-6.4-20.26-14.93-24.53
						S284.57,315.12,284.57,324.71z"/>
					<path class="st9" d="M284.57,325.78c0,2.13,0,4.27,1.07,6.4c1.07,2.13,1.07,3.2,2.13,5.33c2.13,4.27,5.33,8.53,8.53,10.66
						c1.07,0,1.07,1.07,2.13,1.07s1.07,1.07,2.13,1.07c3.2,1.07,6.4,1.07,8.53-1.07c1.07-1.07,1.07-2.13,2.13-3.2
						c1.07-1.07,1.07-3.2,1.07-5.33c0-2.13,0-4.27-1.07-6.4s-1.07-3.2-2.13-5.33c-2.13-4.27-5.33-8.53-8.53-10.66
						c-1.07,0-1.07-1.07-2.13-1.07c-1.07,0-1.07-1.07-2.13-1.07c-3.2-1.07-6.4-1.07-8.53,1.07c-1.07,1.07-1.07,2.13-2.13,3.2
						C285.64,321.51,284.57,323.65,284.57,325.78z"/>
					<path class="st10" d="M285.64,325.78c0,2.13,0,4.27,1.07,6.4c1.07,2.13,1.07,3.2,2.13,5.33c2.13,4.27,5.33,7.46,8.53,10.66
						c1.07,0,1.07,1.07,2.13,1.07c1.07,0,1.07,1.07,2.13,1.07c3.2,1.07,6.4,1.07,8.53-1.07c1.07-1.07,1.07-1.07,2.13-3.2
						c1.07-1.07,1.07-3.2,1.07-5.33c0-2.13,0-4.27-1.07-6.4c-1.07-2.13-1.07-3.2-2.13-5.33c-2.13-4.27-5.33-7.46-8.53-10.66
						c-1.07,0-1.07-1.07-2.13-1.07c-1.07,0-1.07-1.07-2.13-1.07c-3.2-1.07-6.4-1.07-8.53,1.07c-1.07,1.07-1.07,1.07-2.13,3.2
						C285.64,321.51,285.64,323.65,285.64,325.78z"/>
					<path class="st11" d="M311.23,339.64c0,6.4-3.2,9.6-8.53,8.53c-1.07,0-2.13-1.07-3.2-1.07l0,0c-4.27-3.2-8.53-7.46-10.66-12.8
						c0-1.07,0-1.07-1.07-2.13c0-2.13-1.07-3.2-1.07-5.33c0-7.46,5.33-10.66,11.73-6.4l0,0c1.07,1.07,2.13,1.07,3.2,2.13
						c2.13,2.13,4.27,4.27,5.33,7.46c1.07,1.07,1.07,3.2,2.13,5.33C311.23,335.38,311.23,337.51,311.23,339.64z"/>
					<path class="st12" d="M302.7,321.51v21.33v5.33c-1.07,0-2.13,1.07-2.13,1.07c-1.07,0-1.07-1.07-1.07-2.13c0,0,0,0,0-1.07
						v-26.66l0,0C300.57,319.38,301.63,320.45,302.7,321.51z"/>
					<path class="st12" d="M294.17,327.91c0,4.27,3.2,9.6,7.46,11.73s7.46,0,7.46-4.27s-3.2-9.6-7.46-11.73
						C297.37,321.51,294.17,323.65,294.17,327.91z"/>
					<path class="st12" d="M288.84,318.31l3.2,5.33l4.27,6.4l2.13,2.13l2.13,2.13l2.13,2.13l4.27,6.4l3.2,2.13
						c1.07-1.07,0-1.07,1.07-2.13l-1.07-2.13l-4.27-6.4l-2.13-2.13l-2.13-2.13l-2.13-2.13l-4.27-6.4l-2.13-3.2
						C290.97,318.31,288.84,317.25,288.84,318.31z"/>
					<path class="st12" d="M310.17,334.31L310.17,334.31l-5.33,1.07h-2.13h-2.13h-2.13h-4.27l-5.33-2.13l-2.13-1.07l1.07-1.07h1.07
						h3.2h4.27h2.13h2.13h2.13h4.27h1.07C309.1,331.11,310.17,332.18,310.17,334.31z"/>
					<path class="st13" d="M296.3,318.31v28.79c1.07,0,1.07,1.07,2.13,1.07c1.07,0,1.07,1.07,2.13,1.07v-28.79
						c-1.07,0-1.07,0-2.13-1.07C298.44,318.31,297.37,318.31,296.3,318.31z"/>
					<path class="st14" d="M286.71,321.51l3.2,4.27l4.27,6.4l2.13,2.13l2.13,2.13l2.13,2.13l4.27,6.4l3.2,4.27
						c1.07-1.07,1.07-1.07,2.13-3.2l-3.2-4.27l-4.27-6.4l-2.13-2.13l-2.13-2.13l-2.13-2.13l-4.27-6.4l-3.2-4.27
						C287.77,319.38,287.77,320.45,286.71,321.51z"/>
					<path class="st14" d="M286.71,331.11c0,1.07,1.07,3.2,2.13,5.33h3.2h4.27h2.13h2.13h2.13h4.27h3.2c0-1.07-1.07-3.2-2.13-5.33
						h-3.2h-4.27h-2.13h-2.13h-2.13h-4.27H286.71z"/>
					<path class="st14" d="M292.04,328.98c0,4.27,3.2,9.6,7.46,11.73s7.46,0,7.46-4.27s-3.2-9.6-7.46-11.73
						S292.04,323.65,292.04,328.98z"/>
					<path class="st15" d="M292.04,328.98c0,4.27,3.2,9.6,7.46,11.73s7.46,0,7.46-4.27s-3.2-9.6-7.46-11.73
						S292.04,324.71,292.04,328.98z"/>
					<path class="st16" d="M295.24,331.11h-4.27c0,1.07,1.07,3.2,2.13,5.33h4.27v6.4c1.07,0,1.07,1.07,2.13,1.07
						s1.07,1.07,2.13,1.07v-6.4l4.27,6.4c1.07,0,1.07-1.07,2.13-3.2l-4.27-6.4h4.27c0-1.07-1.07-3.2-2.13-5.33h-4.27v-6.4
						c-1.07,0-1.07-1.07-2.13-1.07s-1.07-1.07-2.13-1.07v6.4l-4.27-6.4c-1.07,0-1.07,1.07-2.13,3.2L295.24,331.11z"/>
					<path class="st17" d="M293.1,330.04c0,3.2,2.13,8.53,5.33,9.6c3.2,2.13,5.33,0,5.33-3.2c0-3.2-2.13-8.53-5.33-9.6
						C295.24,324.71,293.1,325.78,293.1,330.04z"/>
					<path class="st10" d="M293.1,330.04c0,3.2,2.13,7.46,5.33,8.53c3.2,1.07,5.33,0,5.33-3.2c0-3.2-2.13-7.46-5.33-8.53
						C295.24,325.78,293.1,326.85,293.1,330.04z"/>
					<path class="st18" d="M296.3,332.18c0,1.07,1.07,3.2,2.13,3.2c1.07,1.07,2.13,0,2.13-1.07c0-1.07-1.07-3.2-2.13-3.2
						S296.3,331.11,296.3,332.18z"/>
					<path class="st15" d="M297.37,332.18c0,1.07,1.07,2.13,1.07,2.13c1.07,0,1.07,0,1.07-1.07c0-1.07-1.07-2.13-1.07-2.13
						C297.37,331.11,297.37,331.11,297.37,332.18z"/>
					<path class="st9" d="M302.7,336.44c-1.07-1.07-1.07-1.07-1.07,0c0,0,0,1.07,0,2.13c1.07,1.07,1.07,1.07,1.07,0
						C302.7,337.51,302.7,336.44,302.7,336.44z"/>
					<path class="st19" d="M299.5,338.58c0-1.07-1.07-1.07-1.07-2.13c-1.07,0-1.07,0-1.07,1.07c0,1.07,1.07,1.07,1.07,2.13
						C298.44,339.64,299.5,338.58,299.5,338.58z"/>
					<path class="st19" d="M301.63,336.44c-1.07-1.07-1.07-1.07-1.07,0c0,0,0,1.07,0,2.13c1.07,1.07,1.07,1.07,1.07,0
						C302.7,338.58,302.7,337.51,301.63,336.44z"/>
					<path class="st19" d="M300.57,331.11c-1.07,0-1.07,1.07,0,1.07c0,1.07,1.07,1.07,1.07,1.07c1.07,0,1.07-1.07,0-1.07
						C302.7,332.18,301.63,331.11,300.57,331.11z"/>
					<path class="st19" d="M297.37,328.98c0,1.07,1.07,1.07,1.07,2.13c1.07,0,1.07,0,1.07-1.07c0-1.07-1.07-1.07-1.07-2.13
						C298.44,326.85,297.37,327.91,297.37,328.98z"/>
					<path class="st19" d="M294.17,330.04c1.07,1.07,1.07,1.07,1.07,0c0,0,0-1.07,0-2.13c-1.07-1.07-1.07-1.07-1.07,0
						C294.17,328.98,294.17,330.04,294.17,330.04z"/>
					<path class="st19" d="M295.24,335.38c1.07,0,1.07-1.07,0-1.07c0-1.07-1.07-1.07-1.07-1.07c-1.07,0-1.07,1.07,0,1.07
						C294.17,334.31,295.24,335.38,295.24,335.38z"/>
				</g>
			</g>
			<g>
				<g>
					
						<ellipse transform="matrix(0.8633 -0.5047 0.5047 0.8633 -68.4548 132.2836)" class="st20" cx="209.96" cy="192.51" rx="16" ry="26.66"/>
					<path class="st21" d="M192.86,182.88c0,10.66,7.46,23.46,17.06,29.86c9.6,5.33,17.06,1.07,17.06-9.6
						c0-19.19-23.46-33.06-17.06-29.86C200.33,167.95,192.86,172.22,192.86,182.88z"/>
					<path class="st8" d="M193.93,182.88c0,1.07-8.53,12.8,16,27.73c8.53,5.33,16,1.07,16-9.6c0-19.19-23.46-31.99-16-27.73
						C201.39,169.02,193.93,173.29,193.93,182.88z"/>
					<path class="st9" d="M195,183.95c0,2.13,0,4.27,1.07,6.4s-4.27-3.2-4.27-1.07c2.13,4.27,11.73,16,16,18.13
						c1.07,0,1.07,1.07,2.13,1.07s1.07,1.07,2.13,1.07c4.27,1.07,7.46,1.07,9.6-1.07c1.07-1.07,2.13-2.13,2.13-3.2
						c1.07-1.07,1.07-3.2,1.07-5.33c0-2.13-6.4-11.73-7.46-13.86c-1.07-2.13-1.07-4.27-2.13-5.33c-2.13-4.27,0-2.13-3.2-5.33
						c-1.07,0-1.07-1.07-2.13-1.07s-1.07-1.07-2.13-1.07c-4.27-1.07-7.46-1.07-9.6,1.07c-1.07,1.07-2.13,2.13-2.13,3.2
						C195,179.68,195,181.82,195,183.95z"/>
					<path class="st10" d="M195,183.95c0,2.13,0,4.27,1.07,6.4s-4.27-3.2-4.27-1.07c2.13,4.27,11.73,14.93,14.93,18.13
						c1.07,0,1.07,1.07,2.13,1.07c1.07,0,1.07,1.07,2.13,1.07c4.27,1.07,6.4,1.07,9.6-1.07c1.07-1.07,1.07-2.13,2.13-3.2
						c1.07-1.07,1.07-3.2,1.07-5.33c0-2.13-6.4-10.66-7.46-13.86c-1.07-2.13-1.07-4.27-2.13-5.33c-2.13-4.27,1.07-2.13-3.2-4.27
						c-1.07,0-1.07-1.07-2.13-1.07c-1.07,0-1.07-1.07-2.13-1.07c-4.27-1.07-6.4-1.07-9.6,1.07c-1.07,1.07-1.07,2.13-2.13,3.2
						C196.06,179.68,195,181.82,195,183.95z"/>
					<path class="st11" d="M197.13,185.02c0,0-10.66,8.53,12.8,22.39c7.46,4.27,12.8,1.07,12.8-7.46c0-17.06-22.39-27.73-12.8-22.39
						C202.46,173.29,197.13,176.49,197.13,185.02z"/>
					<path class="st14" d="M201.39,169.02v31.99c6.4,7.46,7.46,7.46,8.53,8.53c1.07,0,1.07,1.07-4.27-5.33v-31.99
						c5.33,6.4,4.27,5.33,4.27,5.33C208.86,176.49,208.86,175.42,201.39,169.02z"/>
					<path class="st22" d="M197.13,179.68l3.2,4.27h-1.07l2.13,2.13l2.13,2.13l2.13,2.13l5.33,6.4l9.6,10.66
						c1.07-1.07,1.07-2.13,2.13-3.2l-9.6-10.66l-5.33-6.4l-2.13-2.13l-2.13-2.13l-2.13-2.13h1.07l-3.2-4.27
						C198.2,176.49,197.13,177.55,197.13,179.68z"/>
					<path class="st14" d="M197.13,190.35c1.07,2.13,1.07,3.2,2.13,5.33l-2.13-6.4h5.33h2.13h2.13h2.13h5.33h3.2
						c-1.07-2.13-1.07-3.2-2.13-5.33h-3.2h-5.33h-2.13h-2.13h-2.13l1.07,7.46L197.13,190.35z"/>
					<path class="st14" d="M196.06,180.75c0,5.33,3.2,10.66,7.46,13.86c4.27,2.13,7.46,0,7.46-4.27c0-5.33-3.2-10.66-7.46-13.86
						C199.26,174.35,196.06,175.42,196.06,180.75z"/>
					<path class="st15" d="M202.46,188.22c0,5.33-2.13,4.27,2.13,6.4c4.27,2.13,7.46,0,7.46-4.27c0-5.33-3.2-10.66-7.46-13.86
						C199.26,174.35,202.46,182.88,202.46,188.22z"/>
					<path class="st16" d="M199.26,182.88l1.07,7.46c0,2.13-5.33-3.2-4.27-1.07h5.33v7.46c1.07,0,1.07,1.07,2.13,1.07
						c1.07,0,1.07,1.07,2.13,1.07v-7.46l5.33,6.4c1.07-1.07,1.07-1.07,2.13-3.2l-5.33-6.4h5.33c0-2.13-1.07-3.2-2.13-5.33h-5.33
						v-7.46c-1.07,0,4.27,5.33,4.27,5.33s-1.07-1.07-2.13-1.07h-6.4h1.07C201.39,180.75,201.39,181.82,199.26,182.88L199.26,182.88z
						"/>
					<path class="st17" d="M203.53,188.22c0,4.27-3.2,2.13,0,4.27c3.2,2.13,6.4,0,6.4-3.2s-3.2-8.53-6.4-10.66
						C200.33,176.49,203.53,185.02,203.53,188.22z"/>
					<path class="st10" d="M198.2,182.88c0,3.2,2.13,8.53,5.33,9.6c3.2,2.13,5.33,0,5.33-3.2s-2.13-8.53-5.33-9.6
						C200.33,177.55,198.2,178.62,198.2,182.88z"/>
					<path class="st18" d="M201.39,185.02c0,1.07,1.07,3.2,2.13,4.27c1.07,1.07,2.13,0,2.13-1.07s-1.07-3.2-2.13-4.27
						C202.46,182.88,201.39,182.88,201.39,185.02z"/>
					<path class="st15" d="M202.46,185.02c0,1.07,1.07,2.13,1.07,3.2c1.07,0,1.07,0,1.07-1.07s-1.07-2.13-1.07-3.2
						C203.53,182.88,202.46,183.95,202.46,185.02z"/>
					<path class="st9" d="M207.79,189.28c-1.07-1.07-1.07-1.07-2.13,0c0,0,0,1.07,0,2.13s1.07,1.07,2.13,0
						C208.86,191.42,208.86,190.35,207.79,189.28z"/>
					<path class="st19" d="M205.66,191.42c0-1.07-1.07-2.13-1.07-2.13c-1.07,0-1.07,0-1.07,1.07c0,1.07,1.07,2.13,1.07,2.13
						S205.66,192.48,205.66,191.42z"/>
					<path class="st19" d="M207.79,189.28c-1.07-1.07-1.07-1.07-2.13,0s0,1.07,0,2.13c1.07,1.07,1.07,1.07,2.13,0
						C208.86,191.42,208.86,190.35,207.79,189.28z"/>
					<path class="st19" d="M206.73,183.95c-1.07,0-1.07,1.07,0,2.13c0,1.07,1.07,1.07,2.13,1.07c1.07,0,1.07-1.07,0-2.13
						C207.79,185.02,207.79,183.95,206.73,183.95z"/>
					<path class="st19" d="M202.46,180.75c0,1.07,1.07,2.13,1.07,2.13c1.07,0,1.07,0,1.07-1.07s-1.07-2.13-1.07-2.13
						S202.46,179.68,202.46,180.75z"/>
					<path class="st19" d="M199.26,181.82c1.07,1.07,1.07,1.07,2.13,0s0-1.07,0-2.13c-1.07-1.07-1.07-1.07-2.13,0
						C199.26,180.75,199.26,181.82,199.26,181.82z"/>
					<path class="st19" d="M201.39,187.15c1.07,0,1.07-1.07,0-2.13c0-1.07-1.07-1.07-2.13-1.07s-1.07,1.07,0,2.13
						C199.26,187.15,200.33,188.22,201.39,187.15z"/>
				</g>
				<g>
					<path class="st20" d="M353.89,276.73c0,11.73,8.53,26.66,19.19,33.06c10.66,6.4,19.19,1.07,19.19-10.66
						s-8.53-26.66-19.19-33.06C362.42,259.66,353.89,263.93,353.89,276.73z"/>
					<path class="st21" d="M356.02,277.79c0,10.66,7.46,23.46,17.06,29.86c9.6,5.33,17.06,1.07,17.06-9.6
						c0-10.66-7.46-23.46-17.06-29.86C363.48,261.8,356.02,267.13,356.02,277.79z"/>
					<path class="st8" d="M357.09,277.79c0,10.66,7.46,22.39,16,27.73c8.53,5.33,16,1.07,16-9.6c0-10.66-7.46-22.39-16-27.73
						C363.48,263.93,357.09,268.19,357.09,277.79z"/>
					<path class="st9" d="M358.15,278.86c0,2.13,0,4.27,1.07,6.4c1.07,2.13,1.07,4.27,2.13,5.33c2.13,4.27,5.33,8.53,9.6,11.73
						c1.07,0,1.07,1.07,2.13,1.07s1.07,1.07,2.13,1.07c4.27,1.07,7.46,1.07,9.6-1.07c1.07-1.07,2.13-2.13,2.13-3.2
						c1.07-1.07,1.07-3.2,1.07-5.33c0-2.13,0-4.27-1.07-6.4c-1.07-2.13-1.07-4.27-2.13-5.33c-2.13-4.27-5.33-8.53-9.6-11.73
						c-1.07,0-1.07-1.07-2.13-1.07s-1.07-1.07-2.13-1.07c-4.27-1.07-7.46-1.07-9.6,1.07c-1.07,1.07-2.13,2.13-2.13,3.2
						C358.15,274.59,358.15,276.73,358.15,278.86z"/>
					<path class="st10" d="M358.15,278.86c0,2.13,0,4.27,1.07,6.4c1.07,2.13,1.07,4.27,2.13,5.33c2.13,4.27,5.33,8.53,9.6,11.73
						c1.07,0,1.07,1.07,2.13,1.07c1.07,0,1.07,1.07,2.13,1.07c4.27,1.07,6.4,1.07,9.6-1.07c1.07-1.07,1.07-2.13,2.13-3.2
						c1.07-1.07,1.07-3.2,1.07-5.33c0-2.13,0-4.27-1.07-6.4c-1.07-2.13-1.07-4.27-2.13-5.33c-2.13-4.27-5.33-8.53-9.6-11.73
						c-1.07,0-1.07-1.07-2.13-1.07c-1.07,0-1.07-1.07-2.13-1.07c-4.27-1.07-6.4-1.07-9.6,1.07c-1.07,1.07-1.07,2.13-2.13,3.2
						C358.15,274.59,358.15,276.73,358.15,278.86z"/>
					<path class="st11" d="M360.29,279.93c0,8.53,5.33,18.13,12.8,22.39s12.8,1.07,12.8-7.46c0-8.53-5.33-18.13-12.8-22.39
						S360.29,271.39,360.29,279.93z"/>
					<path class="st14" d="M370.95,270.33v31.99c1.07,0,1.07,1.07,2.13,1.07c1.07,0,1.07,1.07,2.13,1.07v-31.99
						c-1.07,0-1.07-1.07-2.13-1.07S370.95,270.33,370.95,270.33z"/>
					<path class="st22" d="M360.29,273.53l3.2,4.27l5.33,6.4l2.13,2.13l2.13,2.13l2.13,2.13l5.33,6.4l3.2,4.27
						c1.07-1.07,1.07-2.13,2.13-3.2l-3.2-4.27l-5.33-6.4l-2.13-2.13l-2.13-2.13l-2.13-2.13l-5.33-6.4l-3.2-4.27
						C361.35,271.39,360.29,272.46,360.29,273.53z"/>
					<path class="st14" d="M360.29,285.26c1.07,2.13,1.07,3.2,2.13,5.33h3.2h5.33h2.13h2.13h2.13h5.33h3.2
						c-1.07-2.13-1.07-3.2-2.13-5.33h-3.2h-5.33h-2.13h-2.13h-2.13h-5.33H360.29z"/>
					<path class="st14" d="M365.62,282.06c0,5.33,3.2,10.66,7.46,13.86c4.27,2.13,7.46,0,7.46-4.27c0-5.33-3.2-10.66-7.46-13.86
						C368.82,275.66,365.62,277.79,365.62,282.06z"/>
					<path class="st15" d="M365.62,283.12c0,5.33,3.2,10.66,7.46,13.86c4.27,2.13,7.46,0,7.46-4.27s-3.2-10.66-7.46-13.86
						C368.82,275.66,365.62,277.79,365.62,283.12z"/>
					<path class="st16" d="M368.82,285.26h-5.33c0,2.13,1.07,3.2,2.13,5.33h5.33v7.46c1.07,0,1.07,1.07,2.13,1.07
						c1.07,0,1.07,1.07,2.13,1.07v-7.46l5.33,6.4c1.07-1.07,1.07-1.07,2.13-3.2l-5.33-6.4h5.33c0-2.13-1.07-3.2-2.13-5.33h-5.33
						v-6.4c-1.07,0-1.07-1.07-2.13-1.07c-1.07,0-1.07-1.07-2.13-1.07v7.46l-5.33-6.4c-1.07,1.07-1.07,1.07-2.13,3.2L368.82,285.26z"
						/>
					<path class="st17" d="M366.68,283.12c0,4.27,3.2,8.53,6.4,10.66c3.2,2.13,6.4,0,6.4-3.2c0-3.2-3.2-8.53-6.4-10.66
						C368.82,277.79,366.68,279.93,366.68,283.12z"/>
					<path class="st10" d="M366.68,284.19c0,3.2,2.13,8.53,5.33,9.6c3.2,1.07,5.33,0,5.33-3.2c0-3.2-2.13-8.53-5.33-9.6
						C369.88,278.86,366.68,279.93,366.68,284.19z"/>
					<path class="st18" d="M370.95,286.32c0,1.07,1.07,3.2,2.13,4.27c1.07,1.07,2.13,0,2.13-1.07c0-1.07-1.07-3.2-2.13-4.27
						C372.02,284.19,370.95,284.19,370.95,286.32z"/>
					<path class="st15" d="M370.95,286.32c0,1.07,1.07,2.13,1.07,3.2c1.07,0,1.07,0,1.07-1.07c0-1.07-1.07-2.13-1.07-3.2
						C372.02,284.19,370.95,285.26,370.95,286.32z"/>
					<path class="st9" d="M377.35,290.59c-1.07-1.07-1.07-1.07-2.13,0c0,0,0,1.07,0,2.13c1.07,1.07,1.07,1.07,2.13,0
						C377.35,292.72,377.35,291.66,377.35,290.59z"/>
					<path class="st19" d="M374.15,292.72c0-1.07-1.07-2.13-1.07-2.13c-1.07,0-1.07,0-1.07,1.07c0,1.07,1.07,2.13,1.07,2.13
						S374.15,293.79,374.15,292.72z"/>
					<path class="st19" d="M377.35,290.59c-1.07-1.07-1.07-1.07-2.13,0c0,0,0,1.07,0,2.13c1.07,1.07,1.07,1.07,2.13,0
						C377.35,292.72,377.35,291.66,377.35,290.59z"/>
					<path class="st19" d="M376.28,285.26c-1.07,0-1.07,1.07,0,2.13c0,1.07,1.07,1.07,2.13,1.07s1.07-1.07,0-2.13
						C377.35,286.32,376.28,285.26,376.28,285.26z"/>
					<path class="st19" d="M372.02,282.06c0,1.07,1.07,2.13,1.07,2.13c1.07,0,1.07,0,1.07-1.07c0-1.07-1.07-2.13-1.07-2.13
						C372.02,280.99,372.02,280.99,372.02,282.06z"/>
					<path class="st19" d="M368.82,284.19c1.07,1.07,1.07,1.07,2.13,0c1.07-1.07,0-1.07,0-2.13c-1.07-1.07-1.07-1.07-2.13,0
						C367.75,282.06,367.75,283.12,368.82,284.19z"/>
					<path class="st19" d="M369.88,289.52c1.07,0,1.07-1.07,0-2.13c0-1.07-1.07-1.07-2.13-1.07s-1.07,1.07,0,2.13
						C368.82,288.46,368.82,289.52,369.88,289.52z"/>
				</g>
				<g>
					<path class="st23" d="M414.67,289.52l-3.2,11.73l0,0l-2.13,5.33l-10.66-1.07l-1.07-1.07l-2.13-1.07c0-2.13-1.07-5.33-1.07-7.46
						l0,0c0-12.8-9.6-28.79-20.26-35.19c-11.73-6.4-20.26-1.07-20.26,11.73c0,1.07,0,1.07,0,2.13c0,2.13,0,4.27-1.07,6.4l0,0
						l-120.5-70.38c0-1.07,0-2.13,0-2.13c0-1.07,0-2.13,0-3.2c0-1.07,0-2.13,0-3.2c0-5.33-7.46-19.19-10.66-24.53
						c-4.27-7.46-3.2-7.46-9.6-10.66c-11.73-6.4-20.26-1.07-20.26,11.73c0,1.07,0,2.13,0,3.2c0,2.13,0,3.2-1.07,5.33h-1.07
						l-3.2-2.13l-21.33-16v-1.07l1.07-2.13l0,0l1.07-6.4l8.53-4.27h1.07l1.07-2.13l3.2-5.33c0,0,0-1.07,3.2-2.13
						c1.07,0,2.13-1.07,4.27-1.07c17.06,0,24.53,4.27,39.46,10.66l0,0l0,0l0,0c1.07,0,2.13,1.07,3.2,1.07l0,0l31.99-2.13h1.07l0,0
						c0,0,0,0,0-1.07c11.73,2.13,41.59,23.46,41.59,23.46c34.12,20.26,77.85,50.12,78.91,51.19l0,0c0,0-3.2,0-3.2,1.07l-5.33-1.07
						c0,0,1.07,1.07,3.2,3.2c5.33,5.33,14.93,17.06,17.06,19.19c2.13,2.13,8.53,6.4,8.53,6.4l6.4,6.4l2.13,22.39L414.67,289.52z"/>
					<path class="st24" d="M163,166.89v1.07l21.33,16l3.2,2.13h1.07c0-1.07,0-3.2,1.07-5.33l-3.2-2.13l-2.13-1.07l-10.66-9.6
						l-9.6-5.33l0,0L163,166.89z"/>
					<path class="st24" d="M397.61,299.12l-3.2-2.13c0,3.2,0,5.33,1.07,7.46l2.13,1.07l1.07,1.07l10.66,1.07l2.13-5.33l0,0
						L397.61,299.12z"/>
					<path class="st24" d="M231.25,206.34c0,2.13,0,4.27,0,4.27l120.5,70.38l1.07,2.13c0-2.13,0-4.27,1.07-6.4l-1.07-1.07
						l-2.13-1.07l-29.86-18.13L231.25,206.34z"/>
					<path class="st25" d="M179,146.63c11.73-3.2,30.93,6.4,49.05,16c10.66,5.33,9.6,5.33,180.22,98.11l-6.4-6.4
						c0,0-6.4-3.2-8.53-6.4c-2.13-2.13-20.26-22.39-20.26-22.39l5.33,1.07c1.07-1.07,3.2-1.07,3.2-1.07s-43.72-30.93-78.91-51.19
						c0,0-29.86-20.26-41.59-23.46c0,1.07,0,1.07,0,1.07l0,0l-33.06,2.13l0,0c-1.07,0-2.13-1.07-3.2-1.07l0,0l0,0l0,0
						c-14.93-6.4-22.39-10.66-39.46-10.66C180.07,144.49,179,146.63,179,146.63z"/>
					<path class="st23" d="M262.18,154.09c34.12,11.73,101.31,59.72,111.97,69.31c10.66,8.53,4.27,4.27,4.27,4.27
						c1.07-1.07,3.2-1.07,3.2-1.07s-43.72-30.93-78.91-51.19c0,0-29.86-20.26-41.59-23.46
						C262.18,154.09,262.18,154.09,262.18,154.09L262.18,154.09z"/>
					<path class="st23" d="M224.85,155.16C225.92,155.16,225.92,155.16,224.85,155.16C225.92,155.16,225.92,155.16,224.85,155.16
						L224.85,155.16z"/>
					<path class="st26" d="M224.85,155.16C225.92,155.16,225.92,155.16,224.85,155.16L224.85,155.16c2.13,1.07,3.2,1.07,3.2,1.07
						l0,0l33.06-2.13l0,0c0,0,0,0,0-1.07C262.18,153.03,247.25,158.36,224.85,155.16z"/>
					<polygon class="st23" points="309.1,182.88 341.09,222.34 330.43,215.94 302.7,178.62 					"/>
					<path class="st27" d="M408.27,262.86c0,0-13.86-4.27-11.73,1.07c2.13,7.46,4.27,8.53,8.53,11.73c3.2,2.13,4.27-1.07,4.27-1.07
						L408.27,262.86z"/>
					<path class="st28" d="M176.87,151.96c2.13,2.13-2.13-1.07,4.27-2.13c-1.07-5.33,3.2-5.33,3.2-5.33h-1.07
						c-2.13,1.07-3.2,2.13-3.2,2.13L176.87,151.96z"/>
					<path class="st29" d="M184.33,183.95l3.2,2.13h1.07c0-1.07,0-3.2,1.07-5.33c0-1.07,0-2.13,0-3.2c0-12.8,9.6-18.13,20.26-11.73
						c-4.27-3.2,20.26,13.86,20.26,35.19c0,1.07,0,2.13,0,3.2c0,2.13,0,4.27,1.07,5.33l3.2,2.13c0-2.13-1.07-4.27-1.07-5.33
						s0-2.13,0-3.2c0-23.46-26.66-42.66-24.53-41.59c-12.8-7.46-24.53-1.07-24.53,13.86c0,1.07,0,2.13,0,3.2
						C185.4,181.82,185.4,182.88,184.33,183.95z"/>
					<path class="st29" d="M347.49,278.86l4.27,2.13l0,0c0-2.13,0-4.27,1.07-6.4c0-1.07,0-1.07,0-2.13c0-12.8,9.6-18.13,20.26-11.73
						c11.73,6.4,20.26,22.39,20.26,35.19l0,0c0,3.2,0,5.33,1.07,7.46l2.13,1.07l1.07,1.07c0-2.13-1.07-5.33-1.07-7.46
						c0-14.93-10.66-34.12-24.53-41.59c-12.8-7.46-24.53-1.07-24.53,13.86c0,1.07,0,1.07,0,2.13
						C348.56,275.66,348.56,277.79,347.49,278.86z"/>
					<path class="st30" d="M373.08,226.61c0,0,18.13,20.26,20.26,22.39c2.13,2.13,8.53,6.4,8.53,6.4l0,0
						c-1.07-1.07-14.93-17.06-24.53-27.73L373.08,226.61z"/>
					<path class="st29" d="M175.8,154.09c0,0,3.2,5.33,5.33,6.4c2.13,1.07,12.8,1.07,12.8,1.07l-4.27,4.27l-1.07,2.13
						c0,0-5.33-3.2-8.53-5.33c-7.46-4.27-5.33-8.53-5.33-8.53L175.8,154.09z"/>
					<path class="st29" d="M391.21,276.73c0,0,9.6,4.27,12.8,6.4c3.2,2.13,6.4,2.13,6.4,2.13l4.27,5.33c0,0-4.27,0-7.46-1.07
						c-3.2-1.07-14.93-6.4-14.93-6.4L391.21,276.73z"/>
					<polygon class="st29" points="345.36,261.8 352.82,259.66 349.62,269.26 235.52,205.28 241.92,204.21 					"/>
					<g>
						<path class="st31" d="M238.72,209.54L238.72,209.54L238.72,209.54c0,0-3.2-10.66-3.2-11.73s-7.46-27.73-7.46-29.86l4.27-9.6
							l0,0l7.46-5.33l0,0l0,0c0,0,22.39,7.46,35.19,11.73c12.8,4.27,29.86,14.93,29.86,14.93l0,0l29.86,38.39l-1.07,4.27
							c0,0-14.93,16-13.86,24.53c0,6.4,0,9.6,0,9.6l0,0L238.72,209.54z M304.83,180.75c-1.07-1.07-17.06-10.66-29.86-14.93
							s-34.12-11.73-35.19-11.73l-7.46,5.33l-4.27,8.53c0,7.46,7.46,28.79,7.46,29.86c0,0,2.13,10.66,3.2,10.66l79.98,46.92
							c0-1.07,0-4.27,0-9.6c-1.07-8.53,13.86-23.46,13.86-24.53l1.07-4.27L304.83,180.75z"/>
					</g>
				</g>
			</g>
			<path class="st32" d="M332.56,352.44c0,0,10.66-1.07,43.72-21.33c24.53-13.86,33.06-23.46,33.06-23.46l2.13-5.33l0,0
				l-76.78,44.79l0,0L332.56,352.44z"/>
			<path class="st33" d="M334.69,347.11L334.69,347.11c1.07,0,11.73-2.13,43.72-20.26c33.06-19.19,33.06-23.46,33.06-24.53l0,0
				l3.2-11.73l-76.78,44.79L334.69,347.11z"/>
			<path class="st25" d="M414.67,289.52c0,0,0,5.33-36.26,26.66c-33.06,20.26-41.59,18.13-41.59,18.13l-4.27-5.33l76.78-44.79v-3.2
				L414.67,289.52z"/>
			<path class="st33" d="M333.63,330.04c0,0,9.6,2.13,44.79-20.26c27.73-17.06,31.99-25.59,31.99-25.59l-1.07-22.39l-77.85,43.72
				L333.63,330.04z"/>
			<path class="st25" d="M331.49,306.58c0,0,14.93,4.27,52.25-20.26c31.99-20.26,25.59-25.59,25.59-25.59l-1.07-3.2l-4.27-4.27
				l-73.58,42.66L331.49,306.58z"/>
			<g>
				<g>
					<path class="st27" d="M389.08,276.73c-9.6,7.46-19.19,12.8-29.86,18.13c1.07,0,2.13,1.07,3.2,1.07
						c9.6-4.27,17.06-9.6,25.59-14.93C388.01,278.86,388.01,277.79,389.08,276.73z"/>
				</g>
			</g>
			<path class="st26" d="M378.41,280.99c-30.93,19.19-50.12,17.06-50.12,17.06l0,0l0,0c0,0-16-10.66-19.19-17.06
				c-1.07-1.07,7.46,1.07,7.46,0c-2.13-13.86,1.07-18.13,1.07-18.13l62.92-35.19l19.19,24.53l2.13,3.2
				C402.94,255.4,402.94,266.06,378.41,280.99z"/>
			<path class="st34" d="M378.41,280.99c-30.93,19.19-50.12,17.06-50.12,17.06l0,0l0,0c0,0-16-8.53-18.13-10.66
				c-1.07-1.07-1.07-3.2-2.13-5.33l0,0c1.07,0,1.07,0,1.07,0l16,6.4h2.13c0,0,24.53-7.46,36.26-13.86
				c18.13-9.6,27.73-19.19,27.73-19.19l3.2-1.07l4.27-1.07l2.13,3.2C402.94,255.4,402.94,266.06,378.41,280.99z"/>
			<path class="st35" d="M329.36,298.05L329.36,298.05c0,0-16-8.53-18.13-10.66c-1.07-1.07-1.07-3.2-2.13-5.33l0,0
				c-2.13-8.53,4.27-18.13,4.27-18.13h5.33c3.2,6.4,6.4,18.13,8.53,24.53C328.29,293.79,328.29,298.05,329.36,298.05L329.36,298.05z
				"/>
			<path class="st36" d="M381.61,228.74c0,0,1.07,4.27,0,5.33c-1.07,1.07-10.66,14.93-38.39,25.59c-17.06,6.4-24.53,5.33-24.53,5.33
				l-4.27-3.2l2.13-1.07L381.61,228.74z"/>
			<path class="st21" d="M400.81,252.2l-19.19-24.53l-5.33,3.2l-46.92,27.73l-10.66,4.27h-5.33c0,0-6.4,9.6-4.27,18.13
				c1.07,3.2,2.13,5.33,2.13,6.4c2.13,2.13,17.06,10.66,17.06,10.66c1.07,1.07,3.2,1.07,5.33,1.07c2.13,0,4.27,0,6.4-1.07
				c8.53-2.13,20.26-6.4,37.32-17.06c9.6-6.4,14.93-11.73,19.19-14.93c5.33-6.4,5.33-10.66,5.33-10.66L400.81,252.2z M395.48,262.86
				c-2.13,4.27-7.46,9.6-13.86,12.8c-20.26,12.8-34.12,14.93-41.59,16c-1.07,0-2.13,0-2.13,0h-3.2
				c-10.66-3.2-14.93-23.46-10.66-25.59c2.13-1.07,4.27-1.07,7.46-2.13c29.86-9.6,43.72-21.33,49.05-27.73l1.07-1.07
				c1.07-1.07,2.13-1.07,3.2,0l8.53,10.66c3.2,4.27,4.27,9.6,2.13,14.93C395.48,261.8,395.48,262.86,395.48,262.86z"/>
			<path class="st37" d="M111.82,187.15l39.46,10.66l0,0h1.07l0,0l73.58-42.66c0,0-29.86-10.66-43.72-9.6
				c0,0-22.39,4.27-40.52,14.93c-7.46,4.27-12.8,8.53-18.13,13.86c-1.07,0-1.07,1.07-2.13,2.13
				C117.15,180.75,113.95,185.02,111.82,187.15C112.88,187.15,111.82,187.15,111.82,187.15z"/>
			<path class="st8" d="M219.52,155.16c0,0-14.93-3.2-38.39,9.6c-23.46,12.8-30.93,28.79-28.79,31.99
				C172.6,186.08,219.52,155.16,219.52,155.16z"/>
			<path class="st26" d="M262.18,153.03l-60.78,36.26l-16,7.46l-33.06,1.07c0,0,10.66-16,30.93-28.79
				c9.6-5.33,19.19-9.6,27.73-10.66c8.53-2.13,14.93-2.13,14.93-2.13l0,0L262.18,153.03z"/>
			<path class="st38" d="M262.18,153.03c0,0-26.66,2.13-36.26,1.07c-4.27,0-6.4,1.07-6.4,1.07l41.59-2.13H262.18z"/>
			<path class="st2" d="M364.55,245.8c-18.13,10.66-40.52,16-40.52,16l-92.78-52.25l-29.86-20.26l0,0l8.53-9.6
				c5.33-5.33,10.66-9.6,17.06-13.86c3.2-2.13,6.4-4.27,9.6-5.33c3.2-2.13,7.46-3.2,10.66-4.27l10.66-2.13h3.2
				c11.73,2.13,41.59,23.46,41.59,23.46c19.19,10.66,65.05,37.32,75.71,45.85l0,0l0,0c8.53,6.4,2.13,4.27,2.13,4.27
				C382.68,227.67,383.75,234.07,364.55,245.8z"/>
			<path class="st39" d="M364.55,245.8c-18.13,10.66-40.52,16-40.52,16l-92.78-52.25l-29.86-20.26c1.07,0,62.92,31.99,98.11,54.39
				c35.19,23.46,24.53,16,24.53,16s19.19-4.27,33.06-11.73c13.86-7.46,23.46-16,22.39-20.26c-9.6-8.53,0-4.27,0-4.27
				c8.53,6.4,2.13,4.27,2.13,4.27C382.68,227.67,383.75,234.07,364.55,245.8z"/>
			<g>
				<path class="st40" d="M104.35,205.28v6.4l0,0l-1.07,2.13v1.07l8.53,10.66l3.2,2.13h1.07c0-1.07,0-3.2,0-5.33
					c0-1.07,0-2.13,0-3.2c0-12.8,9.6-18.13,20.26-11.73c11.73,6.4,20.26,22.39,20.26,35.19c0,1.07,1.07,2.13,1.07,3.2
					c0,2.13,0,4.27,1.07,5.33l120.5,70.38l0,0c0-2.13,0-4.27,0-6.4c0-1.07,0-1.07,0-2.13c0-12.8,9.6-18.13,20.26-11.73
					c11.73,6.4,20.26,22.39,20.26,35.19l0,0c0,3.2,1.07,5.33,1.07,7.46l2.13,1.07l1.07,1.07l8.53,3.2l2.13-5.33l0,0l3.2-11.73
					l-4.27-5.33l-2.13-22.39l-3.2-8.53c0,0-14.93-8.53-18.13-10.66c-2.13-2.13,2.13-24.53,2.13-24.53h5.33
					c1.07-1.07,6.4-1.07,6.4-1.07s-45.85-30.93-81.05-50.12c0,0-29.86-20.26-41.59-23.46c0,1.07,0,1.07,0,1.07l0,0l-46.92,9.6l0,0
					c-1.07,0-2.13-1.07-3.2-1.07l0,0l0,0l0,0c-14.93-6.4-19.19-10.66-36.26-10.66c-1.07,0-2.13,0-3.2,1.07
					c-2.13,1.07-3.2,2.13-3.2,2.13l-3.2,5.33l-1.07,2.13h-1.07L104.35,205.28L104.35,205.28z"/>
				
					<linearGradient id="SVGID_1_" gradientUnits="userSpaceOnUse" x1="-912.8343" y1="399.885" x2="-898.1182" y2="368.1687" gradientTransform="matrix(1 0 0 1 1147.7386 -110)">
					<stop  offset="0" style="stop-color:#B5C7C7"/>
					<stop  offset="1" style="stop-color:#6E6E6E"/>
				</linearGradient>
				<path class="st41" d="M410.41,278.86c0,0-6.4,5.33-11.73,9.6c-5.33,4.27-10.66,9.6-41.59,25.59
					c-20.26,7.46-22.39,10.66-33.06,5.33c-3.2-2.13-6.4-7.46-6.4-7.46s-5.33-7.46-12.8-11.73c-7.46-4.27-17.06-4.27-17.06-4.27
					s-12.8,0-18.13-2.13c-5.33-2.13-102.37-54.39-104.51-57.58c-2.13-2.13-10.66-18.13-12.8-21.33c-2.13-3.2-7.46-8.53-14.93-11.73
					c-7.46-3.2-27.73-6.4-27.73-6.4l1.07-6.4c0,0,0-5.33,24.53,7.46c24.53,12.8,109.84,60.78,109.84,60.78s70.38,42.66,83.18,46.92
					c12.8,5.33,38.39-8.53,38.39-8.53s16-9.6,19.19-11.73c3.2-2.13,4.27,3.2,4.27,3.2s10.66-9.6,12.8-11.73c2.13-1.07,5.33,0,5.33,0
					v2.13H410.41z"/>
				<path class="st25" d="M320.83,325.78c1.07,0,2.13,0,2.13,0c-4.27-10.66-9.6-20.26-19.19-25.59c-9.6-5.33-20.26-5.33-24.53,2.13
					c1.07,0,1.07-1.07,2.13-1.07c2.13-1.07,4.27-1.07,5.33,0c4.27-2.13,8.53-2.13,14.93,1.07
					C309.1,307.65,315.5,316.18,320.83,325.78C319.76,325.78,319.76,325.78,320.83,325.78z"/>
				<path class="st29" d="M159.81,247.93V249c0,2.13-1.07,1.07-1.07,3.2h1.07C159.81,251.13,159.81,250.07,159.81,247.93z"/>
				<path class="st25" d="M140.61,206.34c-9.6-5.33-20.26-5.33-23.46,1.07c1.07,0,2.13-1.07,4.27-1.07c1.07,0,2.13,0,3.2,0
					c4.27-2.13,8.53-2.13,14.93,1.07c11.73,6.4,20.26,22.39,20.26,35.19c0,1.07,1.07,2.13,1.07,3.2v1.07c0-1.07,0-2.13,0-3.2
					C159.81,229.8,153.41,213.81,140.61,206.34z"/>
				<path class="st32" d="M102.22,214.88v1.07l8.53,10.66l3.2,2.13h1.07c0-1.07,0-3.2,0-5.33l-3.2-2.13l-2.13-1.07l-6.4-9.6h-1.07
					l0,0V214.88z"/>
				<path class="st32" d="M322.96,341.78l-3.2-2.13c0,3.2,1.07,5.33,1.07,7.46l2.13,1.07l1.07,1.07l8.53,3.2l2.13-5.33l0,0
					L322.96,341.78z"/>
				<path class="st32" d="M157.67,249c0,2.13,0,4.27,1.07,5.33l89.58,52.25l26.66,16l0,0l4.27,2.13l0,0c0-2.13,0-4.27,0-6.4
					l-1.07-1.07l-2.13-1.07l-27.73-16l-19.19-10.66L157.67,249z"/>
				<path class="st25" d="M109.69,189.28c1.07,0,2.13,0,3.2,0c11.73-1.07,25.59,8.53,41.59,17.06
					c17.06,9.6,177.02,100.24,177.02,100.24l-3.2-8.53c0,0-14.93-8.53-18.13-10.66c-2.13-2.13,2.13-24.53,2.13-24.53h5.33
					c1.07-1.07,6.4-1.07,6.4-1.07s-45.85-29.86-81.05-50.12c0,0-29.86-20.26-41.59-23.46c0,1.07,0,1.07,0,1.07l0,0l-46.92,9.6l0,0
					c-1.07,0-2.13-1.07-3.2-1.07l0,0l0,0h-1.07l0,0c-14.93-6.4-22.39-10.66-38.39-10.66v1.07
					C109.69,188.22,109.69,189.28,109.69,189.28z"/>
				<path class="st40" d="M201.39,189.28c34.12,11.73,119.43,72.51,119.43,72.51c2.13,0,3.2,0,3.2,0s-45.85-30.93-81.05-50.12
					C242.98,211.68,214.19,190.35,201.39,189.28L201.39,189.28L201.39,189.28z"/>
				<path class="st23" d="M152.34,197.81C152.34,197.81,151.27,197.81,152.34,197.81C151.27,197.81,152.34,197.81,152.34,197.81
					L152.34,197.81z"/>
				<path class="st8" d="M297.37,280.99c-1.07,0-1.07,0-2.13,0l0,0l0,0c-7.46-4.27-51.19-28.79-63.98-35.19
					c-12.8-6.4-62.92-33.06-62.92-33.06h-1.07v-1.07c0-1.07,0-2.13,1.07-3.2c0,0,6.4-4.27,11.73-6.4c5.33-2.13,14.93-6.4,21.33-7.46
					c3.2,0,6.4,0,8.53,1.07c12.8,4.27,69.31,37.32,85.31,54.39l0,0l0,0c0,0,7.46,10.66,7.46,27.73
					C301.63,277.79,301.63,280.99,297.37,280.99z"/>
				<path class="st35" d="M293.1,250.07c0,0,7.46,9.6,7.46,26.66c0,2.13-1.07,4.27-5.33,3.2c-7.46-4.27-51.19-27.73-63.98-35.19
					c-12.8-7.46-62.92-34.12-62.92-34.12s0-2.13,1.07-2.13s27.73-17.06,39.46-12.8S277.11,230.87,293.1,250.07z"/>
				<path class="st25" d="M201.39,188.22l-42.66,10.66l-7.46-1.07c0,0-1.07,0,1.07,1.07c2.13,1.07,7.46,1.07,7.46,1.07
					L201.39,188.22L201.39,188.22z"/>
				<polygon class="st8" points="249.38,218.07 238.72,247.93 228.05,242.6 241.92,213.81 				"/>
				<path class="st28" d="M108.62,195.68L108.62,195.68l1.07-1.07c0,0,1.07,0,1.07-1.07c0-1.07,0-1.07,1.07-2.13
					c0-1.07,1.07-1.07,1.07-2.13l0,0c0,0,0-1.07-1.07-2.13c-2.13,1.07-3.2,2.13-3.2,2.13c0,1.07-1.07,1.07-1.07,2.13
					c-1.07,1.07-1.07,2.13-1.07,3.2c0,0,0,1.07-1.07,1.07l0,0l0,0c0,0,0,0,0,1.07c0,0,0,1.07,1.07,1.07l0,0l0,0
					C107.55,196.75,108.62,196.75,108.62,195.68z"/>
				<path class="st40" d="M111.82,226.61l3.2,2.13h1.07c0-1.07,0-3.2,0-4.27s0-2.13,0-4.27c0-12.8,9.6-18.13,20.26-11.73
					c11.73,6.4,20.26,22.39,20.26,35.19c0,1.07,1.07,2.13,1.07,3.2c0,2.13,0,4.27,1.07,5.33l3.2,2.13c0-2.13-1.07-4.27-1.07-5.33
					c0-1.07-1.07-2.13-1.07-3.2c0-14.93-10.66-34.12-24.53-41.59c-12.8-7.46-24.53-1.07-24.53,13.86c0,1.07,0,2.13,0,3.2
					C111.82,224.47,111.82,225.54,111.82,226.61z"/>
				<path class="st25" d="M105.42,196.75c0,0,3.2,5.33,5.33,6.4c2.13,1.07,8.53,1.07,8.53,1.07l-4.27,4.27l-1.07,2.13
					c0,0-1.07-3.2-4.27-5.33c-7.46-4.27-5.33-8.53-5.33-8.53L105.42,196.75z"/>
				<path class="st25" d="M316.56,319.38c0,0,6.4,6.4,9.6,8.53c3.2,2.13,6.4,2.13,6.4,2.13l4.27,5.33c0,0-4.27,0-7.46-1.07
					c-3.2-1.07-11.73-8.53-11.73-8.53L316.56,319.38z"/>
				<polygon class="st25" points="271.78,304.45 278.17,302.32 276.04,311.92 161.94,247.93 168.34,246.87 				"/>
				<g>
					<path class="st42" d="M165.14,252.2L165.14,252.2L165.14,252.2c0,0-3.2-10.66-3.2-11.73s-1.07-20.26-1.07-23.46l1.07-7.46
						l1.07-4.27l0,0l0,0c0,0,33.06-16,45.85-11.73c12.8,4.27,35.19,21.33,36.26,21.33l0,0l-12.8,29.86l-1.07,4.27
						c0,0-3.2,22.39-2.13,29.86c0,6.4,0,9.6,0,9.6l0,0L165.14,252.2z M208.86,193.55c-12.8-4.27-43.72,11.73-45.85,11.73l-1.07,4.27
						l-1.07,7.46c0,7.46,1.07,22.39,1.07,22.39s2.13,9.6,3.2,10.66l62.92,36.26c0-1.07,0-4.27,0-9.6
						c-1.07-8.53,2.13-29.86,2.13-29.86l1.07-4.27l12.8-28.79C242.98,213.81,221.66,197.81,208.86,193.55z"/>
				</g>
				<path class="st40" d="M273.91,321.51L273.91,321.51l4.27,2.13l0,0c0-2.13,0-4.27,0-6.4c0-1.07,0-1.07,0-2.13
					c0-11.73,7.46-17.06,17.06-13.86c1.07,0,2.13,1.07,3.2,2.13c11.73,6.4,20.26,22.39,20.26,35.19l0,0c0,3.2,1.07,5.33,1.07,7.46
					l2.13,1.07l1.07,1.07c0-2.13-1.07-5.33-1.07-7.46c0-14.93-10.66-34.12-24.53-41.59c-1.07-1.07-3.2-1.07-4.27-2.13
					c-11.73-4.27-20.26,2.13-20.26,16c0,1.07,0,1.07,0,2.13C274.97,318.31,274.97,320.45,273.91,321.51z"/>
			</g>
			<path class="st43" d="M112.88,195.68C112.88,195.68,112.88,194.61,112.88,195.68c-1.07-1.07-1.07-2.13-1.07-3.2
				c0-1.07,0-2.13,0-3.2l0,0c0,0,0,0-1.07,0c-2.13,2.13-4.27,5.33-5.33,9.6c1.07,0,2.13,0,3.2,0
				C111.82,196.75,111.82,196.75,112.88,195.68C113.95,195.68,113.95,195.68,112.88,195.68z"/>
			<path class="st28" d="M196.06,144.49h-8.53c0,0-5.33,1.07-6.4,1.07c-1.07,0-10.66,2.13-10.66,2.13s9.6-3.2,16-4.27
				C188.6,143.43,196.06,144.49,196.06,144.49z"/>
			<path class="st40" d="M347.49,326.85c0,0,4.27-5.33,6.4-6.4c2.13-2.13,18.13-9.6,27.73-16c9.6-5.33,17.06-13.86,18.13-13.86
				s4.27,2.13,4.27,2.13S383.75,310.85,347.49,326.85z"/>
			<path class="st34" d="M225.92,160.49c0,3.2-18.13,8.53-28.79,16c-12.8,9.6-24.53,19.19-26.66,20.26l-11.73,3.2l-7.46-2.13
				c0,0,10.66-16,30.93-28.79c9.6-5.33,19.19-9.6,27.73-10.66c3.2,0,8.53-1.07,11.73,0C221.66,157.29,225.92,158.36,225.92,160.49z"
				/>
			<path class="st44" d="M209.93,178.62c0,0-46.92,11.73-51.19,11.73c17.06-17.06,26.66-26.66,42.66-29.86
				c12.8-2.13,42.66-4.27,42.66-4.27S222.72,163.69,209.93,178.62z"/>
			<path class="st25" d="M152.34,197.81C152.34,197.81,151.27,197.81,152.34,197.81L152.34,197.81c-1.07,1.07,1.07,2.13,1.07,2.13
				l4.27,1.07l43.72-11.73l0,0c0,0,0,0,0-1.07C201.39,188.22,173.67,194.61,152.34,197.81z"/>
			<path class="st25" d="M122.48,175.42l40.52,3.2l1.07-1.07l-39.46-4.27C123.55,174.35,123.55,174.35,122.48,175.42z"/>
			<polygon class="st25" points="186.47,162.62 166.2,149.83 166.2,148.76 187.53,161.56 			"/>
			<g>
				<path id="XMLID_2807_" class="st32" d="M158.74,204.21L158.74,204.21L158.74,204.21c1.07-1.07,2.13-1.07,3.2-1.07H163
					c0,0,0,1.07,1.07,1.07c0,1.07,0,1.07,1.07,2.13s1.07,1.07,2.13,1.07h1.07v1.07v1.07c0,0,0,0-1.07,0
					c-1.07-1.07-2.13-1.07-3.2-2.13c-1.07,0-1.07-1.07-1.07-1.07c0-1.07-1.07-1.07-1.07-2.13
					C158.74,206.34,158.74,205.28,158.74,204.21C158.74,205.28,158.74,204.21,158.74,204.21z"/>
				<path id="XMLID_1860_" class="st2" d="M159.81,196.75c2.13-1.07,6.4,1.07,6.4,2.13c-2.13,3.2-7.46,11.73-8.53,11.73
					c-1.07,1.07-4.27-3.2-3.2-6.4C154.47,203.15,157.67,197.81,159.81,196.75z"/>
				<path id="XMLID_1859_" class="st33" d="M164.07,197.81c3.2-1.07,1.07,6.4,0,7.46c-3.2,3.2-5.33,5.33-6.4,5.33
					c-2.13,1.07-3.2,1.07-2.13-3.2C156.61,206.34,161.94,198.88,164.07,197.81z"/>
			</g>
			<g>
				<path class="st45" d="M397.61,263.93c-3.2,4.27-9.6,9.6-19.19,14.93c-17.06,10.66-28.79,16-37.32,17.06
					c0-1.07-4.27-21.33-9.6-33.06c7.46-3.2,21.33-8.53,34.12-16c9.6-5.33,13.86-9.6,16-11.73c7.46,8.53,11.73,17.06,13.86,24.53
					C396.54,261.8,396.54,262.86,397.61,263.93z"/>
				<g>
					<polygon class="st46" points="226.99,253.27 219.52,249 219.52,245.8 226.99,250.07 					"/>
					<polygon class="st47" points="225.92,252.2 219.52,247.93 219.52,245.8 225.92,250.07 					"/>
				</g>
				<path class="st48" d="M402.94,255.4c0,0,0,0-1.07-1.07L402.94,255.4L402.94,255.4L402.94,255.4z"/>
				<path class="st4" d="M351.75,344.97l4.27-6.4c0,0,8.53-4.27,21.33-11.73s22.39-14.93,22.39-14.93v3.2
					C400.81,315.12,390.14,326.85,351.75,344.97z"/>
				<g>
					<path class="st49" d="M365.62,304.45v5.33c0,1.07,1.07,2.13,2.13,1.07l19.19-10.66c2.13-1.07,3.2-3.2,3.2-5.33v-5.33
						c0-1.07-1.07-2.13-2.13-1.07l-19.19,10.66C366.68,300.19,365.62,302.32,365.62,304.45z"/>
					<path class="st50" d="M367.75,310.85c-1.07,0-1.07-1.07-1.07-1.07v-5.33c0-2.13,1.07-3.2,3.2-4.27l18.13-10.66c0,0,0,0,1.07,0
						s1.07,1.07,1.07,1.07v5.33c0,2.13-1.07,4.27-3.2,4.27L367.75,310.85L367.75,310.85z"/>
				</g>
			</g>
			<path class="st51" d="M329.36,325.78c1.07,1.07,2.13,1.07,4.27,1.07c1.07,0,2.13,0,3.2-1.07c4.27-1.07,7.46-5.33,7.46-7.46
				s-2.13-21.33-7.46-20.26c-1.07,0-3.2,0-4.27,0c-2.13,0-4.27-1.07-4.27-1.07s-2.13,4.27-3.2,7.46
				C326.16,308.72,328.29,324.71,329.36,325.78z"/>
			<path class="st27" d="M402.94,255.4c0,0,3.2,2.13,4.27,4.27s2.13,3.2,2.13,5.33s2.13,14.93,1.07,16s-4.27,2.13-6.4,1.07
				c-2.13-1.07-4.27-18.13-4.27-20.26C400.81,259.66,401.87,256.46,402.94,255.4z"/>
			<g>
				<path class="st52" d="M407.21,277.79h2.13c0-2.13-1.07-11.73-1.07-12.8c0,0,0-1.07-1.07-1.07s-2.13,0-3.2,1.07c0,0,0,0-1.07,0
					c0-1.07-1.07-2.13-1.07-4.27h-1.07c1.07,5.33,1.07,5.33,2.13,5.33c1.07,0,1.07,0,2.13-1.07h1.07
					C407.21,267.13,407.21,272.46,407.21,277.79z"/>
			</g>
			<path class="st27" d="M331.49,305.52c0,2.13,1.07,20.26,2.13,21.33c1.07,0,2.13,0,3.2-1.07c4.27-1.07,7.46-5.33,7.46-7.46
				s-2.13-21.33-7.46-20.26c-1.07,0-3.2,0-4.27,0l0,0C332.56,299.12,331.49,303.39,331.49,305.52z"/>
			<g>
				<path class="st53" d="M331.49,324.71c1.07,0,3.2,0,6.4-1.07l0,0l2.13-5.33v-4.27h-2.13v4.27l-2.13,4.27
					c-2.13,1.07-5.33,1.07-5.33,1.07c-1.07-2.13-2.13-14.93-2.13-17.06c0-1.07,1.07-5.33,1.07-7.46h-1.07c0,1.07-1.07,6.4-1.07,7.46
					c0,1.07,1.07,16,2.13,18.13C330.43,324.71,330.43,324.71,331.49,324.71z"/>
			</g>
			<path class="st53" d="M404.01,256.46c0,0,4.27,3.2,4.27,4.27c1.07,1.07,2.13,18.13,2.13,18.13s-1.07,2.13-4.27,2.13
				c-2.13,0-2.13-1.07-2.13-1.07l1.07-1.07c0,0,2.13,0,3.2,0c1.07,0,1.07,0,1.07,0l-2.13-17.06L404.01,256.46L404.01,256.46z"/>
			<path class="st54" d="M340.02,308.72c0,0,1.07,8.53,1.07,9.6c0,1.07-3.2,1.07-3.2,1.07l-1.07-10.66
				C337.89,307.65,338.96,306.58,340.02,308.72z"/>
			<path class="st54" d="M405.07,269.26c0,0,1.07,8.53,1.07,9.6s-2.13,1.07-2.13,1.07l-1.07-10.66
				C402.94,268.19,405.07,267.13,405.07,269.26z"/>
		</g>
		<g>
			<g>
				<g id="XMLID_1853_">
					<polygon id="XMLID_1858_" class="st6" points="255.78,210.61 308.03,180.75 305.9,178.62 253.65,208.48 					"/>
					<polygon id="XMLID_1857_" class="st6" points="284.57,225.54 336.83,195.68 334.69,193.55 282.44,223.41 					"/>
					<path class="st6" d="M282.44,165.82c0,1.07,1.07,1.07,1.07,1.07l1.07,1.07l3.2,2.13l2.13,5.33l2.13,1.07l-2.13-5.33
						l63.98,35.19l1.07,2.13l1.07,3.2v1.07l2.13,1.07l-1.07-2.13l-1.07-3.2v-1.07h1.07l3.2,2.13l0,0c0,0,1.07-1.07,0-2.13
						c0,0-1.07,0-1.07-1.07c-9.6-5.33-67.18-37.32-73.58-40.52h-1.07C284.57,165.82,283.51,164.76,282.44,165.82L282.44,165.82
						L282.44,165.82L282.44,165.82z"/>
					<polygon id="XMLID_1856_" class="st6" points="250.45,207.41 302.7,176.49 301.63,175.42 247.25,206.34 					"/>
					<polygon id="XMLID_1855_" class="st6" points="278.17,223.41 332.56,192.48 330.43,190.35 276.04,221.27 					"/>
					<path class="st6" d="M304.83,236.2l2.13,3.2l49.05-27.73l1.07-1.07l2.13-1.07l0,0c0,0,1.07-1.07,0-2.13c0,0-1.07,0-1.07-1.07
						l-2.13,1.07h-1.07h-1.07L304.83,236.2z"/>
					<path class="st6" d="M230.19,195.68l2.13,2.13l52.25-29.86l0,0v-1.07l0,0h-1.07h-1.07l0,0l0,0L230.19,195.68z"/>
					<path id="XMLID_1854_" class="st6" d="M305.9,243.67l-3.2-6.4l4.27,2.13c0,0,1.07-1.07,0-2.13
						c-1.07-1.07-75.71-41.59-75.71-41.59s-1.07-1.07-1.07,0s1.07,1.07,1.07,1.07l4.27,3.2l2.13,5.33l2.13,1.07l-2.13-5.33
						l63.98,35.19l3.2,6.4L305.9,243.67z"/>
				</g>
			</g>
		</g>
	</g>
	<g>
		<path class="st52" d="M334.69,320.45h2.13c0,0-1.07-9.6-1.07-12.8c0-1.07,0-1.07,1.07-1.07s1.07,0,2.13,0c0,0,0,0,0-1.07
			c0-2.13-3.2-5.33-3.2-5.33l-1.07,1.07c1.07,1.07,2.13,3.2,3.2,4.27l0,0c-1.07,0-3.2,0-3.2,3.2
			C333.63,310.85,334.69,320.45,334.69,320.45z"/>
	</g>
</g>
</svg>
