<?xml version="1.0" encoding="utf-8"?>
<!-- Generator: Adobe Illustrator 24.1.2, SVG Export Plug-In . SVG Version: 6.00 Build 0)  -->
<svg version="1.1" id="Calque_1" xmlns="http://www.w3.org/2000/svg" xmlns:xlink="http://www.w3.org/1999/xlink" x="0px" y="0px"
	 viewBox="0 0 512 512" style="enable-background:new 0 0 512 512;" xml:space="preserve">
<style type="text/css">
	.st0{fill:#B99C8C;}
	.st1{fill:#EDE3DE;}
	.st2{fill:#9A89AB;}
	.st3{fill:#694C51;}
	.st4{fill:#B0A4BA;}
	.st5{fill:#F4EBD8;}
	.st6{fill:#70565F;}
	.st7{fill:#4E303A;}
	.st8{fill:#452A33;}
	.st9{fill:#8A5B6B;}
	.st10{fill:#593B45;}
	.st11{fill:#2B0512;}
	.st12{fill:#20000B;}
	.st13{fill:#240610;}
	.st14{fill:#48192D;}
	.st15{fill:#3B242C;}
	.st16{fill:#987677;}
	.st17{fill:#D9C0B0;}
	.st18{fill:#C8805E;}
	.st19{fill:#7B444A;}
	.st20{fill:#AD7D8E;}
	.st21{fill:#FBB788;}
	.st22{fill:#34292B;}
	.st23{fill:#30061A;}
	.st24{fill:#4C3039;}
	.st25{fill:#E6DBD6;}
	.st26{fill:#8B8B8B;}
	.st27{fill:#EFEFEF;}
	.st28{fill:#B6C969;}
</style>
<g id="_x33_">
	<g>
		<polygon class="st0" points="414.05,402.23 407.8,406.06 407.8,397.02 414.05,393.18 		"/>
		<polygon class="st1" points="184.16,313.44 133.09,344.82 130.18,343.01 181.29,311.68 		"/>
		<polygon class="st2" points="323.05,458.08 294.91,437.14 283.37,429.45 234.53,345.15 166.23,387.07 144.18,342.15 59,394.43 
			116.53,429.74 187.19,429.74 180.8,416.74 206.88,432.74 260.78,423.69 316.8,458.08 		"/>
		<polygon class="st3" points="345.72,377 356.02,394.96 373.25,405.53 407.8,406.06 407.8,397.02 345.72,358.91 		"/>
		<polygon class="st1" points="351.97,355.07 345.72,358.91 407.8,397.02 414.05,393.18 		"/>
		<g>
			<polygon class="st0" points="356.02,320.42 356.02,394.96 346.23,400.98 290.88,434.93 290.84,434.93 287.28,432.74 
				277.53,426.77 277.53,368.61 			"/>
			<polygon class="st4" points="348.14,361.2 356.02,339.82 277.53,367.51 277.53,404.55 			"/>
			<polygon class="st5" points="346.23,359.37 346.25,400.96 290.88,434.93 290.84,434.93 287.28,432.74 287.28,395.56 			"/>
			<polygon class="st6" points="346.25,400.96 290.3,435.3 287.3,431.77 341.92,398.29 			"/>
		</g>
		<g>
			<polygon class="st7" points="238.28,342.98 187.19,374.34 187.19,369.75 238.28,338.38 			"/>
			<polygon class="st0" points="238.28,342.98 187.19,374.34 187.19,429.74 238.28,398.38 			"/>
			<g>
				<g>
					<polygon class="st8" points="238.28,325.41 187.19,356.77 187.19,369.75 238.28,338.38 					"/>
					<polygon class="st9" points="238.28,325.41 187.19,356.77 187.19,265.74 238.28,234.38 					"/>
					<polygon class="st10" points="234.82,340.51 190.83,367.51 190.83,363.84 231.74,338.71 					"/>
					<polygon class="st10" points="234.82,327.54 190.83,354.54 190.83,350.88 231.74,325.74 					"/>
					<polygon class="st10" points="234.82,305.48 190.83,332.48 190.83,328.82 231.74,303.68 					"/>
					<polygon class="st10" points="234.82,261.72 190.83,288.72 190.83,285.05 231.74,259.92 					"/>
					<polygon class="st11" points="212.17,250.41 212.17,275.62 209.09,273.82 209.09,252.27 					"/>
					<polygon class="st11" points="212.17,321.84 212.17,341.44 209.09,339.64 209.09,323.7 					"/>
					<polygon class="st11" points="212.17,343.9 212.17,354.41 209.09,352.61 209.09,345.76 					"/>
					<polygon class="st11" points="212.17,278.08 212.17,319.38 209.09,317.58 209.09,279.94 					"/>
					<polygon class="st11" points="234.82,236.51 234.82,261.72 231.74,259.92 231.74,238.37 					"/>
					<polygon class="st11" points="234.82,307.94 234.82,327.54 231.74,325.74 231.74,309.8 					"/>
					<polygon class="st11" points="234.82,330 234.82,340.51 231.74,338.71 231.74,331.86 					"/>
					<polygon class="st11" points="234.82,264.18 234.82,305.48 231.74,303.68 231.74,266.04 					"/>
					<polygon class="st8" points="238.28,234.38 187.19,265.74 187.19,263.29 238.28,231.92 					"/>
					<polygon class="st8" points="238.28,262.05 187.19,293.41 187.19,290.95 238.28,259.59 					"/>
					<polygon class="st8" points="238.28,305.81 187.19,337.17 187.19,334.72 238.28,303.35 					"/>
					<polygon class="st7" points="238.28,327.87 187.19,359.23 187.19,356.77 238.28,325.41 					"/>
					<polygon class="st8" points="190.83,263.51 190.83,288.72 187.19,290.95 187.19,265.74 					"/>
					<polygon class="st7" points="212.17,250.41 212.17,275.62 213.48,274.81 213.48,249.61 					"/>
					<polygon class="st8" points="190.83,291.17 190.83,332.48 187.19,334.72 187.19,293.41 					"/>
					<polygon class="st7" points="212.17,278.08 212.17,319.38 213.48,318.58 213.48,277.27 					"/>
					<polygon class="st8" points="190.83,334.94 190.83,354.54 187.19,356.77 187.19,337.17 					"/>
					<polygon class="st7" points="212.17,321.84 212.17,341.44 213.48,340.64 213.48,321.04 					"/>
					<polygon class="st7" points="190.83,357 190.83,367.51 187.19,369.75 187.19,359.23 					"/>
					<polygon class="st7" points="212.17,343.9 212.17,354.41 213.48,353.61 213.48,343.1 					"/>
				</g>
				<g>
					<polygon class="st8" points="238.28,234.38 238.28,259.59 234.82,261.72 234.82,236.51 					"/>
					<polygon class="st8" points="238.28,262.05 238.28,303.35 234.82,305.48 234.82,264.18 					"/>
					<polygon class="st8" points="238.28,305.81 238.28,325.41 234.82,327.54 234.82,307.94 					"/>
					<polygon class="st7" points="238.28,327.87 238.28,338.38 234.82,340.51 234.82,330 					"/>
				</g>
			</g>
		</g>
		<g>
			<polygon class="st12" points="136.09,342.98 187.19,374.34 187.19,369.75 136.09,338.38 			"/>
			<polygon class="st3" points="136.09,342.98 187.19,374.34 187.19,429.74 136.09,398.38 			"/>
			<polygon class="st3" points="238.28,342.98 277.52,368.6 277.52,422.46 238.28,398.38 			"/>
			<g>
				<g>
					<polygon class="st13" points="136.09,325.41 187.19,356.77 187.19,369.75 136.09,338.38 					"/>
					<polygon class="st14" points="136.09,325.41 187.19,356.77 187.19,265.74 136.09,234.38 					"/>
					<polygon class="st15" points="139.55,340.51 183.54,367.51 183.54,363.84 142.63,338.71 					"/>
					<polygon class="st15" points="139.55,327.54 183.54,354.54 183.54,350.88 142.63,325.74 					"/>
					<polygon class="st15" points="139.55,305.48 183.54,332.48 183.54,328.82 142.63,303.68 					"/>
					<polygon class="st15" points="139.55,261.72 183.54,288.72 183.54,285.05 142.63,259.92 					"/>
					<polygon class="st11" points="162.2,250.41 162.2,275.62 165.28,273.82 165.28,252.27 					"/>
					<polygon class="st11" points="162.2,321.84 162.2,341.44 165.28,339.64 165.28,323.7 					"/>
					<polygon class="st11" points="162.2,343.9 162.2,354.41 165.28,352.61 165.28,345.76 					"/>
					<polygon class="st11" points="162.2,278.08 162.2,319.38 165.28,317.58 165.28,279.94 					"/>
					<polygon class="st11" points="139.55,236.51 139.55,261.72 142.63,259.92 142.63,238.37 					"/>
					<polygon class="st11" points="139.55,307.94 139.55,327.54 142.63,325.74 142.63,309.8 					"/>
					<polygon class="st11" points="139.55,330 139.55,340.51 142.63,338.71 142.63,331.86 					"/>
					<polygon class="st11" points="139.55,264.18 139.55,305.48 142.63,303.68 142.63,266.04 					"/>
					<polygon class="st12" points="136.09,234.38 187.19,265.74 187.19,263.29 136.09,231.92 					"/>
					<polygon class="st12" points="136.09,262.05 187.19,293.41 187.19,290.95 136.09,259.59 					"/>
					<polygon class="st12" points="136.09,305.81 187.19,337.17 187.19,334.72 136.09,303.35 					"/>
					<polygon class="st12" points="136.09,327.87 187.19,359.23 187.19,356.77 136.09,325.41 					"/>
					<polygon class="st12" points="183.54,263.51 183.54,288.72 187.19,290.95 187.19,265.74 					"/>
					<polygon class="st12" points="162.2,250.41 162.2,275.62 160.89,274.81 160.89,249.61 					"/>
					<polygon class="st12" points="183.54,291.17 183.54,332.48 187.19,334.72 187.19,293.41 					"/>
					<polygon class="st12" points="162.2,278.08 162.2,319.38 160.89,318.58 160.89,277.27 					"/>
					<polygon class="st12" points="183.54,334.94 183.54,354.54 187.19,356.77 187.19,337.17 					"/>
					<polygon class="st12" points="162.2,321.84 162.2,341.44 160.89,340.64 160.89,321.04 					"/>
					<polygon class="st12" points="183.54,357 183.54,367.51 187.19,369.75 187.19,359.23 					"/>
					<polygon class="st12" points="162.2,343.9 162.2,354.41 160.89,353.61 160.89,343.1 					"/>
				</g>
				<g>
					<polygon class="st12" points="136.09,234.38 136.09,259.59 139.55,261.72 139.55,236.51 					"/>
					<polygon class="st12" points="136.09,262.05 136.09,303.35 139.55,305.48 139.55,264.18 					"/>
					<polygon class="st12" points="136.09,305.81 136.09,325.41 139.55,327.54 139.55,307.94 					"/>
					<polygon class="st12" points="136.09,327.87 136.09,338.38 139.55,340.51 139.55,330 					"/>
				</g>
			</g>
		</g>
		<g>
			<polygon class="st16" points="130.18,347.16 187.1,382.11 187.1,377.97 130.18,343.01 			"/>
			<polygon class="st1" points="238.28,342.98 187.19,374.34 136.09,342.98 133.09,344.82 187.1,377.97 241.19,344.77 			"/>
			<polygon class="st17" points="241.19,348.91 187.1,382.11 187.1,377.97 241.19,344.77 			"/>
		</g>
		<polygon class="st4" points="238.28,342.98 238.28,231.92 187.19,259.59 187.19,276.23 190.83,273.37 190.83,286.01 
			195.28,286.01 195.28,288.44 190.83,291.17 190.83,329.77 195.28,329.77 195.28,332.21 190.83,334.94 190.83,351.77 
			195.28,351.77 195.28,354.27 190.83,357 190.83,364.78 195.28,364.78 195.28,369.37 201.1,369.37 201.08,373.55 241.19,348.91 
			241.19,344.77 		"/>
		<g>
			<polygon class="st18" points="238.28,231.92 177.13,269.45 177.13,157.24 238.28,119.71 			"/>
			<polygon class="st4" points="238.28,119.71 212.73,154.78 212.73,247.6 238.28,231.92 			"/>
			<polygon class="st19" points="116,119.69 116,156.27 120.33,158.94 120.41,195.3 120.37,195.34 116,197.96 116,231.92 
				177.14,269.45 177.13,157.24 			"/>
		</g>
		<g>
			<polygon class="st7" points="373.92,331.4 295.42,379.58 295.42,154.78 373.92,106.6 			"/>
			<polygon class="st10" points="316.78,71.53 238.28,119.71 295.42,154.78 373.92,106.6 			"/>
			<polygon class="st10" points="255.63,34 115.98,119.71 177.13,157.24 316.78,71.53 			"/>
			<polygon class="st7" points="368.65,328.5 300.68,370.22 300.68,157.68 368.65,115.96 			"/>
			<polygon class="st10" points="368.65,328.5 300.68,370.22 300.68,366.56 365.57,326.7 			"/>
			<polygon class="st10" points="368.65,149.24 300.68,190.96 300.68,187.3 365.57,147.44 			"/>
			<polygon class="st10" points="368.65,222.04 300.68,263.76 300.68,260.1 365.57,220.24 			"/>
			<polygon class="st9" points="300.68,227.36 347.29,198.76 347.29,164.82 300.68,193.42 			"/>
			<polygon class="st10" points="368.65,185.64 300.68,227.36 300.68,223.7 365.57,183.84 			"/>
			<polygon class="st9" points="368.65,315.53 300.68,357.25 300.68,266.22 368.65,224.5 			"/>
			<polygon class="st20" points="357.97,316.68 312.97,316.68 300.68,324.54 300.68,350.7 			"/>
			<polygon class="st10" points="368.65,315.53 300.68,357.25 300.68,353.59 365.57,313.73 			"/>
			<polygon class="st10" points="368.65,293.47 300.68,335.19 300.68,331.53 365.57,291.67 			"/>
			<polygon class="st10" points="368.65,249.71 300.68,291.43 300.68,287.77 365.57,247.91 			"/>
			<polygon class="st7" points="368.65,151.7 300.68,193.42 300.68,190.96 368.65,149.24 			"/>
			<polygon class="st7" points="368.65,188.1 300.68,229.82 300.68,227.36 368.65,185.64 			"/>
			<polygon class="st7" points="368.65,224.5 300.68,266.22 300.68,263.76 368.65,222.04 			"/>
			<polygon class="st7" points="368.65,252.17 300.68,293.89 300.68,291.43 368.65,249.71 			"/>
			<polygon class="st7" points="368.65,295.93 300.68,337.65 300.68,335.19 368.65,293.47 			"/>
			<polygon class="st7" points="368.65,317.99 300.68,359.71 300.68,357.25 368.65,315.53 			"/>
			<polygon class="st7" points="323.36,215.9 323.36,249.84 322.05,250.65 322.05,216.71 			"/>
			<polygon class="st7" points="345.98,202.02 345.98,235.96 347.29,235.16 347.29,201.22 			"/>
			<polygon class="st7" points="323.36,179.51 323.36,213.45 322.05,214.25 322.05,180.31 			"/>
			<polygon class="st7" points="345.98,165.62 345.98,199.56 347.29,198.76 347.29,164.82 			"/>
			<polygon class="st7" points="323.36,143.76 323.36,177.05 322.05,177.85 322.05,144.57 			"/>
			<polygon class="st7" points="345.98,129.88 345.98,163.16 347.29,162.36 347.29,129.07 			"/>
			<polygon class="st7" points="323.36,252.3 323.36,277.51 322.05,278.32 322.05,253.11 			"/>
			<polygon class="st7" points="345.98,238.42 345.98,263.63 347.29,262.82 347.29,237.61 			"/>
			<polygon class="st7" points="323.36,279.97 323.36,321.27 322.05,322.08 322.05,280.77 			"/>
			<polygon class="st7" points="345.98,266.08 345.98,307.39 347.29,306.59 347.29,265.28 			"/>
			<polygon class="st7" points="323.36,323.73 323.36,343.33 322.05,344.14 322.05,324.54 			"/>
			<polygon class="st7" points="345.98,309.85 345.98,329.45 347.29,328.65 347.29,309.04 			"/>
			<polygon class="st7" points="323.36,345.79 323.36,356.3 322.05,357.11 322.05,346.6 			"/>
			<polygon class="st7" points="345.98,331.91 345.98,342.42 347.29,341.62 347.29,331.1 			"/>
		</g>
		<g>
			<polygon class="st12" points="238.28,344.51 295.42,379.58 295.42,154.78 238.28,119.71 			"/>
			<polygon class="st13" points="243.55,341.62 290.15,370.22 290.15,157.68 243.55,129.07 			"/>
			<polygon class="st15" points="243.55,341.62 290.15,370.22 290.15,366.56 246.63,339.82 			"/>
			<polygon class="st15" points="243.55,328.65 290.15,357.25 290.15,353.59 246.63,326.85 			"/>
			<polygon class="st15" points="243.55,306.59 290.15,335.19 290.15,331.53 246.63,304.79 			"/>
			<polygon class="st15" points="243.55,262.82 290.15,291.43 290.15,287.77 246.63,261.02 			"/>
			<polygon class="st15" points="243.55,235.16 290.15,263.76 290.15,260.1 246.63,233.36 			"/>
			<polygon class="st14" points="290.15,227.36 243.55,198.76 243.55,164.82 290.15,193.42 			"/>
			<polygon class="st15" points="243.55,198.76 290.15,227.36 290.15,223.7 246.63,196.96 			"/>
			<polygon class="st15" points="243.55,162.36 290.15,190.96 290.15,187.3 246.63,160.56 			"/>
			<polygon class="st12" points="243.55,164.82 290.15,193.42 290.15,190.96 243.55,162.36 			"/>
			<polygon class="st12" points="243.55,201.22 290.15,229.82 290.15,227.36 243.55,198.76 			"/>
			<polygon class="st12" points="243.55,237.61 290.15,266.22 290.15,263.76 243.55,235.16 			"/>
			<polygon class="st12" points="243.55,265.28 290.15,293.89 290.15,291.43 243.55,262.82 			"/>
			<polygon class="st12" points="243.55,309.04 290.15,337.65 290.15,335.19 243.55,306.59 			"/>
			<polygon class="st12" points="243.55,331.1 290.15,359.71 290.15,357.25 243.55,328.65 			"/>
			<polygon class="st12" points="267.48,215.9 267.48,249.84 268.79,250.65 268.79,216.71 			"/>
			<polygon class="st12" points="267.48,179.51 267.48,213.45 268.79,214.25 268.79,180.31 			"/>
			<polygon class="st12" points="267.48,143.76 267.48,177.05 268.79,177.85 268.79,144.57 			"/>
			<polygon class="st12" points="267.48,252.3 267.48,277.51 268.79,278.32 268.79,253.11 			"/>
			<polygon class="st12" points="267.48,279.97 267.48,321.27 268.79,322.08 268.79,280.77 			"/>
			<polygon class="st12" points="267.48,323.73 267.48,343.33 268.79,344.14 268.79,324.54 			"/>
			<polygon class="st12" points="267.48,345.79 267.48,356.3 268.79,357.11 268.79,346.6 			"/>
		</g>
		<polygon class="st21" points="115.98,197.98 177.13,235.51 177.13,230.14 120.31,195.32 		"/>
		<polygon class="st21" points="238.28,197.98 177.13,235.51 177.13,230.14 233.96,195.32 		"/>
		<polygon class="st19" points="238.28,156.25 238.28,197.98 233.92,195.36 233.88,195.32 233.88,158.96 		"/>
		<polygon class="st7" points="233.92,195.36 177.13,230.14 177.13,193.74 233.92,158.96 		"/>
		<polygon class="st9" points="232.3,193.89 178.75,226.69 178.75,195.21 232.3,162.41 		"/>
		<polygon class="st12" points="120.31,195.32 177.13,230.14 177.13,193.74 120.31,158.92 		"/>
		<polygon class="st14" points="121.93,193.85 175.52,226.69 175.52,195.21 121.93,162.37 		"/>
		<polygon class="st10" points="232.3,193.89 178.75,226.69 178.75,224.24 230.24,192.69 		"/>
		<polygon class="st11" points="232.3,162.41 232.3,193.89 230.24,192.69 230.24,163.66 		"/>
		<polygon class="st15" points="121.93,193.85 175.52,226.69 175.52,224.24 123.99,192.65 		"/>
		<polygon class="st11" points="121.93,162.37 121.93,193.85 123.99,192.65 123.99,163.62 		"/>
		<polygon class="st11" points="368.65,224.5 368.65,249.71 365.57,247.91 365.57,226.36 		"/>
		<polygon class="st11" points="345.98,238.42 345.98,263.63 342.9,261.83 342.9,240.28 		"/>
		<polygon class="st11" points="322.05,253.11 322.05,278.32 318.97,276.52 318.97,254.97 		"/>
		<polygon class="st11" points="368.65,295.93 368.65,315.53 365.57,313.73 365.57,297.8 		"/>
		<polygon class="st11" points="345.98,309.85 345.98,329.45 342.9,327.65 342.9,311.71 		"/>
		<polygon class="st11" points="322.05,324.54 322.05,344.14 318.97,342.34 318.97,326.4 		"/>
		<polygon class="st11" points="368.65,317.99 368.65,328.5 365.57,326.7 365.57,319.85 		"/>
		<polygon class="st11" points="345.98,331.91 345.98,342.42 342.9,340.62 342.9,333.77 		"/>
		<polygon class="st11" points="322.05,346.6 322.05,357.11 318.97,355.31 318.97,348.46 		"/>
		<polygon class="st11" points="368.65,188.1 368.65,222.04 365.57,220.24 365.57,189.97 		"/>
		<polygon class="st11" points="345.98,202.02 345.98,235.96 342.9,234.16 342.9,203.88 		"/>
		<polygon class="st11" points="322.05,216.71 322.05,250.65 318.97,248.85 318.97,218.57 		"/>
		<polygon class="st11" points="368.65,252.17 368.65,293.47 365.57,291.67 365.57,254.03 		"/>
		<polygon class="st11" points="345.98,266.08 345.98,307.39 342.9,305.59 342.9,267.95 		"/>
		<polygon class="st11" points="322.05,280.77 322.05,322.08 318.97,320.28 318.97,282.64 		"/>
		<polygon class="st11" points="368.65,151.7 368.65,185.64 365.57,183.84 365.57,153.57 		"/>
		<polygon class="st11" points="345.98,165.62 345.98,199.56 342.9,197.76 342.9,167.48 		"/>
		<polygon class="st11" points="322.05,180.31 322.05,214.25 318.97,212.45 318.97,182.17 		"/>
		<polygon class="st11" points="368.65,115.96 368.65,149.24 365.57,147.44 365.57,117.82 		"/>
		<polygon class="st11" points="345.98,129.88 345.98,163.16 342.9,161.36 342.9,131.74 		"/>
		<polygon class="st11" points="322.05,144.57 322.05,177.85 318.97,176.05 318.97,146.43 		"/>
		<polygon class="st11" points="243.55,237.61 243.55,262.82 246.63,261.02 246.63,239.48 		"/>
		<polygon class="st11" points="243.55,309.04 243.55,328.65 246.63,326.85 246.63,310.91 		"/>
		<polygon class="st11" points="243.55,331.1 243.55,341.62 246.63,339.82 246.63,332.97 		"/>
		<polygon class="st11" points="243.55,201.22 243.55,235.16 246.63,233.36 246.63,203.08 		"/>
		<polygon class="st11" points="243.55,265.28 243.55,306.59 246.63,304.79 246.63,267.15 		"/>
		<polygon class="st11" points="243.55,164.82 243.55,198.76 246.63,196.96 246.63,166.68 		"/>
		<polygon class="st11" points="243.55,129.07 243.55,162.36 246.63,160.56 246.63,130.94 		"/>
		<polygon class="st11" points="268.79,253.11 268.79,278.32 271.87,276.52 271.87,254.97 		"/>
		<polygon class="st11" points="268.79,324.54 268.79,344.14 271.87,342.34 271.87,326.4 		"/>
		<polygon class="st11" points="268.79,346.6 268.79,357.11 271.87,355.31 271.87,348.46 		"/>
		<polygon class="st11" points="268.79,216.71 268.79,250.65 271.87,248.85 271.87,218.57 		"/>
		<polygon class="st11" points="268.79,280.77 268.79,322.08 271.87,320.28 271.87,282.64 		"/>
		<polygon class="st11" points="268.79,180.31 268.79,214.25 271.87,212.45 271.87,182.17 		"/>
		<polygon class="st11" points="268.79,144.57 268.79,177.85 271.87,176.05 271.87,146.43 		"/>
		<g>
			<polygon class="st6" points="373.24,405.53 308.1,445.51 290.88,434.93 346.25,400.96 356.02,394.96 			"/>
			<polygon class="st22" points="407.8,406.06 329.28,454.26 326.21,453.57 320.14,452.93 308.1,445.51 373.24,405.53 			"/>
			<polygon class="st3" points="232.03,402.22 323.05,458.08 323.05,449.03 232.03,393.17 			"/>
			<polygon class="st0" points="329.3,454.24 323.05,458.08 323.05,449.03 329.3,445.2 			"/>
			<polygon class="st1" points="238.28,389.33 232.03,393.17 323.05,449.03 329.3,445.2 			"/>
		</g>
		<polygon class="st4" points="238.28,197.98 212.73,213.66 204.03,213.66 204.03,211.2 200.1,211.2 200.1,198.76 178.75,211.58 
			178.75,214.25 177.13,215.42 177.13,203.66 233.92,170.66 233.92,195.36 		"/>
		<g>
			<polygon class="st23" points="107.96,165.32 177.13,207.8 177.13,203.66 107.96,161.17 			"/>
			<polygon class="st10" points="238.28,156.25 177.13,193.79 116,156.24 107.96,161.17 177.13,203.66 246.33,161.19 			"/>
			<polygon class="st4" points="212.73,171.94 228.82,171.94 246.33,161.19 238.28,156.25 			"/>
			<polygon class="st24" points="246.33,165.34 177.13,207.8 177.13,203.66 246.33,161.19 			"/>
			<polygon class="st4" points="228.82,171.94 228.82,176.08 246.33,165.34 246.33,161.19 			"/>
		</g>
		<polygon class="st3" points="346.25,359.35 346.25,400.96 341.88,398.34 341.84,398.29 341.84,362.06 		"/>
		<polygon class="st2" points="373.25,405.53 356.02,394.96 346.25,400.96 364.45,410.93 402.48,408.03 407.8,406.06 		"/>
		<polygon class="st4" points="346.25,400.96 346.25,386.29 356.02,374.28 356.02,394.96 		"/>
		<polygon class="st4" points="187.19,382.11 187.19,387.62 195.28,382.72 195.28,425.62 232.03,402.22 232.03,393.17 
			238.28,389.33 238.28,350.7 		"/>
		<polygon class="st4" points="136.09,342.98 136.09,339.39 130.18,343.01 181.2,374.34 187.19,374.34 		"/>
		<polygon class="st4" points="177.13,230.14 168.38,230.14 115.98,197.98 120.31,195.32 		"/>
		<g>
			<polygon class="st4" points="368.65,328.5 362.64,328.5 362.64,325.39 347.29,335 347.29,331.1 365.57,319.85 365.57,326.7 			
				"/>
			<polygon class="st4" points="368.65,315.53 362.64,315.53 362.64,303.33 347.29,312.94 347.29,309.04 365.57,297.8 
				365.57,313.73 			"/>
			<polygon class="st4" points="368.65,249.71 362.64,249.71 362.64,231.9 347.29,241.51 347.29,237.61 365.57,226.36 
				365.57,247.91 			"/>
			<polygon class="st4" points="368.65,222.04 362.64,222.04 362.64,195.5 347.29,205.11 347.29,201.22 365.57,189.97 
				365.57,220.24 			"/>
			<polygon class="st4" points="368.65,185.64 362.64,185.64 362.64,159.1 347.29,168.71 347.29,164.82 365.57,153.57 
				365.57,183.84 			"/>
			<polygon class="st4" points="368.65,149.24 362.64,149.24 362.64,123.36 347.29,132.97 347.29,129.07 365.57,117.82 
				365.57,147.44 			"/>
			<polygon class="st4" points="368.65,293.47 362.64,293.47 362.64,259.57 347.29,269.18 347.29,265.28 365.57,254.03 
				365.57,291.67 			"/>
		</g>
		<g>
			<polygon class="st4" points="345.98,342.42 339.97,342.42 339.97,339.31 323.36,349.69 323.36,345.79 342.9,333.77 342.9,340.62 
							"/>
			<polygon class="st4" points="345.98,329.45 339.97,329.45 339.97,317.25 323.36,327.63 323.36,323.73 342.9,311.71 342.9,327.65 
							"/>
			<polygon class="st4" points="345.98,263.63 339.97,263.63 339.97,245.82 323.36,256.2 323.36,252.3 342.9,240.28 342.9,261.83 
							"/>
			<polygon class="st4" points="345.98,235.96 339.97,235.96 339.97,209.42 323.36,219.8 323.36,215.9 342.9,203.88 342.9,234.16 
							"/>
			<polygon class="st4" points="345.98,199.56 339.97,199.56 339.97,173.02 323.36,183.4 323.36,179.51 342.9,167.48 342.9,197.76 
							"/>
			<polygon class="st4" points="345.98,163.16 339.97,163.16 339.97,137.28 323.36,147.66 323.36,143.76 342.9,131.74 342.9,161.36 
							"/>
			<polygon class="st4" points="345.98,307.39 339.97,307.39 339.97,273.48 323.36,283.87 323.36,279.97 342.9,267.95 342.9,305.59 
							"/>
		</g>
		<g>
			<polygon class="st4" points="322.05,357.11 316.04,357.11 316.04,353.99 300.68,363.6 300.68,359.71 318.97,348.46 
				318.97,355.31 			"/>
			<polygon class="st4" points="322.05,344.14 316.04,344.14 316.04,331.94 300.68,341.54 300.68,337.65 318.97,326.4 
				318.97,342.34 			"/>
			<polygon class="st4" points="322.05,278.32 316.04,278.32 316.04,260.5 300.68,270.11 300.68,266.22 318.97,254.97 
				318.97,276.52 			"/>
			<polygon class="st4" points="322.05,250.65 316.04,250.65 316.04,224.11 300.68,233.72 300.68,229.82 318.97,218.57 
				318.97,248.85 			"/>
			<polygon class="st4" points="322.05,214.25 316.04,214.25 316.04,187.71 300.68,197.32 300.68,193.42 318.97,182.17 
				318.97,212.45 			"/>
			<polygon class="st4" points="322.05,177.85 316.04,177.85 316.04,151.96 300.68,161.57 300.68,157.68 318.97,146.43 
				318.97,176.05 			"/>
			<polygon class="st4" points="322.05,322.08 316.04,322.08 316.04,288.17 300.68,297.78 300.68,293.89 318.97,282.64 
				318.97,320.28 			"/>
		</g>
		<polygon class="st4" points="346.25,400.96 337.57,400.96 337.57,369.19 287.28,400.12 287.28,395.56 341.84,362.06 
			341.88,398.34 		"/>
	</g>
	<polygon class="st6" points="453,433.8 374.48,482 329.28,454.26 407.8,406.06 	"/>
	<g>
		<polygon id="XMLID_468_" class="st25" points="296.76,476.74 313.38,466.54 313.38,452.65 296.76,462.85 		"/>
		<polygon id="XMLID_467_" class="st26" points="296.76,476.74 228.6,435.41 228.6,421.52 296.76,462.85 		"/>
		<polygon class="st2" points="296.76,476.74 278.73,476.74 213.84,438.31 228.6,428.92 228.6,435.41 		"/>
		<polygon id="XMLID_466_" class="st27" points="245.22,411.32 228.6,421.52 296.76,462.85 313.38,452.65 		"/>
		<polygon id="XMLID_465_" class="st28" points="234.93,421.52 245.22,415.22 307.04,452.65 296.76,458.96 		"/>
	</g>
</g>
</svg>
