<?xml version="1.0" encoding="utf-8"?>
<!-- Generator: Adobe Illustrator 24.1.2, SVG Export Plug-In . SVG Version: 6.00 Build 0)  -->
<svg version="1.1" id="Calque_1" xmlns="http://www.w3.org/2000/svg" xmlns:xlink="http://www.w3.org/1999/xlink" x="0px" y="0px"
	 viewBox="0 0 512 512" style="enable-background:new 0 0 512 512;" xml:space="preserve">
<style type="text/css">
	.st0{fill:#9A89AB;}
	.st1{fill:#BB9F8C;}
	.st2{fill:#C5A4AC;}
	.st3{fill:#EDE3DE;}
	.st4{fill:#877074;}
	.st5{fill:#694C51;}
	.st6{fill:#4D303A;}
	.st7{fill:#8A5B6B;}
	.st8{fill:#2B0512;}
	.st9{fill:#593B45;}
	.st10{fill:#8A7999;}
	.st11{fill:#D9C0B0;}
	.st12{fill:#F36654;}
	.st13{fill:#E5DBD4;}
	.st14{fill:#801A29;}
	.st15{fill:#CCAD99;}
	.st16{fill:#D65140;}
	.st17{fill:#F47564;}
	.st18{fill:#B0A4BA;}
	.st19{fill:#A63333;}
	.st20{fill:#61464B;}
	.st21{fill:#917775;}
	.st22{fill:#795D5A;}
	.st23{fill:#7A1927;}
	.st24{fill:#912727;}
	.st25{fill:#FBB788;}
	.st26{fill:#3B3944;}
	.st27{fill:#626069;}
	.st28{fill:#7B444A;}
	.st29{fill:#897998;}
	.st30{fill:#877174;}
	.st31{fill:#EFEDE0;}
	.st32{fill:#D7D2C8;}
	.st33{fill:#8D8198;}
	.st34{fill:#FEFCF7;}
	.st35{fill:#614348;}
	.st36{fill:#7C6367;}
	.st37{fill:#363636;}
	.st38{fill:#575757;}
	.st39{fill:#929292;}
	.st40{fill:#767676;}
</style>
<g id="_x31_">
	<g>
		<polygon class="st0" points="236.73,373.6 225.48,327.53 70.29,417.12 177.51,479.03 261.74,479.03 265.16,481 272.77,481 
			313.12,329.5 		"/>
		<g>
			<polygon class="st1" points="425.49,303.88 270.3,393.48 270.3,479.58 425.49,389.98 			"/>
			<polygon class="st2" points="425.49,303.88 270.3,393.48 270.3,399.13 425.49,309.53 			"/>
			<path class="st3" d="M425.49,386.26V390l-155.17,89.58v-3.74l51.78-29.89V395.8c0-4.82,0.99-10.19,2.8-15.57
				c0.77-2.24,1.81-4.47,3.01-6.54c2.11-3.66,4.82-6.97,7.78-9.42c4-3.31,8.09-6.19,12.21-8.56c4.09-2.37,8.21-4.26,12.21-5.55
				c2.45-0.82,4.73-0.82,6.67-0.13c0.6,0.22,3.35,1.76,3.87,2.15c0.95,0.69-0.39,0.34,0.22,1.51c1.85,3.27,2.8,7.53,2.8,12.3v50.15
				L425.49,386.26z"/>
			<path class="st4" d="M330.96,375.16l-6.41,22.06l-2.45-1.42c0-4.82,0.99-10.19,2.8-15.57c0.77-2.24,1.81-4.47,3.01-6.54
				L330.96,375.16z"/>
			<polygon class="st5" points="324.55,447.37 322.11,445.94 322.11,395.79 324.55,397.22 			"/>
			<polygon class="st5" points="365.25,416.12 371.94,419.97 373.68,393.4 372.38,361.59 366.73,353.93 359.88,355.14 			"/>
			<g>
				<g>
					<path class="st6" d="M365.24,365.96v50.15l-36.51,21.07v-42.36c0-1.89,0.17-3.87,0.52-5.89c0.13-0.82,0.3-1.63,0.52-2.45v-0.04
						c0.17-0.95,0.43-1.89,0.77-2.84v-0.04c0.17-0.65,0.39-1.33,0.6-1.98c1.55-4.52,4.43-8.86,7.91-11.74
						c6.67-5.5,13.55-9.63,20.3-12.17c0.43-0.22,0.86-0.34,1.29-0.47c-0.04-0.09-0.09-0.13-0.13-0.22c0.09,0.04,0.13,0.13,0.17,0.22
						c0.34-0.17,0.65-0.26,0.99-0.39c0.56-0.17,1.12-0.3,1.63-0.39C364.59,359.08,365.24,362.3,365.24,365.96z"/>
					<polygon class="st7" points="363.16,369.34 363.16,408.13 345.21,418.49 345.21,379.71 					"/>
					<path class="st7" d="M342.05,381.53v38.79l-13.33,7.7v-33.2c0-1.89,0.17-3.87,0.52-5.89l10.62-6.15L342.05,381.53z"/>
					<polygon class="st8" points="342.05,381.53 342.05,420.32 328.72,428.02 328.72,425.52 339.86,419.11 339.86,382.77 					"/>
					<polygon class="st9" points="342.05,420.32 328.72,428.02 328.72,425.56 339.86,419.11 					"/>
					<path class="st10" d="M337.75,420.32v-33.37l-8.9,5.29c0.04-1.08,0.22-2.19,0.39-3.31l10.62-6.15v36.34l2.19,1.2H337.75z"/>
					<path class="st7" d="M363.17,367.16l-0.04,0.04l-33.37,19.27v-0.04c0.17-0.95,0.43-1.89,0.77-2.84v-0.04
						c0.17-0.65,0.39-1.33,0.6-1.98c1.55-4.52,4.43-8.86,7.91-11.74c6.67-5.5,13.55-9.63,20.3-12.17c0.43-0.22,0.86-0.34,1.29-0.47
						c0.13,0.13,0.22,0.26,0.34,0.43C362.4,360.15,363.17,363.46,363.17,367.16z"/>
					<polygon class="st8" points="360.96,370.61 360.96,406.93 345.21,416.02 345.21,418.49 363.16,408.13 363.16,369.34 					"/>
					<path class="st8" d="M363.17,367.16l-0.04,0.04l-33.37,19.22c0.17-0.95,0.43-1.89,0.77-2.84v-0.04l30.45-17.59
						c0-3.14-0.56-5.98-1.63-8.3c0.43-0.22,0.86-0.34,1.29-0.47c-0.04-0.09-0.09-0.13-0.13-0.22c0.09,0.04,0.13,0.13,0.17,0.22
						c0.13,0.13,0.22,0.26,0.3,0.43C362.4,360.15,363.17,363.46,363.17,367.16z"/>
				</g>
				<polygon class="st9" points="363.16,408.13 345.21,418.49 345.21,416.04 360.96,406.93 				"/>
				<path class="st9" d="M363.13,367.21l-33.37,19.27v-0.04c0.17-0.95,0.43-1.89,0.77-2.84v-0.04L360.98,366L363.13,367.21z"/>
			</g>
			<path class="st11" d="M376.12,417.57v-50.15c0-4.77-0.95-9.03-2.8-12.3c-2.06-3.79-6.06-5.08-10.75-3.53
				c-4,1.29-8.13,3.18-12.21,5.55c-4.13,2.37-8.21,5.25-12.21,8.56c-4.69,3.87-8.69,9.81-10.79,15.96
				c-1.81,5.38-2.8,10.75-2.8,15.57v50.15l-51.78,29.89V481l155.17-89.58v-3.74L376.12,417.57z M371.94,419.97l-43.22,24.99v-50.15
				c0-4.13,0.82-8.64,2.41-13.25c1.55-4.52,4.43-8.86,7.91-11.74c7.44-6.15,15.14-10.58,22.62-13.03c0.95-0.3,1.85-0.47,2.71-0.47
				c2.24,0,4.09,1.08,5.2,3.05c1.55,2.8,2.37,6.36,2.37,10.45V419.97z"/>
			<polygon class="st12" points="425.48,96.76 425.48,287.09 270.32,376.69 270.32,186.36 			"/>
			<polygon class="st2" points="425.49,96.75 270.3,186.34 270.3,192 425.49,102.4 			"/>
			<polygon class="st1" points="427.96,98.17 272.78,187.77 272.78,177.56 427.96,87.96 			"/>
			<polygon class="st13" points="427.96,91.36 272.78,180.96 272.78,177.56 427.96,87.96 			"/>
			<polygon class="st11" points="429.52,76.06 274.33,165.66 274.33,178.46 429.52,88.86 			"/>
			<polygon class="st14" points="167.11,126.76 270.3,186.34 270.3,376.68 167.11,317.1 			"/>
			<polygon class="st5" points="167.11,333.9 270.3,393.48 270.3,479.58 167.11,420 			"/>
			<polygon class="st5" points="167.11,126.76 272.78,187.77 272.78,177.56 167.11,116.55 			"/>
			<polygon class="st5" points="167.11,116.55 274.33,178.46 274.33,165.66 167.11,103.75 			"/>
			<g>
				<polygon class="st15" points="427.96,305.31 272.78,394.9 272.78,387.11 427.96,297.51 				"/>
				<polygon class="st13" points="427.96,300.91 272.78,390.51 272.78,387.11 427.96,297.51 				"/>
				<polygon class="st5" points="167.11,333.9 272.78,394.9 272.78,387.11 167.11,326.1 				"/>
			</g>
			<polygon class="st5" points="167.11,326.1 274.33,388.01 274.33,379.01 167.11,317.1 			"/>
			<polygon class="st11" points="429.52,289.41 274.33,379.01 274.33,388.01 429.52,298.41 			"/>
			<polygon class="st3" points="425.49,287.08 270.3,376.68 274.33,379.01 429.52,289.41 			"/>
			<polygon class="st5" points="272.75,477.27 272.75,481 270.3,479.58 270.3,475.85 			"/>
			<g>
				<polygon class="st5" points="411.25,339.29 411.25,394.47 390.39,406.51 390.39,402.69 407.9,392.54 407.9,341.23 				"/>
				<polygon class="st3" points="411.25,394.47 390.39,406.51 390.39,402.69 407.9,392.54 				"/>
				<g>
					<polygon class="st6" points="407.9,341.23 407.9,392.54 390.39,402.64 390.39,351.34 403.6,343.72 405.79,342.43 					"/>
					<polygon class="st7" points="405.79,342.43 405.79,384.54 390.39,393.44 390.39,351.34 403.6,343.72 					"/>
					<polygon class="st8" points="405.79,342.43 405.79,384.54 403.6,383.33 403.6,343.72 					"/>
					<polygon class="st10" points="411.25,394.47 404.56,394.47 404.56,385.25 405.79,384.54 401.52,384.54 401.52,351.5 
						390.39,357.72 390.39,351.34 403.59,343.72 403.6,383.33 405.79,384.54 405.8,342.44 407.9,341.23 407.9,392.54 					"/>
					<polygon class="st9" points="405.79,384.54 390.39,393.44 390.39,390.99 403.6,383.33 					"/>
				</g>
				<g>
					<polygon class="st5" points="391.45,344.96 391.45,351.96 390.38,351.34 390.38,344.34 					"/>
					<polygon class="st2" points="390.38,344.34 388.71,347.5 388.71,354.28 390.39,353.01 					"/>
					<polygon class="st3" points="390.38,344.34 411.26,332.29 412.33,332.91 391.45,344.96 					"/>
					<polygon class="st11" points="391.45,344.96 412.33,332.91 412.33,339.9 391.45,351.96 					"/>
				</g>
			</g>
			<g>
				<g>
					<path class="st16" d="M400.8,232.42v53.67l-45.67,26.41v-53.67c0-1.2,0.09-2.41,0.26-3.66c0.04-0.95,0.22-1.94,0.43-2.92
						c0.09-0.6,0.22-1.2,0.34-1.81c0.22-0.99,0.52-1.94,0.82-2.92c3.35-11.14,11.18-22.11,20.3-27.65c0.22-0.17,0.47-0.3,0.69-0.43
						c1.29-0.77,2.54-1.38,3.74-1.81c0.39-0.13,0.73-0.3,1.12-0.39c2.45-0.82,4.73-1.08,6.84-0.86
						C396.33,217.07,400.8,222.83,400.8,232.42z"/>
					<path class="st14" d="M400.8,232.42v53.67l-8-4.6l-9.98-64.25c2.45-0.82,4.73-1.08,6.84-0.86
						C396.33,217.07,400.8,222.83,400.8,232.42z"/>
					<path class="st16" d="M392.8,227.82v53.67l-37.67,21.76v-44.43c0-14.49,10.24-32.13,22.84-39.39c4.26-2.49,8.26-3.44,11.7-3.05
						C391.64,219.09,392.8,223.01,392.8,227.82z"/>
				</g>
				<g>
					<path class="st6" d="M389.45,230.96v48.43l-34.32,19.78v-40.34c0-1.2,0.09-2.41,0.26-3.66c0.04-0.95,0.22-1.94,0.43-2.92
						c0.09-0.6,0.22-1.2,0.34-1.81c0.22-0.99,0.52-1.94,0.82-2.92c3.35-11.14,11.18-22.11,20.3-27.65c0.22-0.17,0.47-0.3,0.69-0.43
						c1.29-0.77,2.54-1.38,3.74-1.81C386.39,219.01,389.45,223.69,389.45,230.96z"/>
					<path class="st8" d="M387.9,232.12l-31.74,18.32c0.22-0.99,0.52-1.94,0.82-2.92c3.35-11.14,11.18-22.11,20.3-27.65
						c1.51-0.13,2.84,0.09,4.09,0.56c0.04,0,0.04,0,0.09,0.04C385.32,221.89,387.81,226.02,387.9,232.12z"/>
					<path class="st8" d="M369.41,247.05v40.94l-14.28,8.26v-37.42c0-1.2,0.09-2.41,0.26-3.66l11.83-6.88L369.41,247.05z"/>
					<polygon class="st8" points="387.9,236.36 387.9,277.31 371.31,286.36 370.57,246.34 385.71,237.61 					"/>
					<path class="st6" d="M387.9,232.12v1.59l-32.08,18.54c0.09-0.6,0.22-1.2,0.34-1.81L387.9,232.12z"/>
					<path class="st6" d="M387.9,233.71v2.67l-2.19,1.25l-15.14,8.73v0.04l-1.16,0.65l-2.19,1.25l-11.83,6.88
						c0.04-0.95,0.22-1.94,0.43-2.92L387.9,233.71z"/>
					<polygon class="st6" points="370.57,246.34 370.57,287.33 369.41,287.97 369.41,247.03 					"/>
					<polygon class="st9" points="387.9,277.31 370.57,287.33 370.57,284.87 385.71,276.1 					"/>
					<polygon class="st9" points="369.41,287.99 355.13,296.25 355.13,293.79 367.21,286.78 					"/>
					<path class="st7" d="M385.71,230.92l-28.73,16.6c3.35-11.14,11.18-22.11,20.3-27.65c1.51-0.13,2.84,0.09,4.09,0.56
						c0.04,0,0.04,0,0.09,0.04C384.03,222.45,385.62,226.06,385.71,230.92z"/>
					<path class="st7" d="M367.21,248.29v38.49l-12.08,7.01v-34.96c0-1.2,0.09-2.41,0.26-3.66L367.21,248.29z"/>
					<polygon class="st7" points="385.71,237.61 385.71,276.1 370.57,284.87 370.57,246.34 					"/>
					<path class="st9" d="M387.9,232.12l-31.74,18.32c0.22-0.99,0.52-1.94,0.82-2.92l28.73-16.6L387.9,232.12z"/>
				</g>
				<polygon class="st17" points="392.8,281.49 355.13,303.26 355.13,312.5 400.8,286.1 				"/>
				<path class="st10" d="M400.8,232.42v53.67h-15.95v-7.01l-2.41-1.07v-35.82l-11.87,6.92v-2.75l13.63-7.87v-4.3l-2.19-1.12
					c0,0,0.56-6.75-5.63-6.54c-4.77,0.13-10.71,5.33-15.31,11.35c4.13-7.74,10.19-14.58,16.9-18.45c1.68-0.99,3.31-1.72,4.86-2.19
					c0.47-0.17,0.95-0.3,1.42-0.43c1.94-0.47,3.74-0.6,5.42-0.43C396.33,217.07,400.8,222.83,400.8,232.42z"/>
				<path class="st10" d="M365.15,287.99v-36.04l-9.98,6.06c0-0.95,0.09-1.89,0.22-2.84l11.83-6.88v38.49l2.19,1.2H365.15z"/>
			</g>
			<g>
				<g>
					<path class="st16" d="M340.66,267.16v53.67l-45.67,26.41v-53.67c0-1.2,0.09-2.41,0.26-3.66c0.04-0.95,0.22-1.93,0.43-2.92
						c0.09-0.6,0.21-1.2,0.34-1.81c0.22-0.99,0.52-1.94,0.82-2.92c3.35-11.14,11.18-22.11,20.3-27.65c0.22-0.17,0.47-0.3,0.69-0.43
						c1.29-0.77,2.54-1.38,3.74-1.81c0.39-0.13,0.73-0.3,1.12-0.39c2.45-0.82,4.73-1.08,6.84-0.86
						C336.19,251.81,340.66,257.57,340.66,267.16z"/>
					<path class="st14" d="M340.66,267.16v53.67l-8-4.6l-9.98-64.25c2.45-0.82,4.73-1.08,6.84-0.86
						C336.19,251.81,340.66,257.57,340.66,267.16z"/>
					<path class="st16" d="M332.66,262.56v53.67l-37.67,21.76v-44.43c0-14.49,10.24-32.13,22.84-39.39
						c4.26-2.49,8.26-3.44,11.7-3.05C331.5,253.83,332.66,257.74,332.66,262.56z"/>
				</g>
				<g>
					<path class="st6" d="M329.31,265.7v48.43l-34.32,19.78v-40.34c0-1.2,0.09-2.41,0.26-3.66c0.04-0.95,0.22-1.93,0.43-2.92
						c0.09-0.6,0.21-1.2,0.34-1.81c0.22-0.99,0.52-1.94,0.82-2.92c3.35-11.14,11.18-22.11,20.3-27.65c0.22-0.17,0.47-0.3,0.69-0.43
						c1.29-0.77,2.54-1.38,3.74-1.81C326.26,253.74,329.31,258.43,329.31,265.7z"/>
					<path class="st8" d="M327.76,266.86l-31.74,18.32c0.22-0.99,0.52-1.94,0.82-2.92c3.35-11.14,11.18-22.11,20.3-27.65
						c1.51-0.13,2.84,0.09,4.09,0.56c0.04,0,0.04,0,0.09,0.04C325.18,256.62,327.67,260.75,327.76,266.86z"/>
					<path class="st8" d="M309.27,281.78v40.94l-14.28,8.26v-37.42c0-1.2,0.09-2.41,0.26-3.66l11.83-6.88L309.27,281.78z"/>
					<polygon class="st8" points="327.76,271.1 327.76,312.04 311.17,321.1 310.43,281.08 325.57,272.35 					"/>
					<path class="st6" d="M327.76,266.86v1.59l-32.08,18.54c0.09-0.6,0.21-1.2,0.34-1.81L327.76,266.86z"/>
					<path class="st6" d="M327.76,268.45v2.67l-2.19,1.25l-15.14,8.73v0.04l-1.16,0.65l-2.19,1.25l-11.83,6.88
						c0.04-0.95,0.22-1.93,0.43-2.92L327.76,268.45z"/>
					<polygon class="st6" points="310.43,281.08 310.43,322.06 309.27,322.71 309.27,281.77 					"/>
					<polygon class="st9" points="327.76,312.04 310.43,322.06 310.43,319.61 325.57,310.84 					"/>
					<polygon class="st9" points="309.27,322.72 294.99,330.98 294.99,328.53 307.07,321.52 					"/>
					<path class="st7" d="M325.57,265.66l-28.73,16.6c3.35-11.14,11.18-22.11,20.3-27.65c1.51-0.13,2.84,0.09,4.09,0.56
						c0.04,0,0.04,0,0.09,0.04C323.89,257.18,325.48,260.8,325.57,265.66z"/>
					<path class="st7" d="M307.07,283.03v38.49l-12.08,7.01v-34.96c0-1.2,0.09-2.41,0.26-3.66L307.07,283.03z"/>
					<polygon class="st7" points="325.57,272.35 325.57,310.84 310.43,319.61 310.43,281.08 					"/>
					<path class="st9" d="M327.76,266.86l-31.74,18.32c0.22-0.99,0.52-1.94,0.82-2.92l28.73-16.6L327.76,266.86z"/>
				</g>
				<polygon class="st17" points="332.66,316.23 294.99,337.99 294.99,347.24 340.66,320.83 				"/>
				<path class="st10" d="M340.66,267.16v53.67h-15.96v-7.01l-2.41-1.08v-35.82l-11.87,6.92v-2.75l13.63-7.87v-4.3l-2.19-1.12
					c0,0,0.56-6.75-5.63-6.54c-4.77,0.13-10.71,5.33-15.31,11.35c4.13-7.74,10.19-14.58,16.9-18.45c1.68-0.99,3.31-1.72,4.86-2.19
					c0.47-0.17,0.95-0.3,1.42-0.43c1.94-0.47,3.74-0.6,5.42-0.43C336.19,251.81,340.66,257.57,340.66,267.16z"/>
				<path class="st10" d="M305.01,322.72v-36.04l-9.98,6.06c0-0.95,0.09-1.89,0.22-2.84l11.83-6.88v38.49l2.19,1.2H305.01z"/>
			</g>
			<g>
				<g>
					<polygon class="st16" points="400.8,129.55 400.8,182.79 376.5,196.81 376.5,143.62 395.73,132.48 					"/>
				</g>
				<g>
					<polygon class="st6" points="395.73,132.48 395.73,179.7 376.5,190.79 376.5,143.62 					"/>
					<polygon class="st7" points="394.18,134.03 394.18,177.63 376.5,187.83 376.5,144.26 391.99,135.32 					"/>
					<polygon class="st8" points="394.18,134.04 394.18,177.63 391.99,176.43 391.99,135.33 					"/>
					<polygon class="st6" points="394.18,160.47 394.18,162.02 391.99,163.31 376.5,172.26 376.5,170.67 391.99,161.72 					"/>
					<polygon class="st9" points="394.18,160.47 391.99,161.72 376.5,170.67 376.5,168.22 391.99,159.27 					"/>
					<polygon class="st9" points="394.18,177.63 376.5,187.83 376.5,185.38 391.99,176.43 					"/>
				</g>
				<polygon class="st14" points="400.82,129.55 400.82,182.78 379.96,194.82 379.96,190.99 397.46,180.84 397.46,131.49 				"/>
				<polygon class="st17" points="400.82,182.78 376.48,196.83 376.48,193 397.46,180.84 				"/>
				<g>
					<polygon class="st10" points="400.82,182.78 397.46,180.84 397.78,131.17 376.5,143.62 376.5,147.64 389.9,139.99 
						389.9,160.47 394.18,160.47 391.99,159.27 391.99,138.8 394.62,137.29 394.62,182.78 					"/>
					<polygon class="st10" points="391.99,163.31 389.91,164.52 389.91,177.63 394.18,177.63 391.99,176.43 					"/>
				</g>
			</g>
			<g>
				<g>
					<polygon class="st16" points="360.05,153.08 360.05,206.33 335.75,220.35 335.75,167.15 354.97,156.01 					"/>
				</g>
				<g>
					<polygon class="st6" points="354.97,156.01 354.97,203.23 335.75,214.33 335.75,167.15 					"/>
					<polygon class="st7" points="353.42,157.56 353.42,201.17 335.75,211.36 335.75,167.79 351.23,158.85 					"/>
					<polygon class="st8" points="353.43,157.57 353.43,201.16 351.23,199.96 351.23,158.86 					"/>
					<polygon class="st6" points="353.42,184.01 353.42,185.55 351.23,186.84 335.75,195.79 335.75,194.2 351.23,185.25 					"/>
					<polygon class="st9" points="353.42,184.01 351.23,185.25 335.75,194.2 335.75,191.75 351.23,182.8 					"/>
					<polygon class="st9" points="353.42,201.17 335.75,211.36 335.75,208.91 351.23,199.96 					"/>
				</g>
				<polygon class="st14" points="360.06,153.08 360.06,206.31 339.2,218.35 339.2,214.52 356.71,204.37 356.71,155.02 				"/>
				<polygon class="st17" points="360.06,206.31 335.73,220.36 335.73,216.53 356.71,204.37 				"/>
				<g>
					<polygon class="st10" points="360.06,206.31 356.71,204.37 357.02,154.7 335.75,167.15 335.75,171.17 349.14,163.52 
						349.14,184.01 353.42,184.01 351.23,182.8 351.23,162.33 353.86,160.82 353.86,206.31 					"/>
					<polygon class="st10" points="351.23,186.84 349.15,188.05 349.15,201.17 353.42,201.17 351.23,199.96 					"/>
				</g>
			</g>
			<g>
				<g>
					<polygon class="st16" points="319.29,176.61 319.29,229.86 294.99,243.88 294.99,190.68 314.21,179.54 					"/>
				</g>
				<g>
					<polygon class="st6" points="314.21,179.54 314.21,226.76 294.99,237.86 294.99,190.68 					"/>
					<polygon class="st7" points="312.67,181.09 312.67,224.7 294.99,234.89 294.99,191.32 310.47,182.38 					"/>
					<polygon class="st8" points="312.67,181.1 312.67,224.69 310.48,223.49 310.48,182.4 					"/>
					<polygon class="st6" points="312.67,207.54 312.67,209.08 310.47,210.37 294.99,219.32 294.99,217.73 310.47,208.78 					"/>
					<polygon class="st9" points="312.67,207.54 310.47,208.78 294.99,217.73 294.99,215.28 310.47,206.33 					"/>
					<polygon class="st9" points="312.67,224.7 294.99,234.89 294.99,232.44 310.47,223.49 					"/>
				</g>
				<polygon class="st14" points="319.31,176.61 319.31,229.84 298.45,241.88 298.45,238.05 315.95,227.9 315.95,178.55 				"/>
				<polygon class="st17" points="319.31,229.84 294.97,243.89 294.97,240.06 315.95,227.9 				"/>
				<g>
					<polygon class="st10" points="319.31,229.84 315.95,227.9 316.27,178.23 294.99,190.68 294.99,194.7 308.39,187.05 
						308.39,207.54 312.67,207.54 310.48,206.33 310.48,185.86 313.11,184.35 313.11,229.84 					"/>
					<polygon class="st10" points="310.47,210.37 308.4,211.58 308.4,224.7 312.67,224.7 310.47,223.49 					"/>
				</g>
			</g>
			<path class="st10" d="M371.94,369.83v50.15h-13.42v-9.16l-2.58-0.99v-33.16l-10.75,5.94v-2.88l11.78-6.84v-2.28l-2.24-0.99
				c0,0,0-3.53-6.84-1.76c-5.46,1.42-11.44,5.33-15.1,11.1c0.73-1.59,1.59-3.35,2.49-5.16c1.12-1.51,2.37-2.84,3.74-3.96
				c7.44-6.15,15.14-10.58,22.62-13.03c0.95-0.3,1.85-0.47,2.71-0.47c2.24,0,4.09,1.08,5.2,3.05
				C371.13,362.17,371.94,365.74,371.94,369.83z"/>
			<g>
				<polygon class="st5" points="305.4,400.41 305.4,455.58 284.55,467.63 284.55,463.8 302.05,453.65 302.05,402.34 				"/>
				<polygon class="st3" points="305.4,455.58 284.55,467.63 284.55,463.8 302.05,453.65 				"/>
				<g>
					<polygon class="st6" points="302.05,402.34 302.05,453.65 284.55,463.75 284.55,412.45 297.75,404.84 299.94,403.55 					"/>
					<polygon class="st7" points="299.94,403.55 299.94,445.65 284.55,454.55 284.55,412.45 297.75,404.84 					"/>
					<polygon class="st8" points="299.94,403.55 299.94,445.65 297.75,444.45 297.75,404.84 					"/>
					<polygon class="st10" points="305.4,455.58 298.71,455.58 298.71,446.36 299.94,445.65 295.67,445.65 295.67,412.61 
						284.55,418.83 284.55,412.45 297.74,404.83 297.75,444.45 299.94,445.65 299.95,403.56 302.05,402.34 302.05,453.65 					"/>
					<polygon class="st9" points="299.94,445.65 284.55,454.55 284.55,452.1 297.75,444.45 					"/>
				</g>
				<g>
					<polygon class="st5" points="285.6,406.07 285.6,413.07 284.53,412.45 284.53,405.45 					"/>
					<polygon class="st2" points="284.53,405.45 282.87,408.61 282.87,415.39 284.55,414.13 					"/>
					<polygon class="st3" points="284.53,405.45 305.41,393.4 306.48,394.02 285.6,406.07 					"/>
					<polygon class="st11" points="285.6,406.07 306.48,394.02 306.48,401.01 285.6,413.07 					"/>
				</g>
			</g>
			<g>
				<polygon class="st3" points="167.11,103.75 274.33,165.66 429.52,76.06 322.29,14.15 				"/>
				<polygon class="st11" points="184.31,103.75 322.29,24.09 412.32,76.06 274.33,155.73 				"/>
				<polygon class="st1" points="197.91,111.61 274.34,155.73 398.72,83.91 322.29,39.79 				"/>
				<polygon class="st5" points="322.29,24.09 322.29,39.79 398.72,83.91 412.32,76.06 				"/>
				<polygon class="st18" points="265.76,150.78 389.87,78.8 412.32,76.06 274.34,155.73 				"/>
			</g>
		</g>
		<g>
			<polygon class="st12" points="304.46,246.34 304.46,252.09 316.31,245.25 316.31,239.5 			"/>
			<polygon class="st2" points="303.99,246.07 303.22,247.03 303.22,253.65 315.23,246.6 315.83,245.53 304.46,252.09 
				303.99,251.81 			"/>
			<polygon class="st17" points="303.99,246.07 304.46,246.34 316.31,239.5 315.83,239.23 			"/>
			<polygon class="st19" points="303.99,251.81 303.99,246.07 304.46,246.34 304.46,252.09 			"/>
		</g>
		<g>
			<polygon class="st12" points="297.43,257.88 297.43,263.62 309.28,256.78 309.28,251.04 			"/>
			<polygon class="st2" points="296.96,257.6 296.19,258.56 296.19,265.19 308.2,258.13 308.8,257.06 297.43,263.62 296.96,263.35 
							"/>
			<polygon class="st17" points="296.96,257.6 297.43,257.88 309.28,251.04 308.8,250.76 			"/>
			<polygon class="st19" points="296.96,263.35 296.96,257.6 297.43,257.88 297.43,263.62 			"/>
		</g>
		<g>
			<polygon class="st12" points="412.05,284.26 412.05,290.01 423.9,283.17 423.9,277.42 			"/>
			<polygon class="st2" points="411.58,283.99 410.81,284.94 410.81,291.57 422.82,284.52 423.42,283.45 412.05,290.01 
				411.58,289.73 			"/>
			<polygon class="st17" points="411.58,283.99 412.05,284.26 423.9,277.42 423.42,277.15 			"/>
			<polygon class="st19" points="411.58,289.73 411.58,283.99 412.05,284.26 412.05,290.01 			"/>
		</g>
		<g>
			<polygon class="st12" points="405.02,280.72 405.02,286.47 416.86,279.63 416.86,273.88 			"/>
			<polygon class="st2" points="404.54,280.44 403.78,281.4 403.78,288.03 415.79,280.98 416.39,279.91 405.02,286.47 
				404.54,286.19 			"/>
			<polygon class="st17" points="404.54,280.44 405.02,280.72 416.86,273.88 416.39,273.61 			"/>
			<polygon class="st19" points="404.54,286.19 404.54,280.44 405.02,280.72 405.02,286.47 			"/>
		</g>
		<g>
			<polygon class="st12" points="274.92,303.66 274.92,309.41 286.77,302.57 286.77,296.82 			"/>
			<polygon class="st2" points="274.45,303.38 273.68,304.34 273.68,310.97 285.69,303.92 286.29,302.84 274.92,309.41 
				274.45,309.13 			"/>
			<polygon class="st17" points="274.45,303.38 274.92,303.66 286.77,296.82 286.29,296.55 			"/>
			<polygon class="st19" points="274.45,309.13 274.45,303.38 274.92,303.66 274.92,309.41 			"/>
		</g>
		<g>
			<polygon class="st12" points="277.76,294.48 277.76,300.23 289.6,293.39 289.6,287.65 			"/>
			<polygon class="st2" points="277.28,294.21 276.51,295.17 276.51,301.79 288.52,294.74 289.12,293.67 277.76,300.23 
				277.28,299.96 			"/>
			<polygon class="st17" points="277.28,294.21 277.76,294.48 289.6,287.65 289.12,287.37 			"/>
			<polygon class="st19" points="277.28,299.96 277.28,294.21 277.76,294.48 277.76,300.23 			"/>
		</g>
		<g>
			<polygon class="st12" points="384.31,205.3 384.31,211.04 396.16,204.21 396.16,198.46 			"/>
			<polygon class="st2" points="383.84,205.02 383.07,205.98 383.07,212.61 395.08,205.56 395.68,204.48 384.31,211.04 
				383.84,210.77 			"/>
			<polygon class="st17" points="383.84,205.02 384.31,205.3 396.16,198.46 395.68,198.18 			"/>
			<polygon class="st19" points="383.84,210.77 383.84,205.02 384.31,205.3 384.31,211.04 			"/>
		</g>
		<g>
			<polygon class="st12" points="413.16,214.62 413.16,220.36 425.01,213.53 425.01,207.78 			"/>
			<polygon class="st2" points="412.69,214.34 411.92,215.3 411.92,221.93 423.93,214.87 424.53,213.8 413.16,220.36 412.69,220.09 
							"/>
			<polygon class="st17" points="412.69,214.34 413.16,214.62 425.01,207.78 424.53,207.5 			"/>
			<polygon class="st19" points="412.69,220.09 412.69,214.34 413.16,214.62 413.16,220.36 			"/>
		</g>
		<g>
			<polygon class="st12" points="407.87,210.04 407.87,215.79 419.71,208.95 419.71,203.2 			"/>
			<polygon class="st2" points="407.39,209.77 406.62,210.73 406.62,217.35 418.63,210.3 419.23,209.23 407.87,215.79 
				407.39,215.51 			"/>
			<polygon class="st17" points="407.39,209.77 407.87,210.04 419.71,203.2 419.23,202.93 			"/>
			<polygon class="st19" points="407.39,215.51 407.39,209.77 407.87,210.04 407.87,215.79 			"/>
		</g>
		<g>
			<polygon class="st12" points="370.74,213.12 370.74,218.86 382.58,212.03 382.58,206.28 			"/>
			<polygon class="st2" points="370.26,212.84 369.49,213.8 369.49,220.43 381.5,213.38 382.1,212.3 370.74,218.86 370.26,218.59 
							"/>
			<polygon class="st17" points="370.26,212.84 370.74,213.12 382.58,206.28 382.1,206 			"/>
			<polygon class="st19" points="370.26,218.59 370.26,212.84 370.74,213.12 370.74,218.86 			"/>
		</g>
		<g>
			<polygon class="st12" points="377.28,201.76 377.28,207.5 389.13,200.67 389.13,194.92 			"/>
			<polygon class="st2" points="376.81,201.48 376.04,202.44 376.04,209.07 388.05,202.02 388.65,200.94 377.28,207.5 
				376.81,207.23 			"/>
			<polygon class="st17" points="376.81,201.48 377.28,201.76 389.13,194.92 388.65,194.64 			"/>
			<polygon class="st19" points="376.81,207.23 376.81,201.48 377.28,201.76 377.28,207.5 			"/>
		</g>
		<g>
			<polygon class="st12" points="310.53,342.34 310.53,348.08 322.37,341.24 322.37,335.5 			"/>
			<polygon class="st2" points="310.05,342.06 309.28,343.02 309.28,349.65 321.3,342.59 321.89,341.52 310.53,348.08 
				310.05,347.81 			"/>
			<polygon class="st17" points="310.05,342.06 310.53,342.34 322.37,335.5 321.9,335.22 			"/>
			<polygon class="st19" points="310.05,347.81 310.05,342.06 310.53,342.34 310.53,348.08 			"/>
		</g>
		<g>
			<polygon class="st12" points="272.49,206.23 272.49,211.98 284.33,205.14 284.33,199.4 			"/>
			<polygon class="st2" points="272.01,205.96 271.24,206.92 271.24,213.54 283.26,206.49 283.85,205.42 272.49,211.98 
				272.01,211.7 			"/>
			<polygon class="st17" points="272.01,205.96 272.49,206.23 284.33,199.4 283.86,199.12 			"/>
			<polygon class="st19" points="272.01,211.7 272.01,205.96 272.49,206.23 272.49,211.98 			"/>
		</g>
		<g>
			<polygon class="st12" points="410.08,116.45 410.08,122.2 421.92,115.36 421.92,109.62 			"/>
			<polygon class="st2" points="409.6,116.18 408.83,117.14 408.83,123.77 420.84,116.71 421.44,115.64 410.08,122.2 409.6,121.93 
							"/>
			<polygon class="st17" points="409.6,116.18 410.08,116.45 421.92,109.62 421.44,109.34 			"/>
			<polygon class="st19" points="409.6,121.93 409.6,116.18 410.08,116.45 410.08,122.2 			"/>
		</g>
		<g>
			<polygon class="st1" points="412.5,319.51 412.5,325.26 424.34,318.42 424.34,312.67 			"/>
			<polygon class="st13" points="412.02,319.24 411.25,320.2 411.25,326.82 423.27,319.77 423.86,318.7 412.5,325.26 412.02,324.98 
							"/>
			<polygon class="st3" points="412.02,319.24 412.5,319.51 424.34,312.67 423.86,312.4 			"/>
			<polygon class="st5" points="412.02,324.98 412.02,319.24 412.5,319.51 412.5,325.26 			"/>
		</g>
		<g>
			<polygon class="st1" points="370.57,342.33 370.57,348.08 382.41,341.24 382.41,335.49 			"/>
			<polygon class="st13" points="370.09,342.06 369.32,343.02 369.32,349.64 381.33,342.59 381.93,341.52 370.57,348.08 
				370.09,347.8 			"/>
			<polygon class="st3" points="370.09,342.06 370.57,342.33 382.41,335.49 381.93,335.22 			"/>
			<polygon class="st5" points="370.09,347.8 370.09,342.06 370.57,342.33 370.57,348.08 			"/>
		</g>
		<g>
			<polygon class="st1" points="271.57,461.23 271.57,466.97 283.41,460.14 283.41,454.39 			"/>
			<polygon class="st13" points="271.09,460.95 270.32,461.91 270.32,468.54 282.33,461.48 282.93,460.41 271.57,466.97 
				271.09,466.7 			"/>
			<polygon class="st3" points="271.09,460.95 271.57,461.23 283.41,454.39 282.93,454.11 			"/>
			<polygon class="st5" points="271.09,466.7 271.09,460.95 271.57,461.23 271.57,466.97 			"/>
		</g>
		<g>
			<polygon class="st1" points="308.5,390.79 308.5,396.54 320.34,389.7 320.34,383.95 			"/>
			<polygon class="st13" points="308.02,390.52 307.25,391.48 307.25,398.1 319.26,391.05 319.86,389.98 308.5,396.54 
				308.02,396.26 			"/>
			<polygon class="st3" points="308.02,390.52 308.5,390.79 320.34,383.95 319.86,383.68 			"/>
			<polygon class="st5" points="308.02,396.26 308.02,390.52 308.5,390.79 308.5,396.54 			"/>
		</g>
		<g>
			<polygon class="st1" points="312.26,381.95 312.26,387.7 324.1,380.86 324.1,375.12 			"/>
			<polygon class="st13" points="311.78,381.68 311.01,382.64 311.01,389.27 323.02,382.21 323.62,381.14 312.26,387.7 
				311.78,387.43 			"/>
			<polygon class="st3" points="311.78,381.68 312.26,381.95 324.1,375.12 323.62,374.84 			"/>
			<polygon class="st5" points="311.78,387.43 311.78,381.68 312.26,381.95 312.26,387.7 			"/>
		</g>
		<g>
			<polygon class="st1" points="376.63,345.74 376.63,351.48 388.48,344.65 388.48,338.9 			"/>
			<polygon class="st13" points="376.16,345.46 375.39,346.42 375.39,353.05 387.4,345.99 388,344.92 376.63,351.48 376.16,351.21 
							"/>
			<polygon class="st3" points="376.16,345.46 376.63,345.74 388.48,338.9 388,338.62 			"/>
			<polygon class="st5" points="376.16,351.21 376.16,345.46 376.63,345.74 376.63,351.48 			"/>
		</g>
		<g>
			<polygon class="st20" points="266.26,382.21 266.26,387.96 254.42,381.12 254.42,375.37 			"/>
			<polygon class="st21" points="266.74,381.93 266.26,382.21 254.42,375.37 254.89,375.1 			"/>
			<polygon class="st22" points="266.74,387.68 266.74,381.93 266.26,382.21 266.26,387.96 			"/>
		</g>
		<g>
			<polygon class="st20" points="182.94,404.23 182.94,409.97 171.09,403.14 171.09,397.39 			"/>
			<polygon class="st21" points="183.41,403.95 182.94,404.23 171.09,397.39 171.57,397.11 			"/>
			<polygon class="st22" points="183.41,409.7 183.41,403.95 182.94,404.23 182.94,409.97 			"/>
		</g>
		<g>
			<polygon class="st20" points="188.62,400.73 188.62,406.48 176.78,399.64 176.78,393.89 			"/>
			<polygon class="st21" points="189.1,400.46 188.62,400.73 176.78,393.89 177.25,393.62 			"/>
			<polygon class="st22" points="189.1,406.2 189.1,400.46 188.62,400.73 188.62,406.48 			"/>
		</g>
		<g>
			<polygon class="st20" points="251.69,447.62 251.69,453.37 239.85,446.53 239.85,440.78 			"/>
			<polygon class="st21" points="252.17,447.35 251.69,447.62 239.85,440.78 240.32,440.51 			"/>
			<polygon class="st22" points="252.17,453.09 252.17,447.35 251.69,447.62 251.69,453.37 			"/>
		</g>
		<g>
			<polygon class="st20" points="190.26,344.69 190.26,350.44 178.42,343.6 178.42,337.85 			"/>
			<polygon class="st21" points="190.74,344.42 190.26,344.69 178.42,337.85 178.9,337.58 			"/>
			<polygon class="st22" points="190.74,350.16 190.74,344.42 190.26,344.69 190.26,350.44 			"/>
		</g>
		<g>
			<polygon class="st20" points="234.34,390.95 234.34,396.7 222.49,389.86 222.49,384.11 			"/>
			<polygon class="st21" points="234.81,390.67 234.34,390.95 222.49,384.11 222.97,383.84 			"/>
			<polygon class="st22" points="234.81,396.42 234.81,390.67 234.34,390.95 234.34,396.7 			"/>
		</g>
		<g>
			<polygon class="st20" points="240.02,400.87 240.02,406.62 228.18,399.78 228.18,394.03 			"/>
			<polygon class="st21" points="240.5,400.59 240.02,400.87 228.18,394.03 228.65,393.76 			"/>
			<polygon class="st22" points="240.5,406.34 240.5,400.59 240.02,400.87 240.02,406.62 			"/>
		</g>
		<g>
			<polygon class="st20" points="245.53,450.69 245.53,456.44 233.69,449.6 233.69,443.85 			"/>
			<polygon class="st21" points="246.01,450.42 245.53,450.69 233.69,443.85 234.16,443.58 			"/>
			<polygon class="st22" points="246.01,456.16 246.01,450.42 245.53,450.69 245.53,456.44 			"/>
		</g>
		<g>
			<polygon class="st20" points="258.3,458.1 258.3,463.85 246.45,457.01 246.45,451.26 			"/>
			<polygon class="st21" points="258.77,457.82 258.3,458.1 246.45,451.26 246.93,450.99 			"/>
			<polygon class="st22" points="258.77,463.57 258.77,457.82 258.3,458.1 258.3,463.85 			"/>
		</g>
		<g>
			<polygon class="st23" points="246.66,341.83 246.66,347.58 234.81,340.74 234.81,335 			"/>
			<polygon class="st19" points="247.13,341.56 246.66,341.83 234.81,335 235.29,334.72 			"/>
			<polygon class="st24" points="247.13,347.31 247.13,341.56 246.66,341.83 246.66,347.58 			"/>
		</g>
		<g>
			<polygon class="st23" points="251.94,337.99 251.94,343.73 240.1,336.9 240.1,331.15 			"/>
			<polygon class="st19" points="252.42,337.71 251.94,337.99 240.1,331.15 240.58,330.87 			"/>
			<polygon class="st24" points="252.42,343.46 252.42,337.71 251.94,337.99 251.94,343.73 			"/>
		</g>
		<g>
			<polygon class="st23" points="181.03,311.65 181.03,317.4 169.18,310.56 169.18,304.81 			"/>
			<polygon class="st19" points="181.5,311.38 181.03,311.65 169.18,304.81 169.66,304.54 			"/>
			<polygon class="st24" points="181.5,317.12 181.5,311.38 181.03,311.65 181.03,317.4 			"/>
		</g>
		<g>
			<polygon class="st23" points="255.86,273.03 255.86,278.78 244.01,271.94 244.01,266.19 			"/>
			<polygon class="st19" points="256.33,272.75 255.86,273.03 244.01,266.19 244.49,265.92 			"/>
			<polygon class="st24" points="256.33,278.5 256.33,272.75 255.86,273.03 255.86,278.78 			"/>
		</g>
		<g>
			<polygon class="st23" points="249.3,262.38 249.3,268.13 237.46,261.29 237.46,255.54 			"/>
			<polygon class="st19" points="249.78,262.11 249.3,262.38 237.46,255.54 237.93,255.27 			"/>
			<polygon class="st24" points="249.78,267.85 249.78,262.11 249.3,262.38 249.3,268.13 			"/>
		</g>
		<g>
			<polygon class="st23" points="194.39,211.03 194.39,216.78 182.55,209.94 182.55,204.19 			"/>
			<polygon class="st19" points="194.87,210.75 194.39,211.03 182.55,204.19 183.03,203.92 			"/>
			<polygon class="st24" points="194.87,216.5 194.87,210.75 194.39,211.03 194.39,216.78 			"/>
		</g>
		<g>
			<polygon class="st23" points="187.84,200.38 187.84,206.13 175.99,199.29 175.99,193.54 			"/>
			<polygon class="st19" points="188.31,200.11 187.84,200.38 175.99,193.54 176.47,193.27 			"/>
			<polygon class="st24" points="188.31,205.85 188.31,200.11 187.84,200.38 187.84,206.13 			"/>
		</g>
		<g>
			<polygon class="st23" points="200.55,207.63 200.55,213.38 188.71,206.54 188.71,200.79 			"/>
			<polygon class="st19" points="201.03,207.36 200.55,207.63 188.71,200.79 189.19,200.52 			"/>
			<polygon class="st24" points="201.03,213.1 201.03,207.36 200.55,207.63 200.55,213.38 			"/>
		</g>
		<g>
			<polygon class="st23" points="216.65,182.81 216.65,188.56 204.8,181.72 204.8,175.97 			"/>
			<polygon class="st19" points="217.13,182.54 216.65,182.81 204.8,175.97 205.28,175.7 			"/>
			<polygon class="st24" points="217.13,188.28 217.13,182.54 216.65,182.81 216.65,188.56 			"/>
		</g>
		<g>
			<polygon class="st23" points="265.29,191.08 265.29,196.82 253.44,189.99 253.44,184.24 			"/>
			<polygon class="st19" points="265.76,190.8 265.29,191.08 253.44,184.24 253.92,183.96 			"/>
			<polygon class="st24" points="265.76,196.55 265.76,190.8 265.29,191.08 265.29,196.82 			"/>
		</g>
		<g>
			<polygon class="st23" points="260.48,195.1 260.48,200.85 248.63,194.01 248.63,188.27 			"/>
			<polygon class="st19" points="260.95,194.83 260.48,195.1 248.63,188.27 249.11,187.99 			"/>
			<polygon class="st24" points="260.95,200.58 260.95,194.83 260.48,195.1 260.48,200.85 			"/>
		</g>
		<g>
			<polygon class="st23" points="206.24,273.97 206.24,279.72 194.39,272.88 194.39,267.14 			"/>
			<polygon class="st19" points="206.71,273.7 206.24,273.97 194.39,267.14 194.87,266.86 			"/>
			<polygon class="st24" points="206.71,279.44 206.71,273.7 206.24,273.97 206.24,279.72 			"/>
		</g>
	</g>
	<path class="st10" d="M278.96,346.68c0,6.85-2.61,17.51-5.79,23.83c-1.06,2.03-2.03,3.33-2.85,3.91v-26.68
		c0.34-0.87,0.72-1.69,1.11-2.46c0.34-0.68,0.68-1.25,1.01-1.79v-10.52l-0.05,0.05c-0.19-0.05-0.29-0.19-0.43-0.39l-0.58,0.48
		l0.39-1.06c-0.05-0.39-0.1-0.87,0-1.4c0.19-1.21,0.77-2.12,1.3-2.03c0.05,0,0.1,0.05,0.14,0.1l4.34-8.49
		c0.43-0.63,0.97,0.29,0.29,1.64l-4.15,8.15c0,0.29,0,0.63-0.05,0.97c-0.1,0.72-0.39,1.35-0.68,1.69v10.04
		c0.96-1.25,1.79-1.93,2.46-1.93c0.1,0,0.14,0.05,0.24,0.05l1.45,0.39v0.05C278.23,341.27,278.96,343.06,278.96,346.68z"/>
	<g id="XMLID_749_">
		<path id="XMLID_753_" class="st25" d="M300.63,358.21c0-6.86-4.84-15.21-10.82-18.66c-3.08-1.78-5.86-1.89-7.83-0.66l0,0
			l-2.7,1.66l1.82,3.32c-0.01,0.22-0.03,0.44-0.03,0.67c0,6.76,4.71,14.96,10.57,18.5l2.3,4.19l3.19-1.92
			c0.25-0.12,0.5-0.27,0.73-0.43l0.15-0.09l0-0.01C299.64,363.55,300.63,361.3,300.63,358.21z"/>
		<polygon id="XMLID_2584_" class="st26" points="287.94,339.7 286.95,340.27 286.95,326.54 287.94,325.96 		"/>
		<path id="XMLID_750_" class="st26" d="M277.87,321.9l9.57,5.46v-2.22l-9.03-5.15C277.62,319.73,276.69,321.1,277.87,321.9z"/>
		<path id="XMLID_2570_" class="st26" d="M289.2,325.24c0.34,1.05-0.16,2.35-1.13,2.91c-0.97,0.56-2.03,0.16-2.38-0.89
			c-0.34-1.05,0.16-2.35,1.13-2.91C287.79,323.79,288.85,324.19,289.2,325.24z"/>
		<path id="XMLID_3814_" class="st27" d="M289.14,325.63c0.24,0.63-0.09,1.44-0.72,1.81c-0.64,0.37-1.34,0.15-1.58-0.48
			c-0.24-0.63,0.09-1.44,0.72-1.81C288.2,324.79,288.9,325,289.14,325.63z"/>
		<polygon id="XMLID_754_" class="st26" points="287.44,327.43 289.96,327.36 287.44,325.21 		"/>
		<path id="XMLID_751_" class="st28" d="M275.83,347.64c0,6.86,4.84,15.21,10.82,18.66c5.97,3.45,10.82,0.69,10.82-6.17
			c0-6.86-4.84-15.21-10.82-18.66C280.67,338.02,275.83,340.78,275.83,347.64z"/>
	</g>
	<g>
		<g>
			<polygon class="st29" points="353.18,90.95 342.69,90.95 295.05,63.45 325.37,45.94 377.78,76.73 			"/>
			<g>
				<g>
					<g>
						<polygon class="st30" points="353.18,63.62 308.86,38.03 308.86,31.15 353.18,56.74 						"/>
						<polygon class="st5" points="353.18,56.74 308.86,31.15 308.86,28.22 353.18,53.81 						"/>
						<polygon class="st31" points="353.18,53.81 308.86,28.22 333.45,14 377.78,39.59 						"/>
						<polygon class="st5" points="353.18,63.62 353.18,90.95 351.15,89.77 351.15,87.48 310.89,64.23 310.89,66.53 308.85,65.35 
							308.85,38.02 						"/>
						<polygon class="st6" points="351.15,64.37 310.89,41.12 310.89,43.53 351.15,66.78 						"/>
						<polygon class="st6" points="351.15,68.22 310.89,44.97 310.89,47.38 351.15,70.63 						"/>
						<polygon class="st6" points="351.15,72.07 310.89,48.82 310.89,51.23 351.15,74.48 						"/>
						<polygon class="st6" points="351.15,75.92 310.89,52.68 310.89,55.08 351.15,78.33 						"/>
						<polygon class="st6" points="351.15,79.77 310.89,56.53 310.89,58.93 351.15,82.18 						"/>
						<polygon class="st6" points="351.15,83.62 310.89,60.38 310.89,62.78 351.15,86.03 						"/>
					</g>
				</g>
				<g>
					<g>
						<polygon class="st32" points="353.18,63.62 377.78,49.4 377.78,42.52 353.18,56.74 						"/>
						<polygon class="st33" points="353.18,57.69 377.78,43.47 377.78,42.52 353.18,56.74 						"/>
						<polygon class="st34" points="353.18,56.74 377.78,42.52 377.78,39.59 353.18,53.81 						"/>
						<polygon class="st11" points="377.78,49.4 377.78,76.73 375.75,77.9 375.75,75.6 355.21,87.48 355.21,89.77 353.18,90.95 
							353.18,63.62 						"/>
						<polygon class="st6" points="355.21,64.37 375.75,52.49 375.75,54.9 355.21,66.78 						"/>
						<polygon class="st35" points="355.21,66.78 375.75,54.9 374.62,54.25 355.21,65.47 						"/>
						<polygon class="st6" points="355.21,68.22 375.75,56.34 375.75,58.75 355.21,70.63 						"/>
						<polygon class="st35" points="355.21,70.63 375.75,58.75 374.62,58.1 355.21,69.32 						"/>
						<polygon class="st6" points="355.21,72.07 375.75,60.2 375.75,62.6 355.21,74.48 						"/>
						<polygon class="st35" points="355.21,74.48 375.75,62.6 374.62,61.95 355.21,73.17 						"/>
						<polygon class="st6" points="355.21,75.92 375.75,64.05 375.75,66.45 355.21,78.33 						"/>
						<polygon class="st35" points="355.21,78.33 375.75,66.45 374.62,65.8 355.21,77.03 						"/>
						<polygon class="st6" points="355.21,79.77 375.75,67.9 375.75,70.3 355.21,82.18 						"/>
						<polygon class="st35" points="355.21,82.18 375.75,70.3 374.62,69.65 355.21,80.88 						"/>
						<polygon class="st6" points="355.21,83.62 375.75,71.75 375.75,74.15 355.21,86.03 						"/>
						<polygon class="st35" points="355.21,86.03 375.75,74.15 374.62,73.5 355.21,84.73 						"/>
						<polygon class="st5" points="375.75,75.6 375.75,77.9 374.62,77.25 374.62,76.25 						"/>
						<polygon class="st5" points="375.75,71.75 375.75,74.15 374.62,73.5 374.62,72.4 						"/>
						<polygon class="st5" points="375.75,67.9 375.75,70.3 374.62,69.65 374.62,68.55 						"/>
						<polygon class="st5" points="375.75,64.05 375.75,66.45 374.62,65.8 374.62,64.7 						"/>
						<polygon class="st5" points="375.75,60.2 375.75,62.6 374.62,61.95 374.62,60.85 						"/>
						<polygon class="st5" points="375.75,56.34 375.75,58.75 374.62,58.1 374.62,57 						"/>
						<polygon class="st5" points="375.75,52.49 375.75,54.9 374.62,54.25 374.62,53.15 						"/>
					</g>
				</g>
				<polygon class="st35" points="351.15,66.78 310.89,43.53 312.01,42.88 351.15,65.47 				"/>
				<polygon class="st35" points="351.15,70.63 310.89,47.38 312.01,46.73 351.15,69.32 				"/>
				<polygon class="st35" points="351.15,74.48 310.89,51.23 312.01,50.58 351.15,73.17 				"/>
				<polygon class="st35" points="351.15,78.33 310.89,55.08 312.01,54.43 351.15,77.03 				"/>
				<polygon class="st35" points="351.15,82.18 310.89,58.93 312.01,58.28 351.15,80.88 				"/>
				<polygon class="st35" points="351.15,86.03 310.89,62.78 312.01,62.13 351.15,84.73 				"/>
				<g>
					<polygon class="st36" points="310.89,64.23 310.89,66.53 312.01,65.88 312.01,64.88 					"/>
					<polygon class="st36" points="310.89,60.38 310.89,62.78 312.01,62.13 312.01,61.03 					"/>
					<polygon class="st36" points="310.89,56.53 310.89,58.93 312.01,58.28 312.01,57.18 					"/>
					<polygon class="st36" points="310.89,52.68 310.89,55.08 312.01,54.43 312.01,53.33 					"/>
					<polygon class="st36" points="310.89,48.82 310.89,51.23 312.01,50.58 312.01,49.48 					"/>
					<polygon class="st36" points="310.89,44.97 310.89,47.38 312.01,46.73 312.01,45.63 					"/>
					<polygon class="st36" points="310.89,41.12 310.89,43.53 312.01,42.88 312.01,41.78 					"/>
				</g>
				<g>
					<polygon class="st36" points="331.61,76.19 331.61,78.49 332.74,77.84 332.74,76.85 					"/>
					<polygon class="st36" points="331.61,72.34 331.61,74.75 332.74,74.1 332.74,72.99 					"/>
					<polygon class="st36" points="331.61,68.49 331.61,70.9 332.74,70.25 332.74,69.14 					"/>
					<polygon class="st36" points="331.61,64.64 331.61,67.05 332.74,66.4 332.74,65.29 					"/>
					<polygon class="st36" points="331.61,60.79 331.61,63.2 332.74,62.55 332.74,61.44 					"/>
					<polygon class="st36" points="331.61,56.94 331.61,59.35 332.74,58.7 332.74,57.59 					"/>
					<polygon class="st36" points="331.61,53.09 331.61,55.5 332.74,54.84 332.74,53.74 					"/>
				</g>
				<g>
					<polygon class="st36" points="331.61,76.19 331.61,78.49 332.74,77.84 332.74,76.85 					"/>
					<polygon class="st36" points="331.61,72.34 331.61,74.75 332.74,74.1 332.74,72.99 					"/>
					<polygon class="st36" points="331.61,68.49 331.61,70.9 332.74,70.25 332.74,69.14 					"/>
					<polygon class="st36" points="331.61,64.64 331.61,67.05 332.74,66.4 332.74,65.29 					"/>
					<polygon class="st36" points="331.61,60.79 331.61,63.2 332.74,62.55 332.74,61.44 					"/>
					<polygon class="st36" points="331.61,56.94 331.61,59.35 332.74,58.7 332.74,57.59 					"/>
					<polygon class="st36" points="331.61,53.09 331.61,55.5 332.74,54.84 332.74,53.74 					"/>
				</g>
				<polygon class="st5" points="331.61,78.49 330.42,77.81 330.42,52.4 331.61,53.09 				"/>
				<polygon class="st5" points="331.61,78.49 330.42,77.81 330.42,52.4 331.61,53.09 				"/>
			</g>
		</g>
		<g>
			<polygon class="st31" points="352.53,24.52 334.56,14.22 322.14,21.4 340.1,31.7 			"/>
			<polygon class="st34" points="340.1,31.7 352.53,24.52 352.53,30 340.1,37.18 			"/>
			<polygon class="st5" points="322.14,26.88 322.14,21.4 340.1,31.7 340.1,37.18 			"/>
			<polygon class="st18" points="340.1,37.18 331.94,37.18 313.64,27.03 322.14,22.35 322.14,26.88 			"/>
			<g>
				<g>
					<g>
						<path class="st34" d="M339.54,18.52c-2.83-1.63-7.4-1.64-10.21-0.02c-2.81,1.62-2.8,4.26,0.03,5.9
							c2.83,1.63,7.4,1.64,10.21,0.02C342.38,22.79,342.36,20.15,339.54,18.52z"/>
						<path class="st30" d="M339.18,18.72c-2.63-1.52-6.89-1.53-9.51-0.02c-2.62,1.51-2.6,3.97,0.03,5.49
							c2.63,1.52,6.89,1.53,9.51,0.02C341.83,22.7,341.82,20.24,339.18,18.72z"/>
						<path class="st11" d="M334.79,21.55c-0.82-0.47-0.16-0.47-0.97,0c-0.27,0.15-0.87-0.51-0.96-0.31
							c-0.04,0.08-0.5,1.18-0.51,1.27c-0.04,0.34,0.17,0.68,0.62,0.94c0.82,0.47,2.15,0.48,2.97,0.01c0.45-0.26,0.65-0.61,0.6-0.95
							c-0.01-0.1-0.46-1.17-0.51-1.26C335.93,21.06,335.03,21.69,334.79,21.55z"/>
						<g>
							<path class="st32" d="M333.75,22.76c-0.09,0.17-0.23,0.46-0.25,0.71l-1.84,1.25l-0.8,0c-0.36-0.13-0.7-0.28-1.02-0.46
								l3.86-1.49L333.75,22.76z"/>
							<path class="st32" d="M333.02,22.49c-0.02,0.05-0.33,0.2-0.5,0.34l-2.68,0.12l-2.1-1.2c0-0.01,0-0.02,0-0.03l5.25,0.61
								C333,22.37,333.03,22.46,333.02,22.49z"/>
							<path class="st32" d="M332.92,21.13l-0.11,0.37c0,0-0.03,0.24-0.09,0.28c-0.03,0.02-0.09,0.06-0.13,0.09l-1.86-0.91
								l-0.03-1.74L332.92,21.13z"/>
							<polygon class="st32" points="334.71,22.24 334.17,22.49 333.79,19.93 335.9,18.69 							"/>
							<polygon class="st32" points="340.26,20.44 336.31,21.96 336.15,21.9 336.03,21.49 335.99,21.3 337.24,20.45 							"/>
							<path class="st32" d="M340.56,23.09c-0.07,0.09-0.15,0.18-0.23,0.26l-4.41-0.51l-0.15-0.32l0.07-0.16l3.21-0.13L340.56,23.09
								z"/>
							<path class="st32" d="M338.17,24.7c-0.34,0.13-0.69,0.24-1.06,0.33l-1.85-1.59c0.1-0.14-0.13-0.71-0.13-0.71l0.07,0.03
								l2.96,1.45L338.17,24.7z"/>
							<path class="st32" d="M335.1,25.25l-0.14,0.08c-0.52,0.02-1.05,0.01-1.57-0.04l0.76-2.26l0.03-0.09l0.31-0.14l0.24-0.11
								l0.01,0.03l0.04,0.3L335.1,25.25z"/>
						</g>
						<path class="st34" d="M335.6,20.79c-0.64-0.37-1.67-0.37-2.31,0c-0.64,0.37-0.63,0.96,0.01,1.33c0.64,0.37,1.67,0.37,2.31,0
							C336.24,21.76,336.24,21.16,335.6,20.79z"/>
					</g>
				</g>
				<g>
					<path class="st37" d="M341.15,21.8c-0.03-1.02-0.71-2.03-2-2.78c-0.58-0.34-1.24-0.6-1.94-0.79c-0.08-0.02-0.17-0.04-0.25-0.07
						c-2.42-0.59-5.29-0.32-7.26,0.82c-0.49,0.28-0.88,0.6-1.19,0.94c-0.03,0.03-0.06,0.07-0.09,0.1c-0.03,0.03-0.05,0.06-0.08,0.09
						c-0.37,0.48-0.57,1-0.6,1.52c0.04,0.43,0.2,0.86,0.49,1.27c-0.18-0.36-0.26-0.73-0.25-1.1c0.03-0.93,0.66-1.85,1.88-2.55
						c2.52-1.45,6.61-1.45,9.15,0.02c1.24,0.72,1.88,1.65,1.91,2.58c0.02,0.37-0.07,0.74-0.25,1.1
						C340.93,22.58,341.09,22.19,341.15,21.8z"/>
					<g>
						<path class="st38" d="M334.39,25.33c0.06,0,0.11,0,0.17,0L334.39,25.33z"/>
						<path class="st37" d="M340.55,23.11c0.01-0.01,0.02-0.02,0.03-0.03c0.01-0.01,0.02-0.03,0.02-0.04h-0.26l0.21-0.21h0.15
							c0.01-0.03,0.02-0.05,0.03-0.08l-0.11,0l0.17-0.17c0.03-0.08,0.04-0.15,0.06-0.23l-0.11,0.11l-0.47,0l0.21-0.21l0.39,0
							c0-0.03,0.01-0.05,0.01-0.08h-0.32l0.21-0.21h0.13c0-0.03,0-0.05,0-0.08h-0.05l0.05-0.05c0-0.05,0-0.11-0.01-0.16l-0.21,0.21
							h-0.47l0.21-0.21h0.47c0-0.03-0.01-0.05-0.01-0.08l-0.38,0l0.21-0.21l0.13,0c-0.01-0.03-0.01-0.05-0.02-0.08h-0.04l0.03-0.03
							c-0.01-0.04-0.02-0.09-0.04-0.13l-0.16,0.16l-0.47,0l0.21-0.21l0.4,0c-0.01-0.02-0.02-0.05-0.03-0.08h-0.29l0.2-0.2
							c-0.02-0.04-0.04-0.07-0.06-0.11l-0.02,0.02l-0.47,0l0.21-0.21h0.16c-0.02-0.02-0.03-0.05-0.05-0.08h-0.03l0.02-0.02
							c-0.02-0.03-0.05-0.06-0.07-0.1l-0.11,0.11l-0.47,0l0.21-0.21l0.29,0c-0.02-0.02-0.04-0.05-0.07-0.08h-0.15l0.08-0.08
							c-0.03-0.03-0.06-0.06-0.08-0.09l-0.17,0.16l-0.47,0l0.21-0.21l0.37,0c-0.03-0.02-0.05-0.05-0.08-0.08h-0.21l0.1-0.1
							c-0.03-0.03-0.06-0.05-0.09-0.08l-0.18,0.18h-0.47l0.21-0.21l0.4,0c-0.03-0.03-0.07-0.05-0.1-0.08l-0.22,0l0.09-0.09
							c-0.03-0.02-0.07-0.05-0.1-0.07l-0.16,0.16h-0.47l0.21-0.21h0.34c-0.04-0.03-0.08-0.05-0.12-0.08h-0.14l0.05-0.05
							c-0.01-0.01-0.02-0.01-0.03-0.02c-0.03-0.02-0.06-0.03-0.08-0.04l-0.11,0.11l-0.47,0l0.21-0.21h0.18
							c-0.08-0.04-0.15-0.08-0.23-0.12l-0.04,0.04l-0.47,0l0.19-0.18c-0.08-0.04-0.17-0.07-0.25-0.1h-0.28l0.07-0.07
							c-0.04-0.01-0.08-0.03-0.13-0.04l-0.12,0.12l-0.47,0l0.21-0.21h0.06c-0.09-0.03-0.19-0.05-0.28-0.08h-0.35l0.07-0.07
							c-0.05-0.01-0.09-0.02-0.14-0.03l-0.1,0.09l-0.47,0l0.17-0.17c-0.05-0.01-0.1-0.01-0.15-0.02l-0.19,0.19l-0.47,0l0.21-0.21
							l0.31,0c-0.25-0.03-0.5-0.06-0.75-0.08H335l0.01-0.01c-0.06,0-0.11,0-0.17,0l-0.01,0.01l-0.47,0l0.02-0.02
							c-0.06,0-0.12,0-0.18,0l-0.02,0.02l-0.47,0l0,0c-0.31,0.02-0.61,0.05-0.91,0.1l-0.2,0.19h-0.47l0.09-0.09
							c-0.07,0.02-0.14,0.03-0.21,0.04l-0.05,0.05h-0.14c-0.1,0.02-0.19,0.05-0.29,0.08l0.35,0l-0.21,0.21l-0.47,0l0.16-0.16
							c-0.09,0.03-0.17,0.06-0.26,0.09l-0.07,0.07h-0.14c-0.06,0.02-0.12,0.05-0.18,0.08h0.24l-0.21,0.21h-0.47l0.03-0.03
							c-0.12,0.06-0.24,0.12-0.36,0.19l-0.13,0.13h-0.09c-0.04,0.03-0.08,0.05-0.12,0.08h0.14l-0.21,0.21h-0.22
							c-0.03,0.03-0.07,0.05-0.1,0.08l0.25,0l-0.21,0.21h-0.28c-0.03,0.03-0.06,0.05-0.08,0.08l0.28,0l-0.21,0.21l-0.26,0
							c-0.02,0.02-0.04,0.05-0.07,0.08h0.25l-0.21,0.21h-0.2c-0.02,0.02-0.03,0.05-0.05,0.08l0.17,0l-0.21,0.21h-0.08
							c-0.01,0.02-0.03,0.05-0.04,0.08h0.04l-0.08,0.08c-0.04,0.09-0.08,0.18-0.1,0.27l0.06-0.06l0.47,0l-0.21,0.21l-0.36,0
							c-0.01,0.03-0.01,0.05-0.02,0.08h0.3l-0.21,0.21h-0.12c0,0.03-0.01,0.05-0.01,0.08h0.05l-0.05,0.05c0,0.08,0,0.16,0,0.23h0.4
							l-0.21,0.21h-0.17c0,0.03,0.01,0.05,0.01,0.08h0.08l-0.06,0.06c0.01,0.05,0.02,0.09,0.03,0.14l0.2-0.2h0.47l-0.21,0.21
							l-0.45,0c0.01,0.03,0.01,0.05,0.02,0.08l0.35,0l-0.21,0.21h-0.06c0.02,0.05,0.05,0.1,0.07,0.15l0.08-0.08l0.47,0l-0.21,0.21
							l-0.26,0c0.02,0.02,0.04,0.05,0.06,0.08h0.12l-0.07,0.06c0.03,0.03,0.05,0.06,0.08,0.09l0.16-0.15l0.47,0l-0.21,0.21l-0.36,0
							c0.02,0.02,0.05,0.05,0.07,0.08h0.21l-0.1,0.1c0.03,0.03,0.06,0.05,0.09,0.08l0.18-0.18h0.47l-0.21,0.21l-0.41,0
							c0.03,0.03,0.06,0.05,0.09,0.08l0.24,0l-0.11,0.1c0.03,0.02,0.06,0.05,0.1,0.07l0.18-0.18h0.47l-0.21,0.21h-0.39
							c0.04,0.03,0.08,0.05,0.11,0.08h0.2l-0.08,0.08c0.03,0.02,0.07,0.04,0.11,0.07l0.15-0.14l0.47,0L330,24.19l-0.29,0
							c0,0,0,0,0,0c0.05,0.03,0.1,0.05,0.14,0.07h0.07l-0.02,0.02c0.04,0.02,0.07,0.04,0.11,0.06l0.08-0.08l0.47,0l-0.21,0.21h-0.09
							c0.06,0.03,0.12,0.05,0.18,0.08l0,0h0.47l-0.14,0.14c0.04,0.02,0.09,0.03,0.13,0.04l0.19-0.18l0.47,0l-0.21,0.21l-0.37,0
							c0.07,0.03,0.15,0.05,0.22,0.08h0.07l-0.02,0.02c0.04,0.01,0.09,0.03,0.13,0.04l0.06-0.06h0.47L331.75,25
							c0.05,0.01,0.09,0.02,0.13,0.04l0.2-0.2l0.47,0l-0.21,0.21l-0.4,0c0.15,0.04,0.31,0.07,0.47,0.1l0.02-0.02h0.47l-0.09,0.09
							c0.05,0.01,0.1,0.01,0.15,0.02l0.11-0.11h0.47l-0.16,0.16c0.05,0.01,0.11,0.01,0.16,0.01l0.17-0.17l0.47,0l-0.2,0.2
							c0.06,0,0.11,0,0.17,0.01l0.21-0.2l0.47,0l-0.21,0.21c0.06,0,0.12,0,0.18,0l0.21-0.21l0.47,0l-0.19,0.18
							c0.06,0,0.12-0.01,0.19-0.01l0.17-0.17l0.47,0l-0.11,0.11c0.07-0.01,0.13-0.02,0.2-0.03l0.08-0.08l0.38,0
							c0.12-0.02,0.25-0.05,0.37-0.08h-0.03l0.21-0.21l0.47,0l-0.04,0.04c0.12-0.04,0.23-0.08,0.35-0.12h-0.06l0.21-0.21l0.37,0
							c0.18-0.08,0.36-0.17,0.54-0.26l0.02-0.02h0.02c0.03-0.02,0.06-0.03,0.09-0.05c0.02-0.01,0.03-0.02,0.05-0.03h-0.08l0.21-0.21
							l0.2,0c0.04-0.03,0.07-0.05,0.11-0.08h-0.24l0.21-0.21h0.29c0.03-0.03,0.06-0.05,0.09-0.08l-0.31,0l0.21-0.21h0.32
							c0.02-0.02,0.05-0.05,0.07-0.08h-0.32l0.21-0.21L340.55,23.11z M340.68,22.53l-0.21,0.21l-0.47,0l0.21-0.21H340.68z
							 M334.47,21.67l-0.21,0.21h-0.47l0.21-0.21L334.47,21.67z M334.08,21.6l0.21-0.21h0.47l-0.21,0.21L334.08,21.6z M334.35,21.96
							l0.47,0l-0.21,0.21l-0.47,0L334.35,21.96z M334.43,21.88l0.21-0.21h0.47l-0.21,0.21H334.43z M334.72,21.6l0.21-0.21l0.47,0
							l-0.21,0.21L334.72,21.6z M334.84,21.31l-0.47,0l0.21-0.21l0.47,0L334.84,21.31z M334.2,21.31l-0.47,0l0.21-0.21l0.47,0
							L334.2,21.31z M334.12,21.39l-0.21,0.21h-0.47l0.21-0.21H334.12z M333.83,21.67l-0.21,0.21l-0.47,0l0.21-0.21L333.83,21.67z
							 M333.71,21.96l0.47,0l-0.21,0.21l-0.47,0L333.71,21.96z M334.06,22.25h0.47l-0.21,0.21l-0.47,0L334.06,22.25z M334.7,22.25
							l0.47,0l-0.21,0.21l-0.47,0L334.7,22.25z M334.78,22.17l0.21-0.21l0.47,0l-0.21,0.21H334.78z M335.64,21.96l0.47,0l-0.21,0.21
							h-0.47L335.64,21.96z M335.54,21.88h-0.47l0.21-0.21h0.47L335.54,21.88z M335.36,21.6l0.21-0.21l0.47,0l-0.21,0.21
							L335.36,21.6z M335.48,21.31l-0.47,0l0.21-0.21l0.47,0L335.48,21.31z M335.3,21.02l0.21-0.21h0.47l-0.21,0.21H335.3z
							 M335.13,21.02h-0.47l0.21-0.21l0.47,0L335.13,21.02z M334.78,20.73h-0.47l0.21-0.21h0.47L334.78,20.73z M334.7,20.81
							l-0.21,0.21h-0.47l0.21-0.21L334.7,20.81z M333.84,21.02l-0.47,0l0.21-0.21l0.47,0L333.84,21.02z M333.77,21.1l-0.21,0.21
							l-0.47,0l0.21-0.21H333.77z M333.48,21.39l-0.21,0.21h-0.47l0.21-0.21H333.48z M333.18,21.67l-0.21,0.21l-0.47,0l0.21-0.21
							L333.18,21.67z M333.06,21.96l0.47,0l-0.21,0.21l-0.47,0L333.06,21.96z M333.42,22.25h0.47l-0.21,0.21l-0.47,0L333.42,22.25z
							 M333.77,22.54h0.47l-0.21,0.21h-0.47L333.77,22.54z M334.41,22.54h0.47l-0.21,0.21h-0.47L334.41,22.54z M335.05,22.54h0.47
							l-0.21,0.21l-0.47,0L335.05,22.54z M335.13,22.46l0.21-0.21l0.47,0l-0.21,0.21L335.13,22.46z M335.99,22.25l0.47,0l-0.21,0.21
							l-0.47,0L335.99,22.25z M336.07,22.17l0.21-0.21h0.47l-0.21,0.21H336.07z M336.19,21.88l-0.47,0l0.21-0.21h0.47L336.19,21.88z
							 M336.01,21.6l0.21-0.21l0.47,0l-0.21,0.21L336.01,21.6z M336.13,21.31l-0.47,0l0.21-0.21l0.47,0L336.13,21.31z M335.95,21.02
							l0.21-0.21h0.47l-0.21,0.21H335.95z M336.07,20.73l-0.47,0l0.21-0.21h0.47L336.07,20.73z M335.42,20.73l-0.47,0l0.21-0.21
							h0.47L335.42,20.73z M335.07,20.45l-0.47,0l0.21-0.21l0.47,0L335.07,20.45z M334.43,20.45l-0.47,0l0.21-0.21h0.47
							L334.43,20.45z M334.35,20.52l-0.21,0.21h-0.47l0.21-0.21H334.35z M333.49,20.74h-0.47l0.21-0.21l0.47,0L333.49,20.74z
							 M333.41,20.81l-0.21,0.21l-0.47,0l0.21-0.21L333.41,20.81z M332.56,21.02l-0.47,0l0.21-0.21l0.47,0L332.56,21.02z
							 M332.65,21.1h0.47l-0.21,0.21l-0.47,0L332.65,21.1z M332.83,21.39l-0.21,0.21h-0.47l0.21-0.21L332.83,21.39z M332.54,21.67
							l-0.21,0.21l-0.47,0l0.21-0.21L332.54,21.67z M332.42,21.96h0.47l-0.21,0.21l-0.47,0L332.42,21.96z M332.77,22.25h0.47
							l-0.21,0.21l-0.47,0L332.77,22.25z M332.95,22.54l-0.21,0.21l-0.47,0l0.21-0.21L332.95,22.54z M333.12,22.54l0.47,0
							l-0.21,0.21h-0.47L333.12,22.54z M333.48,22.82l0.47,0l-0.21,0.21l-0.47,0L333.48,22.82z M334.12,22.82l0.47,0l-0.21,0.21
							l-0.47,0L334.12,22.82z M334.47,23.11l0.47,0l-0.21,0.21l-0.47,0L334.47,23.11z M334.55,23.03l0.21-0.21l0.47,0l-0.21,0.21
							H334.55z M335.41,22.82l0.47,0l-0.21,0.21h-0.47L335.41,22.82z M335.48,22.75l0.21-0.21h0.47l-0.21,0.21L335.48,22.75z
							 M336.34,22.54l0.47,0l-0.21,0.21l-0.47,0L336.34,22.54z M336.42,22.46l0.21-0.21l0.47,0l-0.21,0.21H336.42z M336.71,22.17
							l0.21-0.21h0.47l-0.21,0.21H336.71z M336.83,21.88l-0.47,0l0.21-0.21h0.47L336.83,21.88z M336.65,21.6l0.21-0.21l0.47,0
							l-0.21,0.21L336.65,21.6z M336.77,21.31h-0.47l0.21-0.21l0.47,0L336.77,21.31z M336.59,21.02l0.21-0.21h0.47l-0.21,0.21
							L336.59,21.02z M336.71,20.73l-0.47,0l0.21-0.21l0.47,0L336.71,20.73z M336.36,20.45l-0.47,0l0.21-0.21l0.47,0L336.36,20.45z
							 M335.71,20.45l-0.47,0l0.21-0.21l0.47,0L335.71,20.45z M335.36,20.16l-0.47,0l0.21-0.21l0.47,0L335.36,20.16z M334.72,20.16
							l-0.47,0l0.21-0.21l0.47,0L334.72,20.16z M334.07,20.16l-0.47,0l0.21-0.21l0.47,0L334.07,20.16z M334,20.24l-0.21,0.21
							l-0.47,0l0.21-0.21H334z M333.14,20.45h-0.47l0.21-0.21h0.47L333.14,20.45z M333.06,20.52l-0.21,0.21l-0.47,0l0.21-0.21
							L333.06,20.52z M332.2,20.74l-0.47,0l0.21-0.21l0.47,0L332.2,20.74z M332.13,20.81l-0.21,0.21l-0.47,0l0.21-0.21H332.13z
							 M332.01,21.1h0.47l-0.21,0.21h-0.47L332.01,21.1z M332.19,21.39l-0.21,0.21l-0.47,0l0.21-0.21L332.19,21.39z M331.9,21.68
							l-0.21,0.21l-0.47,0l0.21-0.21H331.9z M331.78,21.96h0.47l-0.21,0.21l-0.47,0L331.78,21.96z M332.13,22.25l0.47,0l-0.21,0.21
							h-0.47L332.13,22.25z M332.31,22.54l-0.21,0.21h-0.47l0.21-0.21L332.31,22.54z M332.19,22.83h0.47l-0.21,0.21l-0.47,0
							L332.19,22.83z M332.83,22.83l0.47,0l-0.21,0.21l-0.47,0L332.83,22.83z M333.19,23.11l0.47,0l-0.21,0.21l-0.47,0L333.19,23.11
							z M333.83,23.11l0.47,0l-0.21,0.21l-0.47,0L333.83,23.11z M334.18,23.4h0.47l-0.21,0.21l-0.47,0L334.18,23.4z M334.82,23.4
							h0.47l-0.21,0.21l-0.47,0L334.82,23.4z M334.9,23.32l0.21-0.21l0.47,0l-0.21,0.21L334.9,23.32z M335.76,23.11l0.47,0
							l-0.21,0.21l-0.47,0L335.76,23.11z M335.84,23.03l0.21-0.21h0.47l-0.21,0.21H335.84z M336.69,22.82h0.47l-0.21,0.21l-0.47,0
							L336.69,22.82z M336.77,22.75l0.21-0.21l0.47,0l-0.21,0.21L336.77,22.75z M337.06,22.46l0.21-0.21l0.47,0l-0.21,0.21H337.06z
							 M337.35,22.17l0.21-0.21h0.47l-0.21,0.21L337.35,22.17z M337.47,21.88l-0.47,0l0.21-0.21l0.47,0L337.47,21.88z M337.29,21.6
							l0.21-0.21l0.47,0l-0.21,0.21L337.29,21.6z M337.41,21.31h-0.47l0.21-0.21l0.47,0L337.41,21.31z M337.23,21.02l0.21-0.21
							l0.47,0l-0.21,0.21L337.23,21.02z M337.35,20.73l-0.47,0l0.21-0.21l0.47,0L337.35,20.73z M337,20.45h-0.47l0.21-0.21l0.47,0
							L337,20.45z M336.65,20.16h-0.47l0.21-0.21h0.47L336.65,20.16z M336.01,20.16h-0.47l0.21-0.21l0.47,0L336.01,20.16z
							 M335.65,19.87h-0.47l0.21-0.21h0.47L335.65,19.87z M335.01,19.87h-0.47l0.21-0.21h0.47L335.01,19.87z M334.37,19.87h-0.47
							l0.21-0.21l0.47,0L334.37,19.87z M333.72,19.87l-0.47,0l0.21-0.21l0.47,0L333.72,19.87z M333.64,19.95l-0.21,0.21l-0.47,0
							l0.21-0.21L333.64,19.95z M332.79,20.16l-0.47,0l0.21-0.21H333L332.79,20.16z M332.71,20.24l-0.21,0.21h-0.47l0.21-0.21
							H332.71z M331.85,20.45h-0.47l0.21-0.21l0.47,0L331.85,20.45z M331.77,20.53l-0.21,0.21l-0.47,0l0.21-0.21L331.77,20.53z
							 M331.48,20.81l-0.21,0.21h-0.47l0.21-0.21H331.48z M331.36,21.1l0.47,0l-0.21,0.21h-0.47L331.36,21.1z M331.54,21.39
							l-0.21,0.21l-0.47,0l0.21-0.21L331.54,21.39z M331.25,21.68l-0.21,0.21l-0.47,0l0.21-0.21H331.25z M331.13,21.96h0.47
							l-0.21,0.21h-0.47L331.13,21.96z M331.48,22.25l0.47,0l-0.21,0.21h-0.47L331.48,22.25z M331.67,22.54l-0.21,0.21l-0.47,0
							l0.21-0.21L331.67,22.54z M331.55,22.83h0.47l-0.21,0.21l-0.47,0L331.55,22.83z M331.9,23.11h0.47l-0.21,0.21h-0.47
							L331.9,23.11z M332.54,23.11h0.47l-0.21,0.21h-0.47L332.54,23.11z M332.89,23.4l0.47,0l-0.21,0.21h-0.47L332.89,23.4z
							 M333.54,23.4h0.47l-0.21,0.21l-0.47,0L333.54,23.4z M333.89,23.69l0.47,0l-0.21,0.21h-0.47L333.89,23.69z M334.53,23.69
							l0.47,0l-0.21,0.21h-0.47L334.53,23.69z M335.18,23.69h0.47l-0.21,0.21h-0.47L335.18,23.69z M335.25,23.61l0.21-0.21l0.47,0
							l-0.21,0.21L335.25,23.61z M336.11,23.4l0.47,0l-0.21,0.21l-0.47,0L336.11,23.4z M336.19,23.32l0.21-0.21l0.47,0l-0.21,0.21
							H336.19z M337.05,23.11h0.47l-0.21,0.21h-0.47L337.05,23.11z M337.12,23.03l0.21-0.21h0.47l-0.21,0.21L337.12,23.03z
							 M337.42,22.74l0.21-0.21l0.47,0l-0.21,0.21L337.42,22.74z M337.71,22.46l0.21-0.21h0.47l-0.21,0.21H337.71z M338,22.17
							l0.21-0.21l0.47,0l-0.21,0.21L338,22.17z M338.12,21.88l-0.47,0l0.21-0.21l0.47,0L338.12,21.88z M337.94,21.59l0.21-0.21h0.47
							l-0.21,0.21H337.94z M338.06,21.31l-0.47,0l0.21-0.21h0.47L338.06,21.31z M337.88,21.02l0.21-0.21l0.47,0l-0.21,0.21
							L337.88,21.02z M338,20.73l-0.47,0l0.21-0.21l0.47,0L338,20.73z M337.64,20.44h-0.47l0.21-0.21h0.47L337.64,20.44z
							 M337.29,20.16l-0.47,0l0.21-0.21h0.47L337.29,20.16z M336.94,19.87l-0.47,0l0.21-0.21l0.47,0L336.94,19.87z M336.3,19.87
							l-0.47,0l0.21-0.21h0.47L336.3,19.87z M335.94,19.58l-0.47,0l0.21-0.21l0.47,0L335.94,19.58z M335.3,19.58l-0.47,0l0.21-0.21
							h0.47L335.3,19.58z M334.66,19.58h-0.47l0.21-0.21h0.47L334.66,19.58z M334.31,19.3l-0.47,0l0.21-0.21l0.47,0L334.31,19.3z
							 M334.23,19.37l-0.21,0.21l-0.47,0l0.21-0.21H334.23z M333.37,19.59h-0.47l0.21-0.21h0.47L333.37,19.59z M333.29,19.66
							l-0.21,0.21l-0.47,0l0.21-0.21L333.29,19.66z M332.44,19.87l-0.47,0l0.21-0.21l0.47,0L332.44,19.87z M332.36,19.95l-0.21,0.21
							l-0.47,0l0.21-0.21H332.36z M331.5,20.16h-0.47l0.21-0.21h0.47L331.5,20.16z M331.42,20.24l-0.21,0.21h-0.47l0.21-0.21
							L331.42,20.24z M331.13,20.53l-0.21,0.21l-0.47,0l0.21-0.21L331.13,20.53z M330.84,20.81l-0.21,0.21h-0.47l0.21-0.21H330.84z
							 M330.72,21.1l0.47,0l-0.21,0.21h-0.47L330.72,21.1z M330.9,21.39l-0.21,0.21l-0.47,0l0.21-0.21H330.9z M330.61,21.68
							l-0.21,0.21h-0.47l0.21-0.21H330.61z M330.49,21.96l0.47,0l-0.21,0.21h-0.47L330.49,21.96z M330.84,22.25l0.47,0l-0.21,0.21
							l-0.47,0L330.84,22.25z M331.02,22.54l-0.21,0.21l-0.47,0l0.21-0.21L331.02,22.54z M330.9,22.83h0.47l-0.21,0.21l-0.47,0
							L330.9,22.83z M331.25,23.11l0.47,0l-0.21,0.21h-0.47L331.25,23.11z M331.61,23.4l0.47,0l-0.21,0.21l-0.47,0L331.61,23.4z
							 M332.25,23.4l0.47,0l-0.21,0.21l-0.47,0L332.25,23.4z M332.6,23.69l0.47,0l-0.21,0.21l-0.47,0L332.6,23.69z M333.25,23.69
							l0.47,0l-0.21,0.21l-0.47,0L333.25,23.69z M333.6,23.97l0.47,0l-0.21,0.21l-0.47,0L333.6,23.97z M334.24,23.97l0.47,0
							l-0.21,0.21l-0.47,0L334.24,23.97z M334.88,23.97l0.47,0l-0.21,0.21l-0.47,0L334.88,23.97z M335.53,23.97l0.47,0l-0.21,0.21
							h-0.47L335.53,23.97z M335.61,23.9l0.21-0.21h0.47l-0.21,0.21L335.61,23.9z M336.46,23.68h0.47l-0.21,0.21l-0.47,0
							L336.46,23.68z M336.54,23.61l0.21-0.21l0.47,0l-0.21,0.21L336.54,23.61z M337.4,23.4l0.47,0l-0.21,0.21h-0.47L337.4,23.4z
							 M337.48,23.32l0.21-0.21h0.47l-0.21,0.21H337.48z M337.77,23.03l0.21-0.21l0.47,0l-0.21,0.21L337.77,23.03z M338.06,22.74
							l0.21-0.21l0.47,0l-0.21,0.21L338.06,22.74z M338.35,22.46l0.21-0.21h0.47l-0.21,0.21L338.35,22.46z M338.64,22.17l0.21-0.21
							l0.47,0l-0.21,0.21L338.64,22.17z M338.76,21.88l-0.47,0l0.21-0.21l0.47,0L338.76,21.88z M338.58,21.59l0.21-0.21h0.47
							l-0.21,0.21H338.58z M338.7,21.31l-0.47,0l0.21-0.21h0.47L338.7,21.31z M338.52,21.02l0.21-0.21l0.47,0l-0.21,0.21
							L338.52,21.02z M338.64,20.73h-0.47l0.21-0.21l0.47,0L338.64,20.73z M338.29,20.44h-0.47l0.21-0.21h0.47L338.29,20.44z
							 M337.94,20.16l-0.47,0l0.21-0.21h0.47L337.94,20.16z M337.58,19.87l-0.47,0l0.21-0.21l0.47,0L337.58,19.87z M337.23,19.58
							l-0.47,0l0.21-0.21l0.47,0L337.23,19.58z M336.59,19.58l-0.47,0l0.21-0.21l0.47,0L336.59,19.58z M336.24,19.3h-0.47l0.21-0.21
							l0.47,0L336.24,19.3z M335.59,19.3l-0.47,0l0.21-0.21l0.47,0L335.59,19.3z M334.95,19.3l-0.47,0l0.21-0.21l0.47,0L334.95,19.3
							z M334.6,19.01l-0.47,0l0.21-0.21l0.47,0L334.6,19.01z M333.95,19.01l-0.47,0l0.21-0.21l0.47,0L333.95,19.01z M333.88,19.09
							l-0.21,0.21l-0.47,0l0.21-0.21L333.88,19.09z M333.02,19.3l-0.47,0l0.21-0.21h0.47L333.02,19.3z M332.94,19.37l-0.21,0.21
							h-0.47l0.21-0.21L332.94,19.37z M332.08,19.59l-0.47,0l0.21-0.21l0.47,0L332.08,19.59z M332.01,19.66l-0.21,0.21l-0.47,0
							l0.21-0.21L332.01,19.66z M331.15,19.87l-0.47,0l0.21-0.21h0.47L331.15,19.87z M331.07,19.95l-0.21,0.21h-0.47l0.21-0.21
							L331.07,19.95z M330.78,20.24l-0.21,0.21l-0.47,0l0.21-0.21L330.78,20.24z M330.49,20.53l-0.21,0.21l-0.47,0l0.21-0.21H330.49
							z M330.2,20.81l-0.21,0.21h-0.47l0.21-0.21L330.2,20.81z M330.08,21.1l0.47,0l-0.21,0.21l-0.47,0L330.08,21.1z M330.26,21.39
							l-0.21,0.21l-0.47,0l0.21-0.21L330.26,21.39z M329.97,21.68l-0.21,0.21h-0.47l0.21-0.21H329.97z M329.85,21.96l0.47,0
							l-0.21,0.21h-0.47L329.85,21.96z M330.2,22.25l0.47,0l-0.21,0.21l-0.47,0L330.2,22.25z M330.38,22.54l-0.21,0.21l-0.47,0
							l0.21-0.21H330.38z M330.26,22.83h0.47l-0.21,0.21h-0.47L330.26,22.83z M330.61,23.11l0.47,0l-0.21,0.21h-0.47L330.61,23.11z
							 M330.96,23.4l0.47,0l-0.21,0.21l-0.47,0L330.96,23.4z M331.32,23.69l0.47,0l-0.21,0.21l-0.47,0L331.32,23.69z M331.96,23.69
							l0.47,0l-0.21,0.21l-0.47,0L331.96,23.69z M332.31,23.97h0.47l-0.21,0.21l-0.47,0L332.31,23.97z M332.95,23.97l0.47,0
							l-0.21,0.21l-0.47,0L332.95,23.97z M333.31,24.26h0.47l-0.21,0.21h-0.47L333.31,24.26z M333.95,24.26h0.47l-0.21,0.21l-0.47,0
							L333.95,24.26z M334.59,24.26l0.47,0l-0.21,0.21l-0.47,0L334.59,24.26z M335.24,24.26l0.47,0l-0.21,0.21l-0.47,0L335.24,24.26
							z M335.88,24.26l0.47,0l-0.21,0.21h-0.47L335.88,24.26z M335.96,24.18l0.21-0.21h0.47l-0.21,0.21H335.96z M336.82,23.97h0.47
							l-0.21,0.21h-0.47L336.82,23.97z M336.89,23.9l0.21-0.21l0.47,0l-0.21,0.21L336.89,23.9z M337.75,23.68l0.47,0l-0.21,0.21
							l-0.47,0L337.75,23.68z M337.83,23.61l0.21-0.21l0.47,0l-0.21,0.21H337.83z M338.12,23.32l0.21-0.21h0.47l-0.21,0.21
							L338.12,23.32z M338.41,23.03l0.21-0.21l0.47,0l-0.21,0.21L338.41,23.03z M338.7,22.74l0.21-0.21l0.47,0l-0.21,0.21H338.7z
							 M338.99,22.46l0.21-0.21h0.47l-0.21,0.21L338.99,22.46z M339.28,22.17l0.21-0.21l0.47,0l-0.21,0.21L339.28,22.17z
							 M339.41,21.88h-0.47l0.21-0.21l0.47,0L339.41,21.88z M339.22,21.59l0.21-0.21h0.47l-0.21,0.21L339.22,21.59z M339.34,21.31
							l-0.47,0l0.21-0.21l0.47,0L339.34,21.31z M339.16,21.02l0.21-0.21l0.47,0l-0.21,0.21L339.16,21.02z M339.28,20.73h-0.47
							l0.21-0.21l0.47,0L339.28,20.73z M338.93,20.44l-0.47,0l0.21-0.21h0.47L338.93,20.44z M338.58,20.16l-0.47,0l0.21-0.21l0.47,0
							L338.58,20.16z M338.23,19.87l-0.47,0l0.21-0.21l0.47,0L338.23,19.87z M337.87,19.58h-0.47l0.21-0.21l0.47,0L337.87,19.58z
							 M337.52,19.29h-0.47l0.21-0.21h0.47L337.52,19.29z M336.88,19.3h-0.47l0.21-0.21h0.47L336.88,19.3z M336.53,19.01l-0.47,0
							l0.21-0.21h0.47L336.53,19.01z M335.88,19.01h-0.47l0.21-0.21h0.47L335.88,19.01z M335.24,19.01h-0.47l0.21-0.21l0.47,0
							L335.24,19.01z M334.89,18.72l-0.47,0l0.21-0.21h0.47L334.89,18.72z M334.24,18.72h-0.47l0.21-0.21h0.47L334.24,18.72z
							 M333.6,18.72h-0.47l0.21-0.21l0.47,0L333.6,18.72z M333.52,18.8l-0.21,0.21l-0.47,0l0.21-0.21L333.52,18.8z M332.67,19.01
							l-0.47,0l0.21-0.21l0.47,0L332.67,19.01z M332.59,19.09l-0.21,0.21h-0.47l0.21-0.21H332.59z M331.73,19.3h-0.47l0.21-0.21
							h0.47L331.73,19.3z M331.65,19.38l-0.21,0.21l-0.47,0l0.21-0.21L331.65,19.38z M330.8,19.59l-0.47,0l0.21-0.21l0.47,0
							L330.8,19.59z M330.72,19.66l-0.21,0.21l-0.47,0l0.21-0.21H330.72z M330.43,19.95l-0.21,0.21l-0.47,0l0.21-0.21L330.43,19.95z
							 M330.14,20.24l-0.21,0.21l-0.47,0l0.21-0.21L330.14,20.24z M329.84,20.53l-0.21,0.21l-0.47,0l0.21-0.21H329.84z
							 M329.55,20.81l-0.21,0.21h-0.47l0.21-0.21L329.55,20.81z M329.43,21.1l0.47,0l-0.21,0.21l-0.47,0L329.43,21.1z M329.61,21.39
							l-0.21,0.21l-0.47,0l0.21-0.21H329.61z M329.32,21.68l-0.21,0.21h-0.47l0.21-0.21L329.32,21.68z M329.2,21.96l0.47,0
							l-0.21,0.21l-0.47,0L329.2,21.96z M329.55,22.25l0.47,0l-0.21,0.21l-0.47,0L329.55,22.25z M329.74,22.54l-0.21,0.21h-0.47
							l0.21-0.21H329.74z M329.62,22.83l0.47,0l-0.21,0.21h-0.47L329.62,22.83z M329.97,23.11l0.47,0l-0.21,0.21l-0.47,0
							L329.97,23.11z M330.32,23.4l0.47,0l-0.21,0.21l-0.47,0L330.32,23.4z M330.67,23.69h0.47l-0.21,0.21l-0.47,0L330.67,23.69z
							 M331.02,23.98h0.47l-0.21,0.21h-0.47L331.02,23.98z M331.67,23.98h0.47l-0.21,0.21l-0.47,0L331.67,23.98z M332.02,24.26h0.47
							l-0.21,0.21h-0.47L332.02,24.26z M332.66,24.26h0.47l-0.21,0.21h-0.47L332.66,24.26z M333.02,24.55l0.47,0l-0.21,0.21h-0.47
							L333.02,24.55z M333.66,24.55l0.47,0l-0.21,0.21h-0.47L333.66,24.55z M334.3,24.55h0.47l-0.21,0.21h-0.47L334.3,24.55z
							 M334.95,24.55h0.47l-0.21,0.21l-0.47,0L334.95,24.55z M335.59,24.55h0.47l-0.21,0.21l-0.47,0L335.59,24.55z M336.23,24.55
							h0.47l-0.21,0.21l-0.47,0L336.23,24.55z M336.31,24.47l0.21-0.21l0.47,0l-0.21,0.21L336.31,24.47z M337.17,24.26l0.47,0
							l-0.21,0.21h-0.47L337.17,24.26z M337.25,24.18l0.21-0.21h0.47l-0.21,0.21L337.25,24.18z M338.1,23.97h0.47l-0.21,0.21
							l-0.47,0L338.1,23.97z M338.18,23.89l0.21-0.21l0.47,0l-0.21,0.21L338.18,23.89z M338.47,23.61l0.21-0.21h0.47l-0.21,0.21
							H338.47z M338.76,23.32l0.21-0.21l0.47,0l-0.21,0.21L338.76,23.32z M339.05,23.03l0.21-0.21l0.47,0l-0.21,0.21L339.05,23.03z
							 M339.35,22.74l0.21-0.21h0.47l-0.21,0.21H339.35z M340.11,22.46l-0.47,0l0.21-0.21h0.47L340.11,22.46z M340.61,21.96
							l-0.21,0.21l-0.47,0l0.21-0.21L340.61,21.96z M340.05,21.88h-0.47l0.21-0.21l0.47,0L340.05,21.88z M340.55,21.38l-0.21,0.21
							l-0.47,0l0.21-0.21H340.55z M339.99,21.31l-0.47,0l0.21-0.21l0.47,0L339.99,21.31z M340.49,20.81l-0.21,0.21h-0.47l0.21-0.21
							L340.49,20.81z M340.14,20.52l-0.21,0.21h-0.47l0.21-0.21H340.14z M339.79,20.23l-0.21,0.21l-0.47,0l0.21-0.21H339.79z
							 M339.44,19.95l-0.21,0.21l-0.47,0l0.21-0.21L339.44,19.95z M339.08,19.66l-0.21,0.21l-0.47,0l0.21-0.21L339.08,19.66z
							 M338.73,19.37l-0.21,0.21h-0.47l0.21-0.21L338.73,19.37z M338.38,19.08l-0.21,0.21h-0.47l0.21-0.21H338.38z M337.56,18.8
							l0.47,0l-0.21,0.21l-0.47,0L337.56,18.8z M337.38,18.8l-0.21,0.21l-0.47,0l0.21-0.21H337.38z M336.56,18.51l0.47,0l-0.21,0.21
							l-0.47,0L336.56,18.51z M335.92,18.51l0.47,0l-0.21,0.21l-0.47,0L335.92,18.51z M335.75,18.51l-0.21,0.21l-0.47,0l0.21-0.21
							H335.75z M334.92,18.22l0.47,0l-0.21,0.21l-0.47,0L334.92,18.22z M334.28,18.22l0.47,0l-0.21,0.21l-0.47,0L334.28,18.22z
							 M334.11,18.22l-0.21,0.21l-0.47,0l0.21-0.21H334.11z M332.99,18.22h0.47l-0.21,0.21l-0.47,0L332.99,18.22z M332.7,18.51
							l0.47,0l-0.21,0.21h-0.47L332.7,18.51z M332.06,18.51l0.47,0l-0.21,0.21l-0.47,0L332.06,18.51z M331.76,18.8h0.47l-0.21,0.21
							l-0.47,0L331.76,18.8z M331.12,18.8h0.47l-0.21,0.21l-0.47,0L331.12,18.8z M330.83,19.09l0.47,0l-0.21,0.21h-0.47
							L330.83,19.09z M330.19,19.09l0.47,0l-0.21,0.21l-0.47,0L330.19,19.09z M329.89,19.38l0.47,0l-0.21,0.21l-0.47,0L329.89,19.38
							z M329.6,19.66h0.47l-0.21,0.21h-0.47L329.6,19.66z M329.31,19.95l0.47,0l-0.21,0.21l-0.47,0L329.31,19.95z M329.02,20.24
							l0.47,0l-0.21,0.21l-0.47,0L329.02,20.24z M328.73,20.53h0.47l-0.21,0.21h-0.47L328.73,20.53z M328.22,21.03l0.21-0.21l0.47,0
							l-0.21,0.21L328.22,21.03z M328.79,21.1l0.47,0l-0.21,0.21l-0.47,0L328.79,21.1z M328.5,21.39h0.47l-0.21,0.21h-0.47
							L328.5,21.39z M327.99,21.89l0.21-0.21l0.47,0l-0.21,0.21L327.99,21.89z M328.34,22.18l0.21-0.21l0.47,0l-0.21,0.21
							L328.34,22.18z M328.91,22.25l0.47,0l-0.21,0.21l-0.47,0L328.91,22.25z M328.41,22.75l0.21-0.21h0.47l-0.21,0.21H328.41z
							 M328.76,23.04l0.21-0.21l0.47,0l-0.21,0.21L328.76,23.04z M329.11,23.33l0.21-0.21l0.47,0l-0.21,0.21L329.11,23.33z
							 M329.46,23.61l0.21-0.21l0.47,0l-0.21,0.21L329.46,23.61z M329.81,23.9l0.21-0.21h0.47l-0.21,0.21L329.81,23.9z
							 M330.17,24.19l0.21-0.21l0.47,0l-0.21,0.21H330.17z M330.99,24.47l-0.47,0l0.21-0.21l0.47,0L330.99,24.47z M331.16,24.47
							l0.21-0.21l0.47,0l-0.21,0.21L331.16,24.47z M331.99,24.76l-0.47,0l0.21-0.21l0.47,0L331.99,24.76z M332.16,24.76l0.21-0.21
							l0.47,0l-0.21,0.21L332.16,24.76z M332.98,25.05l-0.47,0l0.21-0.21l0.47,0L332.98,25.05z M333.63,25.05l-0.47,0l0.21-0.21
							l0.47,0L333.63,25.05z M334.27,25.05l-0.47,0l0.21-0.21l0.47,0L334.27,25.05z M334.91,25.05h-0.47l0.21-0.21l0.47,0
							L334.91,25.05z M335.56,25.05h-0.47l0.21-0.21h0.47L335.56,25.05z M336.2,25.05h-0.47l0.21-0.21h0.47L336.2,25.05z
							 M336.84,25.05l-0.47,0l0.21-0.21h0.47L336.84,25.05z M337.14,24.76l-0.47,0l0.21-0.21l0.47,0L337.14,24.76z M337.78,24.76
							l-0.47,0l0.21-0.21l0.47,0L337.78,24.76z M338.07,24.47h-0.47l0.21-0.21h0.47L338.07,24.47z M338.71,24.47h-0.47l0.21-0.21
							h0.47L338.71,24.47z M339.01,24.18l-0.47,0l0.21-0.21l0.47,0L339.01,24.18z M339.3,23.89h-0.47l0.21-0.21l0.47,0L339.3,23.89z
							 M339.59,23.61l-0.47,0l0.21-0.21h0.47L339.59,23.61z M339.88,23.32l-0.47,0l0.21-0.21l0.47,0L339.88,23.32z M339.7,23.03
							l0.21-0.21l0.47,0l-0.21,0.21H339.7z"/>
					</g>
					<path class="st39" d="M334.9,25.03h-0.55l-0.24,0.24c-0.03,0-0.06,0-0.09,0l0.24-0.24l-0.55,0l-0.21,0.2
						c0,0-0.07-0.01-0.08-0.01l0.2-0.2l-0.55,0l-0.14,0.14c-0.03,0-0.05-0.01-0.08-0.01l0.13-0.13l-0.55,0l-0.05,0.05l-0.07-0.01
						l0.03-0.03h-0.19c-0.03-0.01-0.06-0.01-0.09-0.02h0.3l0.27-0.27h-0.55l-0.22,0.22c-0.02-0.01-0.05-0.01-0.07-0.02l0.2-0.2
						l-0.55,0l-0.08,0.08c-0.02-0.01-0.07-0.02-0.07-0.02l0.06-0.06h-0.24l-0.05-0.02h0.32l0.27-0.27l-0.55,0l-0.21,0.21
						c-0.02-0.01-0.04-0.02-0.07-0.02l0.19-0.18h-0.55l-0.02,0.02c0,0-0.08-0.04-0.09-0.04h0.04l0.27-0.27h-0.55l-0.1,0.1
						l-0.06-0.03l0.07-0.07h-0.21l-0.02-0.01c0,0-0.01,0-0.01,0l0.26,0l0.27-0.27l-0.55,0l-0.16,0.16c0,0-0.04-0.03-0.06-0.03
						l0.13-0.12h-0.32c-0.01-0.01-0.01-0.01-0.02-0.02l0.37,0l0.27-0.27l-0.55,0l-0.19,0.19c-0.02-0.01-0.03-0.02-0.05-0.04
						l0.15-0.15h-0.34l-0.02-0.02h0.38l0.27-0.27l-0.55,0l-0.19,0.19c-0.01-0.01-0.05-0.04-0.05-0.04l0.15-0.15l-0.3,0
						c-0.01-0.01-0.01-0.01-0.02-0.02h0.34l0.27-0.27l-0.55,0l-0.16,0.16c-0.01-0.01-0.04-0.05-0.04-0.05l0.11-0.11h-0.19
						c0-0.01-0.01-0.01-0.01-0.02h0.22l0.27-0.27h-0.55l-0.06,0.06c-0.01-0.03-0.03-0.05-0.04-0.08h0.03l0.27-0.27l-0.4,0
						l-0.01-0.02h0.43l0.27-0.27l-0.55,0l-0.17,0.17c-0.01-0.02-0.01-0.05-0.02-0.07l0.1-0.1h-0.12c0-0.01,0-0.01,0-0.02h0.15
						l0.27-0.27h-0.45c0-0.01,0-0.01,0-0.02l0.47,0l0.27-0.27l-0.55,0l-0.19,0.18c0-0.03,0-0.06,0-0.09l0.09-0.09h-0.09
						c0-0.01,0-0.01,0-0.02h0.11l0.27-0.27l-0.34,0c0-0.01,0-0.01,0-0.02h0.35l0.27-0.27l-0.54,0c0.02-0.06,0.04-0.11,0.07-0.17
						l0.07-0.07l0.05-0.05h-0.07c0-0.01,0.01-0.01,0.01-0.02h0.07l0.27-0.27h-0.19c0-0.01,0.01-0.01,0.01-0.02h0.19l0.27-0.27
						l-0.26,0c0.01-0.01,0.01-0.01,0.02-0.02h0.26l0.27-0.27h-0.28l0.02-0.02l0.28,0l0.27-0.27h-0.23c0.01-0.01,0.01-0.01,0.02-0.02
						l0.23,0l0.27-0.27h-0.11c0.01-0.01,0.02-0.02,0.04-0.02l0.08,0h0.01l0.14-0.14c0.06-0.03,0.13-0.07,0.2-0.1l-0.25,0.24l0.55,0
						l0.27-0.27l-0.53,0c0.01-0.01,0.03-0.01,0.04-0.02l0.51,0l0.27-0.27l-0.17,0c0.02-0.01,0.04-0.01,0.05-0.02l0.14,0l0.08-0.08
						l0.05-0.02c0.03-0.01,0.05-0.02,0.08-0.03l-0.12,0.12l0.55,0l0.27-0.27h-0.2c0.03-0.01,0.05-0.01,0.08-0.02l0.14,0l0.06-0.06
						c0.03,0,0.07-0.01,0.11-0.02l-0.07,0.07l0.55,0l0.2-0.2c0.03,0,0.07-0.01,0.1-0.01l-0.22,0.21l0.55,0l0.27-0.27h-0.1
						c0.09-0.01,0.18-0.01,0.26-0.02h0.5l0.02-0.02c0,0,0.08,0,0.09,0l-0.02,0.02l0.55,0l0.01-0.01l0.06,0c0.01,0,0.02,0,0.03,0l0,0
						l0.06,0.01h0.12c0.08,0,0.16,0.01,0.25,0.02h-0.46l-0.27,0.27l0.55,0l0.26-0.26c0.03,0,0.05,0.01,0.08,0.01l-0.25,0.25l0.55,0
						l0.19-0.19c0,0,0.07,0.01,0.08,0.01l-0.18,0.18l0.55,0l0.09-0.09l0.07,0.01l-0.08,0.08l0.42,0c0.02,0.01,0.05,0.01,0.07,0.02
						h-0.51l-0.27,0.27l0.55,0l0.26-0.26c0.02,0.01,0.05,0.01,0.07,0.02l-0.24,0.24l0.55,0l0.11-0.11l0.07,0.02l-0.09,0.09h0.35
						c0.02,0.01,0.03,0.01,0.05,0.02h-0.42l-0.27,0.27l0.55,0l0.23-0.23c0.02,0.01,0.06,0.03,0.06,0.03l-0.21,0.2l0.55,0l0.04-0.04
						c0.04,0.02,0.08,0.04,0.11,0.06h-0.08l-0.27,0.27h0.55l0.11-0.11c0.01,0,0.05,0.02,0.06,0.03l-0.08,0.07h0.21l0.01,0.01
						c0.01,0,0.01,0.01,0.02,0.01h-0.25l-0.27,0.27h0.55l0.15-0.15c0.02,0.01,0.04,0.03,0.05,0.04l-0.12,0.11h0.28l0.02,0.02
						l-0.32,0l-0.27,0.27l0.55,0l0.17-0.17c0.02,0.01,0.03,0.03,0.05,0.04l-0.13,0.13h0.27c0.01,0.01,0.01,0.01,0.02,0.02h-0.31
						l-0.27,0.27l0.55,0l0.15-0.15c0.01,0.02,0.03,0.03,0.04,0.04l-0.11,0.11h0.21l0.02,0.02h-0.24l-0.27,0.27l0.55,0l0.1-0.1
						c0.01,0.02,0.03,0.03,0.04,0.05l-0.05,0.05h0.08c0,0.01,0.01,0.01,0.01,0.02h-0.12l-0.27,0.27h0.55l0,0
						c0.01,0.02,0.02,0.04,0.03,0.06l-0.23,0.23h0.34c0,0.01,0.01,0.01,0.01,0.02l-0.37,0l-0.27,0.27l0.55,0l0.13-0.13
						c0.01,0.02,0.01,0.05,0.02,0.07l-0.06,0.06h0.08c0,0.01,0,0.01,0,0.02h-0.11l-0.27,0.27l0.43,0c0,0.01,0,0.01,0,0.02l-0.45,0
						l-0.27,0.27h0.55l0.18-0.17c0,0.03,0,0.06,0,0.08l-0.09,0.09l0.09,0c0,0.01,0,0.02,0,0.02h-0.11l-0.27,0.27h0.36
						c0,0.01,0,0.01,0,0.02h-0.38l-0.27,0.27l0.55,0l0.05-0.05c-0.01,0.04-0.02,0.09-0.04,0.13l-0.16,0.16l-0.05,0.05h0.13
						c0,0.01-0.01,0.02-0.01,0.02h-0.14L340.27,23h0.28c0,0.01-0.01,0.01-0.01,0.02h-0.29l-0.27,0.27l0.35,0l-0.02,0.02l-0.35,0
						l-0.27,0.27h0.34c-0.01,0.01-0.02,0.01-0.02,0.02l-0.34,0l-0.27,0.27h0.27c-0.01,0.01-0.02,0.02-0.03,0.02l-0.25-0.01
						l-0.27,0.27h0.11c-0.01,0-0.01,0.01-0.02,0.01l-0.1,0.01h-0.01l-0.11,0.11c-0.06,0.03-0.12,0.06-0.19,0.1l0.21-0.21l-0.55,0
						l-0.27,0.27h0.49c-0.02,0.01-0.03,0.02-0.05,0.02l-0.46,0l-0.27,0.27h0.06l-0.06,0.02h-0.01l-0.11,0.04
						c-0.02,0.01-0.03,0.01-0.05,0.02l0.06-0.06h-0.55l-0.27,0.27c-0.04,0.01-0.08,0.02-0.12,0.03l0,0l-0.55,0l-0.13,0.13
						c-0.03,0-0.06,0-0.1,0.01l0.14-0.14h-0.55l-0.21,0.21c-0.03,0-0.06,0.01-0.1,0.01l0.22-0.22H335l-0.25,0.24
						c-0.03,0-0.06,0-0.09,0L334.9,25.03z M332.71,24.75l-0.27,0.27l0.55,0l0.27-0.27H332.71z M333.36,24.75l-0.27,0.27l0.55,0
						l0.27-0.27H333.36z M334,24.75l-0.27,0.27l0.55,0l0.27-0.27L334,24.75z M334.64,24.75l-0.27,0.27l0.55,0l0.27-0.27
						L334.64,24.75z M335.29,24.75l-0.27,0.27h0.55l0.27-0.27L335.29,24.75z M335.93,24.75l-0.27,0.27h0.55l0.27-0.27L335.93,24.75z
						 M336.57,24.74l-0.27,0.27h0.55l0.27-0.27L336.57,24.74z M331.72,24.46l-0.27,0.27l0.55,0l0.27-0.27H331.72z M332.36,24.46
						l-0.27,0.27h0.55l0.27-0.27L332.36,24.46z M333,24.46l-0.27,0.27l0.55,0l0.27-0.27L333,24.46z M333.65,24.46l-0.27,0.27l0.55,0
						l0.27-0.27L333.65,24.46z M334.29,24.46l-0.27,0.27l0.55,0l0.27-0.27L334.29,24.46z M334.93,24.46l-0.27,0.27h0.55l0.27-0.27
						L334.93,24.46z M335.58,24.46l-0.27,0.27h0.55l0.27-0.27L335.58,24.46z M336.22,24.46l-0.27,0.27h0.55l0.27-0.27L336.22,24.46z
						 M336.86,24.46l-0.27,0.27l0.55,0l0.27-0.27H336.86z M337.51,24.46l-0.27,0.27l0.55,0l0.27-0.27H337.51z M330.72,24.17
						l-0.27,0.27l0.55,0l0.27-0.27H330.72z M331.36,24.17l-0.27,0.27l0.55,0l0.27-0.27L331.36,24.17z M332.01,24.17l-0.27,0.27
						l0.55,0l0.27-0.27L332.01,24.17z M332.65,24.17l-0.27,0.27h0.55l0.27-0.27L332.65,24.17z M333.29,24.17l-0.27,0.27h0.55
						l0.27-0.27L333.29,24.17z M333.94,24.17l-0.27,0.27h0.55l0.27-0.27L333.94,24.17z M334.58,24.17l-0.27,0.27l0.55,0l0.27-0.27
						H334.58z M335.23,24.17l-0.27,0.27l0.55,0l0.27-0.27H335.23z M335.87,24.17l-0.27,0.27l0.55,0l0.27-0.27H335.87z M336.51,24.17
						l-0.27,0.27l0.55,0l0.27-0.27L336.51,24.17z M337.16,24.17l-0.27,0.27l0.55,0l0.27-0.27L337.16,24.17z M337.8,24.17l-0.27,0.27
						h0.55l0.27-0.27L337.8,24.17z M330.37,23.89l-0.27,0.27h0.55l0.27-0.27L330.37,23.89z M331.01,23.89l-0.27,0.27h0.55l0.27-0.27
						L331.01,23.89z M331.66,23.89l-0.27,0.27h0.55l0.27-0.27L331.66,23.89z M332.3,23.89l-0.27,0.27l0.55,0l0.27-0.27H332.3z
						 M332.94,23.89l-0.27,0.27l0.55,0l0.27-0.27L332.94,23.89z M333.59,23.88l-0.27,0.27l0.55,0l0.27-0.27H333.59z M334.23,23.88
						l-0.27,0.27l0.55,0l0.27-0.27L334.23,23.88z M334.87,23.88l-0.27,0.27l0.55,0l0.27-0.27L334.87,23.88z M335.52,23.88
						l-0.27,0.27l0.55,0l0.27-0.27L335.52,23.88z M336.16,23.88l-0.27,0.27l0.55,0l0.27-0.27L336.16,23.88z M336.8,23.88l-0.27,0.27
						h0.55l0.27-0.27L336.8,23.88z M337.45,23.88l-0.27,0.27h0.55l0.27-0.27L337.45,23.88z M338.09,23.88l-0.27,0.27h0.55l0.27-0.27
						L338.09,23.88z M338.73,23.88l-0.27,0.27l0.55,0l0.27-0.27H338.73z M330.02,23.6l-0.27,0.27h0.55l0.27-0.27L330.02,23.6z
						 M330.66,23.6l-0.27,0.27h0.55l0.27-0.27L330.66,23.6z M331.3,23.6l-0.27,0.27h0.55l0.27-0.27L331.3,23.6z M331.95,23.6
						l-0.27,0.27l0.55,0l0.27-0.27H331.95z M332.59,23.6l-0.27,0.27l0.55,0l0.27-0.27H332.59z M333.23,23.6l-0.27,0.27l0.55,0
						l0.27-0.27H333.23z M333.88,23.6l-0.27,0.27l0.55,0l0.27-0.27L333.88,23.6z M334.52,23.6l-0.27,0.27l0.55,0l0.27-0.27
						L334.52,23.6z M335.16,23.6l-0.27,0.27h0.55l0.27-0.27L335.16,23.6z M335.81,23.6l-0.27,0.27h0.55l0.27-0.27L335.81,23.6z
						 M336.45,23.6l-0.27,0.27l0.55,0l0.27-0.27L336.45,23.6z M337.1,23.59l-0.27,0.27l0.55,0l0.27-0.27H337.1z M337.74,23.59
						l-0.27,0.27l0.55,0l0.27-0.27H337.74z M338.38,23.59l-0.27,0.27l0.55,0l0.27-0.27L338.38,23.59z M339.03,23.59l-0.27,0.27
						l0.55,0l0.27-0.27L339.03,23.59z M329.66,23.31l-0.27,0.27l0.55,0l0.27-0.27H329.66z M330.31,23.31l-0.27,0.27l0.55,0
						l0.27-0.27H330.31z M330.95,23.31l-0.27,0.27l0.55,0l0.27-0.27H330.95z M331.59,23.31l-0.27,0.27l0.55,0l0.27-0.27
						L331.59,23.31z M332.24,23.31l-0.27,0.27l0.55,0l0.27-0.27L332.24,23.31z M332.88,23.31l-0.27,0.27h0.55l0.27-0.27
						L332.88,23.31z M333.53,23.31l-0.27,0.27l0.55,0l0.27-0.27L333.53,23.31z M334.17,23.31l-0.27,0.27h0.55l0.27-0.27
						L334.17,23.31z M334.81,23.31l-0.27,0.27l0.55,0l0.27-0.27L334.81,23.31z M335.46,23.31l-0.27,0.27l0.55,0l0.27-0.27
						L335.46,23.31z M336.1,23.31l-0.27,0.27l0.55,0l0.27-0.27H336.1z M336.74,23.31l-0.27,0.27l0.55,0l0.27-0.27L336.74,23.31z
						 M337.39,23.31l-0.27,0.27l0.55,0l0.27-0.27H337.39z M338.03,23.31l-0.27,0.27l0.55,0l0.27-0.27L338.03,23.31z M338.67,23.31
						l-0.27,0.27l0.55,0l0.27-0.27L338.67,23.31z M339.32,23.31l-0.27,0.27h0.55l0.27-0.27L339.32,23.31z M329.31,23.03l-0.27,0.27
						l0.55,0l0.27-0.27H329.31z M329.96,23.02l-0.27,0.27l0.55,0l0.27-0.27H329.96z M330.6,23.02l-0.27,0.27l0.55,0l0.27-0.27H330.6
						z M331.24,23.02l-0.27,0.27l0.55,0l0.27-0.27L331.24,23.02z M331.89,23.02l-0.27,0.27l0.55,0l0.27-0.27L331.89,23.02z
						 M332.53,23.02l-0.27,0.27h0.55l0.27-0.27L332.53,23.02z M333.17,23.02l-0.27,0.27h0.55l0.27-0.27L333.17,23.02z M333.82,23.02
						l-0.27,0.27l0.55,0l0.27-0.27H333.82z M334.46,23.02l-0.27,0.27l0.55,0l0.27-0.27H334.46z M335.1,23.02l-0.27,0.27l0.55,0
						l0.27-0.27H335.1z M335.75,23.02l-0.27,0.27l0.55,0l0.27-0.27L335.75,23.02z M336.39,23.02l-0.27,0.27l0.55,0l0.27-0.27
						L336.39,23.02z M337.03,23.02l-0.27,0.27h0.55l0.27-0.27L337.03,23.02z M337.68,23.02l-0.27,0.27h0.55l0.27-0.27L337.68,23.02z
						 M338.32,23.02l-0.27,0.27h0.55l0.27-0.27L338.32,23.02z M338.97,23.02l-0.27,0.27l0.55,0l0.27-0.27H338.97z M339.61,23.02
						l-0.27,0.27l0.55,0l0.27-0.27H339.61z M328.96,22.74l-0.27,0.27l0.55,0l0.27-0.27L328.96,22.74z M329.6,22.74l-0.27,0.27
						l0.55,0l0.27-0.27L329.6,22.74z M330.25,22.74l-0.27,0.27h0.55l0.27-0.27L330.25,22.74z M330.89,22.74L330.62,23h0.55
						l0.27-0.27L330.89,22.74z M331.53,22.74L331.26,23h0.55l0.27-0.27L331.53,22.74z M332.18,22.74L331.91,23l0.55,0l0.27-0.27
						H332.18z M332.82,22.74L332.55,23l0.55,0l0.27-0.27H332.82z M333.46,22.73L333.19,23l0.55,0l0.27-0.27H333.46z M334.11,22.73
						L333.84,23l0.55,0l0.27-0.27L334.11,22.73z M334.75,22.73L334.48,23h0.55l0.27-0.27L334.75,22.73z M335.4,22.73L335.12,23
						l0.55,0l0.27-0.27L335.4,22.73z M336.04,22.73L335.77,23h0.55l0.27-0.27L336.04,22.73z M336.68,22.73L336.41,23l0.55,0
						l0.27-0.27L336.68,22.73z M337.33,22.73L337.05,23l0.55,0l0.27-0.27L337.33,22.73z M337.97,22.73L337.7,23h0.55l0.27-0.27
						H337.97z M338.61,22.73L338.34,23l0.55,0l0.27-0.27L338.61,22.73z M339.26,22.73L338.98,23l0.55,0l0.27-0.27H339.26z
						 M339.9,22.73L339.63,23l0.55,0l0.27-0.27H339.9z M328.61,22.45l-0.27,0.27h0.55l0.27-0.27L328.61,22.45z M329.25,22.45
						l-0.27,0.27l0.55,0l0.27-0.27L329.25,22.45z M329.89,22.45l-0.27,0.27h0.55l0.27-0.27H329.89z M330.54,22.45l-0.27,0.27h0.55
						l0.27-0.27L330.54,22.45z M331.18,22.45l-0.27,0.27l0.55,0l0.27-0.27L331.18,22.45z M331.83,22.45l-0.27,0.27l0.55,0l0.27-0.27
						H331.83z M332.47,22.45l-0.27,0.27l0.55,0l0.27-0.27H332.47z M333.11,22.45l-0.27,0.27l0.55,0l0.27-0.27L333.11,22.45z
						 M333.76,22.45l-0.27,0.27l0.55,0l0.27-0.27L333.76,22.45z M334.4,22.45l-0.27,0.27h0.55l0.27-0.27L334.4,22.45z M335.04,22.45
						l-0.27,0.27h0.55l0.27-0.27L335.04,22.45z M335.69,22.45l-0.27,0.27h0.55l0.27-0.27L335.69,22.45z M336.33,22.44l-0.27,0.27
						l0.55,0l0.27-0.27H336.33z M336.97,22.44l-0.27,0.27l0.55,0l0.27-0.27H336.97z M337.62,22.44l-0.27,0.27l0.55,0l0.27-0.27
						H337.62z M338.26,22.44l-0.27,0.27l0.55,0l0.27-0.27L338.26,22.44z M338.9,22.44l-0.27,0.27l0.55,0l0.27-0.27L338.9,22.44z
						 M339.55,22.44l-0.27,0.27h0.55l0.27-0.27L339.55,22.44z M340.19,22.44l-0.27,0.27h0.55l0.27-0.27L340.19,22.44z M328.9,22.16
						l-0.27,0.27h0.55l0.27-0.27L328.9,22.16z M329.54,22.16l-0.27,0.27l0.55,0l0.27-0.27H329.54z M330.19,22.16l-0.27,0.27l0.55,0
						l0.27-0.27H330.19z M330.83,22.16l-0.27,0.27l0.55,0l0.27-0.27L330.83,22.16z M331.47,22.16l-0.27,0.27l0.55,0l0.27-0.27
						L331.47,22.16z M332.12,22.16l-0.27,0.27h0.55l0.27-0.27L332.12,22.16z M332.76,22.16l-0.27,0.27h0.55l0.27-0.27L332.76,22.16z
						 M333.4,22.16l-0.27,0.27h0.55l0.27-0.27L333.4,22.16z M334.05,22.16l-0.27,0.27l0.55,0l0.27-0.27H334.05z M334.69,22.16
						l-0.27,0.27l0.55,0l0.27-0.27H334.69z M335.33,22.16l-0.27,0.27l0.55,0l0.27-0.27H335.33z M335.98,22.16l-0.27,0.27l0.55,0
						l0.27-0.27L335.98,22.16z M336.62,22.16l-0.27,0.27l0.55,0l0.27-0.27L336.62,22.16z M337.26,22.16l-0.27,0.27l0.55,0l0.27-0.27
						L337.26,22.16z M337.91,22.16l-0.27,0.27l0.55,0l0.27-0.27L337.91,22.16z M338.55,22.16l-0.27,0.27h0.55l0.27-0.27
						L338.55,22.16z M339.2,22.16l-0.27,0.27l0.55,0l0.27-0.27L339.2,22.16z M339.84,22.15l-0.27,0.27h0.55l0.27-0.27H339.84z
						 M328.55,21.88l-0.27,0.27l0.55,0l0.27-0.27H328.55z M329.19,21.88l-0.27,0.27l0.55,0l0.27-0.27L329.19,21.88z M329.83,21.88
						l-0.27,0.27l0.55,0l0.27-0.27L329.83,21.88z M330.48,21.87l-0.27,0.27h0.55l0.27-0.27L330.48,21.87z M331.12,21.87l-0.27,0.27
						l0.55,0l0.27-0.27L331.12,21.87z M331.76,21.87l-0.27,0.27h0.55l0.27-0.27L331.76,21.87z M332.41,21.87l-0.27,0.27h0.55
						l0.27-0.27L332.41,21.87z M333.05,21.87l-0.27,0.27h0.55l0.27-0.27L333.05,21.87z M333.7,21.87l-0.27,0.27l0.55,0l0.27-0.27
						H333.7z M334.34,21.87l-0.27,0.27l0.55,0l0.27-0.27H334.34z M334.98,21.87l-0.27,0.27l0.55,0l0.27-0.27H334.98z M335.63,21.87
						l-0.27,0.27l0.55,0l0.27-0.27L335.63,21.87z M336.27,21.87L336,22.14l0.55,0l0.27-0.27L336.27,21.87z M336.91,21.87l-0.27,0.27
						h0.55l0.27-0.27L336.91,21.87z M337.56,21.87l-0.27,0.27h0.55l0.27-0.27L337.56,21.87z M338.2,21.87l-0.27,0.27l0.55,0
						l0.27-0.27L338.2,21.87z M338.84,21.87l-0.27,0.27l0.55,0l0.27-0.27H338.84z M339.49,21.87l-0.27,0.27l0.55,0l0.27-0.27H339.49
						z M340.13,21.87l-0.27,0.27l0.55,0l0.27-0.27L340.13,21.87z M328.84,21.59l-0.27,0.27l0.55,0l0.27-0.27L328.84,21.59z
						 M329.48,21.59l-0.27,0.27l0.55,0l0.27-0.27L329.48,21.59z M330.13,21.59l-0.27,0.27h0.55l0.27-0.27L330.13,21.59z
						 M330.77,21.59l-0.27,0.27h0.55l0.27-0.27L330.77,21.59z M331.41,21.59l-0.27,0.27l0.55,0l0.27-0.27H331.41z M332.06,21.59
						l-0.27,0.27l0.55,0l0.27-0.27H332.06z M332.7,21.59l-0.27,0.27l0.55,0l0.27-0.27H332.7z M333.34,21.59l-0.27,0.27l0.55,0
						l0.27-0.27L333.34,21.59z M333.99,21.58l-0.27,0.27l0.55,0l0.27-0.27L333.99,21.58z M334.63,21.58l-0.27,0.27h0.55l0.27-0.27
						L334.63,21.58z M335.27,21.58L335,21.85h0.55l0.27-0.27L335.27,21.58z M335.92,21.58l-0.27,0.27h0.55l0.27-0.27L335.92,21.58z
						 M336.56,21.58l-0.27,0.27l0.55,0l0.27-0.27H336.56z M337.2,21.58l-0.27,0.27l0.55,0l0.27-0.27H337.2z M337.85,21.58
						l-0.27,0.27l0.55,0l0.27-0.27H337.85z M338.49,21.58l-0.27,0.27l0.55,0l0.27-0.27L338.49,21.58z M339.14,21.58l-0.27,0.27
						l0.55,0l0.27-0.27L339.14,21.58z M339.78,21.58l-0.27,0.27l0.55,0l0.27-0.27L339.78,21.58z M328.49,21.3l-0.27,0.27h0.55
						l0.27-0.27L328.49,21.3z M329.13,21.3l-0.27,0.27l0.55,0l0.27-0.27H329.13z M329.77,21.3l-0.27,0.27l0.55,0l0.27-0.27H329.77z
						 M330.42,21.3l-0.27,0.27l0.55,0l0.27-0.27H330.42z M331.06,21.3l-0.27,0.27l0.55,0l0.27-0.27L331.06,21.3z M331.7,21.3
						l-0.27,0.27l0.55,0l0.27-0.27L331.7,21.3z M332.35,21.3l-0.27,0.27h0.55l0.27-0.27H332.35z M332.99,21.3l-0.27,0.27l0.55,0
						l0.27-0.27L332.99,21.3z M333.63,21.3l-0.27,0.27l0.55,0l0.27-0.27L333.63,21.3z M334.28,21.3l-0.27,0.27h0.55l0.27-0.27
						L334.28,21.3z M334.92,21.3l-0.27,0.27h0.55l0.27-0.27H334.92z M335.56,21.3l-0.27,0.27l0.55,0l0.27-0.27L335.56,21.3z
						 M336.21,21.29l-0.27,0.27l0.55,0l0.27-0.27H336.21z M336.85,21.29l-0.27,0.27l0.55,0l0.27-0.27H336.85z M337.5,21.29
						l-0.27,0.27l0.55,0l0.27-0.27L337.5,21.29z M338.14,21.29l-0.27,0.27l0.55,0l0.27-0.27L338.14,21.29z M338.78,21.29l-0.27,0.27
						h0.55l0.27-0.27L338.78,21.29z M339.43,21.29l-0.27,0.27h0.55l0.27-0.27L339.43,21.29z M340.07,21.29l-0.27,0.27h0.55
						l0.27-0.27L340.07,21.29z M328.78,21.01l-0.27,0.27l0.55,0l0.27-0.27H328.78z M329.42,21.01l-0.27,0.27l0.55,0l0.27-0.27
						H329.42z M330.06,21.01l-0.27,0.27l0.55,0l0.27-0.27H330.06z M330.71,21.01l-0.27,0.27l0.55,0l0.27-0.27L330.71,21.01z
						 M331.35,21.01l-0.27,0.27l0.55,0l0.27-0.27L331.35,21.01z M332,21.01l-0.27,0.27h0.55l0.27-0.27L332,21.01z M332.64,21.01
						l-0.27,0.27h0.55l0.27-0.27L332.64,21.01z M333.28,21.01l-0.27,0.27h0.55l0.27-0.27L333.28,21.01z M333.93,21.01l-0.27,0.27
						l0.55,0l0.27-0.27H333.93z M334.57,21.01l-0.27,0.27l0.55,0l0.27-0.27H334.57z M335.21,21.01l-0.27,0.27l0.55,0l0.27-0.27
						H335.21z M335.86,21.01l-0.27,0.27l0.55,0l0.27-0.27L335.86,21.01z M336.5,21.01l-0.27,0.27h0.55l0.27-0.27L336.5,21.01z
						 M337.14,21.01l-0.27,0.27h0.55l0.27-0.27L337.14,21.01z M337.79,21.01l-0.27,0.27h0.55l0.27-0.27L337.79,21.01z M338.43,21.01
						l-0.27,0.27l0.55,0l0.27-0.27H338.43z M339.07,21.01l-0.27,0.27l0.55,0l0.27-0.27L339.07,21.01z M339.72,21l-0.27,0.27l0.55,0
						l0.27-0.27H339.72z M328.43,20.73l-0.27,0.27l0.55,0l0.27-0.27L328.43,20.73z M329.07,20.73l-0.27,0.27l0.55,0l0.27-0.27
						L329.07,20.73z M329.71,20.73l-0.27,0.27h0.55l0.27-0.27L329.71,20.73z M330.36,20.72l-0.27,0.27h0.55l0.27-0.27L330.36,20.72z
						 M331,20.72l-0.27,0.27h0.55l0.27-0.27L331,20.72z M331.64,20.72l-0.27,0.27l0.55,0l0.27-0.27H331.64z M332.29,20.72
						l-0.27,0.27l0.55,0l0.27-0.27H332.29z M332.93,20.72l-0.27,0.27h0.55l0.27-0.27H332.93z M333.57,20.72l-0.27,0.27l0.55,0
						l0.27-0.27L333.57,20.72z M334.22,20.72l-0.27,0.27l0.55,0l0.27-0.27H334.22z M334.86,20.72l-0.27,0.27l0.55,0l0.27-0.27
						L334.86,20.72z M335.5,20.72l-0.27,0.27l0.55,0l0.27-0.27L335.5,20.72z M336.15,20.72l-0.27,0.27h0.55l0.27-0.27L336.15,20.72z
						 M336.79,20.72l-0.27,0.27h0.55l0.27-0.27L336.79,20.72z M337.44,20.72l-0.27,0.27h0.55l0.27-0.27L337.44,20.72z M338.08,20.72
						l-0.27,0.27l0.55,0l0.27-0.27H338.08z M338.72,20.72l-0.27,0.27l0.55,0l0.27-0.27H338.72z M339.37,20.72l-0.27,0.27l0.55,0
						l0.27-0.27H339.37z M340.01,20.72l-0.27,0.27l0.55,0l0.27-0.27L340.01,20.72z M328.72,20.44l-0.27,0.27l0.55,0l0.27-0.27
						L328.72,20.44z M329.36,20.44l-0.27,0.27h0.55l0.27-0.27L329.36,20.44z M330,20.44l-0.27,0.27h0.55l0.27-0.27L330,20.44z
						 M330.65,20.44l-0.27,0.27h0.55l0.27-0.27L330.65,20.44z M331.29,20.44l-0.27,0.27l0.55,0l0.27-0.27H331.29z M331.93,20.44
						l-0.27,0.27l0.55,0l0.27-0.27H331.93z M332.58,20.44l-0.27,0.27l0.55,0l0.27-0.27L332.58,20.44z M333.22,20.44l-0.27,0.27
						l0.55,0l0.27-0.27L333.22,20.44z M333.87,20.43l-0.27,0.27l0.55,0l0.27-0.27L333.87,20.43z M334.51,20.43l-0.27,0.27h0.55
						l0.27-0.27L334.51,20.43z M335.15,20.43l-0.27,0.27h0.55l0.27-0.27L335.15,20.43z M335.8,20.43l-0.27,0.27l0.55,0l0.27-0.27
						H335.8z M336.44,20.43l-0.27,0.27l0.55,0l0.27-0.27H336.44z M337.08,20.43l-0.27,0.27l0.55,0l0.27-0.27H337.08z M337.73,20.43
						l-0.27,0.27l0.55,0l0.27-0.27L337.73,20.43z M338.37,20.43l-0.27,0.27l0.55,0l0.27-0.27L338.37,20.43z M339.01,20.43
						l-0.27,0.27h0.55l0.27-0.27L339.01,20.43z M339.66,20.43l-0.27,0.27h0.55l0.27-0.27L339.66,20.43z M329.01,20.15l-0.27,0.27
						l0.55,0l0.27-0.27H329.01z M329.65,20.15l-0.27,0.27l0.55,0l0.27-0.27H329.65z M330.3,20.15l-0.27,0.27l0.55,0l0.27-0.27H330.3
						z M330.94,20.15l-0.27,0.27l0.55,0l0.27-0.27L330.94,20.15z M331.58,20.15l-0.27,0.27l0.55,0l0.27-0.27L331.58,20.15z
						 M332.23,20.15l-0.27,0.27h0.55l0.27-0.27L332.23,20.15z M332.87,20.15l-0.27,0.27h0.55l0.27-0.27L332.87,20.15z M333.51,20.15
						l-0.27,0.27l0.55,0l0.27-0.27L333.51,20.15z M334.16,20.15l-0.27,0.27l0.55,0l0.27-0.27H334.16z M334.8,20.15l-0.27,0.27h0.55
						l0.27-0.27H334.8z M335.44,20.15l-0.27,0.27l0.55,0l0.27-0.27L335.44,20.15z M336.09,20.14l-0.27,0.27l0.55,0l0.27-0.27H336.09
						z M336.73,20.14l-0.27,0.27l0.55,0l0.27-0.27H336.73z M337.37,20.14l-0.27,0.27l0.55,0l0.27-0.27L337.37,20.14z M338.02,20.14
						l-0.27,0.27l0.55,0l0.27-0.27L338.02,20.14z M338.66,20.14l-0.27,0.27h0.55l0.27-0.27L338.66,20.14z M339.3,20.14l-0.27,0.27
						h0.55l0.27-0.27L339.3,20.14z M329.3,19.86l-0.27,0.27l0.55,0l0.27-0.27L329.3,19.86z M329.94,19.86l-0.27,0.27l0.55,0
						l0.27-0.27H329.94z M330.59,19.86l-0.27,0.27l0.55,0l0.27-0.27L330.59,19.86z M331.23,19.86l-0.27,0.27l0.55,0l0.27-0.27
						L331.23,19.86z M331.87,19.86l-0.27,0.27h0.55l0.27-0.27L331.87,19.86z M332.52,19.86l-0.27,0.27h0.55l0.27-0.27L332.52,19.86z
						 M333.16,19.86l-0.27,0.27l0.55,0l0.27-0.27H333.16z M333.8,19.86l-0.27,0.27l0.55,0l0.27-0.27H333.8z M334.45,19.86
						l-0.27,0.27l0.55,0l0.27-0.27H334.45z M335.09,19.86l-0.27,0.27l0.55,0l0.27-0.27L335.09,19.86z M335.74,19.86l-0.27,0.27
						l0.55,0l0.27-0.27L335.74,19.86z M336.38,19.86l-0.27,0.27h0.55l0.27-0.27L336.38,19.86z M337.02,19.86l-0.27,0.27h0.55
						l0.27-0.27L337.02,19.86z M337.67,19.86l-0.27,0.27h0.55l0.27-0.27L337.67,19.86z M338.31,19.86l-0.27,0.27l0.55,0l0.27-0.27
						H338.31z M338.95,19.86l-0.27,0.27l0.55,0l0.27-0.27H338.95z M329.59,19.58l-0.27,0.27h0.55l0.27-0.27L329.59,19.58z
						 M330.23,19.57l-0.27,0.27h0.55l0.27-0.27L330.23,19.57z M330.88,19.57l-0.27,0.27h0.55l0.27-0.27H330.88z M331.52,19.57
						l-0.27,0.27l0.55,0l0.27-0.27H331.52z M332.17,19.57l-0.27,0.27l0.55,0l0.27-0.27H332.17z M332.81,19.57l-0.27,0.27l0.55,0
						l0.27-0.27L332.81,19.57z M333.45,19.57l-0.27,0.27l0.55,0l0.27-0.27L333.45,19.57z M334.1,19.57l-0.27,0.27h0.55l0.27-0.27
						L334.1,19.57z M334.74,19.57l-0.27,0.27h0.55l0.27-0.27L334.74,19.57z M335.38,19.57l-0.27,0.27h0.55l0.27-0.27L335.38,19.57z
						 M336.03,19.57l-0.27,0.27l0.55,0l0.27-0.27H336.03z M336.67,19.57l-0.27,0.27h0.55l0.27-0.27H336.67z M337.31,19.57
						l-0.27,0.27h0.55l0.27-0.27L337.31,19.57z M337.96,19.57l-0.27,0.27l0.55,0l0.27-0.27H337.96z M338.6,19.57l-0.27,0.27l0.55,0
						l0.27-0.27H338.6z M329.88,19.29l-0.27,0.27l0.55,0l0.27-0.27L329.88,19.29z M330.53,19.29l-0.27,0.27l0.55,0l0.27-0.27H330.53
						z M331.17,19.29l-0.27,0.27l0.55,0l0.27-0.27H331.17z M331.81,19.29l-0.27,0.27l0.55,0l0.27-0.27H331.81z M332.46,19.29
						l-0.27,0.27l0.55,0l0.27-0.27L332.46,19.29z M333.1,19.29l-0.27,0.27l0.55,0l0.27-0.27L333.1,19.29z M333.74,19.28l-0.27,0.27
						h0.55l0.27-0.27L333.74,19.28z M334.39,19.28l-0.27,0.27h0.55l0.27-0.27L334.39,19.28z M335.03,19.28l-0.27,0.27h0.55
						l0.27-0.27L335.03,19.28z M335.67,19.28l-0.27,0.27l0.55,0l0.27-0.27H335.67z M336.32,19.28l-0.27,0.27l0.55,0l0.27-0.27
						H336.32z M336.96,19.28l-0.27,0.27l0.55,0l0.27-0.27H336.96z M337.6,19.28l-0.27,0.27l0.55,0l0.27-0.27L337.6,19.28z
						 M338.25,19.28l-0.27,0.27l0.55,0l0.27-0.27L338.25,19.28z M330.82,19l-0.27,0.27l0.55,0l0.27-0.27L330.82,19z M331.46,19
						l-0.27,0.27h0.55l0.27-0.27L331.46,19z M332.1,19l-0.27,0.27h0.55l0.27-0.27L332.1,19z M332.75,19l-0.27,0.27h0.55L333.3,19
						L332.75,19z M333.39,19l-0.27,0.27l0.55,0l0.27-0.27H333.39z M334.03,19l-0.27,0.27l0.55,0l0.27-0.27H334.03z M334.68,19
						l-0.27,0.27l0.55,0l0.27-0.27H334.68z M335.32,19l-0.27,0.27l0.55,0l0.27-0.27L335.32,19z M335.97,19l-0.27,0.27l0.55,0
						l0.27-0.27L335.97,19z M336.61,18.99l-0.27,0.27h0.55l0.27-0.27L336.61,18.99z M337.25,18.99l-0.27,0.27h0.55l0.27-0.27
						L337.25,18.99z M337.9,18.99l-0.27,0.27h0.55l0.27-0.27L337.9,18.99z M331.11,18.71l-0.27,0.27h0.55l0.27-0.27L331.11,18.71z
						 M331.75,18.71l-0.27,0.27l0.55,0l0.27-0.27L331.75,18.71z M332.4,18.71l-0.27,0.27h0.55l0.27-0.27L332.4,18.71z M333.04,18.71
						l-0.27,0.27l0.55,0l0.27-0.27H333.04z M333.68,18.71l-0.27,0.27l0.55,0l0.27-0.27H333.68z M334.33,18.71l-0.27,0.27l0.55,0
						l0.27-0.27H334.33z M334.97,18.71l-0.27,0.27l0.55,0l0.27-0.27L334.97,18.71z M335.61,18.71l-0.27,0.27h0.55l0.27-0.27
						L335.61,18.71z M336.26,18.71l-0.27,0.27h0.55l0.27-0.27L336.26,18.71z M336.9,18.71l-0.27,0.27h0.55l0.27-0.27L336.9,18.71z
						 M332.04,18.42l-0.27,0.27l0.55,0l0.27-0.27H332.04z M332.69,18.42l-0.27,0.27l0.55,0l0.27-0.27L332.69,18.42z M333.33,18.42
						l-0.27,0.27l0.55,0l0.27-0.27L333.33,18.42z M333.97,18.42l-0.27,0.27h0.55l0.27-0.27L333.97,18.42z M334.62,18.42l-0.27,0.27
						h0.55l0.27-0.27L334.62,18.42z M335.26,18.42l-0.27,0.27l0.55,0l0.27-0.27L335.26,18.42z M335.9,18.42l-0.27,0.27l0.55,0
						l0.27-0.27H335.9z M333.62,18.13l-0.27,0.27h0.55l0.27-0.27L333.62,18.13z M334.27,18.13l-0.27,0.27h0.55l0.27-0.27
						L334.27,18.13z"/>
					<path class="st40" d="M339.18,19.02c-0.59-0.34-1.26-0.61-1.98-0.79c-0.08-0.02-0.17-0.04-0.25-0.07
						c-2.43-0.57-5.31-0.29-7.27,0.84c-0.48,0.28-0.87,0.59-1.18,0.92c-0.03,0.03-0.06,0.07-0.09,0.1
						c-0.03,0.03-0.05,0.06-0.08,0.09c-0.37,0.46-0.57,0.96-0.61,1.47c0,0.02,0,0.04,0,0.06c0.04,0.43,0.2,0.86,0.49,1.27
						c0.13,0.19,0.29,0.37,0.48,0.55c-0.47-0.52-0.71-1.08-0.72-1.65c-0.04-0.98,0.59-1.96,1.88-2.7c2.52-1.45,6.61-1.45,9.15,0.02
						c1.31,0.75,1.94,1.74,1.91,2.73c-0.02,0.56-0.25,1.12-0.71,1.63c0.18-0.17,0.34-0.35,0.47-0.53c0.26-0.37,0.42-0.76,0.48-1.16
						c0.01-0.06,0.01-0.11,0.02-0.17C341.1,20.68,340.44,19.74,339.18,19.02z"/>
				</g>
			</g>
		</g>
	</g>
</g>
</svg>
