<?xml version="1.0" encoding="utf-8"?>
<!-- Generator: Adobe Illustrator 24.1.2, SVG Export Plug-In . SVG Version: 6.00 Build 0)  -->
<svg version="1.1" id="Calque_1" xmlns="http://www.w3.org/2000/svg" xmlns:xlink="http://www.w3.org/1999/xlink" x="0px" y="0px"
	 viewBox="0 0 512 512" style="enable-background:new 0 0 512 512;" xml:space="preserve">
<style type="text/css">
	.st0{fill:#453B42;}
	.st1{fill:#6F5F6A;}
	.st2{fill:#51484F;}
	.st3{fill:#E0E0E0;}
	.st4{fill:#E8E3D3;}
	.st5{fill:#8F7A7D;}
	.st6{fill:#FBD7A5;}
	.st7{fill:#E8DBB3;}
	.st8{fill:#B39E97;}
</style>
<g id="road_1_">
	<g id="road">
		<g>
			<polygon class="st0" points="213.89,471 4,337.19 4,331.87 505.9,284.81 			"/>
			<polygon class="st1" points="505.9,279.39 213.89,465.58 43.14,356.78 42.61,356.49 42.61,356.49 4,331.87 189.99,213.32 
				190.44,212.93 208.81,201.31 209.25,201.01 296.1,145.68 334.71,170.19 334.71,170.19 335.15,170.59 350.13,180.14 
				350.93,180.63 365.11,189.69 365.65,189.99 484.06,265.51 484.5,265.8 			"/>
			<polygon class="st2" points="505.9,279.39 505.9,284.81 213.89,471 213.89,465.58 			"/>
		</g>
		<g>
			<polygon class="st3" points="285.04,262.06 281.57,259.8 280.85,260.29 284.33,262.45 			"/>
			<polygon class="st3" points="292.44,266.69 288.97,264.52 288.25,264.92 291.73,267.18 			"/>
			<polygon class="st3" points="299.84,271.41 296.37,269.25 295.65,269.64 299.13,271.91 			"/>
			<polygon class="st3" points="307.24,276.14 303.68,273.88 302.96,274.37 306.44,276.63 			"/>
			<polygon class="st3" points="314.56,280.87 311.08,278.6 310.37,279.09 313.84,281.26 			"/>
			<polygon class="st3" points="321.96,285.49 318.48,283.33 317.77,283.72 321.24,285.99 			"/>
			<polygon class="st3" points="329.36,290.22 325.79,287.96 325.08,288.45 328.55,290.71 			"/>
			<polygon class="st3" points="336.67,294.95 333.19,292.68 332.48,293.18 335.96,295.34 			"/>
			<polygon class="st3" points="344.07,299.58 340.59,297.41 339.79,297.8 343.36,300.07 			"/>
			<polygon class="st3" points="351.38,304.3 347.9,302.14 347.19,302.53 350.67,304.79 			"/>
			<polygon class="st3" points="358.78,309.03 355.3,306.76 354.59,307.26 358.07,309.52 			"/>
			<polygon class="st3" points="366.18,313.75 362.7,311.49 361.99,311.98 365.47,314.15 			"/>
			<polygon class="st3" points="373.58,318.38 370.02,316.22 369.3,316.61 372.78,318.87 			"/>
		</g>
		<g>
			<polygon class="st3" points="100.03,381.6 96.55,379.43 95.84,379.82 99.32,382.09 			"/>
			<polygon class="st3" points="107.43,386.32 103.86,384.06 103.15,384.55 106.72,386.81 			"/>
			<polygon class="st3" points="114.74,391.05 111.26,388.78 110.55,389.28 114.03,391.44 			"/>
			<polygon class="st3" points="122.14,395.68 118.66,393.51 117.95,393.9 121.43,396.17 			"/>
			<polygon class="st3" points="129.54,400.4 125.98,398.14 125.26,398.63 128.83,400.89 			"/>
			<polygon class="st3" points="136.85,405.13 133.38,402.86 132.66,403.36 136.14,405.52 			"/>
			<polygon class="st3" points="144.25,409.85 140.78,407.59 140.06,408.08 143.54,410.25 			"/>
			<polygon class="st3" points="151.65,414.48 148.09,412.32 147.37,412.71 150.94,414.97 			"/>
			<polygon class="st3" points="158.97,419.21 155.49,416.94 154.78,417.44 158.25,419.7 			"/>
			<polygon class="st3" points="166.37,423.93 162.89,421.67 162.18,422.16 165.65,424.33 			"/>
			<polygon class="st3" points="173.77,428.66 170.2,426.4 169.49,426.79 173.05,429.05 			"/>
			<polygon class="st3" points="181.08,433.29 177.6,431.12 176.89,431.52 180.37,433.78 			"/>
			<polygon class="st3" points="188.48,438.01 185,435.75 184.29,436.24 187.77,438.51 			"/>
		</g>
		<g>
			<polygon class="st3" points="225.48,258.02 228.96,255.76 229.67,256.25 226.11,258.52 			"/>
			<polygon class="st3" points="218.08,262.75 221.56,260.49 222.27,260.98 218.79,263.14 			"/>
			<polygon class="st3" points="210.68,267.48 214.16,265.21 214.87,265.7 211.39,267.87 			"/>
			<polygon class="st3" points="203.28,272.1 206.85,269.94 207.56,270.33 204.08,272.6 			"/>
			<polygon class="st3" points="195.97,276.83 199.45,274.57 200.16,275.06 196.68,277.32 			"/>
			<polygon class="st3" points="188.57,281.56 192.05,279.29 192.76,279.78 189.28,281.95 			"/>
			<polygon class="st3" points="181.17,286.18 184.73,284.02 185.45,284.51 181.88,286.68 			"/>
			<polygon class="st3" points="173.86,290.91 177.33,288.74 178.05,289.14 174.57,291.4 			"/>
			<polygon class="st3" points="166.46,295.64 169.93,293.37 170.65,293.86 167.17,296.13 			"/>
			<polygon class="st3" points="159.14,300.36 162.62,298.1 163.33,298.59 159.77,300.76 			"/>
			<polygon class="st3" points="151.74,304.99 155.22,302.82 155.93,303.22 152.46,305.48 			"/>
			<polygon class="st3" points="144.34,309.72 147.82,307.45 148.53,307.94 145.06,310.21 			"/>
			<polygon class="st3" points="137.03,314.44 140.51,312.18 141.22,312.67 137.75,314.84 			"/>
			<polygon class="st3" points="129.63,319.17 133.11,316.9 133.82,317.4 130.34,319.56 			"/>
			<polygon class="st3" points="122.23,323.8 125.71,321.63 126.42,322.02 122.94,324.29 			"/>
			<polygon class="st3" points="114.92,328.52 118.4,326.26 119.11,326.75 115.63,329.02 			"/>
			<polygon class="st3" points="107.52,333.25 111,330.99 111.71,331.48 108.23,333.64 			"/>
			<polygon class="st3" points="100.12,337.88 103.6,335.71 104.31,336.2 100.83,338.37 			"/>
		</g>
		<g>
			<polygon class="st3" points="350.93,180.63 347.81,182.6 347.1,182.11 350.13,180.14 			"/>
			<polygon class="st3" points="339.7,186.83 343.18,184.57 343.89,185.06 340.41,187.23 			"/>
			<polygon class="st3" points="332.3,191.46 335.78,189.3 336.58,189.69 333.01,191.95 			"/>
			<polygon class="st3" points="324.99,196.19 328.47,193.92 329.18,194.42 325.7,196.68 			"/>
			<polygon class="st3" points="317.59,200.91 321.06,198.65 321.78,199.14 318.3,201.41 			"/>
			<polygon class="st3" points="310.19,205.54 313.75,203.38 314.47,203.87 310.9,206.03 			"/>
			<polygon class="st3" points="302.88,210.27 306.35,208.1 307.07,208.5 303.59,210.76 			"/>
			<polygon class="st3" points="295.48,215 298.95,212.73 299.67,213.22 296.19,215.49 			"/>
			<polygon class="st3" points="288.07,219.72 291.64,217.46 292.35,217.95 288.79,220.12 			"/>
			<polygon class="st3" points="280.76,224.45 284.24,222.18 284.95,222.68 281.48,224.84 			"/>
		</g>
		<g>
			<polygon class="st4" points="247.95,256.25 249.65,257.33 243.31,261.37 241.62,260.29 			"/>
			<polygon class="st4" points="245.19,254.58 246.88,255.66 240.64,259.6 238.95,258.52 			"/>
			<polygon class="st4" points="242.42,252.81 244.21,253.89 237.88,257.93 236.18,256.84 			"/>
			<polygon class="st4" points="239.75,251.03 241.44,252.12 235.11,256.15 233.42,255.07 			"/>
			<polygon class="st4" points="236.98,249.36 238.68,250.44 232.44,254.38 230.74,253.3 			"/>
			<polygon class="st4" points="234.22,247.59 236,248.67 229.67,252.71 227.98,251.53 			"/>
			<polygon class="st4" points="231.54,245.81 233.24,246.9 227,250.93 225.21,249.85 			"/>
			<polygon class="st4" points="228.78,244.14 230.47,245.22 224.23,249.16 222.54,248.08 			"/>
			<polygon class="st4" points="226.11,242.37 227.8,243.45 221.47,247.39 219.78,246.4 			"/>
		</g>
		<polygon class="st5" points="103.42,359.05 218.35,432.3 374.47,332.76 103.42,357.18 		"/>
		<polygon class="st5" points="4,331.87 40.56,355.21 225.04,237.54 4,330 		"/>
		<polygon class="st5" points="282.28,244.93 397.21,318.18 482,264.13 282.28,243.06 		"/>
	</g>
	<g id="road_ligne">
		<g>
			<polygon class="st6" points="426.19,307.85 419.95,306.96 419.95,306.66 426.01,307.45 424.58,303.61 424.76,303.51 
				424.85,303.51 430.83,304.4 429.49,300.46 429.67,300.36 435.82,301.25 434.39,297.31 434.57,297.31 434.66,297.21 440.63,298.1 
				439.3,294.36 439.65,294.26 441.08,298.39 440.9,298.49 434.84,297.61 436.17,301.54 436,301.64 429.84,300.76 431.27,304.6 
				431.09,304.79 425.03,303.91 426.37,307.75 			"/>
		</g>
		<g>
			<polygon class="st4" points="425.48,326.75 427.17,327.83 420.93,331.87 419.14,330.79 			"/>
			<polygon class="st4" points="422.71,325.08 424.41,326.16 418.16,330.1 416.47,329.02 			"/>
			<polygon class="st4" points="420.04,323.3 421.73,324.39 415.4,328.42 413.71,327.34 			"/>
			<polygon class="st4" points="417.27,321.53 418.97,322.71 412.72,326.65 410.94,325.57 			"/>
			<polygon class="st4" points="414.51,319.86 416.2,320.94 409.96,324.88 408.27,323.8 			"/>
			<polygon class="st4" points="411.83,318.09 413.53,319.17 407.2,323.21 405.5,322.12 			"/>
			<polygon class="st4" points="409.07,316.31 410.76,317.4 404.52,321.43 402.74,320.35 			"/>
		</g>
		<g>
			<polygon class="st4" points="391.33,348.41 393.02,349.5 386.69,353.53 385,352.45 			"/>
			<polygon class="st4" points="388.56,346.74 390.26,347.82 384.01,351.76 382.32,350.68 			"/>
			<polygon class="st4" points="385.8,344.97 387.58,346.05 381.25,350.09 379.56,348.91 			"/>
			<polygon class="st4" points="383.12,343.19 384.82,344.28 378.58,348.31 376.79,347.23 			"/>
			<polygon class="st4" points="380.36,341.52 382.05,342.6 375.81,346.54 374.12,345.46 			"/>
			<polygon class="st4" points="377.68,339.75 379.38,340.83 373.05,344.87 371.35,343.69 			"/>
			<polygon class="st4" points="374.92,337.98 376.61,339.06 370.37,343.1 368.68,342.01 			"/>
		</g>
		<g>
			<polygon class="st4" points="286.83,232.92 288.52,234 282.28,238.04 280.5,236.95 			"/>
			<polygon class="st4" points="284.06,231.24 285.76,232.32 279.51,236.26 277.82,235.18 			"/>
			<polygon class="st4" points="281.39,229.47 283.08,230.55 276.75,234.59 275.06,233.51 			"/>
			<polygon class="st4" points="278.62,227.7 280.32,228.78 274.08,232.82 272.38,231.73 			"/>
			<polygon class="st4" points="275.86,226.02 277.64,227.11 271.31,231.04 269.62,229.96 			"/>
			<polygon class="st4" points="273.18,224.25 274.88,225.33 268.55,229.37 266.85,228.29 			"/>
			<polygon class="st4" points="270.42,222.48 272.11,223.56 265.87,227.6 264.18,226.52 			"/>
			<polygon class="st4" points="267.66,220.8 269.44,221.89 263.11,225.83 261.41,224.74 			"/>
			<polygon class="st4" points="264.98,219.03 266.68,220.12 260.43,224.15 258.65,222.97 			"/>
		</g>
		<g>
			<polygon class="st4" points="108.05,347.43 109.84,348.51 103.51,352.55 101.81,351.37 			"/>
			<polygon class="st4" points="105.38,345.66 107.07,346.74 100.83,350.78 99.05,349.69 			"/>
			<polygon class="st4" points="102.61,343.88 104.31,344.97 98.07,349 96.37,347.92 			"/>
			<polygon class="st4" points="99.94,342.21 101.63,343.29 95.3,347.33 93.61,346.15 			"/>
			<polygon class="st4" points="97.18,340.44 98.87,341.52 92.63,345.56 90.85,344.47 			"/>
			<polygon class="st4" points="94.41,338.67 96.19,339.85 89.86,343.79 88.17,342.7 			"/>
			<polygon class="st4" points="91.74,336.99 93.43,338.07 87.19,342.01 85.41,340.93 			"/>
			<polygon class="st4" points="88.97,335.22 90.67,336.3 84.43,340.34 82.73,339.26 			"/>
			<polygon class="st4" points="86.21,333.45 87.99,334.53 81.66,338.57 79.97,337.48 			"/>
		</g>
		<g>
			<polygon class="st4" points="248.75,438.7 250.45,439.89 244.21,443.82 242.42,442.74 			"/>
			<polygon class="st4" points="245.99,437.03 247.68,438.11 241.44,442.05 239.75,440.97 			"/>
			<polygon class="st4" points="243.31,435.26 245.01,436.34 238.68,440.38 236.98,439.29 			"/>
			<polygon class="st4" points="240.55,433.49 242.24,434.57 236,438.61 234.22,437.52 			"/>
			<polygon class="st4" points="237.79,431.81 239.48,432.89 233.24,436.83 231.54,435.75 			"/>
			<polygon class="st4" points="235.11,430.04 236.81,431.12 230.47,435.16 228.78,434.08 			"/>
			<polygon class="st4" points="232.35,428.27 234.04,429.35 227.8,433.39 226.11,432.3 			"/>
		</g>
		<g>
			<polygon class="st4" points="189.46,442.25 187.77,443.33 194.01,447.37 195.7,446.19 			"/>
			<polygon class="st4" points="192.22,440.48 190.53,441.56 196.77,445.6 198.47,444.51 			"/>
			<polygon class="st4" points="194.9,438.7 193.2,439.89 199.45,443.82 201.23,442.74 			"/>
			<polygon class="st4" points="197.66,437.03 195.97,438.11 202.21,442.05 203.9,440.97 			"/>
			<polygon class="st4" points="200.43,435.26 198.64,436.34 204.97,440.38 206.67,439.29 			"/>
			<polygon class="st4" points="203.1,433.49 201.41,434.57 207.65,438.61 209.43,437.52 			"/>
			<polygon class="st4" points="205.87,431.81 204.17,432.89 210.41,436.83 212.11,435.75 			"/>
		</g>
		<g>
			<polygon class="st4" points="84.43,376.18 82.73,377.26 88.97,381.3 90.67,380.22 			"/>
			<polygon class="st4" points="87.19,374.41 85.41,375.49 91.74,379.53 93.43,378.44 			"/>
			<polygon class="st4" points="89.86,372.64 88.17,373.82 94.41,377.76 96.19,376.67 			"/>
			<polygon class="st4" points="92.63,370.96 90.85,372.04 97.18,376.08 98.87,375 			"/>
			<polygon class="st4" points="95.3,369.19 93.61,370.27 99.94,374.31 101.63,373.23 			"/>
			<polygon class="st4" points="98.07,367.51 96.37,368.6 102.61,372.54 104.31,371.45 			"/>
			<polygon class="st4" points="100.83,365.74 99.05,366.83 105.38,370.86 107.07,369.68 			"/>
		</g>
		<g>
			<polygon class="st4" points="220.76,228.39 219.06,229.47 225.3,233.51 227,232.42 			"/>
			<polygon class="st4" points="223.43,226.61 221.74,227.7 228.07,231.73 229.76,230.65 			"/>
			<polygon class="st4" points="226.2,224.94 224.5,226.02 230.74,230.06 232.44,228.88 			"/>
			<polygon class="st4" points="228.96,223.17 227.18,224.25 233.51,228.29 235.2,227.2 			"/>
			<polygon class="st4" points="231.63,221.4 229.94,222.48 236.27,226.52 237.96,225.43 			"/>
			<polygon class="st4" points="234.4,219.72 232.7,220.8 238.95,224.74 240.64,223.66 			"/>
		</g>
		<g>
			<polygon class="st4" points="370.37,323.8 368.68,324.88 374.92,328.82 376.61,327.74 			"/>
			<polygon class="st4" points="373.05,322.02 371.35,323.11 377.68,327.14 379.38,326.06 			"/>
			<polygon class="st4" points="375.81,320.25 374.12,321.43 380.36,325.37 382.05,324.29 			"/>
			<polygon class="st4" points="378.58,318.58 376.79,319.66 383.12,323.6 384.82,322.52 			"/>
			<polygon class="st4" points="381.25,316.81 379.56,317.89 385.8,321.93 387.58,320.84 			"/>
			<polygon class="st4" points="384.01,315.03 382.32,316.12 388.56,320.15 390.26,319.07 			"/>
		</g>
		<g>
			<polygon class="st4" points="266.94,257.93 265.25,259.01 271.49,263.05 273.18,261.86 			"/>
			<polygon class="st4" points="269.71,256.15 267.92,257.24 274.25,261.27 275.95,260.19 			"/>
			<polygon class="st4" points="272.38,254.38 270.69,255.46 276.93,259.5 278.71,258.42 			"/>
			<polygon class="st4" points="275.15,252.71 273.45,253.79 279.69,257.73 281.39,256.65 			"/>
			<polygon class="st4" points="277.82,250.93 276.13,252.02 282.46,256.05 284.15,254.97 			"/>
			<polygon class="st4" points="280.58,249.16 278.89,250.25 285.13,254.28 286.83,253.2 			"/>
		</g>
		<g>
			<polygon class="st3" points="375.37,354.81 378.84,352.55 379.56,352.94 376.08,355.21 			"/>
			<polygon class="st3" points="367.96,359.44 371.44,357.27 372.16,357.67 368.68,359.93 			"/>
			<polygon class="st3" points="360.56,364.17 364.13,361.9 364.84,362.39 361.28,364.66 			"/>
			<polygon class="st3" points="353.25,368.89 356.73,366.63 357.44,367.12 353.97,369.29 			"/>
			<polygon class="st3" points="345.85,373.52 349.33,371.36 350.04,371.75 346.57,374.01 			"/>
			<polygon class="st3" points="338.45,378.25 342.02,375.98 342.73,376.48 339.25,378.74 			"/>
			<polygon class="st3" points="331.14,382.97 334.62,380.71 335.33,381.2 331.85,383.37 			"/>
			<polygon class="st3" points="323.74,387.7 327.22,385.44 327.93,385.93 324.45,388.09 			"/>
			<polygon class="st3" points="316.34,392.33 319.91,390.16 320.62,390.56 317.05,392.82 			"/>
			<polygon class="st3" points="309.03,397.05 312.51,394.79 313.22,395.28 309.74,397.55 			"/>
			<polygon class="st3" points="301.63,401.78 305.1,399.52 305.82,400.01 302.34,402.17 			"/>
			<polygon class="st3" points="294.23,406.51 297.79,404.24 298.51,404.64 295.03,406.9 			"/>
			<polygon class="st3" points="286.92,411.13 290.39,408.97 291.11,409.36 287.63,411.63 			"/>
			<polygon class="st3" points="279.51,415.86 282.99,413.6 283.71,414.09 280.23,416.35 			"/>
			<polygon class="st3" points="272.11,420.59 275.68,418.32 276.39,418.81 272.92,420.98 			"/>
			<polygon class="st3" points="264.8,425.21 268.28,423.05 268.99,423.54 265.52,425.71 			"/>
			<polygon class="st3" points="257.4,429.94 260.88,427.68 261.59,428.17 258.12,430.43 			"/>
			<polygon class="st3" points="250,434.67 253.57,432.4 254.28,432.89 250.72,435.06 			"/>
		</g>
		<g>
			<polygon class="st3" points="494.22,280.08 497.7,277.81 498.41,278.31 494.93,280.47 			"/>
			<polygon class="st3" points="486.82,284.71 490.39,282.54 491.1,282.93 487.53,285.2 			"/>
			<polygon class="st3" points="479.51,289.43 482.99,287.17 483.7,287.66 480.22,289.93 			"/>
			<polygon class="st3" points="472.11,294.16 475.58,291.9 476.3,292.39 472.82,294.65 			"/>
			<polygon class="st3" points="464.71,298.79 468.27,296.62 468.99,297.11 465.42,299.28 			"/>
			<polygon class="st3" points="457.4,303.51 460.87,301.35 461.59,301.74 458.11,304.01 			"/>
			<polygon class="st3" points="450,308.24 453.47,305.98 454.19,306.47 450.71,308.73 			"/>
			<polygon class="st3" points="442.59,312.97 446.16,310.7 446.87,311.19 443.31,313.36 			"/>
			<polygon class="st3" points="435.28,317.59 438.76,315.43 439.47,315.82 436,318.09 			"/>
			<polygon class="st3" points="427.88,322.32 431.36,320.15 432.07,320.55 428.6,322.81 			"/>
		</g>
	</g>
</g>
<g id="sidewalk_01">
	<g>
		<polygon class="st6" points="484.5,265.8 397.21,321.43 397.12,321.34 277.82,245.32 278.18,245.12 365.11,189.69 365.65,189.99 
			278.8,245.32 397.21,320.84 484.06,265.51 		"/>
	</g>
	<polygon class="st7" points="282.28,243.06 397.21,316.31 482,262.36 367.07,189.1 	"/>
	<polygon class="st5" points="211.3,199.63 247.86,222.97 332.66,168.91 211.3,197.86 	"/>
</g>
<g id="sidewalk_02">
	<g>
		<path class="st6" d="M259.63,257.04l-0.09-0.1L99.32,359.15l-0.36,0.2l119.3,76.01l0.09,0.1l160.23-102.21l0.36-0.2L259.63,257.04
			z M218.35,434.86L99.94,359.44l159.6-101.81l118.41,75.52L218.35,434.86z"/>
	</g>
	<g>
		<polygon class="st6" points="186.43,303.81 180.1,302.92 180.1,302.63 186.16,303.51 184.82,299.58 184.91,299.48 185,299.48 
			191.06,300.36 189.64,296.52 189.91,296.33 195.97,297.21 194.63,293.37 194.72,293.27 194.81,293.27 200.87,294.16 
			199.54,290.42 199.8,290.22 201.23,294.36 201.05,294.46 194.99,293.57 196.41,297.51 196.24,297.61 190.08,296.72 191.42,300.66 
			191.24,300.76 185.18,299.87 186.61,303.71 		"/>
	</g>
	<polygon class="st7" points="103.42,357.18 218.35,430.43 374.47,330.89 259.54,257.63 	"/>
</g>
<g id="sidewalk_10">
	<polygon class="st8" points="397.21,316.31 397.21,318.18 459.27,278.6 459.27,276.83 	"/>
	<polygon class="st1" points="470.95,271.61 459.62,278.9 443.75,268.76 455.08,261.57 	"/>
	<polygon class="st5" points="470.5,271.51 470.5,269.64 462.66,266.39 	"/>
	<polygon class="st8" points="482,262.36 482,264.13 470.5,271.51 470.5,269.64 	"/>
	<polygon class="st1" points="457.84,277.72 458.55,279.09 459.27,278.6 459.27,276.83 	"/>
	<polygon class="st8" points="218.35,430.43 218.35,432.3 374.47,332.76 374.47,330.89 	"/>
	<polygon class="st8" points="332.66,167.04 332.66,168.91 247.86,222.97 247.86,221.1 	"/>
	<polygon class="st8" points="40.56,353.34 40.56,355.21 225.04,237.54 225.04,235.67 	"/>
</g>
<g id="sidewalk03">
	<g>
		<polygon class="st6" points="229.58,237.94 229.23,238.13 43.14,356.78 42.61,356.49 228.6,237.94 189.99,213.32 190.44,212.93 		
			"/>
	</g>
	<polygon class="st7" points="4,330 40.56,353.34 225.04,235.67 188.48,212.34 	"/>
</g>
<g id="sidewalk_04">
	<g>
		<polygon class="st6" points="335.15,170.59 247.86,226.22 247.77,226.12 208.81,201.31 209.25,201.01 247.86,225.63 
			334.71,170.19 334.71,170.19 		"/>
	</g>
	<polygon class="st7" points="211.3,197.86 247.86,221.1 332.66,167.04 296.1,143.81 	"/>
</g>
</svg>
